# Made in Blockbench 5.1.5
mtllib materials.mtl

o post_left
v 0.21250000000000002 0.875 0.525
v 0.21250000000000002 0.875 0.4375
v 0.21250000000000002 0 0.525
v 0.21250000000000002 0 0.4375
v 0.125 0.875 0.4375
v 0.125 0.875 0.525
v 0.125 0 0.4375
v 0.125 0 0.525
vt 0 1
vt 0.0875 1
vt 0.0875 0.125
vt 0 0.125
vt 0 1
vt 0.08750000000000002 1
vt 0.08750000000000002 0.125
vt 0 0.125
vt 0 1
vt 0.0875 1
vt 0.0875 0.125
vt 0 0.125
vt 0 1
vt 0.08750000000000002 1
vt 0.08750000000000002 0.125
vt 0 0.125
vt 0 1
vt 0.0875 1
vt 0.0875 0.9125
vt 0 0.9125
vt 0 1
vt 0.0875 1
vt 0.0875 0.9125
vt 0 0.9125
vn 0 0 -1
vn 1 0 0
vn 0 0 1
vn -1 0 0
vn 0 1 0
vn 0 -1 0
usemtl m_b38f1278-1a2b-a078-6cdf-7f9eb6342fd0
f 4/4/1 7/3/1 5/2/1 2/1/1
f 3/8/2 4/7/2 2/6/2 1/5/2
f 8/12/3 3/11/3 1/10/3 6/9/3
f 7/16/4 8/15/4 6/14/4 5/13/4
f 6/20/5 1/19/5 2/18/5 5/17/5
f 7/24/6 4/23/6 3/22/6 8/21/6
o post_right
v 0.875 0.875 0.525
v 0.875 0.875 0.4375
v 0.875 0 0.525
v 0.875 0 0.4375
v 0.7875000000000001 0.875 0.4375
v 0.7875000000000001 0.875 0.525
v 0.7875000000000001 0 0.4375
v 0.7875000000000001 0 0.525
vt 0 1
vt 0.08750000000000002 1
vt 0.08750000000000002 0.125
vt 0 0.125
vt 0 1
vt 0.08750000000000002 1
vt 0.08750000000000002 0.125
vt 0 0.125
vt 0 1
vt 0.08750000000000002 1
vt 0.08750000000000002 0.125
vt 0 0.125
vt 0 1
vt 0.08750000000000002 1
vt 0.08750000000000002 0.125
vt 0 0.125
vt 0 1
vt 0.08750000000000002 1
vt 0.08750000000000002 0.9125
vt 0 0.9125
vt 0 1
vt 0.08750000000000002 1
vt 0.08750000000000002 0.9125
vt 0 0.9125
vn 0 0 -1
vn 1 0 0
vn 0 0 1
vn -1 0 0
vn 0 1 0
vn 0 -1 0
usemtl m_b38f1278-1a2b-a078-6cdf-7f9eb6342fd0
f 12/28/7 15/27/7 13/26/7 10/25/7
f 11/32/8 12/31/8 10/30/8 9/29/8
f 16/36/9 11/35/9 9/34/9 14/33/9
f 15/40/10 16/39/10 14/38/10 13/37/10
f 14/44/11 9/43/11 10/42/11 13/41/11
f 15/48/12 12/47/12 11/46/12 16/45/12
o beam
v 0.9375 0.9125000000000001 0.54375
v 0.9375 0.9125000000000001 0.41874999999999996
v 0.9375 0.8125 0.54375
v 0.9375 0.8125 0.41874999999999996
v 0.0625 0.9125000000000001 0.41874999999999996
v 0.0625 0.9125000000000001 0.54375
v 0.0625 0.8125 0.41874999999999996
v 0.0625 0.8125 0.54375
vt 0 1
vt 0.875 1
vt 0.875 0.9
vt 0 0.9
vt 0 1
vt 0.12499999999999994 1
vt 0.12499999999999994 0.9
vt 0 0.9
vt 0 1
vt 0.875 1
vt 0.875 0.9
vt 0 0.9
vt 0 1
vt 0.12499999999999994 1
vt 0.12499999999999994 0.9
vt 0 0.9
vt 0 1
vt 0.875 1
vt 0.875 0.875
vt 0 0.875
vt 0 1
vt 0.875 1
vt 0.875 0.875
vt 0 0.875
vn 0 0 -1
vn 1 0 0
vn 0 0 1
vn -1 0 0
vn 0 1 0
vn 0 -1 0
usemtl m_b38f1278-1a2b-a078-6cdf-7f9eb6342fd0
f 20/52/13 23/51/13 21/50/13 18/49/13
f 19/56/14 20/55/14 18/54/14 17/53/14
f 24/60/15 19/59/15 17/58/15 22/57/15
f 23/64/16 24/63/16 22/62/16 21/61/16
f 22/68/17 17/67/17 18/66/17 21/65/17
f 23/72/18 20/71/18 19/70/18 24/69/18
o string_accent
v 0.53125 0.825 0.50625
v 0.53125 0.825 0.45624999999999993
v 0.53125 0.6875 0.50625
v 0.53125 0.6875 0.45624999999999993
v 0.46875 0.825 0.45624999999999993
v 0.46875 0.825 0.50625
v 0.46875 0.6875 0.45624999999999993
v 0.46875 0.6875 0.50625
vt 0 1
vt 0.0625 1
vt 0.0625 0.8625
vt 0 0.8625
vt 0 1
vt 0.04999999999999999 1
vt 0.04999999999999999 0.8625
vt 0 0.8625
vt 0 1
vt 0.0625 1
vt 0.0625 0.8625
vt 0 0.8625
vt 0 1
vt 0.04999999999999999 1
vt 0.04999999999999999 0.8625
vt 0 0.8625
vt 0 1
vt 0.0625 1
vt 0.0625 0.95
vt 0 0.95
vt 0 1
vt 0.0625 1
vt 0.0625 0.95
vt 0 0.95
vn 0 0 -1
vn 1 0 0
vn 0 0 1
vn -1 0 0
vn 0 1 0
vn 0 -1 0
usemtl m_b38f1278-1a2b-a078-6cdf-7f9eb6342fd0
f 28/76/19 31/75/19 29/74/19 26/73/19
f 27/80/20 28/79/20 26/78/20 25/77/20
f 32/84/21 27/83/21 25/82/21 30/81/21
f 31/88/22 32/87/22 30/86/22 29/85/22
f 30/92/23 25/91/23 26/90/23 29/89/23
f 31/96/24 28/95/24 27/94/24 32/93/24
o bell_skirt
v 0.5 0.6875 0.48125
v 0.5 0.3125 0.48125
v 0.703125 0.6875 0.48125
v 0.703125 0.3125 0.48125
v 0.6876630300413551 0.6875 0.5589825721991588
v 0.6876630300413551 0.3125 0.5589825721991588
v 0.6436310649285175 0.6875 0.6248810649285175
v 0.6436310649285175 0.3125 0.6248810649285175
v 0.5777325721991589 0.6875 0.6689130300413552
v 0.5777325721991589 0.3125 0.6689130300413552
v 0.5 0.6875 0.684375
v 0.5 0.3125 0.684375
v 0.42226742780084114 0.6875 0.6689130300413552
v 0.42226742780084114 0.3125 0.6689130300413552
v 0.35636893507148254 0.6875 0.6248810649285175
v 0.35636893507148254 0.3125 0.6248810649285175
v 0.3123369699586449 0.6875 0.5589825721991589
v 0.3123369699586449 0.3125 0.5589825721991589
v 0.296875 0.6875 0.48125
v 0.296875 0.3125 0.48125
v 0.31233696995864485 0.6875 0.40351742780084116
v 0.31233696995864485 0.3125 0.40351742780084116
v 0.3563689350714825 0.6875 0.33761893507148255
v 0.3563689350714825 0.3125 0.33761893507148255
v 0.42226742780084103 0.6875 0.29358696995864497
v 0.42226742780084103 0.3125 0.29358696995864497
v 0.49999999999999994 0.6875 0.278125
v 0.49999999999999994 0.3125 0.278125
v 0.5777325721991589 0.6875 0.2935869699586449
v 0.5777325721991589 0.3125 0.2935869699586449
v 0.6436310649285174 0.6875 0.33761893507148255
v 0.6436310649285174 0.3125 0.33761893507148255
v 0.6876630300413551 0.6875 0.40351742780084104
v 0.6876630300413551 0.3125 0.40351742780084104
vt 0 1
vt 0 1
vt 0 1
vt 0 1
vt 0 1
vt 0 1
vt 0 1
vt 0 1
vt 0 1
vt 0 1
vt 0 1
vt 0 1
vt 0 1
vt 0 1
vt 0 1
vt 0 1
vt 0 1
vt 0 1
vt 0 1
vt 0 1
vt 0 1
vt 0 1
vt 0 1
vt 0 1
vt 0 1
vt 0 1
vt 0 1
vt 0 1
vt 0 1
vt 0 1
vt 0 1
vt 0 1
vt 0 1
vt 0 1
vt 0 1
vt 0 1
vt 0 1
vt 0 1
vt 0 1
vt 0 1
vt 0 1
vt 0 1
vt 0 1
vt 0 1
vt 0 1
vt 0 1
vt 0 1
vt 0 1
vt 0 1
vt 0 1
vt 0 1
vt 0 1
vt 0 1
vt 0 1
vt 0 1
vt 0 1
vt 0 1
vt 0 1
vt 0 1
vt 0 1
vt 0 1
vt 0 1
vt 0 1
vt 0 1
vt 0 1
vt 0 1
vt 0 1
vt 0 1
vt 0 1
vt 0 1
vt 0 1
vt 0 1
vt 0 1
vt 0 1
vt 0 1
vt 0 1
vt 0 1
vt 0 1
vt 0 1
vt 0 1
vt 0 1
vt 0 1
vt 0 1
vt 0 1
vt 0 1
vt 0 1
vt 0 1
vt 0 1
vt 0 1
vt 0 1
vt 0 1
vt 0 1
vt 0 1
vt 0 1
vt 0 1
vt 0 1
vt 0 1
vt 0 1
vt 0 1
vt 0 1
vt 0 1
vt 0 1
vt 0 1
vt 0 1
vt 0 1
vt 0 1
vt 0 1
vt 0 1
vt 0 1
vt 0 1
vt 0 1
vt 0 1
vt 0 1
vt 0 1
vt 0 1
vt 0 1
vt 0 1
vt 0 1
vt 0 1
vt 0 1
vt 0 1
vt 0 1
vt 0 1
vt 0 1
vt 0 1
vt 0 1
vt 0 1
vt 0 1
vt 0 1
vt 0 1
vt 0 1
vt 0 1
vt 0 1
vt 0 1
vt 0 1
vt 0 1
vt 0 1
vt 0 1
vt 0 1
vt 0 1
vt 0 1
vt 0 1
vt 0 1
vt 0 1
vt 0 1
vt 0 1
vt 0 1
vt 0 1
vt 0 1
vt 0 1
vt 0 1
vt 0 1
vt 0 1
vt 0 1
vt 0 1
vt 0 1
vt 0 1
vt 0 1
vt 0 1
vt 0 1
vn -0.9807852804032304 0 -0.19509032201612828
vn 0 -1 0
vn 0 1 0
vn -0.8314696123025453 0 -0.5555702330196021
vn 0 -1 0
vn 0 1 0
vn -0.5555702330196022 0 -0.8314696123025452
vn 0 -1 0
vn 0 1 0
vn -0.19509032201612828 0 -0.9807852804032304
vn 0 -1 0
vn 0 1 0
vn 0.19509032201612822 0 -0.9807852804032304
vn 0 -1 0
vn 0 1 0
vn 0.5555702330196021 0 -0.8314696123025453
vn 0 -1 0
vn 0 1 0
vn 0.8314696123025452 0 -0.5555702330196023
vn 0 -1 0
vn 0 1 0
vn 0.9807852804032304 0 -0.19509032201612828
vn 0 -1 0
vn 0 1 0
vn 0.9807852804032305 0 0.1950903220161279
vn 0 -1 0
vn 0 1 0
vn 0.8314696123025452 0 0.5555702330196022
vn 0 -1 0
vn 0 1 0
vn 0.5555702330196024 0 0.8314696123025452
vn 0 -1 0
vn 0 1 0
vn 0.19509032201612875 0 0.9807852804032303
vn 0 -1 0
vn 0 1 0
vn -0.1950903220161284 0 0.9807852804032304
vn 0 -1 0
vn 0 1 0
vn -0.5555702330196023 0 0.8314696123025452
vn 0 -1 0
vn 0 1 0
vn -0.831469612302545 0 0.5555702330196026
vn 0 -1 0
vn 0 1 0
vn -0.9807852804032305 0 0.1950903220161287
vn 0 -1 0
vn 0 1 0
usemtl none
f 36/97/25 38/98/25 37/99/25 35/100/25
f 35/101/26 37/102/26 33/103/26
f 38/104/27 36/105/27 34/106/27
f 38/107/28 40/108/28 39/109/28 37/110/28
f 37/111/29 39/112/29 33/113/29
f 40/114/30 38/115/30 34/116/30
f 40/117/31 42/118/31 41/119/31 39/120/31
f 39/121/32 41/122/32 33/123/32
f 42/124/33 40/125/33 34/126/33
f 42/127/34 44/128/34 43/129/34 41/130/34
f 41/131/35 43/132/35 33/133/35
f 44/134/36 42/135/36 34/136/36
f 44/137/37 46/138/37 45/139/37 43/140/37
f 43/141/38 45/142/38 33/143/38
f 46/144/39 44/145/39 34/146/39
f 46/147/40 48/148/40 47/149/40 45/150/40
f 45/151/41 47/152/41 33/153/41
f 48/154/42 46/155/42 34/156/42
f 48/157/43 50/158/43 49/159/43 47/160/43
f 47/161/44 49/162/44 33/163/44
f 50/164/45 48/165/45 34/166/45
f 50/167/46 52/168/46 51/169/46 49/170/46
f 49/171/47 51/172/47 33/173/47
f 52/174/48 50/175/48 34/176/48
f 52/177/49 54/178/49 53/179/49 51/180/49
f 51/181/50 53/182/50 33/183/50
f 54/184/51 52/185/51 34/186/51
f 54/187/52 56/188/52 55/189/52 53/190/52
f 53/191/53 55/192/53 33/193/53
f 56/194/54 54/195/54 34/196/54
f 56/197/55 58/198/55 57/199/55 55/200/55
f 55/201/56 57/202/56 33/203/56
f 58/204/57 56/205/57 34/206/57
f 58/207/58 60/208/58 59/209/58 57/210/58
f 57/211/59 59/212/59 33/213/59
f 60/214/60 58/215/60 34/216/60
f 60/217/61 62/218/61 61/219/61 59/220/61
f 59/221/62 61/222/62 33/223/62
f 62/224/63 60/225/63 34/226/63
f 62/227/64 64/228/64 63/229/64 61/230/64
f 61/231/65 63/232/65 33/233/65
f 64/234/66 62/235/66 34/236/66
f 64/237/67 66/238/67 65/239/67 63/240/67
f 63/241/68 65/242/68 33/243/68
f 66/244/69 64/245/69 34/246/69
f 66/247/70 36/248/70 35/249/70 65/250/70
f 65/251/71 35/252/71 33/253/71
f 36/254/72 66/255/72 34/256/72
o bell_dome
v 0.5 0.484375 0.48125
v 0.5 0.890625 0.48125
v 0.5196113561428072 0.8705093012926789 0.5671729653562159
v 0.5353384426840323 0.8141463660025553 0.636077833647617
v 0.544066317254127 0.7326995647098764 0.6743171506463395
v 0.544066317254127 0.6423004352901236 0.6743171506463395
v 0.5353384426840323 0.5608536339974448 0.6360778336476172
v 0.5196113561428072 0.5044906987073211 0.5671729653562159
v 0.5549497988268395 0.8705093012926789 0.5501548682914013
v 0.5990161160809665 0.8141463660025553 0.6054122823549382
v 0.6234710771922862 0.7326995647098764 0.636077833647617
v 0.6234710771922862 0.6423004352901236 0.636077833647617
v 0.5990161160809665 0.5608536339974448 0.6054122823549382
v 0.5549497988268395 0.5044906987073211 0.5501548682914013
v 0.5794047599381593 0.8705093012926789 0.5194893169987224
v 0.6430824333350935 0.8141463660025553 0.5501548682914013
v 0.6784208760191257 0.7326995647098764 0.5671729653562159
v 0.6784208760191257 0.6423004352901236 0.5671729653562159
v 0.6430824333350935 0.5608536339974448 0.5501548682914013
v 0.5794047599381593 0.5044906987073211 0.5194893169987224
v 0.588132634508254 0.8705093012926789 0.48125
v 0.6588095198763185 0.8141463660025553 0.48125
v 0.6980322321619329 0.7326995647098764 0.48125
v 0.6980322321619329 0.6423004352901236 0.48125
v 0.6588095198763186 0.5608536339974448 0.48125
v 0.588132634508254 0.5044906987073211 0.48125
v 0.5794047599381593 0.8705093012926789 0.44301068300127766
v 0.6430824333350935 0.8141463660025553 0.41234513170859877
v 0.6784208760191257 0.7326995647098764 0.3953270346437842
v 0.6784208760191257 0.6423004352901236 0.3953270346437842
v 0.6430824333350935 0.5608536339974448 0.41234513170859877
v 0.5794047599381593 0.5044906987073211 0.44301068300127766
v 0.5549497988268395 0.8705093012926789 0.41234513170859877
v 0.5990161160809665 0.8141463660025553 0.35708771764506186
v 0.6234710771922862 0.7326995647098764 0.32642216635238297
v 0.6234710771922862 0.6423004352901236 0.32642216635238297
v 0.5990161160809665 0.5608536339974448 0.3570877176450618
v 0.5549497988268395 0.5044906987073211 0.41234513170859877
v 0.5196113561428072 0.8705093012926789 0.3953270346437842
v 0.5353384426840323 0.8141463660025553 0.32642216635238297
v 0.544066317254127 0.7326995647098764 0.28818284935366056
v 0.544066317254127 0.6423004352901236 0.28818284935366056
v 0.5353384426840323 0.5608536339974448 0.3264221663523829
v 0.5196113561428072 0.5044906987073211 0.39532703464378416
v 0.4803886438571928 0.8705093012926789 0.3953270346437842
v 0.46466155731596775 0.8141463660025553 0.32642216635238297
v 0.45593368274587304 0.7326995647098764 0.28818284935366056
v 0.45593368274587304 0.6423004352901236 0.28818284935366056
v 0.46466155731596775 0.5608536339974448 0.3264221663523829
v 0.4803886438571928 0.5044906987073211 0.39532703464378416
v 0.4450502011731606 0.8705093012926789 0.4123451317085987
v 0.4009838839190336 0.8141463660025553 0.35708771764506175
v 0.37652892280771383 0.7326995647098764 0.32642216635238286
v 0.37652892280771383 0.6423004352901236 0.32642216635238286
v 0.4009838839190336 0.5608536339974448 0.35708771764506175
v 0.4450502011731606 0.5044906987073211 0.4123451317085987
v 0.42059524006184074 0.8705093012926789 0.4430106830012776
v 0.3569175666649066 0.8141463660025553 0.4123451317085987
v 0.3215791239808743 0.7326995647098764 0.39532703464378416
v 0.3215791239808743 0.6423004352901236 0.39532703464378416
v 0.35691756666490654 0.5608536339974448 0.4123451317085987
v 0.42059524006184074 0.5044906987073211 0.4430106830012776
v 0.411867365491746 0.8705093012926789 0.48125
v 0.34119048012368147 0.8141463660025553 0.48124999999999996
v 0.3019677678380671 0.7326995647098764 0.48124999999999996
v 0.3019677678380671 0.6423004352901236 0.48124999999999996
v 0.3411904801236814 0.5608536339974448 0.48124999999999996
v 0.41186736549174596 0.5044906987073211 0.48125
v 0.4205952400618407 0.8705093012926789 0.5194893169987224
v 0.3569175666649065 0.8141463660025553 0.5501548682914013
v 0.32157912398087424 0.7326995647098764 0.5671729653562158
v 0.32157912398087424 0.6423004352901236 0.5671729653562158
v 0.3569175666649065 0.5608536339974448 0.5501548682914013
v 0.4205952400618407 0.5044906987073211 0.5194893169987224
v 0.4450502011731605 0.8705093012926789 0.5501548682914013
v 0.4009838839190335 0.8141463660025553 0.6054122823549382
v 0.37652892280771366 0.7326995647098764 0.636077833647617
v 0.37652892280771366 0.6423004352901236 0.636077833647617
v 0.4009838839190335 0.5608536339974448 0.6054122823549382
v 0.4450502011731605 0.5044906987073211 0.5501548682914013
v 0.4803886438571928 0.8705093012926789 0.5671729653562159
v 0.4646615573159677 0.8141463660025553 0.636077833647617
v 0.455933682745873 0.7326995647098764 0.6743171506463395
v 0.455933682745873 0.6423004352901236 0.6743171506463395
v 0.4646615573159677 0.5608536339974448 0.636077833647617
v 0.4803886438571928 0.5044906987073211 0.5671729653562159
vt 0 1
vt 0 1
vt 0 1
vt 0 1
vt 0 1
vt 0 1
vt 0 1
vt 0 1
vt 0 1
vt 0 1
vt 0 1
vt 0 1
vt 0 1
vt 0 1
vt 0 1
vt 0 1
vt 0 1
vt 0 1
vt 0 1
vt 0 1
vt 0 1
vt 0 1
vt 0 1
vt 0 1
vt 0 1
vt 0 1
vt 0 1
vt 0 1
vt 0 1
vt 0 1
vt 0 1
vt 0 1
vt 0 1
vt 0 1
vt 0 1
vt 0 1
vt 0 1
vt 0 1
vt 0 1
vt 0 1
vt 0 1
vt 0 1
vt 0 1
vt 0 1
vt 0 1
vt 0 1
vt 0 1
vt 0 1
vt 0 1
vt 0 1
vt 0 1
vt 0 1
vt 0 1
vt 0 1
vt 0 1
vt 0 1
vt 0 1
vt 0 1
vt 0 1
vt 0 1
vt 0 1
vt 0 1
vt 0 1
vt 0 1
vt 0 1
vt 0 1
vt 0 1
vt 0 1
vt 0 1
vt 0 1
vt 0 1
vt 0 1
vt 0 1
vt 0 1
vt 0 1
vt 0 1
vt 0 1
vt 0 1
vt 0 1
vt 0 1
vt 0 1
vt 0 1
vt 0 1
vt 0 1
vt 0 1
vt 0 1
vt 0 1
vt 0 1
vt 0 1
vt 0 1
vt 0 1
vt 0 1
vt 0 1
vt 0 1
vt 0 1
vt 0 1
vt 0 1
vt 0 1
vt 0 1
vt 0 1
vt 0 1
vt 0 1
vt 0 1
vt 0 1
vt 0 1
vt 0 1
vt 0 1
vt 0 1
vt 0 1
vt 0 1
vt 0 1
vt 0 1
vt 0 1
vt 0 1
vt 0 1
vt 0 1
vt 0 1
vt 0 1
vt 0 1
vt 0 1
vt 0 1
vt 0 1
vt 0 1
vt 0 1
vt 0 1
vt 0 1
vt 0 1
vt 0 1
vt 0 1
vt 0 1
vt 0 1
vt 0 1
vt 0 1
vt 0 1
vt 0 1
vt 0 1
vt 0 1
vt 0 1
vt 0 1
vt 0 1
vt 0 1
vt 0 1
vt 0 1
vt 0 1
vt 0 1
vt 0 1
vt 0 1
vt 0 1
vt 0 1
vt 0 1
vt 0 1
vt 0 1
vt 0 1
vt 0 1
vt 0 1
vt 0 1
vt 0 1
vt 0 1
vt 0 1
vt 0 1
vt 0 1
vt 0 1
vt 0 1
vt 0 1
vt 0 1
vt 0 1
vt 0 1
vt 0 1
vt 0 1
vt 0 1
vt 0 1
vt 0 1
vt 0 1
vt 0 1
vt 0 1
vt 0 1
vt 0 1
vt 0 1
vt 0 1
vt 0 1
vt 0 1
vt 0 1
vt 0 1
vt 0 1
vt 0 1
vt 0 1
vt 0 1
vt 0 1
vt 0 1
vt 0 1
vt 0 1
vt 0 1
vt 0 1
vt 0 1
vt 0 1
vt 0 1
vt 0 1
vt 0 1
vt 0 1
vt 0 1
vt 0 1
vt 0 1
vt 0 1
vt 0 1
vt 0 1
vt 0 1
vt 0 1
vt 0 1
vt 0 1
vt 0 1
vt 0 1
vt 0 1
vt 0 1
vt 0 1
vt 0 1
vt 0 1
vt 0 1
vt 0 1
vt 0 1
vt 0 1
vt 0 1
vt 0 1
vt 0 1
vt 0 1
vt 0 1
vt 0 1
vt 0 1
vt 0 1
vt 0 1
vt 0 1
vt 0 1
vt 0 1
vt 0 1
vt 0 1
vt 0 1
vt 0 1
vt 0 1
vt 0 1
vt 0 1
vt 0 1
vt 0 1
vt 0 1
vt 0 1
vt 0 1
vt 0 1
vt 0 1
vt 0 1
vt 0 1
vt 0 1
vt 0 1
vt 0 1
vt 0 1
vt 0 1
vt 0 1
vt 0 1
vt 0 1
vt 0 1
vt 0 1
vt 0 1
vt 0 1
vt 0 1
vt 0 1
vt 0 1
vt 0 1
vt 0 1
vt 0 1
vt 0 1
vt 0 1
vt 0 1
vt 0 1
vt 0 1
vt 0 1
vt 0 1
vt 0 1
vt 0 1
vt 0 1
vt 0 1
vt 0 1
vt 0 1
vt 0 1
vt 0 1
vt 0 1
vt 0 1
vt 0 1
vt 0 1
vt 0 1
vt 0 1
vt 0 1
vt 0 1
vt 0 1
vt 0 1
vt 0 1
vt 0 1
vt 0 1
vt 0 1
vt 0 1
vt 0 1
vt 0 1
vt 0 1
vt 0 1
vt 0 1
vt 0 1
vt 0 1
vt 0 1
vt 0 1
vt 0 1
vt 0 1
vt 0 1
vt 0 1
vt 0 1
vt 0 1
vt 0 1
vt 0 1
vt 0 1
vt 0 1
vt 0 1
vt 0 1
vt 0 1
vt 0 1
vt 0 1
vt 0 1
vt 0 1
vt 0 1
vt 0 1
vt 0 1
vt 0 1
vt 0 1
vt 0 1
vt 0 1
vt 0 1
vt 0 1
vt 0 1
vt 0 1
vt 0 1
vt 0 1
vt 0 1
vt 0 1
vt 0 1
vt 0 1
vt 0 1
vt 0 1
vt 0 1
vt 0 1
vt 0 1
vt 0 1
vt 0 1
vt 0 1
vt 0 1
vt 0 1
vt 0 1
vt 0 1
vt 0 1
vt 0 1
vt 0 1
vt 0 1
vt 0 1
vt 0 1
vt 0 1
vt 0 1
vt 0 1
vt 0 1
vt 0 1
vt 0 1
vt 0 1
vn 0.09890365239995802 0.9736729177894888 0.2053755504076656
vn 0.2747113609338255 0.7740331320557663 0.5704440188605944
vn 0.3927505505426795 0.42499079367779796 0.8155549217174387
vn 0.43388373911755823 0 0.9009688679024191
vn 0.3927505505426795 -0.4249907936777977 0.8155549217174389
vn 0.2747113609338254 -0.7740331320557665 0.5704440188605944
vn 0.0989036523999581 -0.9736729177894888 0.2053755504076659
vn 0.178218223468409 0.9736729177894888 0.14212429062995377
vn 0.4950127677209629 0.7740331320557663 0.3947595094144949
vn 0.7077120377809794 0.42499079367779796 0.5643815171220699
vn 0.7818314824680298 0 0.6234898018587337
vn 0.7077120377809794 -0.42499079367779763 0.5643815171220699
vn 0.49501276772096303 -0.7740331320557663 0.3947595094144947
vn 0.1782182234684092 -0.9736729177894888 0.14212429062995388
vn 0.22223448967586773 0.9736729177894891 0.050723572052941965
vn 0.6172708249277731 0.7740331320557663 0.14088803772118882
vn 0.8825024764182069 0.42499079367779785 0.20142543137560284
vn 0.9749279121818236 0 0.22252093395631442
vn 0.8825024764182071 -0.4249907936777976 0.20142543137560284
vn 0.617270824927773 -0.7740331320557664 0.14088803772118896
vn 0.22223448967586795 -0.9736729177894888 0.05072357205294201
vn 0.22223448967586773 0.9736729177894891 -0.050723572052941965
vn 0.6172708249277732 0.7740331320557664 -0.14088803772118894
vn 0.882502476418207 0.42499079367779796 -0.2014254313756029
vn 0.9749279121818237 0 -0.22252093395631437
vn 0.882502476418207 -0.42499079367779763 -0.20142543137560281
vn 0.6172708249277731 -0.7740331320557662 -0.140888037721189
vn 0.22223448967586792 -0.9736729177894888 -0.050723572052942
vn 0.17821822346840901 0.973672917789489 -0.1421242906299537
vn 0.49501276772096314 0.7740331320557664 -0.3947595094144947
vn 0.7077120377809796 0.4249907936777979 -0.5643815171220695
vn 0.7818314824680299 0 -0.6234898018587334
vn 0.7077120377809797 -0.4249907936777977 -0.5643815171220696
vn 0.4950127677209632 -0.7740331320557665 -0.39475950941449467
vn 0.17821822346840926 -0.9736729177894888 -0.14212429062995385
vn 0.098903652399958 0.9736729177894888 -0.2053755504076656
vn 0.27471136093382553 0.7740331320557664 -0.5704440188605945
vn 0.3927505505426795 0.424990793677798 -0.8155549217174387
vn 0.43388373911755823 0 -0.9009688679024191
vn 0.39275055054267954 -0.42499079367779774 -0.8155549217174388
vn 0.2747113609338254 -0.7740331320557665 -0.5704440188605944
vn 0.0989036523999581 -0.9736729177894888 -0.20537555040766586
vn 0 0.9736729177894888 -0.22794966366130773
vn 0 0.7740331320557663 -0.6331450943345772
vn 0 0.42499079367779796 -0.905197671941944
vn 0 0 -1
vn 0 -0.4249907936777977 -0.9051976719419442
vn 0 -0.7740331320557664 -0.633145094334577
vn 0 -0.9736729177894888 -0.22794966366130798
vn -0.09890365239995794 0.9736729177894888 -0.20537555040766567
vn -0.27471136093382537 0.7740331320557664 -0.5704440188605946
vn -0.39275055054267927 0.42499079367779796 -0.8155549217174388
vn -0.43388373911755795 0 -0.9009688679024193
vn -0.3927505505426792 -0.4249907936777978 -0.8155549217174389
vn -0.2747113609338254 -0.7740331320557664 -0.5704440188605944
vn -0.09890365239995806 -0.973672917789489 -0.20537555040766595
vn -0.17821822346840896 0.9736729177894891 -0.14212429062995385
vn -0.49501276772096303 0.7740331320557664 -0.394759509414495
vn -0.7077120377809794 0.42499079367779785 -0.56438151712207
vn -0.7818314824680297 0 -0.6234898018587339
vn -0.7077120377809794 -0.4249907936777976 -0.56438151712207
vn -0.4950127677209628 -0.7740331320557664 -0.39475950941449495
vn -0.17821822346840918 -0.9736729177894888 -0.14212429062995396
vn -0.22223448967586773 0.9736729177894891 -0.050723572052941965
vn -0.6172708249277732 0.7740331320557664 -0.14088803772118913
vn -0.8825024764182068 0.4249907936777979 -0.20142543137560318
vn -0.9749279121818235 0 -0.22252093395631467
vn -0.882502476418207 -0.4249907936777977 -0.20142543137560315
vn -0.617270824927773 -0.7740331320557664 -0.14088803772118907
vn -0.22223448967586792 -0.9736729177894888 -0.05072357205294208
vn -0.22223448967586773 0.9736729177894891 0.05072357205294188
vn -0.6172708249277732 0.7740331320557664 0.1408880377211887
vn -0.8825024764182069 0.42499079367779785 0.20142543137560262
vn -0.9749279121818237 0 0.22252093395631403
vn -0.882502476418207 -0.4249907936777977 0.20142543137560281
vn -0.617270824927773 -0.7740331320557666 0.14088803772118877
vn -0.22223448967586792 -0.9736729177894888 0.05072357205294192
vn -0.17821822346840904 0.9736729177894888 0.14212429062995366
vn -0.4950127677209631 0.7740331320557663 0.39475950941449467
vn -0.7077120377809796 0.4249907936777979 0.5643815171220695
vn -0.7818314824680299 0 0.6234898018587334
vn -0.7077120377809798 -0.4249907936777979 0.5643815171220694
vn -0.49501276772096314 -0.7740331320557664 0.39475950941449495
vn -0.1782182234684092 -0.9736729177894888 0.14212429062995388
vn -0.09890365239995794 0.9736729177894888 0.20537555040766564
vn -0.27471136093382553 0.7740331320557664 0.5704440188605946
vn -0.39275055054267954 0.424990793677798 0.8155549217174388
vn -0.43388373911755823 0 0.9009688679024191
vn -0.3927505505426794 -0.4249907936777976 0.8155549217174389
vn -0.2747113609338254 -0.7740331320557665 0.5704440188605944
vn -0.09890365239995812 -0.9736729177894888 0.20537555040766586
vn -8.065319501921717e-17 0.9736729177894888 0.22794966366130773
vn -2.067872513820933e-16 0.7740331320557663 0.6331450943345773
vn -2.7344684191831326e-16 0.424990793677798 0.9051976719419441
vn -3.1492960321104973e-16 0 1
vn -3.409826345730912e-16 -0.42499079367779785 0.9051976719419443
vn -1.2420591718291834e-16 -0.7740331320557663 0.6331450943345772
vn -8.065319501921727e-17 -0.973672917789489 0.22794966366130806
usemtl none
f 69/257/73 75/258/73 68/259/73
f 69/260/74 70/261/74 76/262/74 75/263/74
f 70/264/75 71/265/75 77/266/75 76/267/75
f 71/268/76 72/269/76 78/270/76 77/271/76
f 72/272/77 73/273/77 79/274/77 78/275/77
f 73/276/78 74/277/78 80/278/78 79/279/78
f 80/280/79 74/281/79 67/282/79
f 75/283/80 81/284/80 68/285/80
f 75/286/81 76/287/81 82/288/81 81/289/81
f 76/290/82 77/291/82 83/292/82 82/293/82
f 77/294/83 78/295/83 84/296/83 83/297/83
f 78/298/84 79/299/84 85/300/84 84/301/84
f 79/302/85 80/303/85 86/304/85 85/305/85
f 86/306/86 80/307/86 67/308/86
f 81/309/87 87/310/87 68/311/87
f 81/312/88 82/313/88 88/314/88 87/315/88
f 82/316/89 83/317/89 89/318/89 88/319/89
f 83/320/90 84/321/90 90/322/90 89/323/90
f 84/324/91 85/325/91 91/326/91 90/327/91
f 85/328/92 86/329/92 92/330/92 91/331/92
f 92/332/93 86/333/93 67/334/93
f 87/335/94 93/336/94 68/337/94
f 87/338/95 88/339/95 94/340/95 93/341/95
f 88/342/96 89/343/96 95/344/96 94/345/96
f 89/346/97 90/347/97 96/348/97 95/349/97
f 90/350/98 91/351/98 97/352/98 96/353/98
f 91/354/99 92/355/99 98/356/99 97/357/99
f 98/358/100 92/359/100 67/360/100
f 93/361/101 99/362/101 68/363/101
f 93/364/102 94/365/102 100/366/102 99/367/102
f 94/368/103 95/369/103 101/370/103 100/371/103
f 95/372/104 96/373/104 102/374/104 101/375/104
f 96/376/105 97/377/105 103/378/105 102/379/105
f 97/380/106 98/381/106 104/382/106 103/383/106
f 104/384/107 98/385/107 67/386/107
f 99/387/108 105/388/108 68/389/108
f 99/390/109 100/391/109 106/392/109 105/393/109
f 100/394/110 101/395/110 107/396/110 106/397/110
f 101/398/111 102/399/111 108/400/111 107/401/111
f 102/402/112 103/403/112 109/404/112 108/405/112
f 103/406/113 104/407/113 110/408/113 109/409/113
f 110/410/114 104/411/114 67/412/114
f 105/413/115 111/414/115 68/415/115
f 105/416/116 106/417/116 112/418/116 111/419/116
f 106/420/117 107/421/117 113/422/117 112/423/117
f 107/424/118 108/425/118 114/426/118 113/427/118
f 108/428/119 109/429/119 115/430/119 114/431/119
f 109/432/120 110/433/120 116/434/120 115/435/120
f 116/436/121 110/437/121 67/438/121
f 111/439/122 117/440/122 68/441/122
f 111/442/123 112/443/123 118/444/123 117/445/123
f 112/446/124 113/447/124 119/448/124 118/449/124
f 113/450/125 114/451/125 120/452/125 119/453/125
f 114/454/126 115/455/126 121/456/126 120/457/126
f 115/458/127 116/459/127 122/460/127 121/461/127
f 122/462/128 116/463/128 67/464/128
f 117/465/129 123/466/129 68/467/129
f 117/468/130 118/469/130 124/470/130 123/471/130
f 118/472/131 119/473/131 125/474/131 124/475/131
f 119/476/132 120/477/132 126/478/132 125/479/132
f 120/480/133 121/481/133 127/482/133 126/483/133
f 121/484/134 122/485/134 128/486/134 127/487/134
f 128/488/135 122/489/135 67/490/135
f 123/491/136 129/492/136 68/493/136
f 123/494/137 124/495/137 130/496/137 129/497/137
f 124/498/138 125/499/138 131/500/138 130/501/138
f 125/502/139 126/503/139 132/504/139 131/505/139
f 126/506/140 127/507/140 133/508/140 132/509/140
f 127/510/141 128/511/141 134/512/141 133/513/141
f 134/514/142 128/515/142 67/516/142
f 129/517/143 135/518/143 68/519/143
f 129/520/144 130/521/144 136/522/144 135/523/144
f 130/524/145 131/525/145 137/526/145 136/527/145
f 131/528/146 132/529/146 138/530/146 137/531/146
f 132/532/147 133/533/147 139/534/147 138/535/147
f 133/536/148 134/537/148 140/538/148 139/539/148
f 140/540/149 134/541/149 67/542/149
f 135/543/150 141/544/150 68/545/150
f 135/546/151 136/547/151 142/548/151 141/549/151
f 136/550/152 137/551/152 143/552/152 142/553/152
f 137/554/153 138/555/153 144/556/153 143/557/153
f 138/558/154 139/559/154 145/560/154 144/561/154
f 139/562/155 140/563/155 146/564/155 145/565/155
f 146/566/156 140/567/156 67/568/156
f 141/569/157 147/570/157 68/571/157
f 141/572/158 142/573/158 148/574/158 147/575/158
f 142/576/159 143/577/159 149/578/159 148/579/159
f 143/580/160 144/581/160 150/582/160 149/583/160
f 144/584/161 145/585/161 151/586/161 150/587/161
f 145/588/162 146/589/162 152/590/162 151/591/162
f 152/592/163 146/593/163 67/594/163
f 147/595/164 69/596/164 68/597/164
f 147/598/165 148/599/165 70/600/165 69/601/165
f 148/602/166 149/603/166 71/604/166 70/605/166
f 149/606/167 150/607/167 72/608/167 71/609/167
f 150/610/168 151/611/168 73/612/168 72/613/168
f 151/614/169 152/615/169 74/616/169 73/617/169
f 74/618/170 152/619/170 67/620/170
o bell_clapper
v 0.5 0.28125 0.48125
v 0.5 0.40625 0.48125
v 0.5169123781295687 0.38794417382415924 0.5220800926523868
v 0.5239177145228181 0.34375 0.5389924707819554
v 0.5169123781295687 0.29955582617584076 0.5220800926523868
v 0.5408300926523868 0.38794417382415924 0.49816237812956865
v 0.5577424707819554 0.34375 0.5051677145228182
v 0.5408300926523868 0.29955582617584076 0.49816237812956865
v 0.5408300926523868 0.38794417382415924 0.46433762187043137
v 0.5577424707819554 0.34375 0.4573322854771819
v 0.5408300926523868 0.29955582617584076 0.46433762187043137
v 0.5169123781295687 0.38794417382415924 0.44041990734761327
v 0.5239177145228181 0.34375 0.4235075292180446
v 0.5169123781295687 0.29955582617584076 0.44041990734761327
v 0.48308762187043136 0.38794417382415924 0.44041990734761327
v 0.4760822854771819 0.34375 0.4235075292180446
v 0.48308762187043136 0.29955582617584076 0.4404199073476132
v 0.45916990734761326 0.38794417382415924 0.4643376218704313
v 0.4422575292180446 0.34375 0.45733228547718185
v 0.45916990734761326 0.29955582617584076 0.4643376218704313
v 0.45916990734761326 0.38794417382415924 0.49816237812956865
v 0.44225752921804456 0.34375 0.5051677145228182
v 0.45916990734761326 0.29955582617584076 0.49816237812956865
v 0.4830876218704313 0.38794417382415924 0.5220800926523868
v 0.47608228547718184 0.34375 0.5389924707819554
v 0.4830876218704313 0.29955582617584076 0.5220800926523868
vt 0 1
vt 0 1
vt 0 1
vt 0 1
vt 0 1
vt 0 1
vt 0 1
vt 0 1
vt 0 1
vt 0 1
vt 0 1
vt 0 1
vt 0 1
vt 0 1
vt 0 1
vt 0 1
vt 0 1
vt 0 1
vt 0 1
vt 0 1
vt 0 1
vt 0 1
vt 0 1
vt 0 1
vt 0 1
vt 0 1
vt 0 1
vt 0 1
vt 0 1
vt 0 1
vt 0 1
vt 0 1
vt 0 1
vt 0 1
vt 0 1
vt 0 1
vt 0 1
vt 0 1
vt 0 1
vt 0 1
vt 0 1
vt 0 1
vt 0 1
vt 0 1
vt 0 1
vt 0 1
vt 0 1
vt 0 1
vt 0 1
vt 0 1
vt 0 1
vt 0 1
vt 0 1
vt 0 1
vt 0 1
vt 0 1
vt 0 1
vt 0 1
vt 0 1
vt 0 1
vt 0 1
vt 0 1
vt 0 1
vt 0 1
vt 0 1
vt 0 1
vt 0 1
vt 0 1
vt 0 1
vt 0 1
vt 0 1
vt 0 1
vt 0 1
vt 0 1
vt 0 1
vt 0 1
vt 0 1
vt 0 1
vt 0 1
vt 0 1
vt 0 1
vt 0 1
vt 0 1
vt 0 1
vt 0 1
vt 0 1
vt 0 1
vt 0 1
vt 0 1
vt 0 1
vt 0 1
vt 0 1
vt 0 1
vt 0 1
vt 0 1
vt 0 1
vt 0 1
vt 0 1
vt 0 1
vt 0 1
vt 0 1
vt 0 1
vt 0 1
vt 0 1
vt 0 1
vt 0 1
vt 0 1
vt 0 1
vt 0 1
vt 0 1
vt 0 1
vt 0 1
vn 0.28928148368646683 0.9124869568340762 0.28928148368646683
vn 0.6604015517481455 0.3574067443365935 0.6604015517481456
vn 0.6604015517481455 -0.3574067443365932 0.6604015517481456
vn 0.2892814836864669 -0.912486956834076 0.2892814836864669
vn 0.4091057975728126 0.912486956834076 0
vn 0.9339488310944648 0.3574067443365933 0
vn 0.9339488310944649 -0.3574067443365932 0
vn 0.40910579757281273 -0.912486956834076 0
vn 0.2892814836864669 0.9124869568340762 -0.28928148368646683
vn 0.6604015517481456 0.35740674433659336 -0.6604015517481454
vn 0.6604015517481457 -0.35740674433659314 -0.6604015517481454
vn 0.2892814836864669 -0.912486956834076 -0.28928148368646683
vn 8.392497208503154e-17 0.9124869568340762 -0.4091057975728127
vn 1.4369442460266116e-16 0.35740674433659336 -0.9339488310944648
vn 2.0321460411048156e-16 -0.35740674433659325 -0.9339488310944649
vn 8.392497208503151e-17 -0.912486956834076 -0.4091057975728127
vn -0.28928148368646667 0.9124869568340762 -0.2892814836864669
vn -0.6604015517481453 0.3574067443365934 -0.6604015517481457
vn -0.6604015517481454 -0.3574067443365932 -0.6604015517481457
vn -0.28928148368646667 -0.912486956834076 -0.2892814836864669
vn -0.4091057975728128 0.9124869568340761 0
vn -0.9339488310944648 0.35740674433659325 -1.43694424602661e-16
vn -0.933948831094465 -0.3574067443365931 0
vn -0.40910579757281273 -0.912486956834076 0
vn -0.28928148368646683 0.9124869568340761 0.2892814836864666
vn -0.6604015517481457 0.3574067443365935 0.6604015517481453
vn -0.6604015517481459 -0.3574067443365933 0.6604015517481453
vn -0.2892814836864669 -0.9124869568340761 0.2892814836864667
vn -8.392497208503146e-17 0.9124869568340761 0.4091057975728126
vn -2.8738884920532216e-16 0.3574067443365933 0.9339488310944648
vn -1.354764027403209e-16 -0.3574067443365931 0.9339488310944648
vn -8.392497208503148e-17 -0.9124869568340759 0.4091057975728128
usemtl none
f 155/621/171 158/622/171 154/623/171
f 155/624/172 156/625/172 159/626/172 158/627/172
f 156/628/173 157/629/173 160/630/173 159/631/173
f 160/632/174 157/633/174 153/634/174
f 158/635/175 161/636/175 154/637/175
f 158/638/176 159/639/176 162/640/176 161/641/176
f 159/642/177 160/643/177 163/644/177 162/645/177
f 163/646/178 160/647/178 153/648/178
f 161/649/179 164/650/179 154/651/179
f 161/652/180 162/653/180 165/654/180 164/655/180
f 162/656/181 163/657/181 166/658/181 165/659/181
f 166/660/182 163/661/182 153/662/182
f 164/663/183 167/664/183 154/665/183
f 164/666/184 165/667/184 168/668/184 167/669/184
f 165/670/185 166/671/185 169/672/185 168/673/185
f 169/674/186 166/675/186 153/676/186
f 167/677/187 170/678/187 154/679/187
f 167/680/188 168/681/188 171/682/188 170/683/188
f 168/684/189 169/685/189 172/686/189 171/687/189
f 172/688/190 169/689/190 153/690/190
f 170/691/191 173/692/191 154/693/191
f 170/694/192 171/695/192 174/696/192 173/697/192
f 171/698/193 172/699/193 175/700/193 174/701/193
f 175/702/194 172/703/194 153/704/194
f 173/705/195 176/706/195 154/707/195
f 173/708/196 174/709/196 177/710/196 176/711/196
f 174/712/197 175/713/197 178/714/197 177/715/197
f 178/716/198 175/717/198 153/718/198
f 176/719/199 155/720/199 154/721/199
f 176/722/200 177/723/200 156/724/200 155/725/200
f 177/726/201 178/727/201 157/728/201 156/729/201
f 157/730/202 178/731/202 153/732/202