# Made in Blockbench 5.1.5
mtllib materials.mtl

o tube
v 0.5 0.828125 0.5
v 0.5 0.359375 0.5
v 0.5625 0.828125 0.5
v 0.5625 0.359375 0.5
v 0.5505635621484342 0.828125 0.5367365782682796
v 0.5505635621484342 0.359375 0.5367365782682796
v 0.5193135621484342 0.828125 0.5594410322684471
v 0.5193135621484342 0.359375 0.5594410322684471
v 0.4806864378515658 0.828125 0.5594410322684471
v 0.4806864378515658 0.359375 0.5594410322684471
v 0.4494364378515658 0.828125 0.5367365782682796
v 0.4494364378515658 0.359375 0.5367365782682796
v 0.4375 0.828125 0.5
v 0.4375 0.359375 0.5
v 0.4494364378515658 0.828125 0.4632634217317204
v 0.4494364378515658 0.359375 0.4632634217317204
v 0.4806864378515658 0.828125 0.4405589677315529
v 0.4806864378515658 0.359375 0.4405589677315529
v 0.5193135621484342 0.828125 0.4405589677315529
v 0.5193135621484342 0.359375 0.4405589677315529
v 0.5505635621484342 0.828125 0.4632634217317204
v 0.5505635621484342 0.359375 0.4632634217317204
vt 0 1
vt 0 1
vt 0 1
vt 0 1
vt 0 1
vt 0 1
vt 0 1
vt 0 1
vt 0 1
vt 0 1
vt 0 1
vt 0 1
vt 0 1
vt 0 1
vt 0 1
vt 0 1
vt 0 1
vt 0 1
vt 0 1
vt 0 1
vt 0 1
vt 0 1
vt 0 1
vt 0 1
vt 0 1
vt 0 1
vt 0 1
vt 0 1
vt 0 1
vt 0 1
vt 0 1
vt 0 1
vt 0 1
vt 0 1
vt 0 1
vt 0 1
vt 0 1
vt 0 1
vt 0 1
vt 0 1
vt 0 1
vt 0 1
vt 0 1
vt 0 1
vt 0 1
vt 0 1
vt 0 1
vt 0 1
vt 0 1
vt 0 1
vt 0 1
vt 0 1
vt 0 1
vt 0 1
vt 0 1
vt 0 1
vt 0 1
vt 0 1
vt 0 1
vt 0 1
vt 0 1
vt 0 1
vt 0 1
vt 0 1
vt 0 1
vt 0 1
vt 0 1
vt 0 1
vt 0 1
vt 0 1
vt 0 1
vt 0 1
vt 0 1
vt 0 1
vt 0 1
vt 0 1
vt 0 1
vt 0 1
vt 0 1
vt 0 1
vt 0 1
vt 0 1
vt 0 1
vt 0 1
vt 0 1
vt 0 1
vt 0 1
vt 0 1
vt 0 1
vt 0 1
vt 0 1
vt 0 1
vt 0 1
vt 0 1
vt 0 1
vt 0 1
vt 0 1
vt 0 1
vt 0 1
vt 0 1
vn -0.9510565162951536 0 -0.3090169943749474
vn 0 -1 0
vn 0 1 0
vn -0.5877852522924731 0 -0.8090169943749476
vn 0 -1 0
vn 0 1 0
vn -1.796378588936215e-16 0 -1
vn 0 -1 0
vn 0 1 0
vn 0.5877852522924731 0 -0.8090169943749476
vn 0 -1 0
vn 0 1 0
vn 0.9510565162951536 0 -0.3090169943749476
vn 0 -1 0
vn 0 1 0
vn 0.9510565162951536 0 0.30901699437494723
vn 0 -1 0
vn 0 1 0
vn 0.5877852522924732 0 0.8090169943749473
vn 0 -1 0
vn 0 1 0
vn 1.796378588936215e-16 0 1
vn 0 -1 0
vn 0 1 0
vn -0.5877852522924729 0 0.8090169943749477
vn 0 -1 0
vn 0 1 0
vn -0.9510565162951538 0 0.3090169943749475
vn 0 -1 0
vn 0 1 0
usemtl none
f 4/1/1 6/2/1 5/3/1 3/4/1
f 3/5/2 5/6/2 1/7/2
f 6/8/3 4/9/3 2/10/3
f 6/11/4 8/12/4 7/13/4 5/14/4
f 5/15/5 7/16/5 1/17/5
f 8/18/6 6/19/6 2/20/6
f 8/21/7 10/22/7 9/23/7 7/24/7
f 7/25/8 9/26/8 1/27/8
f 10/28/9 8/29/9 2/30/9
f 10/31/10 12/32/10 11/33/10 9/34/10
f 9/35/11 11/36/11 1/37/11
f 12/38/12 10/39/12 2/40/12
f 12/41/13 14/42/13 13/43/13 11/44/13
f 11/45/14 13/46/14 1/47/14
f 14/48/15 12/49/15 2/50/15
f 14/51/16 16/52/16 15/53/16 13/54/16
f 13/55/17 15/56/17 1/57/17
f 16/58/18 14/59/18 2/60/18
f 16/61/19 18/62/19 17/63/19 15/64/19
f 15/65/20 17/66/20 1/67/20
f 18/68/21 16/69/21 2/70/21
f 18/71/22 20/72/22 19/73/22 17/74/22
f 17/75/23 19/76/23 1/77/23
f 20/78/24 18/79/24 2/80/24
f 20/81/25 22/82/25 21/83/25 19/84/25
f 19/85/26 21/86/26 1/87/26
f 22/88/27 20/89/27 2/90/27
f 22/91/28 4/92/28 3/93/28 21/94/28
f 21/95/29 3/96/29 1/97/29
f 4/98/30 22/99/30 2/100/30
o cap
v 0.5 0.86875 0.5
v 0.5 0.80625 0.5
v 0.571875 0.86875 0.5
v 0.571875 0.80625 0.5
v 0.5581480964706993 0.86875 0.5422470650085215
v 0.5581480964706993 0.80625 0.5422470650085215
v 0.5222105964706993 0.86875 0.5683571871087142
v 0.5222105964706993 0.80625 0.5683571871087142
v 0.47778940352930066 0.86875 0.5683571871087142
v 0.47778940352930066 0.80625 0.5683571871087142
v 0.44185190352930065 0.86875 0.5422470650085215
v 0.44185190352930065 0.80625 0.5422470650085215
v 0.428125 0.86875 0.5
v 0.428125 0.80625 0.5
v 0.44185190352930065 0.86875 0.4577529349914785
v 0.44185190352930065 0.80625 0.4577529349914785
v 0.47778940352930066 0.86875 0.43164281289128587
v 0.47778940352930066 0.80625 0.43164281289128587
v 0.5222105964706993 0.86875 0.4316428128912858
v 0.5222105964706993 0.80625 0.4316428128912858
v 0.5581480964706993 0.86875 0.4577529349914785
v 0.5581480964706993 0.80625 0.4577529349914785
vt 0 1
vt 0 1
vt 0 1
vt 0 1
vt 0 1
vt 0 1
vt 0 1
vt 0 1
vt 0 1
vt 0 1
vt 0 1
vt 0 1
vt 0 1
vt 0 1
vt 0 1
vt 0 1
vt 0 1
vt 0 1
vt 0 1
vt 0 1
vt 0 1
vt 0 1
vt 0 1
vt 0 1
vt 0 1
vt 0 1
vt 0 1
vt 0 1
vt 0 1
vt 0 1
vt 0 1
vt 0 1
vt 0 1
vt 0 1
vt 0 1
vt 0 1
vt 0 1
vt 0 1
vt 0 1
vt 0 1
vt 0 1
vt 0 1
vt 0 1
vt 0 1
vt 0 1
vt 0 1
vt 0 1
vt 0 1
vt 0 1
vt 0 1
vt 0 1
vt 0 1
vt 0 1
vt 0 1
vt 0 1
vt 0 1
vt 0 1
vt 0 1
vt 0 1
vt 0 1
vt 0 1
vt 0 1
vt 0 1
vt 0 1
vt 0 1
vt 0 1
vt 0 1
vt 0 1
vt 0 1
vt 0 1
vt 0 1
vt 0 1
vt 0 1
vt 0 1
vt 0 1
vt 0 1
vt 0 1
vt 0 1
vt 0 1
vt 0 1
vt 0 1
vt 0 1
vt 0 1
vt 0 1
vt 0 1
vt 0 1
vt 0 1
vt 0 1
vt 0 1
vt 0 1
vt 0 1
vt 0 1
vt 0 1
vt 0 1
vt 0 1
vt 0 1
vt 0 1
vt 0 1
vt 0 1
vt 0 1
vn -0.9510565162951536 0 -0.3090169943749474
vn 0 -1 0
vn 0 1 0
vn -0.587785252292473 0 -0.8090169943749476
vn 0 -1 0
vn 0 1 0
vn -3.124136676410809e-16 0 -1
vn 0 -1 0
vn 0 1 0
vn 0.5877852522924731 0 -0.8090169943749475
vn 0 -1 0
vn 0 1 0
vn 0.9510565162951536 0 -0.30901699437494756
vn 0 -1 0
vn 0 1 0
vn 0.9510565162951536 0 0.30901699437494723
vn 0 -1 0
vn 0 1 0
vn 0.5877852522924731 0 0.8090169943749475
vn 0 -1 0
vn 0 1 0
vn 3.1241366764108093e-16 0 1
vn 0 -1 0
vn 0 1 0
vn -0.5877852522924729 0 0.8090169943749478
vn 0 -1 0
vn 0 1 0
vn -0.9510565162951538 0 0.30901699437494745
vn 0 -1 0
vn 0 1 0
usemtl none
f 26/101/31 28/102/31 27/103/31 25/104/31
f 25/105/32 27/106/32 23/107/32
f 28/108/33 26/109/33 24/110/33
f 28/111/34 30/112/34 29/113/34 27/114/34
f 27/115/35 29/116/35 23/117/35
f 30/118/36 28/119/36 24/120/36
f 30/121/37 32/122/37 31/123/37 29/124/37
f 29/125/38 31/126/38 23/127/38
f 32/128/39 30/129/39 24/130/39
f 32/131/40 34/132/40 33/133/40 31/134/40
f 31/135/41 33/136/41 23/137/41
f 34/138/42 32/139/42 24/140/42
f 34/141/43 36/142/43 35/143/43 33/144/43
f 33/145/44 35/146/44 23/147/44
f 36/148/45 34/149/45 24/150/45
f 36/151/46 38/152/46 37/153/46 35/154/46
f 35/155/47 37/156/47 23/157/47
f 38/158/48 36/159/48 24/160/48
f 38/161/49 40/162/49 39/163/49 37/164/49
f 37/165/50 39/166/50 23/167/50
f 40/168/51 38/169/51 24/170/51
f 40/171/52 42/172/52 41/173/52 39/174/52
f 39/175/53 41/176/53 23/177/53
f 42/178/54 40/179/54 24/180/54
f 42/181/55 44/182/55 43/183/55 41/184/55
f 41/185/56 43/186/56 23/187/56
f 44/188/57 42/189/57 24/190/57
f 44/191/58 26/192/58 25/193/58 43/194/58
f 43/195/59 25/196/59 23/197/59
f 26/198/60 44/199/60 24/200/60
o cord
v 0.5 0.95 0.5
v 0.5 0.8625 0.5
v 0.53125 0.95 0.5
v 0.53125 0.8625 0.5
v 0.515625 0.95 0.5270632938682637
v 0.515625 0.8625 0.5270632938682637
v 0.484375 0.95 0.5270632938682637
v 0.484375 0.8625 0.5270632938682637
v 0.46875 0.95 0.5
v 0.46875 0.8625 0.5
v 0.484375 0.95 0.47293670613173633
v 0.484375 0.8625 0.47293670613173633
v 0.515625 0.95 0.4729367061317363
v 0.515625 0.8625 0.4729367061317363
vt 0 1
vt 0 1
vt 0 1
vt 0 1
vt 0 1
vt 0 1
vt 0 1
vt 0 1
vt 0 1
vt 0 1
vt 0 1
vt 0 1
vt 0 1
vt 0 1
vt 0 1
vt 0 1
vt 0 1
vt 0 1
vt 0 1
vt 0 1
vt 0 1
vt 0 1
vt 0 1
vt 0 1
vt 0 1
vt 0 1
vt 0 1
vt 0 1
vt 0 1
vt 0 1
vt 0 1
vt 0 1
vt 0 1
vt 0 1
vt 0 1
vt 0 1
vt 0 1
vt 0 1
vt 0 1
vt 0 1
vt 0 1
vt 0 1
vt 0 1
vt 0 1
vt 0 1
vt 0 1
vt 0 1
vt 0 1
vt 0 1
vt 0 1
vt 0 1
vt 0 1
vt 0 1
vt 0 1
vt 0 1
vt 0 1
vt 0 1
vt 0 1
vt 0 1
vt 0 1
vn -0.8660254037844387 0 -0.5
vn 0 -1 0
vn 0 1 0
vn -1.1102230246251568e-16 0 -1
vn 0 -1 0
vn 0 1 0
vn 0.8660254037844386 0 -0.5000000000000002
vn 0 -1 0
vn 0 1 0
vn 0.8660254037844388 0 0.4999999999999998
vn 0 -1 0
vn 0 1 0
vn 2.220446049250312e-16 0 1
vn 0 -1 0
vn 0 1 0
vn -0.8660254037844387 0 0.5
vn 0 -1 0
vn 0 1 0
usemtl none
f 48/201/61 50/202/61 49/203/61 47/204/61
f 47/205/62 49/206/62 45/207/62
f 50/208/63 48/209/63 46/210/63
f 50/211/64 52/212/64 51/213/64 49/214/64
f 49/215/65 51/216/65 45/217/65
f 52/218/66 50/219/66 46/220/66
f 52/221/67 54/222/67 53/223/67 51/224/67
f 51/225/68 53/226/68 45/227/68
f 54/228/69 52/229/69 46/230/69
f 54/231/70 56/232/70 55/233/70 53/234/70
f 53/235/71 55/236/71 45/237/71
f 56/238/72 54/239/72 46/240/72
f 56/241/73 58/242/73 57/243/73 55/244/73
f 55/245/74 57/246/74 45/247/74
f 58/248/75 56/249/75 46/250/75
f 58/251/76 48/252/76 47/253/76 57/254/76
f 57/255/77 47/256/77 45/257/77
f 48/258/78 58/259/78 46/260/78
o clapper
v 0.5 0.26875 0.5
v 0.5 0.35625 0.5
v 0.511838664690698 0.34343592167691145 0.5285810648566708
v 0.5167424001659727 0.3125 0.5404197295473688
v 0.511838664690698 0.28156407832308855 0.5285810648566708
v 0.5285810648566708 0.34343592167691145 0.511838664690698
v 0.5404197295473688 0.3125 0.5167424001659727
v 0.5285810648566708 0.28156407832308855 0.511838664690698
v 0.5285810648566708 0.34343592167691145 0.48816133530930195
v 0.5404197295473688 0.3125 0.48325759983402733
v 0.5285810648566708 0.28156407832308855 0.48816133530930195
v 0.511838664690698 0.34343592167691145 0.4714189351433293
v 0.5167424001659727 0.3125 0.4595802704526312
v 0.511838664690698 0.28156407832308855 0.4714189351433293
v 0.48816133530930195 0.34343592167691145 0.4714189351433293
v 0.48325759983402733 0.3125 0.4595802704526312
v 0.48816133530930195 0.28156407832308855 0.4714189351433293
v 0.4714189351433293 0.34343592167691145 0.48816133530930195
v 0.4595802704526312 0.3125 0.4832575998340273
v 0.4714189351433293 0.28156407832308855 0.48816133530930195
v 0.4714189351433293 0.34343592167691145 0.511838664690698
v 0.4595802704526312 0.3125 0.5167424001659727
v 0.4714189351433293 0.28156407832308855 0.511838664690698
v 0.48816133530930195 0.34343592167691145 0.5285810648566707
v 0.4832575998340273 0.3125 0.5404197295473688
v 0.48816133530930195 0.28156407832308855 0.5285810648566708
vt 0 1
vt 0 1
vt 0 1
vt 0 1
vt 0 1
vt 0 1
vt 0 1
vt 0 1
vt 0 1
vt 0 1
vt 0 1
vt 0 1
vt 0 1
vt 0 1
vt 0 1
vt 0 1
vt 0 1
vt 0 1
vt 0 1
vt 0 1
vt 0 1
vt 0 1
vt 0 1
vt 0 1
vt 0 1
vt 0 1
vt 0 1
vt 0 1
vt 0 1
vt 0 1
vt 0 1
vt 0 1
vt 0 1
vt 0 1
vt 0 1
vt 0 1
vt 0 1
vt 0 1
vt 0 1
vt 0 1
vt 0 1
vt 0 1
vt 0 1
vt 0 1
vt 0 1
vt 0 1
vt 0 1
vt 0 1
vt 0 1
vt 0 1
vt 0 1
vt 0 1
vt 0 1
vt 0 1
vt 0 1
vt 0 1
vt 0 1
vt 0 1
vt 0 1
vt 0 1
vt 0 1
vt 0 1
vt 0 1
vt 0 1
vt 0 1
vt 0 1
vt 0 1
vt 0 1
vt 0 1
vt 0 1
vt 0 1
vt 0 1
vt 0 1
vt 0 1
vt 0 1
vt 0 1
vt 0 1
vt 0 1
vt 0 1
vt 0 1
vt 0 1
vt 0 1
vt 0 1
vt 0 1
vt 0 1
vt 0 1
vt 0 1
vt 0 1
vt 0 1
vt 0 1
vt 0 1
vt 0 1
vt 0 1
vt 0 1
vt 0 1
vt 0 1
vt 0 1
vt 0 1
vt 0 1
vt 0 1
vt 0 1
vt 0 1
vt 0 1
vt 0 1
vt 0 1
vt 0 1
vt 0 1
vt 0 1
vt 0 1
vt 0 1
vt 0 1
vt 0 1
vn 0.2892814836864668 0.9124869568340762 0.2892814836864669
vn 0.6604015517481455 0.35740674433659336 0.6604015517481455
vn 0.6604015517481457 -0.35740674433659314 0.6604015517481455
vn 0.2892814836864669 -0.9124869568340762 0.2892814836864669
vn 0.4091057975728127 0.9124869568340762 0
vn 0.9339488310944649 0.35740674433659325 0
vn 0.9339488310944649 -0.3574067443365931 0
vn 0.4091057975728126 -0.912486956834076 0
vn 0.2892814836864669 0.9124869568340762 -0.2892814836864668
vn 0.6604015517481456 0.35740674433659336 -0.6604015517481455
vn 0.6604015517481457 -0.3574067443365932 -0.6604015517481455
vn 0.2892814836864669 -0.912486956834076 -0.2892814836864668
vn 5.994640863216539e-17 0.9124869568340762 -0.4091057975728127
vn 1.9550261850702203e-16 0.3574067443365933 -0.9339488310944649
vn 1.3824122728604187e-16 -0.3574067443365931 -0.9339488310944648
vn 5.994640863216538e-17 -0.9124869568340762 -0.4091057975728127
vn -0.2892814836864667 0.9124869568340762 -0.2892814836864669
vn -0.6604015517481453 0.35740674433659336 -0.6604015517481459
vn -0.6604015517481454 -0.3574067443365932 -0.6604015517481456
vn -0.2892814836864668 -0.9124869568340761 -0.28928148368646694
vn -0.4091057975728126 0.912486956834076 -5.994640863216533e-17
vn -0.9339488310944648 0.35740674433659336 -1.955026185070218e-16
vn -0.9339488310944649 -0.35740674433659325 -1.3824122728604175e-16
vn -0.4091057975728128 -0.912486956834076 -5.994640863216533e-17
vn -0.28928148368646683 0.9124869568340762 0.28928148368646667
vn -0.6604015517481456 0.3574067443365935 0.6604015517481454
vn -0.6604015517481457 -0.3574067443365933 0.6604015517481453
vn -0.2892814836864669 -0.912486956834076 0.2892814836864668
vn -1.1989281726433066e-16 0.912486956834076 0.4091057975728126
vn -1.9550261850702184e-16 0.3574067443365933 0.9339488310944648
vn -2.764824545720835e-16 -0.3574067443365931 0.9339488310944648
vn -1.1989281726433066e-16 -0.912486956834076 0.40910579757281273
usemtl none
f 61/261/79 64/262/79 60/263/79
f 61/264/80 62/265/80 65/266/80 64/267/80
f 62/268/81 63/269/81 66/270/81 65/271/81
f 66/272/82 63/273/82 59/274/82
f 64/275/83 67/276/83 60/277/83
f 64/278/84 65/279/84 68/280/84 67/281/84
f 65/282/85 66/283/85 69/284/85 68/285/85
f 69/286/86 66/287/86 59/288/86
f 67/289/87 70/290/87 60/291/87
f 67/292/88 68/293/88 71/294/88 70/295/88
f 68/296/89 69/297/89 72/298/89 71/299/89
f 72/300/90 69/301/90 59/302/90
f 70/303/91 73/304/91 60/305/91
f 70/306/92 71/307/92 74/308/92 73/309/92
f 71/310/93 72/311/93 75/312/93 74/313/93
f 75/314/94 72/315/94 59/316/94
f 73/317/95 76/318/95 60/319/95
f 73/320/96 74/321/96 77/322/96 76/323/96
f 74/324/97 75/325/97 78/326/97 77/327/97
f 78/328/98 75/329/98 59/330/98
f 76/331/99 79/332/99 60/333/99
f 76/334/100 77/335/100 80/336/100 79/337/100
f 77/338/101 78/339/101 81/340/101 80/341/101
f 81/342/102 78/343/102 59/344/102
f 79/345/103 82/346/103 60/347/103
f 79/348/104 80/349/104 83/350/104 82/351/104
f 80/352/105 81/353/105 84/354/105 83/355/105
f 84/356/106 81/357/106 59/358/106
f 82/359/107 61/360/107 60/361/107
f 82/362/108 83/363/108 62/364/108 61/365/108
f 83/366/109 84/367/109 63/368/109 62/369/109
f 63/370/110 84/371/110 59/372/110
o paper
v 0.5439624498720728 0.275 0.4954802653567395
v 0.5409384261770769 0.275 0.4833515687782896
v 0.5439624498720728 0.07499999999999998 0.4954802653567395
v 0.5409384261770769 0.07499999999999998 0.4833515687782896
v 0.4560375501279273 0.275 0.5045197346432605
v 0.4590615738229231 0.275 0.5166484312217104
v 0.4560375501279273 0.07499999999999998 0.5045197346432605
v 0.4590615738229231 0.07499999999999998 0.5166484312217104
vt 0 1
vt 0.08749999999999997 1
vt 0.08749999999999997 0.8
vt 0 0.8
vt 0 1
vt 0.012499999999999956 1
vt 0.012499999999999956 0.8
vt 0 0.8
vt 0 1
vt 0.08749999999999997 1
vt 0.08749999999999997 0.8
vt 0 0.8
vt 0 1
vt 0.012499999999999956 1
vt 0.012499999999999956 0.8
vt 0 0.8
vt 0 1
vt 0.08749999999999997 1
vt 0.08749999999999997 0.9875
vt 0 0.9875
vt 0 1
vt 0.08749999999999997 1
vt 0.08749999999999997 0.9875
vt 0 0.9875
vn -0.24192189559966767 0 -0.9702957262759965
vn 0.9702957262759965 0 -0.24192189559966767
vn 0.24192189559966767 0 0.9702957262759965
vn -0.9702957262759965 0 0.24192189559966767
vn 0 1 0
vn 0 -1 0
usemtl m_b0a59134-bb8f-83f3-3c6c-76913baf4e8c
f 88/376/111 91/375/111 89/374/111 86/373/111
f 87/380/112 88/379/112 86/378/112 85/377/112
f 92/384/113 87/383/113 85/382/113 90/381/113
f 91/388/114 92/387/114 90/386/114 89/385/114
f 90/392/115 85/391/115 86/390/115 89/389/115
f 91/396/116 88/395/116 87/394/116 92/393/116