# Made in Blockbench 5.1.5
mtllib materials.mtl

o post
v 0.21875 0.8125 0.5
v 0.21875 0 0.5
v 0.265625 0.8125 0.5
v 0.265625 0 0.5
v 0.2518956303681194 0.8125 0.5331456303681195
v 0.2518956303681194 0 0.5331456303681195
v 0.21875 0.8125 0.546875
v 0.21875 0 0.546875
v 0.1856043696318806 0.8125 0.5331456303681195
v 0.1856043696318806 0 0.5331456303681195
v 0.171875 0.8125 0.5
v 0.171875 0 0.5
v 0.1856043696318806 0.8125 0.4668543696318806
v 0.1856043696318806 0 0.4668543696318806
v 0.21875 0.8125 0.453125
v 0.21875 0 0.453125
v 0.2518956303681194 0.8125 0.4668543696318806
v 0.2518956303681194 0 0.4668543696318806
vt 0 1
vt 0 1
vt 0 1
vt 0 1
vt 0 1
vt 0 1
vt 0 1
vt 0 1
vt 0 1
vt 0 1
vt 0 1
vt 0 1
vt 0 1
vt 0 1
vt 0 1
vt 0 1
vt 0 1
vt 0 1
vt 0 1
vt 0 1
vt 0 1
vt 0 1
vt 0 1
vt 0 1
vt 0 1
vt 0 1
vt 0 1
vt 0 1
vt 0 1
vt 0 1
vt 0 1
vt 0 1
vt 0 1
vt 0 1
vt 0 1
vt 0 1
vt 0 1
vt 0 1
vt 0 1
vt 0 1
vt 0 1
vt 0 1
vt 0 1
vt 0 1
vt 0 1
vt 0 1
vt 0 1
vt 0 1
vt 0 1
vt 0 1
vt 0 1
vt 0 1
vt 0 1
vt 0 1
vt 0 1
vt 0 1
vt 0 1
vt 0 1
vt 0 1
vt 0 1
vt 0 1
vt 0 1
vt 0 1
vt 0 1
vt 0 1
vt 0 1
vt 0 1
vt 0 1
vt 0 1
vt 0 1
vt 0 1
vt 0 1
vt 0 1
vt 0 1
vt 0 1
vt 0 1
vt 0 1
vt 0 1
vt 0 1
vt 0 1
vn -0.9238795325112868 0 -0.3826834323650898
vn 0 -1 0
vn 0 1 0
vn -0.38268343236508984 0 -0.9238795325112867
vn 0 -1 0
vn 0 1 0
vn 0.3826834323650898 0 -0.9238795325112868
vn 0 -1 0
vn 0 1 0
vn 0.9238795325112867 0 -0.3826834323650899
vn 0 -1 0
vn 0 1 0
vn 0.923879532511287 0 0.3826834323650898
vn 0 -1 0
vn 0 1 0
vn 0.3826834323650899 0 0.9238795325112867
vn 0 -1 0
vn 0 1 0
vn -0.3826834323650898 0 0.9238795325112868
vn 0 -1 0
vn 0 1 0
vn -0.9238795325112868 0 0.38268343236509006
vn 0 -1 0
vn 0 1 0
usemtl none
f 4/1/1 6/2/1 5/3/1 3/4/1
f 3/5/2 5/6/2 1/7/2
f 6/8/3 4/9/3 2/10/3
f 6/11/4 8/12/4 7/13/4 5/14/4
f 5/15/5 7/16/5 1/17/5
f 8/18/6 6/19/6 2/20/6
f 8/21/7 10/22/7 9/23/7 7/24/7
f 7/25/8 9/26/8 1/27/8
f 10/28/9 8/29/9 2/30/9
f 10/31/10 12/32/10 11/33/10 9/34/10
f 9/35/11 11/36/11 1/37/11
f 12/38/12 10/39/12 2/40/12
f 12/41/13 14/42/13 13/43/13 11/44/13
f 11/45/14 13/46/14 1/47/14
f 14/48/15 12/49/15 2/50/15
f 14/51/16 16/52/16 15/53/16 13/54/16
f 13/55/17 15/56/17 1/57/17
f 16/58/18 14/59/18 2/60/18
f 16/61/19 18/62/19 17/63/19 15/64/19
f 15/65/20 17/66/20 1/67/20
f 18/68/21 16/69/21 2/70/21
f 18/71/22 4/72/22 3/73/22 17/74/22
f 17/75/23 3/76/23 1/77/23
f 4/78/24 18/79/24 2/80/24
o arm
v 0.21562499999999996 0.7875000000000001 0.5
v 0.809375 0.7874999999999999 0.5
v 0.21562499999999996 0.8250000000000001 0.5
v 0.809375 0.825 0.5
v 0.21562499999999996 0.8140165042944956 0.5265165042944955
v 0.809375 0.8140165042944955 0.5265165042944955
v 0.21562499999999996 0.7875000000000001 0.5375
v 0.809375 0.7874999999999999 0.5375
v 0.21562499999999996 0.7609834957055045 0.5265165042944955
v 0.809375 0.7609834957055044 0.5265165042944955
v 0.21562499999999996 0.75 0.5
v 0.809375 0.7499999999999999 0.5
v 0.21562499999999996 0.7609834957055045 0.47348349570550446
v 0.809375 0.7609834957055044 0.47348349570550446
v 0.21562499999999996 0.7875000000000001 0.4625
v 0.809375 0.7874999999999999 0.4625
v 0.21562499999999996 0.8140165042944956 0.47348349570550446
v 0.809375 0.8140165042944955 0.47348349570550446
vt 0 1
vt 0 1
vt 0 1
vt 0 1
vt 0 1
vt 0 1
vt 0 1
vt 0 1
vt 0 1
vt 0 1
vt 0 1
vt 0 1
vt 0 1
vt 0 1
vt 0 1
vt 0 1
vt 0 1
vt 0 1
vt 0 1
vt 0 1
vt 0 1
vt 0 1
vt 0 1
vt 0 1
vt 0 1
vt 0 1
vt 0 1
vt 0 1
vt 0 1
vt 0 1
vt 0 1
vt 0 1
vt 0 1
vt 0 1
vt 0 1
vt 0 1
vt 0 1
vt 0 1
vt 0 1
vt 0 1
vt 0 1
vt 0 1
vt 0 1
vt 0 1
vt 0 1
vt 0 1
vt 0 1
vt 0 1
vt 0 1
vt 0 1
vt 0 1
vt 0 1
vt 0 1
vt 0 1
vt 0 1
vt 0 1
vt 0 1
vt 0 1
vt 0 1
vt 0 1
vt 0 1
vt 0 1
vt 0 1
vt 0 1
vt 0 1
vt 0 1
vt 0 1
vt 0 1
vt 0 1
vt 0 1
vt 0 1
vt 0 1
vt 0 1
vt 0 1
vt 0 1
vt 0 1
vt 0 1
vt 0 1
vt 0 1
vt 0 1
vn -2.0514246579479128e-16 -0.9238795325112867 -0.38268343236508984
vn 1 -2.220446049250313e-16 0
vn -1 2.220446049250313e-16 0
vn -8.497279155086134e-17 -0.38268343236508995 -0.9238795325112867
vn 1 -2.220446049250313e-16 0
vn -1 2.220446049250313e-16 0
vn 8.497279155086129e-17 0.3826834323650897 -0.9238795325112867
vn 1 -2.220446049250313e-16 0
vn -1 2.220446049250313e-16 0
vn 2.0514246579479128e-16 0.9238795325112867 -0.38268343236508995
vn 1 -2.220446049250313e-16 0
vn -1 2.220446049250313e-16 0
vn 2.0514246579479133e-16 0.923879532511287 0.3826834323650896
vn 1 -2.220446049250313e-16 0
vn -1 2.220446049250313e-16 0
vn 8.497279155086131e-17 0.38268343236508984 0.9238795325112867
vn 1 -2.220446049250313e-16 0
vn -1 2.220446049250313e-16 0
vn -8.497279155086126e-17 -0.3826834323650896 0.923879532511287
vn 1 -2.220446049250313e-16 0
vn -1 2.220446049250313e-16 0
vn -2.0514246579479128e-16 -0.9238795325112867 0.3826834323650899
vn 1 -2.220446049250313e-16 0
vn -1 2.220446049250313e-16 0
usemtl none
f 22/81/25 24/82/25 23/83/25 21/84/25
f 21/85/26 23/86/26 19/87/26
f 24/88/27 22/89/27 20/90/27
f 24/91/28 26/92/28 25/93/28 23/94/28
f 23/95/29 25/96/29 19/97/29
f 26/98/30 24/99/30 20/100/30
f 26/101/31 28/102/31 27/103/31 25/104/31
f 25/105/32 27/106/32 19/107/32
f 28/108/33 26/109/33 20/110/33
f 28/111/34 30/112/34 29/113/34 27/114/34
f 27/115/35 29/116/35 19/117/35
f 30/118/36 28/119/36 20/120/36
f 30/121/37 32/122/37 31/123/37 29/124/37
f 29/125/38 31/126/38 19/127/38
f 32/128/39 30/129/39 20/130/39
f 32/131/40 34/132/40 33/133/40 31/134/40
f 31/135/41 33/136/41 19/137/41
f 34/138/42 32/139/42 20/140/42
f 34/141/43 36/142/43 35/143/43 33/144/43
f 33/145/44 35/146/44 19/147/44
f 36/148/45 34/149/45 20/150/45
f 36/151/46 22/152/46 21/153/46 35/154/46
f 35/155/47 21/156/47 19/157/47
f 22/158/48 36/159/48 20/160/48
o arm_tip
v 0.76875 0.7875 0.5
v 0.83125 0.7875 0.5
v 0.76875 0.834375 0.5
v 0.83125 0.834375 0.5
v 0.76875 0.8206456303681194 0.5331456303681195
v 0.83125 0.8206456303681194 0.5331456303681195
v 0.76875 0.7875 0.546875
v 0.83125 0.7875 0.546875
v 0.76875 0.7543543696318806 0.5331456303681195
v 0.83125 0.7543543696318805 0.5331456303681195
v 0.76875 0.740625 0.5
v 0.83125 0.740625 0.5
v 0.76875 0.7543543696318805 0.4668543696318806
v 0.83125 0.7543543696318805 0.4668543696318806
v 0.76875 0.7875 0.453125
v 0.83125 0.7875 0.453125
v 0.76875 0.8206456303681194 0.4668543696318806
v 0.83125 0.8206456303681193 0.4668543696318806
vt 0 1
vt 0 1
vt 0 1
vt 0 1
vt 0 1
vt 0 1
vt 0 1
vt 0 1
vt 0 1
vt 0 1
vt 0 1
vt 0 1
vt 0 1
vt 0 1
vt 0 1
vt 0 1
vt 0 1
vt 0 1
vt 0 1
vt 0 1
vt 0 1
vt 0 1
vt 0 1
vt 0 1
vt 0 1
vt 0 1
vt 0 1
vt 0 1
vt 0 1
vt 0 1
vt 0 1
vt 0 1
vt 0 1
vt 0 1
vt 0 1
vt 0 1
vt 0 1
vt 0 1
vt 0 1
vt 0 1
vt 0 1
vt 0 1
vt 0 1
vt 0 1
vt 0 1
vt 0 1
vt 0 1
vt 0 1
vt 0 1
vt 0 1
vt 0 1
vt 0 1
vt 0 1
vt 0 1
vt 0 1
vt 0 1
vt 0 1
vt 0 1
vt 0 1
vt 0 1
vt 0 1
vt 0 1
vt 0 1
vt 0 1
vt 0 1
vt 0 1
vt 0 1
vt 0 1
vt 0 1
vt 0 1
vt 0 1
vt 0 1
vt 0 1
vt 0 1
vt 0 1
vt 0 1
vt 0 1
vt 0 1
vt 0 1
vt 0 1
vn -2.051424657947913e-16 -0.9238795325112868 -0.3826834323650897
vn 1 -2.220446049250313e-16 0
vn -1 2.220446049250313e-16 0
vn -8.49727915508613e-17 -0.3826834323650898 -0.9238795325112867
vn 1 -2.220446049250313e-16 0
vn -1 2.220446049250313e-16 0
vn 8.497279155086129e-17 0.3826834323650897 -0.9238795325112868
vn 1 -2.220446049250313e-16 0
vn -1 2.220446049250313e-16 0
vn 2.0514246579479128e-16 0.9238795325112867 -0.38268343236508984
vn 1 -2.220446049250313e-16 0
vn -1 2.220446049250313e-16 0
vn 2.051424657947913e-16 0.9238795325112868 0.38268343236508967
vn 1 -2.220446049250313e-16 0
vn -1 2.220446049250313e-16 0
vn 8.497279155086131e-17 0.38268343236508984 0.9238795325112867
vn 1 -2.220446049250313e-16 0
vn -1 2.220446049250313e-16 0
vn -8.497279155086129e-17 -0.3826834323650897 0.9238795325112868
vn 1 -2.220446049250313e-16 0
vn -1 2.220446049250313e-16 0
vn -2.0514246579479128e-16 -0.9238795325112867 0.38268343236509
vn 1 -2.220446049250313e-16 0
vn -1 2.220446049250313e-16 0
usemtl none
f 40/161/49 42/162/49 41/163/49 39/164/49
f 39/165/50 41/166/50 37/167/50
f 42/168/51 40/169/51 38/170/51
f 42/171/52 44/172/52 43/173/52 41/174/52
f 41/175/53 43/176/53 37/177/53
f 44/178/54 42/179/54 38/180/54
f 44/181/55 46/182/55 45/183/55 43/184/55
f 43/185/56 45/186/56 37/187/56
f 46/188/57 44/189/57 38/190/57
f 46/191/58 48/192/58 47/193/58 45/194/58
f 45/195/59 47/196/59 37/197/59
f 48/198/60 46/199/60 38/200/60
f 48/201/61 50/202/61 49/203/61 47/204/61
f 47/205/62 49/206/62 37/207/62
f 50/208/63 48/209/63 38/210/63
f 50/211/64 52/212/64 51/213/64 49/214/64
f 49/215/65 51/216/65 37/217/65
f 52/218/66 50/219/66 38/220/66
f 52/221/67 54/222/67 53/223/67 51/224/67
f 51/225/68 53/226/68 37/227/68
f 54/228/69 52/229/69 38/230/69
f 54/231/70 40/232/70 39/233/70 53/234/70
f 53/235/71 39/236/71 37/237/71
f 40/238/72 54/239/72 38/240/72
o hook
v 0.71875 0.78125 0.5
v 0.71875 0.70625 0.5
v 0.75 0.78125 0.5
v 0.75 0.70625 0.5
v 0.734375 0.78125 0.5270632938682637
v 0.734375 0.70625 0.5270632938682637
v 0.703125 0.78125 0.5270632938682637
v 0.703125 0.70625 0.5270632938682637
v 0.6875 0.78125 0.5
v 0.6875 0.70625 0.5
v 0.703125 0.78125 0.47293670613173633
v 0.703125 0.70625 0.47293670613173633
v 0.734375 0.78125 0.4729367061317363
v 0.734375 0.70625 0.4729367061317363
vt 0 1
vt 0 1
vt 0 1
vt 0 1
vt 0 1
vt 0 1
vt 0 1
vt 0 1
vt 0 1
vt 0 1
vt 0 1
vt 0 1
vt 0 1
vt 0 1
vt 0 1
vt 0 1
vt 0 1
vt 0 1
vt 0 1
vt 0 1
vt 0 1
vt 0 1
vt 0 1
vt 0 1
vt 0 1
vt 0 1
vt 0 1
vt 0 1
vt 0 1
vt 0 1
vt 0 1
vt 0 1
vt 0 1
vt 0 1
vt 0 1
vt 0 1
vt 0 1
vt 0 1
vt 0 1
vt 0 1
vt 0 1
vt 0 1
vt 0 1
vt 0 1
vt 0 1
vt 0 1
vt 0 1
vt 0 1
vt 0 1
vt 0 1
vt 0 1
vt 0 1
vt 0 1
vt 0 1
vt 0 1
vt 0 1
vt 0 1
vt 0 1
vt 0 1
vt 0 1
vn -0.8660254037844388 0 -0.5
vn 0 -1 0
vn 0 1 0
vn -1.1102230246251568e-16 0 -1
vn 0 -1 0
vn 0 1 0
vn 0.8660254037844387 0 -0.5000000000000002
vn 0 -1 0
vn 0 1 0
vn 0.8660254037844389 0 0.49999999999999983
vn 0 -1 0
vn 0 1 0
vn 2.2204460492503123e-16 0 1
vn 0 -1 0
vn 0 1 0
vn -0.8660254037844388 0 0.5
vn 0 -1 0
vn 0 1 0
usemtl none
f 58/241/73 60/242/73 59/243/73 57/244/73
f 57/245/74 59/246/74 55/247/74
f 60/248/75 58/249/75 56/250/75
f 60/251/76 62/252/76 61/253/76 59/254/76
f 59/255/77 61/256/77 55/257/77
f 62/258/78 60/259/78 56/260/78
f 62/261/79 64/262/79 63/263/79 61/264/79
f 61/265/80 63/266/80 55/267/80
f 64/268/81 62/269/81 56/270/81
f 64/271/82 66/272/82 65/273/82 63/274/82
f 63/275/83 65/276/83 55/277/83
f 66/278/84 64/279/84 56/280/84
f 66/281/85 68/282/85 67/283/85 65/284/85
f 65/285/86 67/286/86 55/287/86
f 68/288/87 66/289/87 56/290/87
f 68/291/88 58/292/88 57/293/88 67/294/88
f 67/295/89 57/296/89 55/297/89
f 58/298/90 68/299/90 56/300/90
o foot
v 0.3125 0.0875 0.59375
v 0.3125 0.0875 0.40625
v 0.3125 0 0.59375
v 0.3125 0 0.40625
v 0.125 0.0875 0.40625
v 0.125 0.0875 0.59375
v 0.125 0 0.40625
v 0.125 0 0.59375
vt 0 1
vt 0.1875 1
vt 0.1875 0.9125
vt 0 0.9125
vt 0 1
vt 0.1875 1
vt 0.1875 0.9125
vt 0 0.9125
vt 0 1
vt 0.1875 1
vt 0.1875 0.9125
vt 0 0.9125
vt 0 1
vt 0.1875 1
vt 0.1875 0.9125
vt 0 0.9125
vt 0 1
vt 0.1875 1
vt 0.1875 0.8125
vt 0 0.8125
vt 0 1
vt 0.1875 1
vt 0.1875 0.8125
vt 0 0.8125
vn 0 0 -1
vn 1 0 0
vn 0 0 1
vn -1 0 0
vn 0 1 0
vn 0 -1 0
usemtl m_9f27ca4c-e069-2d46-f517-ff91adc203c9
f 72/304/91 75/303/91 73/302/91 70/301/91
f 71/308/92 72/307/92 70/306/92 69/305/92
f 76/312/93 71/311/93 69/310/93 74/309/93
f 75/316/94 76/315/94 74/314/94 73/313/94
f 74/320/95 69/319/95 70/318/95 73/317/95
f 75/324/96 72/323/96 71/322/96 76/321/96
o brace
v 0.4203631406303434 0.8062450322578393 0.525
v 0.4203631406303434 0.8062450322578393 0.475
v 0.44685910384200367 0.763842627450018 0.525
v 0.44685910384200367 0.763842627450018 0.475
v 0.2242520183941699 0.6837012024039106 0.475
v 0.2242520183941699 0.6837012024039106 0.525
v 0.2507479816058302 0.6412987975960893 0.475
v 0.2507479816058302 0.6412987975960893 0.525
vt 0 1
vt 0.23125 1
vt 0.23125 0.95
vt 0 0.95
vt 0 1
vt 0.050000000000000044 1
vt 0.050000000000000044 0.95
vt 0 0.95
vt 0 1
vt 0.23125 1
vt 0.23125 0.95
vt 0 0.95
vt 0 1
vt 0.050000000000000044 1
vt 0.050000000000000044 0.95
vt 0 0.95
vt 0 1
vt 0.23125 1
vt 0.23125 0.95
vt 0 0.95
vt 0 1
vt 0.23125 1
vt 0.23125 0.95
vt 0 0.95
vn 0 0 -1
vn 0.848048096156426 0.5299192642332049 0
vn 0 0 1
vn -0.848048096156426 -0.5299192642332049 0
vn -0.5299192642332049 0.848048096156426 0
vn 0.5299192642332049 -0.848048096156426 0
usemtl m_9f27ca4c-e069-2d46-f517-ff91adc203c9
f 80/328/97 83/327/97 81/326/97 78/325/97
f 79/332/98 80/331/98 78/330/98 77/329/98
f 84/336/99 79/335/99 77/334/99 82/333/99
f 83/340/100 84/339/100 82/338/100 81/337/100
f 82/344/101 77/343/101 78/342/101 81/341/101
f 83/348/102 80/347/102 79/346/102 84/345/102