# Made in Blockbench 5.1.5
mtllib materials.mtl

o body
v 0.5 0.6499999999999999 0.5
v 0.5 0.3 0.5
v 0.75 0.6499999999999999 0.5
v 0.75 0.3 0.5
v 0.7165063509461097 0.6499999999999999 0.625
v 0.7165063509461097 0.3 0.625
v 0.625 0.6499999999999999 0.7165063509461096
v 0.625 0.3 0.7165063509461096
v 0.5 0.6499999999999999 0.75
v 0.5 0.3 0.75
v 0.37500000000000006 0.6499999999999999 0.7165063509461097
v 0.37500000000000006 0.3 0.7165063509461097
v 0.2834936490538903 0.6499999999999999 0.625
v 0.2834936490538903 0.3 0.625
v 0.25 0.6499999999999999 0.5
v 0.25 0.3 0.5
v 0.28349364905389035 0.6499999999999999 0.375
v 0.28349364905389035 0.3 0.375
v 0.3749999999999999 0.6499999999999999 0.2834936490538904
v 0.3749999999999999 0.3 0.2834936490538904
v 0.49999999999999994 0.6499999999999999 0.25
v 0.49999999999999994 0.3 0.25
v 0.625 0.6499999999999999 0.28349364905389035
v 0.625 0.3 0.28349364905389035
v 0.7165063509461096 0.6499999999999999 0.3749999999999999
v 0.7165063509461096 0.3 0.3749999999999999
vt 0 1
vt 0 1
vt 0 1
vt 0 1
vt 0 1
vt 0 1
vt 0 1
vt 0 1
vt 0 1
vt 0 1
vt 0 1
vt 0 1
vt 0 1
vt 0 1
vt 0 1
vt 0 1
vt 0 1
vt 0 1
vt 0 1
vt 0 1
vt 0 1
vt 0 1
vt 0 1
vt 0 1
vt 0 1
vt 0 1
vt 0 1
vt 0 1
vt 0 1
vt 0 1
vt 0 1
vt 0 1
vt 0 1
vt 0 1
vt 0 1
vt 0 1
vt 0 1
vt 0 1
vt 0 1
vt 0 1
vt 0 1
vt 0 1
vt 0 1
vt 0 1
vt 0 1
vt 0 1
vt 0 1
vt 0 1
vt 0 1
vt 0 1
vt 0 1
vt 0 1
vt 0 1
vt 0 1
vt 0 1
vt 0 1
vt 0 1
vt 0 1
vt 0 1
vt 0 1
vt 0 1
vt 0 1
vt 0 1
vt 0 1
vt 0 1
vt 0 1
vt 0 1
vt 0 1
vt 0 1
vt 0 1
vt 0 1
vt 0 1
vt 0 1
vt 0 1
vt 0 1
vt 0 1
vt 0 1
vt 0 1
vt 0 1
vt 0 1
vt 0 1
vt 0 1
vt 0 1
vt 0 1
vt 0 1
vt 0 1
vt 0 1
vt 0 1
vt 0 1
vt 0 1
vt 0 1
vt 0 1
vt 0 1
vt 0 1
vt 0 1
vt 0 1
vt 0 1
vt 0 1
vt 0 1
vt 0 1
vt 0 1
vt 0 1
vt 0 1
vt 0 1
vt 0 1
vt 0 1
vt 0 1
vt 0 1
vt 0 1
vt 0 1
vt 0 1
vt 0 1
vt 0 1
vt 0 1
vt 0 1
vt 0 1
vt 0 1
vt 0 1
vt 0 1
vt 0 1
vn -0.9659258262890683 0 -0.2588190451025207
vn 0 -1 0
vn 0 1 0
vn -0.7071067811865476 0 -0.7071067811865475
vn 0 -1 0
vn 0 1 0
vn -0.2588190451025209 0 -0.9659258262890684
vn 0 -1 0
vn 0 1 0
vn 0.25881904510252074 0 -0.9659258262890683
vn 0 -1 0
vn 0 1 0
vn 0.7071067811865475 0 -0.7071067811865477
vn 0 -1 0
vn 0 1 0
vn 0.9659258262890683 0 -0.25881904510252074
vn 0 -1 0
vn 0 1 0
vn 0.9659258262890683 0 0.25881904510252074
vn 0 -1 0
vn 0 1 0
vn 0.7071067811865476 0 0.7071067811865475
vn 0 -1 0
vn 0 1 0
vn 0.2588190451025212 0 0.9659258262890683
vn 0 -1 0
vn 0 1 0
vn -0.25881904510252074 0 0.9659258262890683
vn 0 -1 0
vn 0 1 0
vn -0.7071067811865475 0 0.7071067811865476
vn 0 -1 0
vn 0 1 0
vn -0.9659258262890682 0 0.258819045102521
vn 0 -1 0
vn 0 1 0
usemtl none
f 4/1/1 6/2/1 5/3/1 3/4/1
f 3/5/2 5/6/2 1/7/2
f 6/8/3 4/9/3 2/10/3
f 6/11/4 8/12/4 7/13/4 5/14/4
f 5/15/5 7/16/5 1/17/5
f 8/18/6 6/19/6 2/20/6
f 8/21/7 10/22/7 9/23/7 7/24/7
f 7/25/8 9/26/8 1/27/8
f 10/28/9 8/29/9 2/30/9
f 10/31/10 12/32/10 11/33/10 9/34/10
f 9/35/11 11/36/11 1/37/11
f 12/38/12 10/39/12 2/40/12
f 12/41/13 14/42/13 13/43/13 11/44/13
f 11/45/14 13/46/14 1/47/14
f 14/48/15 12/49/15 2/50/15
f 14/51/16 16/52/16 15/53/16 13/54/16
f 13/55/17 15/56/17 1/57/17
f 16/58/18 14/59/18 2/60/18
f 16/61/19 18/62/19 17/63/19 15/64/19
f 15/65/20 17/66/20 1/67/20
f 18/68/21 16/69/21 2/70/21
f 18/71/22 20/72/22 19/73/22 17/74/22
f 17/75/23 19/76/23 1/77/23
f 20/78/24 18/79/24 2/80/24
f 20/81/25 22/82/25 21/83/25 19/84/25
f 19/85/26 21/86/26 1/87/26
f 22/88/27 20/89/27 2/90/27
f 22/91/28 24/92/28 23/93/28 21/94/28
f 21/95/29 23/96/29 1/97/29
f 24/98/30 22/99/30 2/100/30
f 24/101/31 26/102/31 25/103/31 23/104/31
f 23/105/32 25/106/32 1/107/32
f 26/108/33 24/109/33 2/110/33
f 26/111/34 4/112/34 3/113/34 25/114/34
f 25/115/35 3/116/35 1/117/35
f 4/118/36 26/119/36 2/120/36
o belly
v 0.5 0.56875 0.5
v 0.5 0.38125 0.5
v 0.775 0.56875 0.5
v 0.775 0.38125 0.5
v 0.7381569860407207 0.56875 0.6375
v 0.7381569860407207 0.38125 0.6375
v 0.6375000000000001 0.56875 0.7381569860407207
v 0.6375000000000001 0.38125 0.7381569860407207
v 0.5 0.56875 0.775
v 0.5 0.38125 0.775
v 0.36250000000000004 0.56875 0.7381569860407207
v 0.36250000000000004 0.38125 0.7381569860407207
v 0.26184301395927934 0.56875 0.6375
v 0.26184301395927934 0.38125 0.6375
v 0.22499999999999998 0.56875 0.5
v 0.22499999999999998 0.38125 0.5
v 0.26184301395927934 0.56875 0.36249999999999993
v 0.26184301395927934 0.38125 0.36249999999999993
v 0.3624999999999999 0.56875 0.26184301395927945
v 0.3624999999999999 0.38125 0.26184301395927945
v 0.49999999999999994 0.56875 0.22499999999999998
v 0.49999999999999994 0.38125 0.22499999999999998
v 0.6375000000000001 0.56875 0.26184301395927934
v 0.6375000000000001 0.38125 0.26184301395927934
v 0.7381569860407206 0.56875 0.3624999999999999
v 0.7381569860407206 0.38125 0.3624999999999999
vt 0 1
vt 0 1
vt 0 1
vt 0 1
vt 0 1
vt 0 1
vt 0 1
vt 0 1
vt 0 1
vt 0 1
vt 0 1
vt 0 1
vt 0 1
vt 0 1
vt 0 1
vt 0 1
vt 0 1
vt 0 1
vt 0 1
vt 0 1
vt 0 1
vt 0 1
vt 0 1
vt 0 1
vt 0 1
vt 0 1
vt 0 1
vt 0 1
vt 0 1
vt 0 1
vt 0 1
vt 0 1
vt 0 1
vt 0 1
vt 0 1
vt 0 1
vt 0 1
vt 0 1
vt 0 1
vt 0 1
vt 0 1
vt 0 1
vt 0 1
vt 0 1
vt 0 1
vt 0 1
vt 0 1
vt 0 1
vt 0 1
vt 0 1
vt 0 1
vt 0 1
vt 0 1
vt 0 1
vt 0 1
vt 0 1
vt 0 1
vt 0 1
vt 0 1
vt 0 1
vt 0 1
vt 0 1
vt 0 1
vt 0 1
vt 0 1
vt 0 1
vt 0 1
vt 0 1
vt 0 1
vt 0 1
vt 0 1
vt 0 1
vt 0 1
vt 0 1
vt 0 1
vt 0 1
vt 0 1
vt 0 1
vt 0 1
vt 0 1
vt 0 1
vt 0 1
vt 0 1
vt 0 1
vt 0 1
vt 0 1
vt 0 1
vt 0 1
vt 0 1
vt 0 1
vt 0 1
vt 0 1
vt 0 1
vt 0 1
vt 0 1
vt 0 1
vt 0 1
vt 0 1
vt 0 1
vt 0 1
vt 0 1
vt 0 1
vt 0 1
vt 0 1
vt 0 1
vt 0 1
vt 0 1
vt 0 1
vt 0 1
vt 0 1
vt 0 1
vt 0 1
vt 0 1
vt 0 1
vt 0 1
vt 0 1
vt 0 1
vt 0 1
vt 0 1
vt 0 1
vn -0.9659258262890683 0 -0.2588190451025207
vn 0 -1 0
vn 0 1 0
vn -0.7071067811865476 0 -0.7071067811865475
vn 0 -1 0
vn 0 1 0
vn -0.25881904510252085 0 -0.9659258262890684
vn 0 -1 0
vn 0 1 0
vn 0.2588190451025207 0 -0.9659258262890683
vn 0 -1 0
vn 0 1 0
vn 0.7071067811865475 0 -0.7071067811865477
vn 0 -1 0
vn 0 1 0
vn 0.9659258262890683 0 -0.25881904510252074
vn 0 -1 0
vn 0 1 0
vn 0.9659258262890684 0 0.2588190451025208
vn 0 -1 0
vn 0 1 0
vn 0.7071067811865477 0 0.7071067811865475
vn 0 -1 0
vn 0 1 0
vn 0.25881904510252113 0 0.9659258262890682
vn 0 -1 0
vn 0 1 0
vn -0.2588190451025207 0 0.9659258262890684
vn 0 -1 0
vn 0 1 0
vn -0.7071067811865475 0 0.7071067811865477
vn 0 -1 0
vn 0 1 0
vn -0.9659258262890682 0 0.258819045102521
vn 0 -1 0
vn 0 1 0
usemtl none
f 30/121/37 32/122/37 31/123/37 29/124/37
f 29/125/38 31/126/38 27/127/38
f 32/128/39 30/129/39 28/130/39
f 32/131/40 34/132/40 33/133/40 31/134/40
f 31/135/41 33/136/41 27/137/41
f 34/138/42 32/139/42 28/140/42
f 34/141/43 36/142/43 35/143/43 33/144/43
f 33/145/44 35/146/44 27/147/44
f 36/148/45 34/149/45 28/150/45
f 36/151/46 38/152/46 37/153/46 35/154/46
f 35/155/47 37/156/47 27/157/47
f 38/158/48 36/159/48 28/160/48
f 38/161/49 40/162/49 39/163/49 37/164/49
f 37/165/50 39/166/50 27/167/50
f 40/168/51 38/169/51 28/170/51
f 40/171/52 42/172/52 41/173/52 39/174/52
f 39/175/53 41/176/53 27/177/53
f 42/178/54 40/179/54 28/180/54
f 42/181/55 44/182/55 43/183/55 41/184/55
f 41/185/56 43/186/56 27/187/56
f 44/188/57 42/189/57 28/190/57
f 44/191/58 46/192/58 45/193/58 43/194/58
f 43/195/59 45/196/59 27/197/59
f 46/198/60 44/199/60 28/200/60
f 46/201/61 48/202/61 47/203/61 45/204/61
f 45/205/62 47/206/62 27/207/62
f 48/208/63 46/209/63 28/210/63
f 48/211/64 50/212/64 49/213/64 47/214/64
f 47/215/65 49/216/65 27/217/65
f 50/218/66 48/219/66 28/220/66
f 50/221/67 52/222/67 51/223/67 49/224/67
f 49/225/68 51/226/68 27/227/68
f 52/228/69 50/229/69 28/230/69
f 52/231/70 30/232/70 29/233/70 51/234/70
f 51/235/71 29/236/71 27/237/71
f 30/238/72 52/239/72 28/240/72
o skin_top
v 0.5 0.69375 0.5
v 0.5 0.63125 0.5
v 0.759375 0.69375 0.5
v 0.759375 0.63125 0.5
v 0.7246253391065888 0.69375 0.6296875
v 0.7246253391065888 0.63125 0.6296875
v 0.6296875000000001 0.69375 0.7246253391065888
v 0.6296875000000001 0.63125 0.7246253391065888
v 0.5 0.69375 0.759375
v 0.5 0.63125 0.759375
v 0.37031250000000004 0.69375 0.7246253391065888
v 0.37031250000000004 0.63125 0.7246253391065888
v 0.2753746608934112 0.69375 0.6296875
v 0.2753746608934112 0.63125 0.6296875
v 0.24062499999999998 0.69375 0.5
v 0.24062499999999998 0.63125 0.5
v 0.2753746608934112 0.69375 0.37031249999999993
v 0.2753746608934112 0.63125 0.37031249999999993
v 0.3703124999999999 0.69375 0.2753746608934113
v 0.3703124999999999 0.63125 0.2753746608934113
v 0.49999999999999994 0.69375 0.24062499999999998
v 0.49999999999999994 0.63125 0.24062499999999998
v 0.6296875000000001 0.69375 0.2753746608934112
v 0.6296875000000001 0.63125 0.2753746608934112
v 0.7246253391065887 0.69375 0.3703124999999999
v 0.7246253391065887 0.63125 0.3703124999999999
vt 0 1
vt 0 1
vt 0 1
vt 0 1
vt 0 1
vt 0 1
vt 0 1
vt 0 1
vt 0 1
vt 0 1
vt 0 1
vt 0 1
vt 0 1
vt 0 1
vt 0 1
vt 0 1
vt 0 1
vt 0 1
vt 0 1
vt 0 1
vt 0 1
vt 0 1
vt 0 1
vt 0 1
vt 0 1
vt 0 1
vt 0 1
vt 0 1
vt 0 1
vt 0 1
vt 0 1
vt 0 1
vt 0 1
vt 0 1
vt 0 1
vt 0 1
vt 0 1
vt 0 1
vt 0 1
vt 0 1
vt 0 1
vt 0 1
vt 0 1
vt 0 1
vt 0 1
vt 0 1
vt 0 1
vt 0 1
vt 0 1
vt 0 1
vt 0 1
vt 0 1
vt 0 1
vt 0 1
vt 0 1
vt 0 1
vt 0 1
vt 0 1
vt 0 1
vt 0 1
vt 0 1
vt 0 1
vt 0 1
vt 0 1
vt 0 1
vt 0 1
vt 0 1
vt 0 1
vt 0 1
vt 0 1
vt 0 1
vt 0 1
vt 0 1
vt 0 1
vt 0 1
vt 0 1
vt 0 1
vt 0 1
vt 0 1
vt 0 1
vt 0 1
vt 0 1
vt 0 1
vt 0 1
vt 0 1
vt 0 1
vt 0 1
vt 0 1
vt 0 1
vt 0 1
vt 0 1
vt 0 1
vt 0 1
vt 0 1
vt 0 1
vt 0 1
vt 0 1
vt 0 1
vt 0 1
vt 0 1
vt 0 1
vt 0 1
vt 0 1
vt 0 1
vt 0 1
vt 0 1
vt 0 1
vt 0 1
vt 0 1
vt 0 1
vt 0 1
vt 0 1
vt 0 1
vt 0 1
vt 0 1
vt 0 1
vt 0 1
vt 0 1
vt 0 1
vt 0 1
vn -0.9659258262890684 0 -0.2588190451025208
vn 0 -1 0
vn 0 1 0
vn -0.7071067811865477 0 -0.7071067811865475
vn 0 -1 0
vn 0 1 0
vn -0.2588190451025209 0 -0.9659258262890682
vn 0 -1 0
vn 0 1 0
vn 0.2588190451025208 0 -0.9659258262890684
vn 0 -1 0
vn 0 1 0
vn 0.7071067811865475 0 -0.7071067811865477
vn 0 -1 0
vn 0 1 0
vn 0.9659258262890684 0 -0.25881904510252085
vn 0 -1 0
vn 0 1 0
vn 0.9659258262890683 0 0.2588190451025208
vn 0 -1 0
vn 0 1 0
vn 0.7071067811865477 0 0.7071067811865475
vn 0 -1 0
vn 0 1 0
vn 0.25881904510252124 0 0.9659258262890683
vn 0 -1 0
vn 0 1 0
vn -0.25881904510252074 0 0.9659258262890683
vn 0 -1 0
vn 0 1 0
vn -0.7071067811865475 0 0.7071067811865477
vn 0 -1 0
vn 0 1 0
vn -0.9659258262890683 0 0.25881904510252113
vn 0 -1 0
vn 0 1 0
usemtl none
f 56/241/73 58/242/73 57/243/73 55/244/73
f 55/245/74 57/246/74 53/247/74
f 58/248/75 56/249/75 54/250/75
f 58/251/76 60/252/76 59/253/76 57/254/76
f 57/255/77 59/256/77 53/257/77
f 60/258/78 58/259/78 54/260/78
f 60/261/79 62/262/79 61/263/79 59/264/79
f 59/265/80 61/266/80 53/267/80
f 62/268/81 60/269/81 54/270/81
f 62/271/82 64/272/82 63/273/82 61/274/82
f 61/275/83 63/276/83 53/277/83
f 64/278/84 62/279/84 54/280/84
f 64/281/85 66/282/85 65/283/85 63/284/85
f 63/285/86 65/286/86 53/287/86
f 66/288/87 64/289/87 54/290/87
f 66/291/88 68/292/88 67/293/88 65/294/88
f 65/295/89 67/296/89 53/297/89
f 68/298/90 66/299/90 54/300/90
f 68/301/91 70/302/91 69/303/91 67/304/91
f 67/305/92 69/306/92 53/307/92
f 70/308/93 68/309/93 54/310/93
f 70/311/94 72/312/94 71/313/94 69/314/94
f 69/315/95 71/316/95 53/317/95
f 72/318/96 70/319/96 54/320/96
f 72/321/97 74/322/97 73/323/97 71/324/97
f 71/325/98 73/326/98 53/327/98
f 74/328/99 72/329/99 54/330/99
f 74/331/100 76/332/100 75/333/100 73/334/100
f 73/335/101 75/336/101 53/337/101
f 76/338/102 74/339/102 54/340/102
f 76/341/103 78/342/103 77/343/103 75/344/103
f 75/345/104 77/346/104 53/347/104
f 78/348/105 76/349/105 54/350/105
f 78/351/106 56/352/106 55/353/106 77/354/106
f 77/355/107 55/356/107 53/357/107
f 56/358/108 78/359/108 54/360/108
o hoop_top
v 0.5 0.65625 0.5
v 0.5 0.59375 0.5
v 0.778125 0.65625 0.5
v 0.778125 0.59375 0.5
v 0.740863315427547 0.65625 0.6390625
v 0.740863315427547 0.59375 0.6390625
v 0.6390625000000001 0.65625 0.740863315427547
v 0.6390625000000001 0.59375 0.740863315427547
v 0.5 0.65625 0.778125
v 0.5 0.59375 0.778125
v 0.3609375 0.65625 0.740863315427547
v 0.3609375 0.59375 0.740863315427547
v 0.259136684572453 0.65625 0.6390625
v 0.259136684572453 0.59375 0.6390625
v 0.221875 0.65625 0.5
v 0.221875 0.59375 0.5
v 0.259136684572453 0.65625 0.36093749999999997
v 0.259136684572453 0.59375 0.36093749999999997
v 0.3609374999999999 0.65625 0.2591366845724531
v 0.3609374999999999 0.59375 0.2591366845724531
v 0.49999999999999994 0.65625 0.221875
v 0.49999999999999994 0.59375 0.221875
v 0.6390625000000001 0.65625 0.259136684572453
v 0.6390625000000001 0.59375 0.259136684572453
v 0.7408633154275469 0.65625 0.3609374999999999
v 0.7408633154275469 0.59375 0.3609374999999999
vt 0 1
vt 0 1
vt 0 1
vt 0 1
vt 0 1
vt 0 1
vt 0 1
vt 0 1
vt 0 1
vt 0 1
vt 0 1
vt 0 1
vt 0 1
vt 0 1
vt 0 1
vt 0 1
vt 0 1
vt 0 1
vt 0 1
vt 0 1
vt 0 1
vt 0 1
vt 0 1
vt 0 1
vt 0 1
vt 0 1
vt 0 1
vt 0 1
vt 0 1
vt 0 1
vt 0 1
vt 0 1
vt 0 1
vt 0 1
vt 0 1
vt 0 1
vt 0 1
vt 0 1
vt 0 1
vt 0 1
vt 0 1
vt 0 1
vt 0 1
vt 0 1
vt 0 1
vt 0 1
vt 0 1
vt 0 1
vt 0 1
vt 0 1
vt 0 1
vt 0 1
vt 0 1
vt 0 1
vt 0 1
vt 0 1
vt 0 1
vt 0 1
vt 0 1
vt 0 1
vt 0 1
vt 0 1
vt 0 1
vt 0 1
vt 0 1
vt 0 1
vt 0 1
vt 0 1
vt 0 1
vt 0 1
vt 0 1
vt 0 1
vt 0 1
vt 0 1
vt 0 1
vt 0 1
vt 0 1
vt 0 1
vt 0 1
vt 0 1
vt 0 1
vt 0 1
vt 0 1
vt 0 1
vt 0 1
vt 0 1
vt 0 1
vt 0 1
vt 0 1
vt 0 1
vt 0 1
vt 0 1
vt 0 1
vt 0 1
vt 0 1
vt 0 1
vt 0 1
vt 0 1
vt 0 1
vt 0 1
vt 0 1
vt 0 1
vt 0 1
vt 0 1
vt 0 1
vt 0 1
vt 0 1
vt 0 1
vt 0 1
vt 0 1
vt 0 1
vt 0 1
vt 0 1
vt 0 1
vt 0 1
vt 0 1
vt 0 1
vt 0 1
vt 0 1
vt 0 1
vn -0.9659258262890684 0 -0.2588190451025208
vn 0 -1 0
vn 0 1 0
vn -0.7071067811865477 0 -0.7071067811865475
vn 0 -1 0
vn 0 1 0
vn -0.2588190451025209 0 -0.9659258262890684
vn 0 -1 0
vn 0 1 0
vn 0.2588190451025208 0 -0.9659258262890684
vn 0 -1 0
vn 0 1 0
vn 0.7071067811865475 0 -0.7071067811865477
vn 0 -1 0
vn 0 1 0
vn 0.9659258262890684 0 -0.2588190451025208
vn 0 -1 0
vn 0 1 0
vn 0.9659258262890684 0 0.2588190451025208
vn 0 -1 0
vn 0 1 0
vn 0.7071067811865476 0 0.7071067811865475
vn 0 -1 0
vn 0 1 0
vn 0.25881904510252113 0 0.9659258262890682
vn 0 -1 0
vn 0 1 0
vn -0.25881904510252074 0 0.9659258262890684
vn 0 -1 0
vn 0 1 0
vn -0.7071067811865475 0 0.7071067811865476
vn 0 -1 0
vn 0 1 0
vn -0.9659258262890682 0 0.258819045102521
vn 0 -1 0
vn 0 1 0
usemtl none
f 82/361/109 84/362/109 83/363/109 81/364/109
f 81/365/110 83/366/110 79/367/110
f 84/368/111 82/369/111 80/370/111
f 84/371/112 86/372/112 85/373/112 83/374/112
f 83/375/113 85/376/113 79/377/113
f 86/378/114 84/379/114 80/380/114
f 86/381/115 88/382/115 87/383/115 85/384/115
f 85/385/116 87/386/116 79/387/116
f 88/388/117 86/389/117 80/390/117
f 88/391/118 90/392/118 89/393/118 87/394/118
f 87/395/119 89/396/119 79/397/119
f 90/398/120 88/399/120 80/400/120
f 90/401/121 92/402/121 91/403/121 89/404/121
f 89/405/122 91/406/122 79/407/122
f 92/408/123 90/409/123 80/410/123
f 92/411/124 94/412/124 93/413/124 91/414/124
f 91/415/125 93/416/125 79/417/125
f 94/418/126 92/419/126 80/420/126
f 94/421/127 96/422/127 95/423/127 93/424/127
f 93/425/128 95/426/128 79/427/128
f 96/428/129 94/429/129 80/430/129
f 96/431/130 98/432/130 97/433/130 95/434/130
f 95/435/131 97/436/131 79/437/131
f 98/438/132 96/439/132 80/440/132
f 98/441/133 100/442/133 99/443/133 97/444/133
f 97/445/134 99/446/134 79/447/134
f 100/448/135 98/449/135 80/450/135
f 100/451/136 102/452/136 101/453/136 99/454/136
f 99/455/137 101/456/137 79/457/137
f 102/458/138 100/459/138 80/460/138
f 102/461/139 104/462/139 103/463/139 101/464/139
f 101/465/140 103/466/140 79/467/140
f 104/468/141 102/469/141 80/470/141
f 104/471/142 82/472/142 81/473/142 103/474/142
f 103/475/143 81/476/143 79/477/143
f 82/478/144 104/479/144 80/480/144
o hoop_bot
v 0.5 0.35625 0.5
v 0.5 0.29375 0.5
v 0.76875 0.35625 0.5
v 0.76875 0.29375 0.5
v 0.732744327267068 0.35625 0.6343749999999999
v 0.732744327267068 0.29375 0.6343749999999999
v 0.634375 0.35625 0.7327443272670678
v 0.634375 0.29375 0.7327443272670678
v 0.5 0.35625 0.76875
v 0.5 0.29375 0.76875
v 0.3656250000000001 0.35625 0.732744327267068
v 0.3656250000000001 0.29375 0.732744327267068
v 0.2672556727329321 0.35625 0.6343749999999999
v 0.2672556727329321 0.29375 0.6343749999999999
v 0.23125 0.35625 0.5
v 0.23125 0.29375 0.5
v 0.26725567273293216 0.35625 0.365625
v 0.26725567273293216 0.29375 0.365625
v 0.36562499999999987 0.35625 0.26725567273293216
v 0.36562499999999987 0.29375 0.26725567273293216
v 0.49999999999999994 0.35625 0.23125
v 0.49999999999999994 0.29375 0.23125
v 0.634375 0.35625 0.26725567273293216
v 0.634375 0.29375 0.26725567273293216
v 0.7327443272670678 0.35625 0.36562499999999987
v 0.7327443272670678 0.29375 0.36562499999999987
vt 0 1
vt 0 1
vt 0 1
vt 0 1
vt 0 1
vt 0 1
vt 0 1
vt 0 1
vt 0 1
vt 0 1
vt 0 1
vt 0 1
vt 0 1
vt 0 1
vt 0 1
vt 0 1
vt 0 1
vt 0 1
vt 0 1
vt 0 1
vt 0 1
vt 0 1
vt 0 1
vt 0 1
vt 0 1
vt 0 1
vt 0 1
vt 0 1
vt 0 1
vt 0 1
vt 0 1
vt 0 1
vt 0 1
vt 0 1
vt 0 1
vt 0 1
vt 0 1
vt 0 1
vt 0 1
vt 0 1
vt 0 1
vt 0 1
vt 0 1
vt 0 1
vt 0 1
vt 0 1
vt 0 1
vt 0 1
vt 0 1
vt 0 1
vt 0 1
vt 0 1
vt 0 1
vt 0 1
vt 0 1
vt 0 1
vt 0 1
vt 0 1
vt 0 1
vt 0 1
vt 0 1
vt 0 1
vt 0 1
vt 0 1
vt 0 1
vt 0 1
vt 0 1
vt 0 1
vt 0 1
vt 0 1
vt 0 1
vt 0 1
vt 0 1
vt 0 1
vt 0 1
vt 0 1
vt 0 1
vt 0 1
vt 0 1
vt 0 1
vt 0 1
vt 0 1
vt 0 1
vt 0 1
vt 0 1
vt 0 1
vt 0 1
vt 0 1
vt 0 1
vt 0 1
vt 0 1
vt 0 1
vt 0 1
vt 0 1
vt 0 1
vt 0 1
vt 0 1
vt 0 1
vt 0 1
vt 0 1
vt 0 1
vt 0 1
vt 0 1
vt 0 1
vt 0 1
vt 0 1
vt 0 1
vt 0 1
vt 0 1
vt 0 1
vt 0 1
vt 0 1
vt 0 1
vt 0 1
vt 0 1
vt 0 1
vt 0 1
vt 0 1
vt 0 1
vt 0 1
vn -0.9659258262890683 0 -0.2588190451025207
vn 0 -1 0
vn 0 1 0
vn -0.7071067811865477 0 -0.7071067811865475
vn 0 -1 0
vn 0 1 0
vn -0.25881904510252085 0 -0.9659258262890683
vn 0 -1 0
vn 0 1 0
vn 0.2588190451025207 0 -0.9659258262890683
vn 0 -1 0
vn 0 1 0
vn 0.7071067811865475 0 -0.7071067811865477
vn 0 -1 0
vn 0 1 0
vn 0.9659258262890683 0 -0.25881904510252074
vn 0 -1 0
vn 0 1 0
vn 0.9659258262890683 0 0.25881904510252074
vn 0 -1 0
vn 0 1 0
vn 0.7071067811865476 0 0.7071067811865475
vn 0 -1 0
vn 0 1 0
vn 0.2588190451025211 0 0.9659258262890682
vn 0 -1 0
vn 0 1 0
vn -0.2588190451025207 0 0.9659258262890683
vn 0 -1 0
vn 0 1 0
vn -0.7071067811865475 0 0.7071067811865476
vn 0 -1 0
vn 0 1 0
vn -0.9659258262890682 0 0.25881904510252096
vn 0 -1 0
vn 0 1 0
usemtl none
f 108/481/145 110/482/145 109/483/145 107/484/145
f 107/485/146 109/486/146 105/487/146
f 110/488/147 108/489/147 106/490/147
f 110/491/148 112/492/148 111/493/148 109/494/148
f 109/495/149 111/496/149 105/497/149
f 112/498/150 110/499/150 106/500/150
f 112/501/151 114/502/151 113/503/151 111/504/151
f 111/505/152 113/506/152 105/507/152
f 114/508/153 112/509/153 106/510/153
f 114/511/154 116/512/154 115/513/154 113/514/154
f 113/515/155 115/516/155 105/517/155
f 116/518/156 114/519/156 106/520/156
f 116/521/157 118/522/157 117/523/157 115/524/157
f 115/525/158 117/526/158 105/527/158
f 118/528/159 116/529/159 106/530/159
f 118/531/160 120/532/160 119/533/160 117/534/160
f 117/535/161 119/536/161 105/537/161
f 120/538/162 118/539/162 106/540/162
f 120/541/163 122/542/163 121/543/163 119/544/163
f 119/545/164 121/546/164 105/547/164
f 122/548/165 120/549/165 106/550/165
f 122/551/166 124/552/166 123/553/166 121/554/166
f 121/555/167 123/556/167 105/557/167
f 124/558/168 122/559/168 106/560/168
f 124/561/169 126/562/169 125/563/169 123/564/169
f 123/565/170 125/566/170 105/567/170
f 126/568/171 124/569/171 106/570/171
f 126/571/172 128/572/172 127/573/172 125/574/172
f 125/575/173 127/576/173 105/577/173
f 128/578/174 126/579/174 106/580/174
f 128/581/175 130/582/175 129/583/175 127/584/175
f 127/585/176 129/586/176 105/587/176
f 130/588/177 128/589/177 106/590/177
f 130/591/178 108/592/178 107/593/178 129/594/178
f 129/595/179 107/596/179 105/597/179
f 108/598/180 130/599/180 106/600/180
o stud_a
v 0.74375 0.60625 0.5
v 0.74375 0.66875 0.5
v 0.7572816469341319 0.653125 0.5234375
v 0.7572816469341319 0.621875 0.5234375
v 0.7708132938682637 0.653125 0.5
v 0.7708132938682637 0.621875 0.5
v 0.7572816469341319 0.653125 0.4765625
v 0.7572816469341319 0.621875 0.4765625
v 0.7302183530658681 0.653125 0.4765625
v 0.7302183530658681 0.621875 0.4765625
v 0.7166867061317364 0.653125 0.5
v 0.7166867061317364 0.621875 0.5
v 0.7302183530658681 0.653125 0.5234375
v 0.7302183530658681 0.621875 0.5234375
vt 0 1
vt 0 1
vt 0 1
vt 0 1
vt 0 1
vt 0 1
vt 0 1
vt 0 1
vt 0 1
vt 0 1
vt 0 1
vt 0 1
vt 0 1
vt 0 1
vt 0 1
vt 0 1
vt 0 1
vt 0 1
vt 0 1
vt 0 1
vt 0 1
vt 0 1
vt 0 1
vt 0 1
vt 0 1
vt 0 1
vt 0 1
vt 0 1
vt 0 1
vt 0 1
vt 0 1
vt 0 1
vt 0 1
vt 0 1
vt 0 1
vt 0 1
vt 0 1
vt 0 1
vt 0 1
vt 0 1
vt 0 1
vt 0 1
vt 0 1
vt 0 1
vt 0 1
vt 0 1
vt 0 1
vt 0 1
vt 0 1
vt 0 1
vt 0 1
vt 0 1
vt 0 1
vt 0 1
vt 0 1
vt 0 1
vt 0 1
vt 0 1
vt 0 1
vt 0 1
vn 0.4803844614152613 0.8320502943378438 0.2773500981126145
vn 0.8660254037844387 1.0358521839084695e-16 0.5000000000000001
vn 0.48038446141526153 -0.8320502943378436 0.27735009811261463
vn 0.4803844614152613 0.8320502943378438 -0.2773500981126145
vn 0.8660254037844387 9.614813431917822e-17 -0.5000000000000001
vn 0.48038446141526153 -0.8320502943378436 -0.27735009811261463
vn -7.111118529805044e-17 0.8320502943378438 -0.554700196225229
vn -1.2819751242557092e-16 1.1102230246251568e-16 -1
vn -7.111118529805045e-17 -0.8320502943378436 -0.5547001962252293
vn -0.48038446141526137 0.8320502943378437 -0.2773500981126145
vn -0.8660254037844387 1.0358521839084693e-16 -0.5
vn -0.4803844614152615 -0.8320502943378436 -0.2773500981126146
vn -0.4803844614152615 0.8320502943378438 0.2773500981126144
vn -0.8660254037844388 9.614813431917823e-17 0.4999999999999997
vn -0.48038446141526164 -0.8320502943378437 0.27735009811261446
vn -2.1333355589415126e-16 0.8320502943378437 0.5547001962252291
vn -3.845925372767126e-16 1.110223024625157e-16 1
vn -2.1333355589415134e-16 -0.8320502943378437 0.5547001962252294
usemtl none
f 133/601/181 135/602/181 132/603/181
f 133/604/182 134/605/182 136/606/182 135/607/182
f 136/608/183 134/609/183 131/610/183
f 135/611/184 137/612/184 132/613/184
f 135/614/185 136/615/185 138/616/185 137/617/185
f 138/618/186 136/619/186 131/620/186
f 137/621/187 139/622/187 132/623/187
f 137/624/188 138/625/188 140/626/188 139/627/188
f 140/628/189 138/629/189 131/630/189
f 139/631/190 141/632/190 132/633/190
f 139/634/191 140/635/191 142/636/191 141/637/191
f 142/638/192 140/639/192 131/640/192
f 141/641/193 143/642/193 132/643/193
f 141/644/194 142/645/194 144/646/194 143/647/194
f 144/648/195 142/649/195 131/650/195
f 143/651/196 133/652/196 132/653/196
f 143/654/197 144/655/197 134/656/197 133/657/197
f 134/658/198 144/659/198 131/660/198
o stud_b
v 0.25625 0.60625 0.5
v 0.25625 0.66875 0.5
v 0.2697816469341318 0.653125 0.5234375
v 0.2697816469341318 0.621875 0.5234375
v 0.2833132938682637 0.653125 0.5
v 0.2833132938682637 0.621875 0.5
v 0.2697816469341318 0.653125 0.4765625
v 0.2697816469341318 0.621875 0.4765625
v 0.24271835306586811 0.653125 0.4765625
v 0.24271835306586811 0.621875 0.4765625
v 0.22918670613173628 0.653125 0.5
v 0.22918670613173628 0.621875 0.5
v 0.24271835306586811 0.653125 0.5234375
v 0.24271835306586811 0.621875 0.5234375
vt 0 1
vt 0 1
vt 0 1
vt 0 1
vt 0 1
vt 0 1
vt 0 1
vt 0 1
vt 0 1
vt 0 1
vt 0 1
vt 0 1
vt 0 1
vt 0 1
vt 0 1
vt 0 1
vt 0 1
vt 0 1
vt 0 1
vt 0 1
vt 0 1
vt 0 1
vt 0 1
vt 0 1
vt 0 1
vt 0 1
vt 0 1
vt 0 1
vt 0 1
vt 0 1
vt 0 1
vt 0 1
vt 0 1
vt 0 1
vt 0 1
vt 0 1
vt 0 1
vt 0 1
vt 0 1
vt 0 1
vt 0 1
vt 0 1
vt 0 1
vt 0 1
vt 0 1
vt 0 1
vt 0 1
vt 0 1
vt 0 1
vt 0 1
vt 0 1
vt 0 1
vt 0 1
vt 0 1
vt 0 1
vt 0 1
vt 0 1
vt 0 1
vt 0 1
vt 0 1
vn 0.4803844614152613 0.8320502943378438 0.2773500981126145
vn 0.8660254037844387 1.0358521839084695e-16 0.5000000000000001
vn 0.48038446141526153 -0.8320502943378436 0.27735009811261463
vn 0.4803844614152613 0.8320502943378438 -0.2773500981126145
vn 0.8660254037844387 9.614813431917822e-17 -0.5000000000000001
vn 0.48038446141526153 -0.8320502943378436 -0.27735009811261463
vn -7.111118529805044e-17 0.8320502943378438 -0.554700196225229
vn -1.2819751242557092e-16 1.1102230246251568e-16 -1
vn -7.111118529805045e-17 -0.8320502943378436 -0.5547001962252293
vn -0.48038446141526137 0.8320502943378437 -0.2773500981126145
vn -0.8660254037844387 1.0358521839084693e-16 -0.5
vn -0.4803844614152615 -0.8320502943378436 -0.2773500981126146
vn -0.4803844614152615 0.8320502943378438 0.2773500981126144
vn -0.8660254037844388 9.614813431917823e-17 0.4999999999999997
vn -0.48038446141526164 -0.8320502943378437 0.27735009811261446
vn -2.1333355589415126e-16 0.8320502943378437 0.5547001962252291
vn -3.845925372767126e-16 1.110223024625157e-16 1
vn -2.1333355589415134e-16 -0.8320502943378437 0.5547001962252294
usemtl none
f 147/661/199 149/662/199 146/663/199
f 147/664/200 148/665/200 150/666/200 149/667/200
f 150/668/201 148/669/201 145/670/201
f 149/671/202 151/672/202 146/673/202
f 149/674/203 150/675/203 152/676/203 151/677/203
f 152/678/204 150/679/204 145/680/204
f 151/681/205 153/682/205 146/683/205
f 151/684/206 152/685/206 154/686/206 153/687/206
f 154/688/207 152/689/207 145/690/207
f 153/691/208 155/692/208 146/693/208
f 153/694/209 154/695/209 156/696/209 155/697/209
f 156/698/210 154/699/210 145/700/210
f 155/701/211 157/702/211 146/703/211
f 155/704/212 156/705/212 158/706/212 157/707/212
f 158/708/213 156/709/213 145/710/213
f 157/711/214 147/712/214 146/713/214
f 157/714/215 158/715/215 148/716/215 147/717/215
f 148/718/216 158/719/216 145/720/216
o stud_c
v 0.5 0.60625 0.74375
v 0.5 0.66875 0.74375
v 0.5135316469341319 0.653125 0.7671875
v 0.5135316469341319 0.621875 0.7671875
v 0.5270632938682637 0.653125 0.74375
v 0.5270632938682637 0.621875 0.74375
v 0.5135316469341319 0.653125 0.7203125
v 0.5135316469341319 0.621875 0.7203125
v 0.48646835306586816 0.653125 0.7203125
v 0.48646835306586816 0.621875 0.7203125
v 0.4729367061317363 0.653125 0.74375
v 0.4729367061317363 0.621875 0.74375
v 0.4864683530658681 0.653125 0.7671875
v 0.4864683530658681 0.621875 0.7671875
vt 0 1
vt 0 1
vt 0 1
vt 0 1
vt 0 1
vt 0 1
vt 0 1
vt 0 1
vt 0 1
vt 0 1
vt 0 1
vt 0 1
vt 0 1
vt 0 1
vt 0 1
vt 0 1
vt 0 1
vt 0 1
vt 0 1
vt 0 1
vt 0 1
vt 0 1
vt 0 1
vt 0 1
vt 0 1
vt 0 1
vt 0 1
vt 0 1
vt 0 1
vt 0 1
vt 0 1
vt 0 1
vt 0 1
vt 0 1
vt 0 1
vt 0 1
vt 0 1
vt 0 1
vt 0 1
vt 0 1
vt 0 1
vt 0 1
vt 0 1
vt 0 1
vt 0 1
vt 0 1
vt 0 1
vt 0 1
vt 0 1
vt 0 1
vt 0 1
vt 0 1
vt 0 1
vt 0 1
vt 0 1
vt 0 1
vt 0 1
vt 0 1
vt 0 1
vt 0 1
vn 0.4803844614152613 0.8320502943378438 0.2773500981126145
vn 0.8660254037844387 1.0358521839084695e-16 0.5000000000000001
vn 0.48038446141526153 -0.8320502943378436 0.27735009811261463
vn 0.4803844614152613 0.8320502943378438 -0.2773500981126145
vn 0.8660254037844387 9.614813431917822e-17 -0.5000000000000001
vn 0.48038446141526153 -0.8320502943378436 -0.27735009811261463
vn -7.111118529805044e-17 0.8320502943378438 -0.554700196225229
vn -1.2819751242557092e-16 1.1102230246251568e-16 -1
vn -7.111118529805045e-17 -0.8320502943378436 -0.5547001962252293
vn -0.48038446141526137 0.8320502943378437 -0.2773500981126145
vn -0.8660254037844387 1.0358521839084693e-16 -0.5
vn -0.4803844614152615 -0.8320502943378436 -0.2773500981126146
vn -0.4803844614152615 0.8320502943378438 0.2773500981126144
vn -0.8660254037844388 9.614813431917823e-17 0.4999999999999997
vn -0.48038446141526164 -0.8320502943378437 0.27735009811261446
vn -2.1333355589415126e-16 0.8320502943378437 0.5547001962252291
vn -3.845925372767126e-16 1.110223024625157e-16 1
vn -2.1333355589415134e-16 -0.8320502943378437 0.5547001962252294
usemtl none
f 161/721/217 163/722/217 160/723/217
f 161/724/218 162/725/218 164/726/218 163/727/218
f 164/728/219 162/729/219 159/730/219
f 163/731/220 165/732/220 160/733/220
f 163/734/221 164/735/221 166/736/221 165/737/221
f 166/738/222 164/739/222 159/740/222
f 165/741/223 167/742/223 160/743/223
f 165/744/224 166/745/224 168/746/224 167/747/224
f 168/748/225 166/749/225 159/750/225
f 167/751/226 169/752/226 160/753/226
f 167/754/227 168/755/227 170/756/227 169/757/227
f 170/758/228 168/759/228 159/760/228
f 169/761/229 171/762/229 160/763/229
f 169/764/230 170/765/230 172/766/230 171/767/230
f 172/768/231 170/769/231 159/770/231
f 171/771/232 161/772/232 160/773/232
f 171/774/233 172/775/233 162/776/233 161/777/233
f 162/778/234 172/779/234 159/780/234
o stud_d
v 0.5 0.60625 0.25625
v 0.5 0.66875 0.25625
v 0.5135316469341319 0.653125 0.2796875
v 0.5135316469341319 0.621875 0.2796875
v 0.5270632938682637 0.653125 0.25625
v 0.5270632938682637 0.621875 0.25625
v 0.5135316469341319 0.653125 0.23281249999999998
v 0.5135316469341319 0.621875 0.23281249999999998
v 0.48646835306586816 0.653125 0.23281249999999998
v 0.48646835306586816 0.621875 0.23281249999999998
v 0.4729367061317363 0.653125 0.25625
v 0.4729367061317363 0.621875 0.25625
v 0.4864683530658681 0.653125 0.2796875
v 0.4864683530658681 0.621875 0.2796875
vt 0 1
vt 0 1
vt 0 1
vt 0 1
vt 0 1
vt 0 1
vt 0 1
vt 0 1
vt 0 1
vt 0 1
vt 0 1
vt 0 1
vt 0 1
vt 0 1
vt 0 1
vt 0 1
vt 0 1
vt 0 1
vt 0 1
vt 0 1
vt 0 1
vt 0 1
vt 0 1
vt 0 1
vt 0 1
vt 0 1
vt 0 1
vt 0 1
vt 0 1
vt 0 1
vt 0 1
vt 0 1
vt 0 1
vt 0 1
vt 0 1
vt 0 1
vt 0 1
vt 0 1
vt 0 1
vt 0 1
vt 0 1
vt 0 1
vt 0 1
vt 0 1
vt 0 1
vt 0 1
vt 0 1
vt 0 1
vt 0 1
vt 0 1
vt 0 1
vt 0 1
vt 0 1
vt 0 1
vt 0 1
vt 0 1
vt 0 1
vt 0 1
vt 0 1
vt 0 1
vn 0.4803844614152613 0.8320502943378438 0.2773500981126145
vn 0.8660254037844387 1.0358521839084695e-16 0.5000000000000001
vn 0.48038446141526153 -0.8320502943378436 0.27735009811261463
vn 0.4803844614152613 0.8320502943378438 -0.2773500981126145
vn 0.8660254037844387 9.614813431917822e-17 -0.5000000000000001
vn 0.48038446141526153 -0.8320502943378436 -0.27735009811261463
vn -7.111118529805044e-17 0.8320502943378438 -0.554700196225229
vn -1.2819751242557092e-16 1.1102230246251568e-16 -1
vn -7.111118529805045e-17 -0.8320502943378436 -0.5547001962252293
vn -0.48038446141526137 0.8320502943378437 -0.2773500981126145
vn -0.8660254037844387 1.0358521839084693e-16 -0.5
vn -0.4803844614152615 -0.8320502943378436 -0.2773500981126146
vn -0.4803844614152615 0.8320502943378438 0.2773500981126144
vn -0.8660254037844388 9.614813431917823e-17 0.4999999999999997
vn -0.48038446141526164 -0.8320502943378437 0.27735009811261446
vn -2.1333355589415126e-16 0.8320502943378437 0.5547001962252291
vn -3.845925372767126e-16 1.110223024625157e-16 1
vn -2.1333355589415134e-16 -0.8320502943378437 0.5547001962252294
usemtl none
f 175/781/235 177/782/235 174/783/235
f 175/784/236 176/785/236 178/786/236 177/787/236
f 178/788/237 176/789/237 173/790/237
f 177/791/238 179/792/238 174/793/238
f 177/794/239 178/795/239 180/796/239 179/797/239
f 180/798/240 178/799/240 173/800/240
f 179/801/241 181/802/241 174/803/241
f 179/804/242 180/805/242 182/806/242 181/807/242
f 182/808/243 180/809/243 173/810/243
f 181/811/244 183/812/244 174/813/244
f 181/814/245 182/815/245 184/816/245 183/817/245
f 184/818/246 182/819/246 173/820/246
f 183/821/247 185/822/247 174/823/247
f 183/824/248 184/825/248 186/826/248 185/827/248
f 186/828/249 184/829/249 173/830/249
f 185/831/250 175/832/250 174/833/250
f 185/834/251 186/835/251 176/836/251 175/837/251
f 176/838/252 186/839/252 173/840/252
o leg_a
v 0.2776217302788044 0.3318445696601314 0.575
v 0.2776217302788044 0.3318445696601314 0.42500000000000004
v 0.34519302979457617 0.013946599421644529 0.575
v 0.34519302979457617 0.013946599421644529 0.42500000000000004
v 0.17980697020542386 0.3110534005783555 0.42500000000000004
v 0.17980697020542386 0.3110534005783555 0.575
v 0.24737826972119561 -0.006844569660131389 0.42500000000000004
v 0.24737826972119561 -0.006844569660131389 0.575
vt 0 1
vt 0.1 1
vt 0.1 0.675
vt 0 0.675
vt 0 1
vt 0.14999999999999997 1
vt 0.14999999999999997 0.675
vt 0 0.675
vt 0 1
vt 0.1 1
vt 0.1 0.675
vt 0 0.675
vt 0 1
vt 0.14999999999999997 1
vt 0.14999999999999997 0.675
vt 0 0.675
vt 0 1
vt 0.1 1
vt 0.1 0.8500000000000001
vt 0 0.8500000000000001
vt 0 1
vt 0.1 1
vt 0.1 0.8500000000000001
vt 0 0.8500000000000001
vn 0 0 -1
vn 0.9781476007338057 0.2079116908177593 0
vn 0 0 1
vn -0.9781476007338057 -0.2079116908177593 0
vn -0.2079116908177593 0.9781476007338057 0
vn 0.2079116908177593 -0.9781476007338057 0
usemtl m_ddf64e55-8f94-226e-0c94-2769f6f38b01
f 190/844/253 193/843/253 191/842/253 188/841/253
f 189/848/254 190/847/254 188/846/254 187/845/254
f 194/852/255 189/851/255 187/850/255 192/849/255
f 193/856/256 194/855/256 192/854/256 191/853/256
f 192/860/257 187/859/257 188/858/257 191/857/257
f 193/864/258 190/863/258 189/862/258 194/861/258
o leg_b
v 0.8201930297945763 0.31105340057835545 0.575
v 0.8201930297945763 0.31105340057835545 0.42500000000000004
v 0.7526217302788045 -0.0068445696601314165 0.575
v 0.7526217302788045 -0.0068445696601314165 0.42500000000000004
v 0.7223782697211956 0.3318445696601314 0.42500000000000004
v 0.7223782697211956 0.3318445696601314 0.575
v 0.6548069702054238 0.013946599421644557 0.42500000000000004
v 0.6548069702054238 0.013946599421644557 0.575
vt 0 1
vt 0.09999999999999998 1
vt 0.09999999999999998 0.675
vt 0 0.675
vt 0 1
vt 0.14999999999999997 1
vt 0.14999999999999997 0.675
vt 0 0.675
vt 0 1
vt 0.09999999999999998 1
vt 0.09999999999999998 0.675
vt 0 0.675
vt 0 1
vt 0.14999999999999997 1
vt 0.14999999999999997 0.675
vt 0 0.675
vt 0 1
vt 0.09999999999999998 1
vt 0.09999999999999998 0.8500000000000001
vt 0 0.8500000000000001
vt 0 1
vt 0.09999999999999998 1
vt 0.09999999999999998 0.8500000000000001
vt 0 0.8500000000000001
vn 0 0 -1
vn 0.9781476007338057 -0.2079116908177593 0
vn 0 0 1
vn -0.9781476007338057 0.2079116908177593 0
vn 0.2079116908177593 0.9781476007338057 0
vn -0.2079116908177593 -0.9781476007338057 0
usemtl m_ddf64e55-8f94-226e-0c94-2769f6f38b01
f 198/868/259 201/867/259 199/866/259 196/865/259
f 197/872/260 198/871/260 196/870/260 195/869/260
f 202/876/261 197/875/261 195/874/261 200/873/261
f 201/880/262 202/879/262 200/878/262 199/877/262
f 200/884/263 195/883/263 196/882/263 199/881/263
f 201/888/264 198/887/264 197/886/264 202/885/264
o base_bar
v 0.775 0.075 0.56875
v 0.775 0.075 0.43125
v 0.775 0 0.56875
v 0.775 0 0.43125
v 0.22499999999999998 0.075 0.43125
v 0.22499999999999998 0.075 0.56875
v 0.22499999999999998 0 0.43125
v 0.22499999999999998 0 0.56875
vt 0 1
vt 0.55 1
vt 0.55 0.925
vt 0 0.925
vt 0 1
vt 0.13749999999999996 1
vt 0.13749999999999996 0.925
vt 0 0.925
vt 0 1
vt 0.55 1
vt 0.55 0.925
vt 0 0.925
vt 0 1
vt 0.13749999999999996 1
vt 0.13749999999999996 0.925
vt 0 0.925
vt 0 1
vt 0.55 1
vt 0.55 0.8625
vt 0 0.8625
vt 0 1
vt 0.55 1
vt 0.55 0.8625
vt 0 0.8625
vn 0 0 -1
vn 1 0 0
vn 0 0 1
vn -1 0 0
vn 0 1 0
vn 0 -1 0
usemtl m_ddf64e55-8f94-226e-0c94-2769f6f38b01
f 206/892/265 209/891/265 207/890/265 204/889/265
f 205/896/266 206/895/266 204/894/266 203/893/266
f 210/900/267 205/899/267 203/898/267 208/897/267
f 209/904/268 210/903/268 208/902/268 207/901/268
f 208/908/269 203/907/269 204/906/269 207/905/269
f 209/912/270 206/911/270 205/910/270 210/909/270