# Made in Blockbench 5.1.5
mtllib materials.mtl

o disc
v 0.5 0.34375 0.5
v 0.5 0.15625 0.5
v 0.84375 0.34375 0.5
v 0.84375 0.15625 0.5
v 0.8269256774764591 0.34375 0.6062245918163882
v 0.8269256774764591 0.15625 0.6062245918163882
v 0.7780995918163882 0.34375 0.7020511804755376
v 0.7780995918163882 0.15625 0.7020511804755376
v 0.7020511804755376 0.34375 0.7780995918163882
v 0.7020511804755376 0.15625 0.7780995918163882
v 0.6062245918163882 0.34375 0.8269256774764591
v 0.6062245918163882 0.15625 0.8269256774764591
v 0.5 0.34375 0.84375
v 0.5 0.15625 0.84375
v 0.39377540818361184 0.34375 0.8269256774764591
v 0.39377540818361184 0.15625 0.8269256774764591
v 0.2979488195244624 0.34375 0.7780995918163882
v 0.2979488195244624 0.15625 0.7780995918163882
v 0.22190040818361184 0.34375 0.7020511804755377
v 0.22190040818361184 0.15625 0.7020511804755377
v 0.173074322523541 0.34375 0.6062245918163882
v 0.173074322523541 0.15625 0.6062245918163882
v 0.15625 0.34375 0.5
v 0.15625 0.15625 0.5
v 0.173074322523541 0.34375 0.39377540818361173
v 0.173074322523541 0.15625 0.39377540818361173
v 0.22190040818361179 0.34375 0.2979488195244624
v 0.22190040818361179 0.15625 0.2979488195244624
v 0.2979488195244623 0.34375 0.22190040818361184
v 0.2979488195244623 0.15625 0.22190040818361184
v 0.3937754081836118 0.34375 0.173074322523541
v 0.3937754081836118 0.15625 0.173074322523541
v 0.49999999999999994 0.34375 0.15625
v 0.49999999999999994 0.15625 0.15625
v 0.6062245918163881 0.34375 0.17307432252354094
v 0.6062245918163881 0.15625 0.17307432252354094
v 0.7020511804755376 0.34375 0.22190040818361179
v 0.7020511804755376 0.15625 0.22190040818361179
v 0.7780995918163882 0.34375 0.2979488195244623
v 0.7780995918163882 0.15625 0.2979488195244623
v 0.8269256774764591 0.34375 0.39377540818361173
v 0.8269256774764591 0.15625 0.39377540818361173
vt 0 1
vt 0 1
vt 0 1
vt 0 1
vt 0 1
vt 0 1
vt 0 1
vt 0 1
vt 0 1
vt 0 1
vt 0 1
vt 0 1
vt 0 1
vt 0 1
vt 0 1
vt 0 1
vt 0 1
vt 0 1
vt 0 1
vt 0 1
vt 0 1
vt 0 1
vt 0 1
vt 0 1
vt 0 1
vt 0 1
vt 0 1
vt 0 1
vt 0 1
vt 0 1
vt 0 1
vt 0 1
vt 0 1
vt 0 1
vt 0 1
vt 0 1
vt 0 1
vt 0 1
vt 0 1
vt 0 1
vt 0 1
vt 0 1
vt 0 1
vt 0 1
vt 0 1
vt 0 1
vt 0 1
vt 0 1
vt 0 1
vt 0 1
vt 0 1
vt 0 1
vt 0 1
vt 0 1
vt 0 1
vt 0 1
vt 0 1
vt 0 1
vt 0 1
vt 0 1
vt 0 1
vt 0 1
vt 0 1
vt 0 1
vt 0 1
vt 0 1
vt 0 1
vt 0 1
vt 0 1
vt 0 1
vt 0 1
vt 0 1
vt 0 1
vt 0 1
vt 0 1
vt 0 1
vt 0 1
vt 0 1
vt 0 1
vt 0 1
vt 0 1
vt 0 1
vt 0 1
vt 0 1
vt 0 1
vt 0 1
vt 0 1
vt 0 1
vt 0 1
vt 0 1
vt 0 1
vt 0 1
vt 0 1
vt 0 1
vt 0 1
vt 0 1
vt 0 1
vt 0 1
vt 0 1
vt 0 1
vt 0 1
vt 0 1
vt 0 1
vt 0 1
vt 0 1
vt 0 1
vt 0 1
vt 0 1
vt 0 1
vt 0 1
vt 0 1
vt 0 1
vt 0 1
vt 0 1
vt 0 1
vt 0 1
vt 0 1
vt 0 1
vt 0 1
vt 0 1
vt 0 1
vt 0 1
vt 0 1
vt 0 1
vt 0 1
vt 0 1
vt 0 1
vt 0 1
vt 0 1
vt 0 1
vt 0 1
vt 0 1
vt 0 1
vt 0 1
vt 0 1
vt 0 1
vt 0 1
vt 0 1
vt 0 1
vt 0 1
vt 0 1
vt 0 1
vt 0 1
vt 0 1
vt 0 1
vt 0 1
vt 0 1
vt 0 1
vt 0 1
vt 0 1
vt 0 1
vt 0 1
vt 0 1
vt 0 1
vt 0 1
vt 0 1
vt 0 1
vt 0 1
vt 0 1
vt 0 1
vt 0 1
vt 0 1
vt 0 1
vt 0 1
vt 0 1
vt 0 1
vt 0 1
vt 0 1
vt 0 1
vt 0 1
vt 0 1
vt 0 1
vt 0 1
vt 0 1
vt 0 1
vt 0 1
vt 0 1
vt 0 1
vt 0 1
vt 0 1
vt 0 1
vt 0 1
vt 0 1
vt 0 1
vt 0 1
vt 0 1
vt 0 1
vt 0 1
vt 0 1
vt 0 1
vt 0 1
vt 0 1
vt 0 1
vt 0 1
vt 0 1
vt 0 1
vt 0 1
vt 0 1
vt 0 1
vt 0 1
vn -0.9876883405951379 0 -0.15643446504023117
vn 0 -1 0
vn 0 1 0
vn -0.8910065241883681 0 -0.4539904997395463
vn 0 -1 0
vn 0 1 0
vn -0.7071067811865476 0 -0.7071067811865476
vn 0 -1 0
vn 0 1 0
vn -0.45399049973954636 0 -0.8910065241883681
vn 0 -1 0
vn 0 1 0
vn -0.1564344650402312 0 -0.9876883405951379
vn 0 -1 0
vn 0 1 0
vn 0.15643446504023067 0 -0.9876883405951379
vn 0 -1 0
vn 0 1 0
vn 0.45399049973954664 0 -0.8910065241883679
vn 0 -1 0
vn 0 1 0
vn 0.7071067811865475 0 -0.7071067811865477
vn 0 -1 0
vn 0 1 0
vn 0.8910065241883681 0 -0.4539904997395467
vn 0 -1 0
vn 0 1 0
vn 0.9876883405951379 0 -0.1564344650402312
vn 0 -1 0
vn 0 1 0
vn 0.9876883405951379 0 0.15643446504023095
vn 0 -1 0
vn 0 1 0
vn 0.8910065241883679 0 0.4539904997395468
vn 0 -1 0
vn 0 1 0
vn 0.7071067811865477 0 0.7071067811865475
vn 0 -1 0
vn 0 1 0
vn 0.45399049973954664 0 0.8910065241883679
vn 0 -1 0
vn 0 1 0
vn 0.1564344650402312 0 0.9876883405951379
vn 0 -1 0
vn 0 1 0
vn -0.15643446504023067 0 0.9876883405951379
vn 0 -1 0
vn 0 1 0
vn -0.45399049973954686 0 0.891006524188368
vn 0 -1 0
vn 0 1 0
vn -0.707106781186547 0 0.707106781186548
vn 0 -1 0
vn 0 1 0
vn -0.891006524188368 0 0.45399049973954686
vn 0 -1 0
vn 0 1 0
vn -0.9876883405951379 0 0.15643446504023104
vn 0 -1 0
vn 0 1 0
usemtl none
f 4/1/1 6/2/1 5/3/1 3/4/1
f 3/5/2 5/6/2 1/7/2
f 6/8/3 4/9/3 2/10/3
f 6/11/4 8/12/4 7/13/4 5/14/4
f 5/15/5 7/16/5 1/17/5
f 8/18/6 6/19/6 2/20/6
f 8/21/7 10/22/7 9/23/7 7/24/7
f 7/25/8 9/26/8 1/27/8
f 10/28/9 8/29/9 2/30/9
f 10/31/10 12/32/10 11/33/10 9/34/10
f 9/35/11 11/36/11 1/37/11
f 12/38/12 10/39/12 2/40/12
f 12/41/13 14/42/13 13/43/13 11/44/13
f 11/45/14 13/46/14 1/47/14
f 14/48/15 12/49/15 2/50/15
f 14/51/16 16/52/16 15/53/16 13/54/16
f 13/55/17 15/56/17 1/57/17
f 16/58/18 14/59/18 2/60/18
f 16/61/19 18/62/19 17/63/19 15/64/19
f 15/65/20 17/66/20 1/67/20
f 18/68/21 16/69/21 2/70/21
f 18/71/22 20/72/22 19/73/22 17/74/22
f 17/75/23 19/76/23 1/77/23
f 20/78/24 18/79/24 2/80/24
f 20/81/25 22/82/25 21/83/25 19/84/25
f 19/85/26 21/86/26 1/87/26
f 22/88/27 20/89/27 2/90/27
f 22/91/28 24/92/28 23/93/28 21/94/28
f 21/95/29 23/96/29 1/97/29
f 24/98/30 22/99/30 2/100/30
f 24/101/31 26/102/31 25/103/31 23/104/31
f 23/105/32 25/106/32 1/107/32
f 26/108/33 24/109/33 2/110/33
f 26/111/34 28/112/34 27/113/34 25/114/34
f 25/115/35 27/116/35 1/117/35
f 28/118/36 26/119/36 2/120/36
f 28/121/37 30/122/37 29/123/37 27/124/37
f 27/125/38 29/126/38 1/127/38
f 30/128/39 28/129/39 2/130/39
f 30/131/40 32/132/40 31/133/40 29/134/40
f 29/135/41 31/136/41 1/137/41
f 32/138/42 30/139/42 2/140/42
f 32/141/43 34/142/43 33/143/43 31/144/43
f 31/145/44 33/146/44 1/147/44
f 34/148/45 32/149/45 2/150/45
f 34/151/46 36/152/46 35/153/46 33/154/46
f 33/155/47 35/156/47 1/157/47
f 36/158/48 34/159/48 2/160/48
f 36/161/49 38/162/49 37/163/49 35/164/49
f 35/165/50 37/166/50 1/167/50
f 38/168/51 36/169/51 2/170/51
f 38/171/52 40/172/52 39/173/52 37/174/52
f 37/175/53 39/176/53 1/177/53
f 40/178/54 38/179/54 2/180/54
f 40/181/55 42/182/55 41/183/55 39/184/55
f 39/185/56 41/186/56 1/187/56
f 42/188/57 40/189/57 2/190/57
f 42/191/58 4/192/58 3/193/58 41/194/58
f 41/195/59 3/196/59 1/197/59
f 4/198/60 42/199/60 2/200/60
o hub
v 0.5 0.53125 0.5
v 0.5 0.15625 0.5
v 0.65625 0.53125 0.5
v 0.65625 0.15625 0.5
v 0.6443561769548886 0.53125 0.5597942863070453
v 0.6443561769548886 0.15625 0.5597942863070453
v 0.610485434560398 0.53125 0.610485434560398
v 0.610485434560398 0.15625 0.610485434560398
v 0.5597942863070453 0.53125 0.6443561769548886
v 0.5597942863070453 0.15625 0.6443561769548886
v 0.5 0.53125 0.65625
v 0.5 0.15625 0.65625
v 0.44020571369295475 0.53125 0.6443561769548886
v 0.44020571369295475 0.15625 0.6443561769548886
v 0.38951456543960195 0.53125 0.610485434560398
v 0.38951456543960195 0.15625 0.610485434560398
v 0.35564382304511144 0.53125 0.5597942863070453
v 0.35564382304511144 0.15625 0.5597942863070453
v 0.34375 0.53125 0.5
v 0.34375 0.15625 0.5
v 0.35564382304511144 0.53125 0.44020571369295475
v 0.35564382304511144 0.15625 0.44020571369295475
v 0.38951456543960195 0.53125 0.38951456543960195
v 0.38951456543960195 0.15625 0.38951456543960195
v 0.44020571369295464 0.53125 0.3556438230451115
v 0.44020571369295464 0.15625 0.3556438230451115
v 0.49999999999999994 0.53125 0.34375
v 0.49999999999999994 0.15625 0.34375
v 0.5597942863070453 0.53125 0.35564382304511144
v 0.5597942863070453 0.15625 0.35564382304511144
v 0.610485434560398 0.53125 0.38951456543960195
v 0.610485434560398 0.15625 0.38951456543960195
v 0.6443561769548884 0.53125 0.44020571369295464
v 0.6443561769548884 0.15625 0.44020571369295464
vt 0 1
vt 0 1
vt 0 1
vt 0 1
vt 0 1
vt 0 1
vt 0 1
vt 0 1
vt 0 1
vt 0 1
vt 0 1
vt 0 1
vt 0 1
vt 0 1
vt 0 1
vt 0 1
vt 0 1
vt 0 1
vt 0 1
vt 0 1
vt 0 1
vt 0 1
vt 0 1
vt 0 1
vt 0 1
vt 0 1
vt 0 1
vt 0 1
vt 0 1
vt 0 1
vt 0 1
vt 0 1
vt 0 1
vt 0 1
vt 0 1
vt 0 1
vt 0 1
vt 0 1
vt 0 1
vt 0 1
vt 0 1
vt 0 1
vt 0 1
vt 0 1
vt 0 1
vt 0 1
vt 0 1
vt 0 1
vt 0 1
vt 0 1
vt 0 1
vt 0 1
vt 0 1
vt 0 1
vt 0 1
vt 0 1
vt 0 1
vt 0 1
vt 0 1
vt 0 1
vt 0 1
vt 0 1
vt 0 1
vt 0 1
vt 0 1
vt 0 1
vt 0 1
vt 0 1
vt 0 1
vt 0 1
vt 0 1
vt 0 1
vt 0 1
vt 0 1
vt 0 1
vt 0 1
vt 0 1
vt 0 1
vt 0 1
vt 0 1
vt 0 1
vt 0 1
vt 0 1
vt 0 1
vt 0 1
vt 0 1
vt 0 1
vt 0 1
vt 0 1
vt 0 1
vt 0 1
vt 0 1
vt 0 1
vt 0 1
vt 0 1
vt 0 1
vt 0 1
vt 0 1
vt 0 1
vt 0 1
vt 0 1
vt 0 1
vt 0 1
vt 0 1
vt 0 1
vt 0 1
vt 0 1
vt 0 1
vt 0 1
vt 0 1
vt 0 1
vt 0 1
vt 0 1
vt 0 1
vt 0 1
vt 0 1
vt 0 1
vt 0 1
vt 0 1
vt 0 1
vt 0 1
vt 0 1
vt 0 1
vt 0 1
vt 0 1
vt 0 1
vt 0 1
vt 0 1
vt 0 1
vt 0 1
vt 0 1
vt 0 1
vt 0 1
vt 0 1
vt 0 1
vt 0 1
vt 0 1
vt 0 1
vt 0 1
vt 0 1
vt 0 1
vt 0 1
vt 0 1
vt 0 1
vt 0 1
vt 0 1
vt 0 1
vt 0 1
vt 0 1
vt 0 1
vt 0 1
vt 0 1
vt 0 1
vt 0 1
vt 0 1
vt 0 1
vt 0 1
vt 0 1
vt 0 1
vt 0 1
vn -0.9807852804032305 0 -0.1950903220161282
vn 0 -1 0
vn 0 1 0
vn -0.8314696123025453 0 -0.5555702330196023
vn 0 -1 0
vn 0 1 0
vn -0.5555702330196025 0 -0.8314696123025451
vn 0 -1 0
vn 0 1 0
vn -0.1950903220161282 0 -0.9807852804032305
vn 0 -1 0
vn 0 1 0
vn 0.19509032201612822 0 -0.9807852804032305
vn 0 -1 0
vn 0 1 0
vn 0.5555702330196022 0 -0.8314696123025452
vn 0 -1 0
vn 0 1 0
vn 0.8314696123025451 0 -0.5555702330196025
vn 0 -1 0
vn 0 1 0
vn 0.9807852804032305 0 -0.19509032201612822
vn 0 -1 0
vn 0 1 0
vn 0.9807852804032305 0 0.1950903220161282
vn 0 -1 0
vn 0 1 0
vn 0.8314696123025457 0 0.5555702330196018
vn 0 -1 0
vn 0 1 0
vn 0.5555702330196022 0 0.8314696123025452
vn 0 -1 0
vn 0 1 0
vn 0.19509032201612894 0 0.9807852804032304
vn 0 -1 0
vn 0 1 0
vn -0.19509032201612841 0 0.9807852804032304
vn 0 -1 0
vn 0 1 0
vn -0.5555702330196021 0 0.8314696123025453
vn 0 -1 0
vn 0 1 0
vn -0.8314696123025451 0 0.5555702330196024
vn 0 -1 0
vn 0 1 0
vn -0.9807852804032304 0 0.19509032201612878
vn 0 -1 0
vn 0 1 0
usemtl none
f 46/201/61 48/202/61 47/203/61 45/204/61
f 45/205/62 47/206/62 43/207/62
f 48/208/63 46/209/63 44/210/63
f 48/211/64 50/212/64 49/213/64 47/214/64
f 47/215/65 49/216/65 43/217/65
f 50/218/66 48/219/66 44/220/66
f 50/221/67 52/222/67 51/223/67 49/224/67
f 49/225/68 51/226/68 43/227/68
f 52/228/69 50/229/69 44/230/69
f 52/231/70 54/232/70 53/233/70 51/234/70
f 51/235/71 53/236/71 43/237/71
f 54/238/72 52/239/72 44/240/72
f 54/241/73 56/242/73 55/243/73 53/244/73
f 53/245/74 55/246/74 43/247/74
f 56/248/75 54/249/75 44/250/75
f 56/251/76 58/252/76 57/253/76 55/254/76
f 55/255/77 57/256/77 43/257/77
f 58/258/78 56/259/78 44/260/78
f 58/261/79 60/262/79 59/263/79 57/264/79
f 57/265/80 59/266/80 43/267/80
f 60/268/81 58/269/81 44/270/81
f 60/271/82 62/272/82 61/273/82 59/274/82
f 59/275/83 61/276/83 43/277/83
f 62/278/84 60/279/84 44/280/84
f 62/281/85 64/282/85 63/283/85 61/284/85
f 61/285/86 63/286/86 43/287/86
f 64/288/87 62/289/87 44/290/87
f 64/291/88 66/292/88 65/293/88 63/294/88
f 63/295/89 65/296/89 43/297/89
f 66/298/90 64/299/90 44/300/90
f 66/301/91 68/302/91 67/303/91 65/304/91
f 65/305/92 67/306/92 43/307/92
f 68/308/93 66/309/93 44/310/93
f 68/311/94 70/312/94 69/313/94 67/314/94
f 67/315/95 69/316/95 43/317/95
f 70/318/96 68/319/96 44/320/96
f 70/321/97 72/322/97 71/323/97 69/324/97
f 69/325/98 71/326/98 43/327/98
f 72/328/99 70/329/99 44/330/99
f 72/331/100 74/332/100 73/333/100 71/334/100
f 71/335/101 73/336/101 43/337/101
f 74/338/102 72/339/102 44/340/102
f 74/341/103 76/342/103 75/343/103 73/344/103
f 73/345/104 75/346/104 43/347/104
f 76/348/105 74/349/105 44/350/105
f 76/351/106 46/352/106 45/353/106 75/354/106
f 75/355/107 45/356/107 43/357/107
f 46/358/108 76/359/108 44/360/108
o axle
v 0.5 0.96875 0.5
v 0.5 0.03125 0.5
v 0.5625 0.96875 0.5
v 0.5625 0.03125 0.5
v 0.5505635621484342 0.96875 0.5367365782682796
v 0.5505635621484342 0.03125 0.5367365782682796
v 0.5193135621484342 0.96875 0.5594410322684471
v 0.5193135621484342 0.03125 0.5594410322684471
v 0.4806864378515658 0.96875 0.5594410322684471
v 0.4806864378515658 0.03125 0.5594410322684471
v 0.4494364378515658 0.96875 0.5367365782682796
v 0.4494364378515658 0.03125 0.5367365782682796
v 0.4375 0.96875 0.5
v 0.4375 0.03125 0.5
v 0.4494364378515658 0.96875 0.4632634217317204
v 0.4494364378515658 0.03125 0.4632634217317204
v 0.4806864378515658 0.96875 0.4405589677315529
v 0.4806864378515658 0.03125 0.4405589677315529
v 0.5193135621484342 0.96875 0.4405589677315529
v 0.5193135621484342 0.03125 0.4405589677315529
v 0.5505635621484342 0.96875 0.4632634217317204
v 0.5505635621484342 0.03125 0.4632634217317204
vt 0 1
vt 0 1
vt 0 1
vt 0 1
vt 0 1
vt 0 1
vt 0 1
vt 0 1
vt 0 1
vt 0 1
vt 0 1
vt 0 1
vt 0 1
vt 0 1
vt 0 1
vt 0 1
vt 0 1
vt 0 1
vt 0 1
vt 0 1
vt 0 1
vt 0 1
vt 0 1
vt 0 1
vt 0 1
vt 0 1
vt 0 1
vt 0 1
vt 0 1
vt 0 1
vt 0 1
vt 0 1
vt 0 1
vt 0 1
vt 0 1
vt 0 1
vt 0 1
vt 0 1
vt 0 1
vt 0 1
vt 0 1
vt 0 1
vt 0 1
vt 0 1
vt 0 1
vt 0 1
vt 0 1
vt 0 1
vt 0 1
vt 0 1
vt 0 1
vt 0 1
vt 0 1
vt 0 1
vt 0 1
vt 0 1
vt 0 1
vt 0 1
vt 0 1
vt 0 1
vt 0 1
vt 0 1
vt 0 1
vt 0 1
vt 0 1
vt 0 1
vt 0 1
vt 0 1
vt 0 1
vt 0 1
vt 0 1
vt 0 1
vt 0 1
vt 0 1
vt 0 1
vt 0 1
vt 0 1
vt 0 1
vt 0 1
vt 0 1
vt 0 1
vt 0 1
vt 0 1
vt 0 1
vt 0 1
vt 0 1
vt 0 1
vt 0 1
vt 0 1
vt 0 1
vt 0 1
vt 0 1
vt 0 1
vt 0 1
vt 0 1
vt 0 1
vt 0 1
vt 0 1
vt 0 1
vt 0 1
vn -0.9510565162951536 0 -0.3090169943749474
vn 0 -1 0
vn 0 1 0
vn -0.5877852522924731 0 -0.8090169943749476
vn 0 -1 0
vn 0 1 0
vn -1.796378588936215e-16 0 -1
vn 0 -1 0
vn 0 1 0
vn 0.5877852522924731 0 -0.8090169943749476
vn 0 -1 0
vn 0 1 0
vn 0.9510565162951536 0 -0.3090169943749476
vn 0 -1 0
vn 0 1 0
vn 0.9510565162951536 0 0.30901699437494723
vn 0 -1 0
vn 0 1 0
vn 0.5877852522924732 0 0.8090169943749473
vn 0 -1 0
vn 0 1 0
vn 1.796378588936215e-16 0 1
vn 0 -1 0
vn 0 1 0
vn -0.5877852522924729 0 0.8090169943749477
vn 0 -1 0
vn 0 1 0
vn -0.9510565162951538 0 0.3090169943749475
vn 0 -1 0
vn 0 1 0
usemtl none
f 80/361/109 82/362/109 81/363/109 79/364/109
f 79/365/110 81/366/110 77/367/110
f 82/368/111 80/369/111 78/370/111
f 82/371/112 84/372/112 83/373/112 81/374/112
f 81/375/113 83/376/113 77/377/113
f 84/378/114 82/379/114 78/380/114
f 84/381/115 86/382/115 85/383/115 83/384/115
f 83/385/116 85/386/116 77/387/116
f 86/388/117 84/389/117 78/390/117
f 86/391/118 88/392/118 87/393/118 85/394/118
f 85/395/119 87/396/119 77/397/119
f 88/398/120 86/399/120 78/400/120
f 88/401/121 90/402/121 89/403/121 87/404/121
f 87/405/122 89/406/122 77/407/122
f 90/408/123 88/409/123 78/410/123
f 90/411/124 92/412/124 91/413/124 89/414/124
f 89/415/125 91/416/125 77/417/125
f 92/418/126 90/419/126 78/420/126
f 92/421/127 94/422/127 93/423/127 91/424/127
f 91/425/128 93/426/128 77/427/128
f 94/428/129 92/429/129 78/430/129
f 94/431/130 96/432/130 95/433/130 93/434/130
f 93/435/131 95/436/131 77/437/131
f 96/438/132 94/439/132 78/440/132
f 96/441/133 98/442/133 97/443/133 95/444/133
f 95/445/134 97/446/134 77/447/134
f 98/448/135 96/449/135 78/450/135
f 98/451/136 80/452/136 79/453/136 97/454/136
f 97/455/137 79/456/137 77/457/137
f 80/458/138 98/459/138 78/460/138
o tooth0
v 0.98125 0.34375 0.5625
v 0.98125 0.34375 0.4375
v 0.98125 0.15625 0.5625
v 0.98125 0.15625 0.4375
v 0.76875 0.34375 0.4375
v 0.76875 0.34375 0.5625
v 0.76875 0.15625 0.4375
v 0.76875 0.15625 0.5625
vt 0 1
vt 0.2124999999999999 1
vt 0.2124999999999999 0.8125
vt 0 0.8125
vt 0 1
vt 0.125 1
vt 0.125 0.8125
vt 0 0.8125
vt 0 1
vt 0.2124999999999999 1
vt 0.2124999999999999 0.8125
vt 0 0.8125
vt 0 1
vt 0.125 1
vt 0.125 0.8125
vt 0 0.8125
vt 0 1
vt 0.2124999999999999 1
vt 0.2124999999999999 0.875
vt 0 0.875
vt 0 1
vt 0.2124999999999999 1
vt 0.2124999999999999 0.875
vt 0 0.875
vn 0 0 -1
vn 1 0 0
vn 0 0 1
vn -1 0 0
vn 0 1 0
vn 0 -1 0
usemtl m_05a38307-5947-ae14-9e4d-1553f8c216b6
f 102/464/139 105/463/139 103/462/139 100/461/139
f 101/468/140 102/467/140 100/466/140 99/465/140
f 106/472/141 101/471/141 99/470/141 104/469/141
f 105/476/142 106/475/142 104/474/142 103/473/142
f 104/480/143 99/479/143 100/478/143 103/477/143
f 105/484/144 102/483/144 101/482/144 106/481/144
o tooth1
v 0.7959359216769113 0.34375 0.8843242693252298
v 0.8843242693252298 0.34375 0.7959359216769114
v 0.7959359216769113 0.15625 0.8843242693252298
v 0.8843242693252298 0.15625 0.7959359216769114
v 0.7340640783230885 0.34375 0.64567573067477
v 0.64567573067477 0.34375 0.7340640783230885
v 0.7340640783230885 0.15625 0.64567573067477
v 0.64567573067477 0.15625 0.7340640783230885
vt 0 1
vt 0.21250000000000002 1
vt 0.21250000000000002 0.8125
vt 0 0.8125
vt 0 1
vt 0.125 1
vt 0.125 0.8125
vt 0 0.8125
vt 0 1
vt 0.21250000000000002 1
vt 0.21250000000000002 0.8125
vt 0 0.8125
vt 0 1
vt 0.125 1
vt 0.125 0.8125
vt 0 0.8125
vt 0 1
vt 0.21250000000000002 1
vt 0.21250000000000002 0.875
vt 0 0.875
vt 0 1
vt 0.21250000000000002 1
vt 0.21250000000000002 0.875
vt 0 0.875
vn 0.7071067811865476 0 -0.7071067811865475
vn 0.7071067811865475 0 0.7071067811865476
vn -0.7071067811865476 0 0.7071067811865475
vn -0.7071067811865475 0 -0.7071067811865476
vn 0 1 0
vn 0 -1 0
usemtl m_05a38307-5947-ae14-9e4d-1553f8c216b6
f 110/488/145 113/487/145 111/486/145 108/485/145
f 109/492/146 110/491/146 108/490/146 107/489/146
f 114/496/147 109/495/147 107/494/147 112/493/147
f 113/500/148 114/499/148 112/498/148 111/497/148
f 112/504/149 107/503/149 108/502/149 111/501/149
f 113/508/150 110/507/150 109/506/150 114/505/150
o tooth2
v 0.4375 0.34375 0.98125
v 0.5625 0.34375 0.98125
v 0.4375 0.15625 0.98125
v 0.5625 0.15625 0.98125
v 0.5625 0.34375 0.76875
v 0.4375 0.34375 0.76875
v 0.5625 0.15625 0.76875
v 0.4375 0.15625 0.76875
vt 0 1
vt 0.21249999999999997 1
vt 0.21249999999999997 0.8125
vt 0 0.8125
vt 0 1
vt 0.125 1
vt 0.125 0.8125
vt 0 0.8125
vt 0 1
vt 0.21249999999999997 1
vt 0.21249999999999997 0.8125
vt 0 0.8125
vt 0 1
vt 0.125 1
vt 0.125 0.8125
vt 0 0.8125
vt 0 1
vt 0.21249999999999997 1
vt 0.21249999999999997 0.875
vt 0 0.875
vt 0 1
vt 0.21249999999999997 1
vt 0.21249999999999997 0.875
vt 0 0.875
vn 1 0 -2.220446049250313e-16
vn 2.220446049250313e-16 0 1
vn -1 0 2.220446049250313e-16
vn -2.220446049250313e-16 0 -1
vn 0 1 0
vn 0 -1 0
usemtl m_05a38307-5947-ae14-9e4d-1553f8c216b6
f 118/512/151 121/511/151 119/510/151 116/509/151
f 117/516/152 118/515/152 116/514/152 115/513/152
f 122/520/153 117/519/153 115/518/153 120/517/153
f 121/524/154 122/523/154 120/522/154 119/521/154
f 120/528/155 115/527/155 116/526/155 119/525/155
f 121/532/156 118/531/156 117/530/156 122/529/156
o tooth3
v 0.11567573067477008 0.34375 0.7959359216769115
v 0.20406407832308854 0.34375 0.8843242693252299
v 0.11567573067477008 0.15625 0.7959359216769115
v 0.20406407832308854 0.15625 0.8843242693252299
v 0.35432426932522987 0.34375 0.7340640783230885
v 0.26593592167691144 0.34375 0.6456757306747701
v 0.35432426932522987 0.15625 0.7340640783230885
v 0.26593592167691144 0.15625 0.6456757306747701
vt 0 1
vt 0.2125 1
vt 0.2125 0.8125
vt 0 0.8125
vt 0 1
vt 0.125 1
vt 0.125 0.8125
vt 0 0.8125
vt 0 1
vt 0.2125 1
vt 0.2125 0.8125
vt 0 0.8125
vt 0 1
vt 0.125 1
vt 0.125 0.8125
vt 0 0.8125
vt 0 1
vt 0.2125 1
vt 0.2125 0.875
vt 0 0.875
vt 0 1
vt 0.2125 1
vt 0.2125 0.875
vt 0 0.875
vn 0.7071067811865477 0 0.7071067811865475
vn -0.7071067811865475 0 0.7071067811865477
vn -0.7071067811865477 0 -0.7071067811865475
vn 0.7071067811865475 0 -0.7071067811865477
vn 0 1 0
vn 0 -1 0
usemtl m_05a38307-5947-ae14-9e4d-1553f8c216b6
f 126/536/157 129/535/157 127/534/157 124/533/157
f 125/540/158 126/539/158 124/538/158 123/537/158
f 130/544/159 125/543/159 123/542/159 128/541/159
f 129/548/160 130/547/160 128/546/160 127/545/160
f 128/552/161 123/551/161 124/550/161 127/549/161
f 129/556/162 126/555/162 125/554/162 130/553/162
o tooth4
v 0.018750000000000003 0.34375 0.4375
v 0.018749999999999975 0.34375 0.5625
v 0.018750000000000003 0.15625 0.4375
v 0.018749999999999975 0.15625 0.5625
v 0.23125 0.34375 0.5625
v 0.23125 0.34375 0.4375
v 0.23125 0.15625 0.5625
v 0.23125 0.15625 0.4375
vt 0 1
vt 0.21250000000000002 1
vt 0.21250000000000002 0.8125
vt 0 0.8125
vt 0 1
vt 0.125 1
vt 0.125 0.8125
vt 0 0.8125
vt 0 1
vt 0.21250000000000002 1
vt 0.21250000000000002 0.8125
vt 0 0.8125
vt 0 1
vt 0.125 1
vt 0.125 0.8125
vt 0 0.8125
vt 0 1
vt 0.21250000000000002 1
vt 0.21250000000000002 0.875
vt 0 0.875
vt 0 1
vt 0.21250000000000002 1
vt 0.21250000000000002 0.875
vt 0 0.875
vn -1.2246467991473532e-16 0 1
vn -1 0 -1.2246467991473532e-16
vn 1.2246467991473532e-16 0 -1
vn 1 0 1.2246467991473532e-16
vn 0 1 0
vn 0 -1 0
usemtl m_05a38307-5947-ae14-9e4d-1553f8c216b6
f 134/560/163 137/559/163 135/558/163 132/557/163
f 133/564/164 134/563/164 132/562/164 131/561/164
f 138/568/165 133/567/165 131/566/165 136/565/165
f 137/572/166 138/571/166 136/570/166 135/569/166
f 136/576/167 131/575/167 132/574/167 135/573/167
f 137/580/168 134/579/168 133/578/168 138/577/168
o tooth5
v 0.20406407832308854 0.34375 0.11567573067477008
v 0.11567573067477008 0.34375 0.2040640783230885
v 0.20406407832308854 0.15625 0.11567573067477008
v 0.11567573067477008 0.15625 0.2040640783230885
v 0.26593592167691144 0.34375 0.35432426932522987
v 0.35432426932522987 0.34375 0.2659359216769115
v 0.26593592167691144 0.15625 0.35432426932522987
v 0.35432426932522987 0.15625 0.2659359216769115
vt 0 1
vt 0.2125 1
vt 0.2125 0.8125
vt 0 0.8125
vt 0 1
vt 0.125 1
vt 0.125 0.8125
vt 0 0.8125
vt 0 1
vt 0.2125 1
vt 0.2125 0.8125
vt 0 0.8125
vt 0 1
vt 0.125 1
vt 0.125 0.8125
vt 0 0.8125
vt 0 1
vt 0.2125 1
vt 0.2125 0.875
vt 0 0.875
vt 0 1
vt 0.2125 1
vt 0.2125 0.875
vt 0 0.875
vn -0.7071067811865477 0 0.7071067811865475
vn -0.7071067811865475 0 -0.7071067811865477
vn 0.7071067811865477 0 -0.7071067811865475
vn 0.7071067811865475 0 0.7071067811865477
vn 0 1 0
vn 0 -1 0
usemtl m_05a38307-5947-ae14-9e4d-1553f8c216b6
f 142/584/169 145/583/169 143/582/169 140/581/169
f 141/588/170 142/587/170 140/586/170 139/585/170
f 146/592/171 141/591/171 139/590/171 144/589/171
f 145/596/172 146/595/172 144/594/172 143/593/172
f 144/600/173 139/599/173 140/598/173 143/597/173
f 145/604/174 142/603/174 141/602/174 146/601/174
o tooth6
v 0.5625 0.34375 0.01875000000000006
v 0.4375 0.34375 0.01875000000000003
v 0.5625 0.15625 0.01875000000000006
v 0.4375 0.15625 0.01875000000000003
v 0.4375 0.34375 0.23124999999999996
v 0.5625 0.34375 0.23124999999999996
v 0.4375 0.15625 0.23124999999999996
v 0.5625 0.15625 0.23124999999999996
vt 0 1
vt 0.21249999999999997 1
vt 0.21249999999999997 0.8125
vt 0 0.8125
vt 0 1
vt 0.125 1
vt 0.125 0.8125
vt 0 0.8125
vt 0 1
vt 0.21249999999999997 1
vt 0.21249999999999997 0.8125
vt 0 0.8125
vt 0 1
vt 0.125 1
vt 0.125 0.8125
vt 0 0.8125
vt 0 1
vt 0.21249999999999997 1
vt 0.21249999999999997 0.875
vt 0 0.875
vt 0 1
vt 0.21249999999999997 1
vt 0.21249999999999997 0.875
vt 0 0.875
vn -1 0 -2.220446049250313e-16
vn 2.220446049250313e-16 0 -1
vn 1 0 2.220446049250313e-16
vn -2.220446049250313e-16 0 1
vn 0 1 0
vn 0 -1 0
usemtl m_05a38307-5947-ae14-9e4d-1553f8c216b6
f 150/608/175 153/607/175 151/606/175 148/605/175
f 149/612/176 150/611/176 148/610/176 147/609/176
f 154/616/177 149/615/177 147/614/177 152/613/177
f 153/620/178 154/619/178 152/618/178 151/617/178
f 152/624/179 147/623/179 148/622/179 151/621/179
f 153/628/180 150/627/180 149/626/180 154/625/180
o tooth7
v 0.8843242693252298 0.34375 0.20406407832308865
v 0.7959359216769113 0.34375 0.1156757306747702
v 0.8843242693252298 0.15625 0.20406407832308865
v 0.7959359216769113 0.15625 0.1156757306747702
v 0.64567573067477 0.34375 0.2659359216769115
v 0.7340640783230885 0.34375 0.3543242693252299
v 0.64567573067477 0.15625 0.2659359216769115
v 0.7340640783230885 0.15625 0.3543242693252299
vt 0 1
vt 0.21250000000000002 1
vt 0.21250000000000002 0.8125
vt 0 0.8125
vt 0 1
vt 0.125 1
vt 0.125 0.8125
vt 0 0.8125
vt 0 1
vt 0.21250000000000002 1
vt 0.21250000000000002 0.8125
vt 0 0.8125
vt 0 1
vt 0.125 1
vt 0.125 0.8125
vt 0 0.8125
vt 0 1
vt 0.21250000000000002 1
vt 0.21250000000000002 0.875
vt 0 0.875
vt 0 1
vt 0.21250000000000002 1
vt 0.21250000000000002 0.875
vt 0 0.875
vn -0.7071067811865476 0 -0.7071067811865475
vn 0.7071067811865475 0 -0.7071067811865476
vn 0.7071067811865476 0 0.7071067811865475
vn -0.7071067811865475 0 0.7071067811865476
vn 0 1 0
vn 0 -1 0
usemtl m_05a38307-5947-ae14-9e4d-1553f8c216b6
f 158/632/181 161/631/181 159/630/181 156/629/181
f 157/636/182 158/635/182 156/634/182 155/633/182
f 162/640/183 157/639/183 155/638/183 160/637/183
f 161/644/184 162/643/184 160/642/184 159/641/184
f 160/648/185 155/647/185 156/646/185 159/645/185
f 161/652/186 158/651/186 157/650/186 162/649/186