# Made in Blockbench 5.1.5
mtllib materials.mtl

o body
v 1 0.8125 1
v 1 0.8125 0
v 1 0 1
v 1 0 0
v 0 0.8125 0
v 0 0.8125 1
v 0 0 0
v 0 0 1
vt 0 1
vt 1 1
vt 1 0.1875
vt 0 0.1875
vt 0 1
vt 1 1
vt 1 0.1875
vt 0 0.1875
vt 0 1
vt 1 1
vt 1 0.1875
vt 0 0.1875
vt 0 1
vt 1 1
vt 1 0.1875
vt 0 0.1875
vt 0 1
vt 1 1
vt 1 0
vt 0 0
vt 0 1
vt 1 1
vt 1 0
vt 0 0
vn 0 0 -1
vn 1 0 0
vn 0 0 1
vn -1 0 0
vn 0 1 0
vn 0 -1 0
usemtl m_e9b82c27-73a9-9a92-6a2d-97bb133a916b
f 4/4/1 7/3/1 5/2/1 2/1/1
f 3/8/2 4/7/2 2/6/2 1/5/2
f 8/12/3 3/11/3 1/10/3 6/9/3
f 7/16/4 8/15/4 6/14/4 5/13/4
f 6/20/5 1/19/5 2/18/5 5/17/5
f 7/24/6 4/23/6 3/22/6 8/21/6
o mouth
v 0.5625 0.25 1.03125
v 0.5625 0.25 0.96875
v 0.5625 0.1875 1.03125
v 0.5625 0.1875 0.96875
v 0.4375 0.25 0.96875
v 0.4375 0.25 1.03125
v 0.4375 0.1875 0.96875
v 0.4375 0.1875 1.03125
vt 0 1
vt 0.125 1
vt 0.125 0.9375
vt 0 0.9375
vt 0 1
vt 0.0625 1
vt 0.0625 0.9375
vt 0 0.9375
vt 0 1
vt 0.125 1
vt 0.125 0.9375
vt 0 0.9375
vt 0 1
vt 0.0625 1
vt 0.0625 0.9375
vt 0 0.9375
vt 0 1
vt 0.125 1
vt 0.125 0.9375
vt 0 0.9375
vt 0 1
vt 0.125 1
vt 0.125 0.9375
vt 0 0.9375
vn 0 0 -1
vn 1 0 0
vn 0 0 1
vn -1 0 0
vn 0 1 0
vn 0 -1 0
usemtl m_e9b82c27-73a9-9a92-6a2d-97bb133a916b
f 12/28/7 15/27/7 13/26/7 10/25/7
f 11/32/8 12/31/8 10/30/8 9/29/8
f 16/36/9 11/35/9 9/34/9 14/33/9
f 15/40/10 16/39/10 14/38/10 13/37/10
f 14/44/11 9/43/11 10/42/11 13/41/11
f 15/48/12 12/47/12 11/46/12 16/45/12
o blush_left
v 0.25 0.4375 1.025
v 0.25 0.4375 0.9624999999999999
v 0.25 0.3125 1.025
v 0.25 0.3125 0.9624999999999999
v 0.125 0.4375 0.9624999999999999
v 0.125 0.4375 1.025
v 0.125 0.3125 0.9624999999999999
v 0.125 0.3125 1.025
vt 0 1
vt 0.125 1
vt 0.125 0.875
vt 0 0.875
vt 0 1
vt 0.06249999999999989 1
vt 0.06249999999999989 0.875
vt 0 0.875
vt 0 1
vt 0.125 1
vt 0.125 0.875
vt 0 0.875
vt 0 1
vt 0.06249999999999989 1
vt 0.06249999999999989 0.875
vt 0 0.875
vt 0 1
vt 0.125 1
vt 0.125 0.9375000000000001
vt 0 0.9375000000000001
vt 0 1
vt 0.125 1
vt 0.125 0.9375000000000001
vt 0 0.9375000000000001
vn 0 0 -1
vn 1 0 0
vn 0 0 1
vn -1 0 0
vn 0 1 0
vn 0 -1 0
usemtl m_e9b82c27-73a9-9a92-6a2d-97bb133a916b
f 20/52/13 23/51/13 21/50/13 18/49/13
f 19/56/14 20/55/14 18/54/14 17/53/14
f 24/60/15 19/59/15 17/58/15 22/57/15
f 23/64/16 24/63/16 22/62/16 21/61/16
f 22/68/17 17/67/17 18/66/17 21/65/17
f 23/72/18 20/71/18 19/70/18 24/69/18
o blush_right
v 0.875 0.4375 1.025
v 0.875 0.4375 0.9624999999999999
v 0.875 0.3125 1.025
v 0.875 0.3125 0.9624999999999999
v 0.75 0.4375 0.9624999999999999
v 0.75 0.4375 1.025
v 0.75 0.3125 0.9624999999999999
v 0.75 0.3125 1.025
vt 0 1
vt 0.125 1
vt 0.125 0.875
vt 0 0.875
vt 0 1
vt 0.06249999999999989 1
vt 0.06249999999999989 0.875
vt 0 0.875
vt 0 1
vt 0.125 1
vt 0.125 0.875
vt 0 0.875
vt 0 1
vt 0.06249999999999989 1
vt 0.06249999999999989 0.875
vt 0 0.875
vt 0 1
vt 0.125 1
vt 0.125 0.9375000000000001
vt 0 0.9375000000000001
vt 0 1
vt 0.125 1
vt 0.125 0.9375000000000001
vt 0 0.9375000000000001
vn 0 0 -1
vn 1 0 0
vn 0 0 1
vn -1 0 0
vn 0 1 0
vn 0 -1 0
usemtl m_e9b82c27-73a9-9a92-6a2d-97bb133a916b
f 28/76/19 31/75/19 29/74/19 26/73/19
f 27/80/20 28/79/20 26/78/20 25/77/20
f 32/84/21 27/83/21 25/82/21 30/81/21
f 31/88/22 32/87/22 30/86/22 29/85/22
f 30/92/23 25/91/23 26/90/23 29/89/23
f 31/96/24 28/95/24 27/94/24 32/93/24
o eye_left
v 0.3125 0.390625 0.9375
v 0.3125 0.609375 0.9375
v 0.3323663972501466 0.5884862337597598 0.9986424837597598
v 0.3446445059847446 0.5337987337597598 1.03643061687988
v 0.3446445059847446 0.46620126624024016 1.03643061687988
v 0.3323663972501466 0.41151376624024016 0.9986424837597598
v 0.3645109032348912 0.5884862337597598 0.9752881331201201
v 0.3966554092196358 0.5337987337597598 0.9986424837597598
v 0.3966554092196358 0.46620126624024016 0.9986424837597598
v 0.3645109032348912 0.41151376624024016 0.9752881331201201
v 0.3767890119694892 0.5884862337597598 0.9375
v 0.41652180646978243 0.5337987337597598 0.9375
v 0.41652180646978243 0.46620126624024016 0.9375
v 0.3767890119694893 0.41151376624024016 0.9375
v 0.3645109032348912 0.5884862337597598 0.8997118668798799
v 0.3966554092196358 0.5337987337597598 0.8763575162402402
v 0.3966554092196358 0.46620126624024016 0.8763575162402402
v 0.3645109032348912 0.41151376624024016 0.8997118668798799
v 0.3323663972501466 0.5884862337597598 0.8763575162402402
v 0.3446445059847446 0.5337987337597598 0.8385693831201201
v 0.3446445059847446 0.46620126624024016 0.8385693831201201
v 0.3323663972501466 0.41151376624024016 0.8763575162402402
v 0.2926336027498534 0.5884862337597598 0.8763575162402402
v 0.28035549401525534 0.5337987337597598 0.8385693831201201
v 0.28035549401525534 0.46620126624024016 0.8385693831201201
v 0.2926336027498534 0.41151376624024016 0.8763575162402402
v 0.2604890967651088 0.5884862337597598 0.8997118668798799
v 0.22834459078036418 0.5337987337597598 0.8763575162402402
v 0.22834459078036418 0.46620126624024016 0.8763575162402402
v 0.2604890967651088 0.41151376624024016 0.8997118668798799
v 0.24821098803051075 0.5884862337597598 0.9375
v 0.20847819353021757 0.5337987337597598 0.9375
v 0.20847819353021757 0.46620126624024016 0.9375
v 0.24821098803051073 0.41151376624024016 0.9375
v 0.2604890967651088 0.5884862337597598 0.9752881331201201
v 0.22834459078036418 0.5337987337597598 0.9986424837597598
v 0.22834459078036415 0.46620126624024016 0.9986424837597598
v 0.2604890967651088 0.41151376624024016 0.9752881331201201
v 0.2926336027498534 0.5884862337597598 0.9986424837597598
v 0.28035549401525534 0.5337987337597598 1.03643061687988
v 0.28035549401525534 0.46620126624024016 1.03643061687988
v 0.2926336027498534 0.41151376624024016 0.9986424837597598
vt 0 1
vt 0 1
vt 0 1
vt 0 1
vt 0 1
vt 0 1
vt 0 1
vt 0 1
vt 0 1
vt 0 1
vt 0 1
vt 0 1
vt 0 1
vt 0 1
vt 0 1
vt 0 1
vt 0 1
vt 0 1
vt 0 1
vt 0 1
vt 0 1
vt 0 1
vt 0 1
vt 0 1
vt 0 1
vt 0 1
vt 0 1
vt 0 1
vt 0 1
vt 0 1
vt 0 1
vt 0 1
vt 0 1
vt 0 1
vt 0 1
vt 0 1
vt 0 1
vt 0 1
vt 0 1
vt 0 1
vt 0 1
vt 0 1
vt 0 1
vt 0 1
vt 0 1
vt 0 1
vt 0 1
vt 0 1
vt 0 1
vt 0 1
vt 0 1
vt 0 1
vt 0 1
vt 0 1
vt 0 1
vt 0 1
vt 0 1
vt 0 1
vt 0 1
vt 0 1
vt 0 1
vt 0 1
vt 0 1
vt 0 1
vt 0 1
vt 0 1
vt 0 1
vt 0 1
vt 0 1
vt 0 1
vt 0 1
vt 0 1
vt 0 1
vt 0 1
vt 0 1
vt 0 1
vt 0 1
vt 0 1
vt 0 1
vt 0 1
vt 0 1
vt 0 1
vt 0 1
vt 0 1
vt 0 1
vt 0 1
vt 0 1
vt 0 1
vt 0 1
vt 0 1
vt 0 1
vt 0 1
vt 0 1
vt 0 1
vt 0 1
vt 0 1
vt 0 1
vt 0 1
vt 0 1
vt 0 1
vt 0 1
vt 0 1
vt 0 1
vt 0 1
vt 0 1
vt 0 1
vt 0 1
vt 0 1
vt 0 1
vt 0 1
vt 0 1
vt 0 1
vt 0 1
vt 0 1
vt 0 1
vt 0 1
vt 0 1
vt 0 1
vt 0 1
vt 0 1
vt 0 1
vt 0 1
vt 0 1
vt 0 1
vt 0 1
vt 0 1
vt 0 1
vt 0 1
vt 0 1
vt 0 1
vt 0 1
vt 0 1
vt 0 1
vt 0 1
vt 0 1
vt 0 1
vt 0 1
vt 0 1
vt 0 1
vt 0 1
vt 0 1
vt 0 1
vt 0 1
vt 0 1
vt 0 1
vt 0 1
vt 0 1
vt 0 1
vt 0 1
vt 0 1
vt 0 1
vt 0 1
vt 0 1
vt 0 1
vt 0 1
vt 0 1
vt 0 1
vt 0 1
vt 0 1
vt 0 1
vt 0 1
vt 0 1
vt 0 1
vt 0 1
vt 0 1
vt 0 1
vt 0 1
vt 0 1
vt 0 1
vt 0 1
vt 0 1
vt 0 1
vt 0 1
vt 0 1
vt 0 1
vt 0 1
vt 0 1
vt 0 1
vt 0 1
vt 0 1
vn 0.19002754472854486 0.9462985154001796 0.26155047695589645
vn 0.4835720429064236 0.5684730304826777 0.6655798171017121
vn 0.5877852522924731 2.264277974669738e-16 0.8090169943749475
vn 0.4835720429064237 -0.5684730304826777 0.6655798171017122
vn 0.19002754472854502 -0.9462985154001796 0.26155047695589667
vn 0.3074710261694765 0.9462985154001796 0.09990339242340635
vn 0.7824360014318159 0.5684730304826778 0.2542288679069154
vn 0.9510565162951538 3.172065784643306e-17 0.3090169943749475
vn 0.782436001431816 -0.5684730304826777 0.25422886790691557
vn 0.3074710261694767 -0.9462985154001796 0.09990339242340637
vn 0.3074710261694765 0.9462985154001796 -0.09990339242340632
vn 0.782436001431816 0.5684730304826777 -0.25422886790691546
vn 0.9510565162951538 1.9525229288467207e-16 -0.3090169943749475
vn 0.782436001431816 -0.5684730304826776 -0.25422886790691546
vn 0.3074710261694767 -0.9462985154001796 -0.09990339242340636
vn 0.19002754472854494 0.9462985154001796 -0.2615504769558964
vn 0.4835720429064237 0.5684730304826778 -0.665579817101712
vn 0.5877852522924734 8.304576038746776e-17 -0.8090169943749473
vn 0.48357204290642375 -0.5684730304826776 -0.6655798171017121
vn 0.19002754472854505 -0.9462985154001796 -0.2615504769558965
vn 0 0.9462985154001796 -0.3232941690649803
vn 0 0.5684730304826777 -0.8227018983895933
vn 0 2.0530041016413883e-16 -1
vn 0 -0.5684730304826777 -0.8227018983895933
vn 0 -0.9462985154001796 -0.3232941690649804
vn -0.190027544728545 0.9462985154001797 -0.26155047695589645
vn -0.48357204290642375 0.5684730304826778 -0.6655798171017121
vn -0.5877852522924732 2.264277974669738e-16 -0.8090169943749473
vn -0.48357204290642375 -0.5684730304826777 -0.665579817101712
vn -0.190027544728545 -0.9462985154001796 -0.2615504769558965
vn -0.30747102616947647 0.9462985154001796 -0.09990339242340636
vn -0.782436001431816 0.5684730304826778 -0.25422886790691557
vn -0.9510565162951538 2.269729507311051e-16 -0.3090169943749475
vn -0.7824360014318158 -0.5684730304826778 -0.2542288679069157
vn -0.3074710261694767 -0.9462985154001796 -0.09990339242340641
vn -0.3074710261694765 0.9462985154001796 0.09990339242340626
vn -0.7824360014318161 0.5684730304826777 0.25422886790691546
vn -0.9510565162951536 1.9525229288467204e-16 0.3090169943749473
vn -0.782436001431816 -0.5684730304826776 0.2542288679069153
vn -0.3074710261694767 -0.9462985154001796 0.0999033924234063
vn -0.19002754472854502 0.9462985154001796 0.26155047695589634
vn -0.48357204290642397 0.5684730304826777 0.665579817101712
vn -0.5877852522924735 2.0371831377154438e-16 0.8090169943749472
vn -0.48357204290642397 -0.5684730304826777 0.665579817101712
vn -0.1900275447285451 -0.9462985154001796 0.2615504769558965
vn 0 0.9462985154001796 0.3232941690649803
vn 0 0.5684730304826777 0.8227018983895933
vn 0 2.0530041016413883e-16 1
vn 0 -0.5684730304826777 0.8227018983895933
vn 0 -0.9462985154001796 0.32329416906498043
usemtl none
f 35/97/25 39/98/25 34/99/25
f 35/100/26 36/101/26 40/102/26 39/103/26
f 36/104/27 37/105/27 41/106/27 40/107/27
f 37/108/28 38/109/28 42/110/28 41/111/28
f 42/112/29 38/113/29 33/114/29
f 39/115/30 43/116/30 34/117/30
f 39/118/31 40/119/31 44/120/31 43/121/31
f 40/122/32 41/123/32 45/124/32 44/125/32
f 41/126/33 42/127/33 46/128/33 45/129/33
f 46/130/34 42/131/34 33/132/34
f 43/133/35 47/134/35 34/135/35
f 43/136/36 44/137/36 48/138/36 47/139/36
f 44/140/37 45/141/37 49/142/37 48/143/37
f 45/144/38 46/145/38 50/146/38 49/147/38
f 50/148/39 46/149/39 33/150/39
f 47/151/40 51/152/40 34/153/40
f 47/154/41 48/155/41 52/156/41 51/157/41
f 48/158/42 49/159/42 53/160/42 52/161/42
f 49/162/43 50/163/43 54/164/43 53/165/43
f 54/166/44 50/167/44 33/168/44
f 51/169/45 55/170/45 34/171/45
f 51/172/46 52/173/46 56/174/46 55/175/46
f 52/176/47 53/177/47 57/178/47 56/179/47
f 53/180/48 54/181/48 58/182/48 57/183/48
f 58/184/49 54/185/49 33/186/49
f 55/187/50 59/188/50 34/189/50
f 55/190/51 56/191/51 60/192/51 59/193/51
f 56/194/52 57/195/52 61/196/52 60/197/52
f 57/198/53 58/199/53 62/200/53 61/201/53
f 62/202/54 58/203/54 33/204/54
f 59/205/55 63/206/55 34/207/55
f 59/208/56 60/209/56 64/210/56 63/211/56
f 60/212/57 61/213/57 65/214/57 64/215/57
f 61/216/58 62/217/58 66/218/58 65/219/58
f 66/220/59 62/221/59 33/222/59
f 63/223/60 67/224/60 34/225/60
f 63/226/61 64/227/61 68/228/61 67/229/61
f 64/230/62 65/231/62 69/232/62 68/233/62
f 65/234/63 66/235/63 70/236/63 69/237/63
f 70/238/64 66/239/64 33/240/64
f 67/241/65 71/242/65 34/243/65
f 67/244/66 68/245/66 72/246/66 71/247/66
f 68/248/67 69/249/67 73/250/67 72/251/67
f 69/252/68 70/253/68 74/254/68 73/255/68
f 74/256/69 70/257/69 33/258/69
f 71/259/70 35/260/70 34/261/70
f 71/262/71 72/263/71 36/264/71 35/265/71
f 72/266/72 73/267/72 37/268/72 36/269/72
f 73/270/73 74/271/73 38/272/73 37/273/73
f 38/274/74 74/275/74 33/276/74
o eye_right
v 0.6875 0.390625 0.9375
v 0.6875 0.609375 0.9375
v 0.7073663972501466 0.5884862337597598 0.9986424837597598
v 0.7196445059847446 0.5337987337597598 1.03643061687988
v 0.7196445059847446 0.46620126624024016 1.03643061687988
v 0.7073663972501466 0.41151376624024016 0.9986424837597598
v 0.7395109032348912 0.5884862337597598 0.9752881331201201
v 0.7716554092196358 0.5337987337597598 0.9986424837597598
v 0.7716554092196358 0.46620126624024016 0.9986424837597598
v 0.7395109032348912 0.41151376624024016 0.9752881331201201
v 0.7517890119694892 0.5884862337597598 0.9375
v 0.7915218064697824 0.5337987337597598 0.9375
v 0.7915218064697824 0.46620126624024016 0.9375
v 0.7517890119694892 0.41151376624024016 0.9375
v 0.7395109032348912 0.5884862337597598 0.8997118668798799
v 0.7716554092196358 0.5337987337597598 0.8763575162402402
v 0.7716554092196358 0.46620126624024016 0.8763575162402402
v 0.7395109032348912 0.41151376624024016 0.8997118668798799
v 0.7073663972501466 0.5884862337597598 0.8763575162402402
v 0.7196445059847446 0.5337987337597598 0.8385693831201201
v 0.7196445059847446 0.46620126624024016 0.8385693831201201
v 0.7073663972501466 0.41151376624024016 0.8763575162402402
v 0.6676336027498534 0.5884862337597598 0.8763575162402402
v 0.6553554940152554 0.5337987337597598 0.8385693831201201
v 0.6553554940152554 0.46620126624024016 0.8385693831201201
v 0.6676336027498534 0.41151376624024016 0.8763575162402402
v 0.6354890967651088 0.5884862337597598 0.8997118668798799
v 0.6033445907803642 0.5337987337597598 0.8763575162402402
v 0.6033445907803642 0.46620126624024016 0.8763575162402402
v 0.6354890967651088 0.41151376624024016 0.8997118668798799
v 0.6232109880305108 0.5884862337597598 0.9375
v 0.5834781935302176 0.5337987337597598 0.9375
v 0.5834781935302176 0.46620126624024016 0.9375
v 0.6232109880305108 0.41151376624024016 0.9375
v 0.6354890967651088 0.5884862337597598 0.9752881331201201
v 0.6033445907803642 0.5337987337597598 0.9986424837597598
v 0.6033445907803642 0.46620126624024016 0.9986424837597598
v 0.6354890967651088 0.41151376624024016 0.9752881331201201
v 0.6676336027498534 0.5884862337597598 0.9986424837597598
v 0.6553554940152554 0.5337987337597598 1.03643061687988
v 0.6553554940152554 0.46620126624024016 1.03643061687988
v 0.6676336027498534 0.41151376624024016 0.9986424837597598
vt 0 1
vt 0 1
vt 0 1
vt 0 1
vt 0 1
vt 0 1
vt 0 1
vt 0 1
vt 0 1
vt 0 1
vt 0 1
vt 0 1
vt 0 1
vt 0 1
vt 0 1
vt 0 1
vt 0 1
vt 0 1
vt 0 1
vt 0 1
vt 0 1
vt 0 1
vt 0 1
vt 0 1
vt 0 1
vt 0 1
vt 0 1
vt 0 1
vt 0 1
vt 0 1
vt 0 1
vt 0 1
vt 0 1
vt 0 1
vt 0 1
vt 0 1
vt 0 1
vt 0 1
vt 0 1
vt 0 1
vt 0 1
vt 0 1
vt 0 1
vt 0 1
vt 0 1
vt 0 1
vt 0 1
vt 0 1
vt 0 1
vt 0 1
vt 0 1
vt 0 1
vt 0 1
vt 0 1
vt 0 1
vt 0 1
vt 0 1
vt 0 1
vt 0 1
vt 0 1
vt 0 1
vt 0 1
vt 0 1
vt 0 1
vt 0 1
vt 0 1
vt 0 1
vt 0 1
vt 0 1
vt 0 1
vt 0 1
vt 0 1
vt 0 1
vt 0 1
vt 0 1
vt 0 1
vt 0 1
vt 0 1
vt 0 1
vt 0 1
vt 0 1
vt 0 1
vt 0 1
vt 0 1
vt 0 1
vt 0 1
vt 0 1
vt 0 1
vt 0 1
vt 0 1
vt 0 1
vt 0 1
vt 0 1
vt 0 1
vt 0 1
vt 0 1
vt 0 1
vt 0 1
vt 0 1
vt 0 1
vt 0 1
vt 0 1
vt 0 1
vt 0 1
vt 0 1
vt 0 1
vt 0 1
vt 0 1
vt 0 1
vt 0 1
vt 0 1
vt 0 1
vt 0 1
vt 0 1
vt 0 1
vt 0 1
vt 0 1
vt 0 1
vt 0 1
vt 0 1
vt 0 1
vt 0 1
vt 0 1
vt 0 1
vt 0 1
vt 0 1
vt 0 1
vt 0 1
vt 0 1
vt 0 1
vt 0 1
vt 0 1
vt 0 1
vt 0 1
vt 0 1
vt 0 1
vt 0 1
vt 0 1
vt 0 1
vt 0 1
vt 0 1
vt 0 1
vt 0 1
vt 0 1
vt 0 1
vt 0 1
vt 0 1
vt 0 1
vt 0 1
vt 0 1
vt 0 1
vt 0 1
vt 0 1
vt 0 1
vt 0 1
vt 0 1
vt 0 1
vt 0 1
vt 0 1
vt 0 1
vt 0 1
vt 0 1
vt 0 1
vt 0 1
vt 0 1
vt 0 1
vt 0 1
vt 0 1
vt 0 1
vt 0 1
vt 0 1
vt 0 1
vt 0 1
vt 0 1
vt 0 1
vt 0 1
vt 0 1
vt 0 1
vt 0 1
vt 0 1
vn 0.19002754472854486 0.9462985154001796 0.26155047695589645
vn 0.4835720429064236 0.5684730304826777 0.6655798171017121
vn 0.5877852522924731 2.264277974669738e-16 0.8090169943749475
vn 0.4835720429064237 -0.5684730304826777 0.6655798171017122
vn 0.19002754472854502 -0.9462985154001796 0.26155047695589667
vn 0.3074710261694765 0.9462985154001796 0.09990339242340635
vn 0.7824360014318159 0.5684730304826778 0.2542288679069154
vn 0.9510565162951538 3.172065784643306e-17 0.3090169943749475
vn 0.782436001431816 -0.5684730304826777 0.25422886790691557
vn 0.3074710261694767 -0.9462985154001796 0.09990339242340637
vn 0.3074710261694765 0.9462985154001796 -0.09990339242340632
vn 0.782436001431816 0.5684730304826777 -0.25422886790691546
vn 0.9510565162951538 1.9525229288467207e-16 -0.3090169943749475
vn 0.782436001431816 -0.5684730304826776 -0.25422886790691546
vn 0.3074710261694767 -0.9462985154001796 -0.09990339242340636
vn 0.19002754472854494 0.9462985154001796 -0.2615504769558964
vn 0.4835720429064237 0.5684730304826778 -0.665579817101712
vn 0.5877852522924734 8.304576038746776e-17 -0.8090169943749473
vn 0.48357204290642375 -0.5684730304826776 -0.6655798171017121
vn 0.19002754472854505 -0.9462985154001796 -0.2615504769558965
vn 0 0.9462985154001796 -0.3232941690649803
vn 0 0.5684730304826777 -0.8227018983895933
vn 0 2.0530041016413883e-16 -1
vn 0 -0.5684730304826777 -0.8227018983895933
vn 0 -0.9462985154001796 -0.3232941690649804
vn -0.190027544728545 0.9462985154001797 -0.26155047695589645
vn -0.48357204290642375 0.5684730304826778 -0.6655798171017121
vn -0.5877852522924732 2.264277974669738e-16 -0.8090169943749473
vn -0.48357204290642375 -0.5684730304826777 -0.665579817101712
vn -0.190027544728545 -0.9462985154001796 -0.2615504769558965
vn -0.30747102616947647 0.9462985154001796 -0.09990339242340636
vn -0.782436001431816 0.5684730304826778 -0.25422886790691557
vn -0.9510565162951538 2.269729507311051e-16 -0.3090169943749475
vn -0.7824360014318158 -0.5684730304826778 -0.2542288679069157
vn -0.3074710261694767 -0.9462985154001796 -0.09990339242340641
vn -0.3074710261694765 0.9462985154001796 0.09990339242340626
vn -0.7824360014318161 0.5684730304826777 0.25422886790691546
vn -0.9510565162951536 1.9525229288467204e-16 0.3090169943749473
vn -0.782436001431816 -0.5684730304826776 0.2542288679069153
vn -0.3074710261694767 -0.9462985154001796 0.0999033924234063
vn -0.19002754472854502 0.9462985154001796 0.26155047695589634
vn -0.48357204290642397 0.5684730304826777 0.665579817101712
vn -0.5877852522924735 2.0371831377154438e-16 0.8090169943749472
vn -0.48357204290642397 -0.5684730304826777 0.665579817101712
vn -0.1900275447285451 -0.9462985154001796 0.2615504769558965
vn 0 0.9462985154001796 0.3232941690649803
vn 0 0.5684730304826777 0.8227018983895933
vn 0 2.0530041016413883e-16 1
vn 0 -0.5684730304826777 0.8227018983895933
vn 0 -0.9462985154001796 0.32329416906498043
usemtl none
f 77/277/75 81/278/75 76/279/75
f 77/280/76 78/281/76 82/282/76 81/283/76
f 78/284/77 79/285/77 83/286/77 82/287/77
f 79/288/78 80/289/78 84/290/78 83/291/78
f 84/292/79 80/293/79 75/294/79
f 81/295/80 85/296/80 76/297/80
f 81/298/81 82/299/81 86/300/81 85/301/81
f 82/302/82 83/303/82 87/304/82 86/305/82
f 83/306/83 84/307/83 88/308/83 87/309/83
f 88/310/84 84/311/84 75/312/84
f 85/313/85 89/314/85 76/315/85
f 85/316/86 86/317/86 90/318/86 89/319/86
f 86/320/87 87/321/87 91/322/87 90/323/87
f 87/324/88 88/325/88 92/326/88 91/327/88
f 92/328/89 88/329/89 75/330/89
f 89/331/90 93/332/90 76/333/90
f 89/334/91 90/335/91 94/336/91 93/337/91
f 90/338/92 91/339/92 95/340/92 94/341/92
f 91/342/93 92/343/93 96/344/93 95/345/93
f 96/346/94 92/347/94 75/348/94
f 93/349/95 97/350/95 76/351/95
f 93/352/96 94/353/96 98/354/96 97/355/96
f 94/356/97 95/357/97 99/358/97 98/359/97
f 95/360/98 96/361/98 100/362/98 99/363/98
f 100/364/99 96/365/99 75/366/99
f 97/367/100 101/368/100 76/369/100
f 97/370/101 98/371/101 102/372/101 101/373/101
f 98/374/102 99/375/102 103/376/102 102/377/102
f 99/378/103 100/379/103 104/380/103 103/381/103
f 104/382/104 100/383/104 75/384/104
f 101/385/105 105/386/105 76/387/105
f 101/388/106 102/389/106 106/390/106 105/391/106
f 102/392/107 103/393/107 107/394/107 106/395/107
f 103/396/108 104/397/108 108/398/108 107/399/108
f 108/400/109 104/401/109 75/402/109
f 105/403/110 109/404/110 76/405/110
f 105/406/111 106/407/111 110/408/111 109/409/111
f 106/410/112 107/411/112 111/412/112 110/413/112
f 107/414/113 108/415/113 112/416/113 111/417/113
f 112/418/114 108/419/114 75/420/114
f 109/421/115 113/422/115 76/423/115
f 109/424/116 110/425/116 114/426/116 113/427/116
f 110/428/117 111/429/117 115/430/117 114/431/117
f 111/432/118 112/433/118 116/434/118 115/435/118
f 116/436/119 112/437/119 75/438/119
f 113/439/120 77/440/120 76/441/120
f 113/442/121 114/443/121 78/444/121 77/445/121
f 114/446/122 115/447/122 79/448/122 78/449/122
f 115/450/123 116/451/123 80/452/123 79/453/123
f 80/454/124 116/455/124 75/456/124