# Made in Blockbench 5.1.5
mtllib materials.mtl

o body_main
v 0.78125 0.6625 0.6375
v 0.78125 0.6625 0.36250000000000004
v 0.78125 0.36249999999999993 0.6375
v 0.78125 0.36249999999999993 0.36250000000000004
v 0.375 0.6625 0.36250000000000004
v 0.375 0.6625 0.6375
v 0.375 0.36249999999999993 0.36250000000000004
v 0.375 0.36249999999999993 0.6375
vt 0 1
vt 0.40625 1
vt 0.40625 0.7
vt 0 0.7
vt 0 1
vt 0.27499999999999997 1
vt 0.27499999999999997 0.7
vt 0 0.7
vt 0 1
vt 0.40625 1
vt 0.40625 0.7
vt 0 0.7
vt 0 1
vt 0.27499999999999997 1
vt 0.27499999999999997 0.7
vt 0 0.7
vt 0 1
vt 0.40625 1
vt 0.40625 0.7250000000000001
vt 0 0.7250000000000001
vt 0 1
vt 0.40625 1
vt 0.40625 0.7250000000000001
vt 0 0.7250000000000001
vn 0 0 -1
vn 1 0 0
vn 0 0 1
vn -1 0 0
vn 0 1 0
vn 0 -1 0
usemtl m_4ecd4c54-b37e-a9f0-fd10-8e3f6bb00bb8
f 4/4/1 7/3/1 5/2/1 2/1/1
f 3/8/2 4/7/2 2/6/2 1/5/2
f 8/12/3 3/11/3 1/10/3 6/9/3
f 7/16/4 8/15/4 6/14/4 5/13/4
f 6/20/5 1/19/5 2/18/5 5/17/5
f 7/24/6 4/23/6 3/22/6 8/21/6
o body_snout
v 0.8875 0.6 0.575
v 0.8875 0.6 0.42500000000000004
v 0.8875 0.42499999999999993 0.575
v 0.8875 0.42499999999999993 0.42500000000000004
v 0.78125 0.6 0.42500000000000004
v 0.78125 0.6 0.575
v 0.78125 0.42499999999999993 0.42500000000000004
v 0.78125 0.42499999999999993 0.575
vt 0 1
vt 0.10624999999999996 1
vt 0.10624999999999996 0.825
vt 0 0.825
vt 0 1
vt 0.14999999999999997 1
vt 0.14999999999999997 0.825
vt 0 0.825
vt 0 1
vt 0.10624999999999996 1
vt 0.10624999999999996 0.825
vt 0 0.825
vt 0 1
vt 0.14999999999999997 1
vt 0.14999999999999997 0.825
vt 0 0.825
vt 0 1
vt 0.10624999999999996 1
vt 0.10624999999999996 0.8500000000000001
vt 0 0.8500000000000001
vt 0 1
vt 0.10624999999999996 1
vt 0.10624999999999996 0.8500000000000001
vt 0 0.8500000000000001
vn 0 0 -1
vn 1 0 0
vn 0 0 1
vn -1 0 0
vn 0 1 0
vn 0 -1 0
usemtl m_4ecd4c54-b37e-a9f0-fd10-8e3f6bb00bb8
f 12/28/7 15/27/7 13/26/7 10/25/7
f 11/32/8 12/31/8 10/30/8 9/29/8
f 16/36/9 11/35/9 9/34/9 14/33/9
f 15/40/10 16/39/10 14/38/10 13/37/10
f 14/44/11 9/43/11 10/42/11 13/41/11
f 15/48/12 12/47/12 11/46/12 16/45/12
o body_mid
v 0.375 0.625 0.6
v 0.375 0.625 0.4
v 0.375 0.39999999999999997 0.6
v 0.375 0.39999999999999997 0.4
v 0.28125 0.625 0.4
v 0.28125 0.625 0.6
v 0.28125 0.39999999999999997 0.4
v 0.28125 0.39999999999999997 0.6
vt 0 1
vt 0.09375 1
vt 0.09375 0.775
vt 0 0.775
vt 0 1
vt 0.19999999999999996 1
vt 0.19999999999999996 0.775
vt 0 0.775
vt 0 1
vt 0.09375 1
vt 0.09375 0.775
vt 0 0.775
vt 0 1
vt 0.19999999999999996 1
vt 0.19999999999999996 0.775
vt 0 0.775
vt 0 1
vt 0.09375 1
vt 0.09375 0.8
vt 0 0.8
vt 0 1
vt 0.09375 1
vt 0.09375 0.8
vt 0 0.8
vn 0 0 -1
vn 1 0 0
vn 0 0 1
vn -1 0 0
vn 0 1 0
vn 0 -1 0
usemtl m_4ecd4c54-b37e-a9f0-fd10-8e3f6bb00bb8
f 20/52/13 23/51/13 21/50/13 18/49/13
f 19/56/14 20/55/14 18/54/14 17/53/14
f 24/60/15 19/59/15 17/58/15 22/57/15
f 23/64/16 24/63/16 22/62/16 21/61/16
f 22/68/17 17/67/17 18/66/17 21/65/17
f 23/72/18 20/71/18 19/70/18 24/69/18
o body_rear
v 0.28125 0.5874999999999999 0.56875
v 0.28125 0.5874999999999999 0.43125
v 0.28125 0.43749999999999994 0.56875
v 0.28125 0.43749999999999994 0.43125
v 0.2 0.5874999999999999 0.43125
v 0.2 0.5874999999999999 0.56875
v 0.2 0.43749999999999994 0.43125
v 0.2 0.43749999999999994 0.56875
vt 0 1
vt 0.08124999999999999 1
vt 0.08124999999999999 0.85
vt 0 0.85
vt 0 1
vt 0.13749999999999996 1
vt 0.13749999999999996 0.85
vt 0 0.85
vt 0 1
vt 0.08124999999999999 1
vt 0.08124999999999999 0.85
vt 0 0.85
vt 0 1
vt 0.13749999999999996 1
vt 0.13749999999999996 0.85
vt 0 0.85
vt 0 1
vt 0.08124999999999999 1
vt 0.08124999999999999 0.8625
vt 0 0.8625
vt 0 1
vt 0.08124999999999999 1
vt 0.08124999999999999 0.8625
vt 0 0.8625
vn 0 0 -1
vn 1 0 0
vn 0 0 1
vn -1 0 0
vn 0 1 0
vn 0 -1 0
usemtl m_4ecd4c54-b37e-a9f0-fd10-8e3f6bb00bb8
f 28/76/19 31/75/19 29/74/19 26/73/19
f 27/80/20 28/79/20 26/78/20 25/77/20
f 32/84/21 27/83/21 25/82/21 30/81/21
f 31/88/22 32/87/22 30/86/22 29/85/22
f 30/92/23 25/91/23 26/90/23 29/89/23
f 31/96/24 28/95/24 27/94/24 32/93/24
o patch_head
v 0.875 0.6875 0.5625
v 0.875 0.6875 0.4375
v 0.875 0.6375 0.5625
v 0.875 0.6375 0.4375
v 0.7749999999999999 0.6875 0.4375
v 0.7749999999999999 0.6875 0.5625
v 0.7749999999999999 0.6375 0.4375
v 0.7749999999999999 0.6375 0.5625
vt 0 1
vt 0.09999999999999998 1
vt 0.09999999999999998 0.95
vt 0 0.95
vt 0 1
vt 0.125 1
vt 0.125 0.95
vt 0 0.95
vt 0 1
vt 0.09999999999999998 1
vt 0.09999999999999998 0.95
vt 0 0.95
vt 0 1
vt 0.125 1
vt 0.125 0.95
vt 0 0.95
vt 0 1
vt 0.09999999999999998 1
vt 0.09999999999999998 0.875
vt 0 0.875
vt 0 1
vt 0.09999999999999998 1
vt 0.09999999999999998 0.875
vt 0 0.875
vn 0 0 -1
vn 1 0 0
vn 0 0 1
vn -1 0 0
vn 0 1 0
vn 0 -1 0
usemtl m_4ecd4c54-b37e-a9f0-fd10-8e3f6bb00bb8
f 36/100/25 39/99/25 37/98/25 34/97/25
f 35/104/26 36/103/26 34/102/26 33/101/26
f 40/108/27 35/107/27 33/106/27 38/105/27
f 39/112/28 40/111/28 38/110/28 37/109/28
f 38/116/29 33/115/29 34/114/29 37/113/29
f 39/120/30 36/119/30 35/118/30 40/117/30
o patch_back1
v 0.71875 0.6937499999999999 0.5875
v 0.71875 0.6937499999999999 0.4125
v 0.71875 0.6375 0.5875
v 0.71875 0.6375 0.4125
v 0.53125 0.6937499999999999 0.4125
v 0.53125 0.6937499999999999 0.5875
v 0.53125 0.6375 0.4125
v 0.53125 0.6375 0.5875
vt 0 1
vt 0.1875 1
vt 0.1875 0.94375
vt 0 0.94375
vt 0 1
vt 0.17500000000000004 1
vt 0.17500000000000004 0.94375
vt 0 0.94375
vt 0 1
vt 0.1875 1
vt 0.1875 0.94375
vt 0 0.94375
vt 0 1
vt 0.17500000000000004 1
vt 0.17500000000000004 0.94375
vt 0 0.94375
vt 0 1
vt 0.1875 1
vt 0.1875 0.825
vt 0 0.825
vt 0 1
vt 0.1875 1
vt 0.1875 0.825
vt 0 0.825
vn 0 0 -1
vn 1 0 0
vn 0 0 1
vn -1 0 0
vn 0 1 0
vn 0 -1 0
usemtl m_4ecd4c54-b37e-a9f0-fd10-8e3f6bb00bb8
f 44/124/31 47/123/31 45/122/31 42/121/31
f 43/128/32 44/127/32 42/126/32 41/125/32
f 48/132/33 43/131/33 41/130/33 46/129/33
f 47/136/34 48/135/34 46/134/34 45/133/34
f 46/140/35 41/139/35 42/138/35 45/137/35
f 47/144/36 44/143/36 43/142/36 48/141/36
o patch_back2
v 0.48750000000000004 0.6624999999999999 0.5625
v 0.48750000000000004 0.6624999999999999 0.4375
v 0.48750000000000004 0.6125 0.5625
v 0.48750000000000004 0.6125 0.4375
v 0.34375 0.6624999999999999 0.4375
v 0.34375 0.6624999999999999 0.5625
v 0.34375 0.6125 0.4375
v 0.34375 0.6125 0.5625
vt 0 1
vt 0.14375 1
vt 0.14375 0.9500000000000001
vt 0 0.9500000000000001
vt 0 1
vt 0.125 1
vt 0.125 0.9500000000000001
vt 0 0.9500000000000001
vt 0 1
vt 0.14375 1
vt 0.14375 0.9500000000000001
vt 0 0.9500000000000001
vt 0 1
vt 0.125 1
vt 0.125 0.9500000000000001
vt 0 0.9500000000000001
vt 0 1
vt 0.14375 1
vt 0.14375 0.875
vt 0 0.875
vt 0 1
vt 0.14375 1
vt 0.14375 0.875
vt 0 0.875
vn 0 0 -1
vn 1 0 0
vn 0 0 1
vn -1 0 0
vn 0 1 0
vn 0 -1 0
usemtl m_4ecd4c54-b37e-a9f0-fd10-8e3f6bb00bb8
f 52/148/37 55/147/37 53/146/37 50/145/37
f 51/152/38 52/151/38 50/150/38 49/149/38
f 56/156/39 51/155/39 49/154/39 54/153/39
f 55/160/40 56/159/40 54/158/40 53/157/40
f 54/164/41 49/163/41 50/162/41 53/161/41
f 55/168/42 52/167/42 51/166/42 56/165/42
o eye_r
v 0.8499999999999999 0.6 0.65625
v 0.8499999999999999 0.6 0.6000000000000001
v 0.8499999999999999 0.5375 0.65625
v 0.8499999999999999 0.5375 0.6000000000000001
v 0.8 0.6 0.6000000000000001
v 0.8 0.6 0.65625
v 0.8 0.5375 0.6000000000000001
v 0.8 0.5375 0.65625
vt 0 1
vt 0.04999999999999993 1
vt 0.04999999999999993 0.9375
vt 0 0.9375
vt 0 1
vt 0.05625000000000002 1
vt 0.05625000000000002 0.9375
vt 0 0.9375
vt 0 1
vt 0.04999999999999993 1
vt 0.04999999999999993 0.9375
vt 0 0.9375
vt 0 1
vt 0.05625000000000002 1
vt 0.05625000000000002 0.9375
vt 0 0.9375
vt 0 1
vt 0.04999999999999993 1
vt 0.04999999999999993 0.94375
vt 0 0.94375
vt 0 1
vt 0.04999999999999993 1
vt 0.04999999999999993 0.94375
vt 0 0.94375
vn 0 0 -1
vn 1 0 0
vn 0 0 1
vn -1 0 0
vn 0 1 0
vn 0 -1 0
usemtl m_4ecd4c54-b37e-a9f0-fd10-8e3f6bb00bb8
f 60/172/43 63/171/43 61/170/43 58/169/43
f 59/176/44 60/175/44 58/174/44 57/173/44
f 64/180/45 59/179/45 57/178/45 62/177/45
f 63/184/46 64/183/46 62/182/46 61/181/46
f 62/188/47 57/187/47 58/186/47 61/185/47
f 63/192/48 60/191/48 59/190/48 64/189/48
o eye_l
v 0.8499999999999999 0.6 0.4
v 0.8499999999999999 0.6 0.34375
v 0.8499999999999999 0.5375 0.4
v 0.8499999999999999 0.5375 0.34375
v 0.8 0.6 0.34375
v 0.8 0.6 0.4
v 0.8 0.5375 0.34375
v 0.8 0.5375 0.4
vt 0 1
vt 0.04999999999999993 1
vt 0.04999999999999993 0.9375
vt 0 0.9375
vt 0 1
vt 0.05625000000000002 1
vt 0.05625000000000002 0.9375
vt 0 0.9375
vt 0 1
vt 0.04999999999999993 1
vt 0.04999999999999993 0.9375
vt 0 0.9375
vt 0 1
vt 0.05625000000000002 1
vt 0.05625000000000002 0.9375
vt 0 0.9375
vt 0 1
vt 0.04999999999999993 1
vt 0.04999999999999993 0.94375
vt 0 0.94375
vt 0 1
vt 0.04999999999999993 1
vt 0.04999999999999993 0.94375
vt 0 0.94375
vn 0 0 -1
vn 1 0 0
vn 0 0 1
vn -1 0 0
vn 0 1 0
vn 0 -1 0
usemtl m_4ecd4c54-b37e-a9f0-fd10-8e3f6bb00bb8
f 68/196/49 71/195/49 69/194/49 66/193/49
f 67/200/50 68/199/50 66/198/50 65/197/50
f 72/204/51 67/203/51 65/202/51 70/201/51
f 71/208/52 72/207/52 70/206/52 69/205/52
f 70/212/53 65/211/53 66/210/53 69/209/53
f 71/216/54 68/215/54 67/214/54 72/213/54
o fin_dorsal
v 0.65625 0.76875 0.525
v 0.65625 0.76875 0.475
v 0.65625 0.65625 0.525
v 0.65625 0.65625 0.475
v 0.4375 0.76875 0.475
v 0.4375 0.76875 0.525
v 0.4375 0.65625 0.475
v 0.4375 0.65625 0.525
vt 0 1
vt 0.21875 1
vt 0.21875 0.8875
vt 0 0.8875
vt 0 1
vt 0.050000000000000044 1
vt 0.050000000000000044 0.8875
vt 0 0.8875
vt 0 1
vt 0.21875 1
vt 0.21875 0.8875
vt 0 0.8875
vt 0 1
vt 0.050000000000000044 1
vt 0.050000000000000044 0.8875
vt 0 0.8875
vt 0 1
vt 0.21875 1
vt 0.21875 0.95
vt 0 0.95
vt 0 1
vt 0.21875 1
vt 0.21875 0.95
vt 0 0.95
vn 0 0 -1
vn 1 0 0
vn 0 0 1
vn -1 0 0
vn 0 1 0
vn 0 -1 0
usemtl m_4ecd4c54-b37e-a9f0-fd10-8e3f6bb00bb8
f 76/220/55 79/219/55 77/218/55 74/217/55
f 75/224/56 76/223/56 74/222/56 73/221/56
f 80/228/57 75/227/57 73/226/57 78/225/57
f 79/232/58 80/231/58 78/230/58 77/229/58
f 78/236/59 73/235/59 74/234/59 77/233/59
f 79/240/60 76/239/60 75/238/60 80/237/60
o fin_caudal_top
v 0.30225424859373684 0.7377641290737884 0.53125
v 0.30225424859373684 0.7377641290737884 0.46875
v 0.225 0.5 0.53125
v 0.225 0.5 0.46875
v 0.11204294533470616 0.799567527948778 0.46875
v 0.11204294533470616 0.799567527948778 0.53125
v 0.034788696740969294 0.5618033988749895 0.46875
v 0.034788696740969294 0.5618033988749895 0.53125
vt 0 1
vt 0.2 1
vt 0.2 0.75
vt 0 0.75
vt 0 1
vt 0.0625 1
vt 0.0625 0.75
vt 0 0.75
vt 0 1
vt 0.2 1
vt 0.2 0.75
vt 0 0.75
vt 0 1
vt 0.0625 1
vt 0.0625 0.75
vt 0 0.75
vt 0 1
vt 0.2 1
vt 0.2 0.9375
vt 0 0.9375
vt 0 1
vt 0.2 1
vt 0.2 0.9375
vt 0 0.9375
vn 0 0 -1
vn 0.9510565162951535 -0.30901699437494745 0
vn 0 0 1
vn -0.9510565162951535 0.30901699437494745 0
vn 0.30901699437494745 0.9510565162951535 0
vn -0.30901699437494745 -0.9510565162951535 0
usemtl m_4ecd4c54-b37e-a9f0-fd10-8e3f6bb00bb8
f 84/244/61 87/243/61 85/242/61 82/241/61
f 83/248/62 84/247/62 82/246/62 81/245/62
f 88/252/63 83/251/63 81/250/63 86/249/63
f 87/256/64 88/255/64 86/254/64 85/253/64
f 86/260/65 81/259/65 82/258/65 85/257/65
f 87/264/66 84/263/66 83/262/66 88/261/66
o fin_caudal_bot
v 0.225 0.5 0.53125
v 0.225 0.5 0.46875
v 0.30225424859373684 0.2622358709262116 0.53125
v 0.30225424859373684 0.2622358709262116 0.46875
v 0.034788696740969294 0.4381966011250105 0.46875
v 0.034788696740969294 0.4381966011250105 0.53125
v 0.11204294533470616 0.2004324720512221 0.46875
v 0.11204294533470616 0.2004324720512221 0.53125
vt 0 1
vt 0.2 1
vt 0.2 0.75
vt 0 0.75
vt 0 1
vt 0.0625 1
vt 0.0625 0.75
vt 0 0.75
vt 0 1
vt 0.2 1
vt 0.2 0.75
vt 0 0.75
vt 0 1
vt 0.0625 1
vt 0.0625 0.75
vt 0 0.75
vt 0 1
vt 0.2 1
vt 0.2 0.9375
vt 0 0.9375
vt 0 1
vt 0.2 1
vt 0.2 0.9375
vt 0 0.9375
vn 0 0 -1
vn 0.9510565162951535 0.30901699437494745 0
vn 0 0 1
vn -0.9510565162951535 -0.30901699437494745 0
vn -0.30901699437494745 0.9510565162951535 0
vn 0.30901699437494745 -0.9510565162951535 0
usemtl m_4ecd4c54-b37e-a9f0-fd10-8e3f6bb00bb8
f 92/268/67 95/267/67 93/266/67 90/265/67
f 91/272/68 92/271/68 90/270/68 89/269/68
f 96/276/69 91/275/69 89/274/69 94/273/69
f 95/280/70 96/279/70 94/278/70 93/277/70
f 94/284/71 89/283/71 90/282/71 93/281/71
f 95/288/72 92/287/72 91/286/72 96/285/72
o fin_pec_r
v 0.75 0.35403025857361725 0.7628483815491929
v 0.75 0.41174615775982387 0.6042752517915707
v 0.75 0.3305379430539696 0.7542978779660512
v 0.75 0.38825384224017623 0.595724748208429
v 0.58125 0.41174615775982387 0.6042752517915707
v 0.58125 0.35403025857361725 0.7628483815491929
v 0.58125 0.38825384224017623 0.595724748208429
v 0.58125 0.3305379430539696 0.7542978779660512
vt 0 1
vt 0.16874999999999996 1
vt 0.16874999999999996 0.9750000000000001
vt 0 0.9750000000000001
vt 0 1
vt 0.16875000000000007 1
vt 0.16875000000000007 0.9750000000000001
vt 0 0.9750000000000001
vt 0 1
vt 0.16874999999999996 1
vt 0.16874999999999996 0.9750000000000001
vt 0 0.9750000000000001
vt 0 1
vt 0.16875000000000007 1
vt 0.16875000000000007 0.9750000000000001
vt 0 0.9750000000000001
vt 0 1
vt 0.16874999999999996 1
vt 0.16874999999999996 0.8312499999999999
vt 0 0.8312499999999999
vt 0 1
vt 0.16874999999999996 1
vt 0.16874999999999996 0.8312499999999999
vt 0 0.8312499999999999
vn 0 0.34202014332566866 -0.9396926207859084
vn 1 0 0
vn 0 -0.34202014332566866 0.9396926207859084
vn -1 0 0
vn 0 0.9396926207859084 0.34202014332566866
vn 0 -0.9396926207859084 -0.34202014332566866
usemtl m_4ecd4c54-b37e-a9f0-fd10-8e3f6bb00bb8
f 100/292/73 103/291/73 101/290/73 98/289/73
f 99/296/74 100/295/74 98/294/74 97/293/74
f 104/300/75 99/299/75 97/298/75 102/297/75
f 103/304/76 104/303/76 102/302/76 101/301/76
f 102/308/77 97/307/77 98/306/77 101/305/77
f 103/312/78 100/311/78 99/310/78 104/309/78
o fin_pec_l
v 0.75 0.4117461577598238 0.3957247482084292
v 0.75 0.35403025857361725 0.23715161845080715
v 0.75 0.38825384224017623 0.40427525179157087
v 0.75 0.33053794305396966 0.24570212203394884
v 0.58125 0.35403025857361725 0.23715161845080715
v 0.58125 0.4117461577598238 0.3957247482084292
v 0.58125 0.33053794305396966 0.24570212203394884
v 0.58125 0.38825384224017623 0.40427525179157087
vt 0 1
vt 0.16874999999999996 1
vt 0.16874999999999996 0.9750000000000001
vt 0 0.9750000000000001
vt 0 1
vt 0.16875 1
vt 0.16875 0.9750000000000001
vt 0 0.9750000000000001
vt 0 1
vt 0.16874999999999996 1
vt 0.16874999999999996 0.9750000000000001
vt 0 0.9750000000000001
vt 0 1
vt 0.16875 1
vt 0.16875 0.9750000000000001
vt 0 0.9750000000000001
vt 0 1
vt 0.16874999999999996 1
vt 0.16874999999999996 0.83125
vt 0 0.83125
vt 0 1
vt 0.16874999999999996 1
vt 0.16874999999999996 0.83125
vt 0 0.83125
vn 0 -0.34202014332566866 -0.9396926207859084
vn 1 0 0
vn 0 0.34202014332566866 0.9396926207859084
vn -1 0 0
vn 0 0.9396926207859084 -0.34202014332566866
vn 0 -0.9396926207859084 0.34202014332566866
usemtl m_4ecd4c54-b37e-a9f0-fd10-8e3f6bb00bb8
f 108/316/79 111/315/79 109/314/79 106/313/79
f 107/320/80 108/319/80 106/318/80 105/317/80
f 112/324/81 107/323/81 105/322/81 110/321/81
f 111/328/82 112/327/82 110/326/82 109/325/82
f 110/332/83 105/331/83 106/330/83 109/329/83
f 111/336/84 108/335/84 107/334/84 112/333/84