# Made in Blockbench 5.1.5
mtllib materials.mtl

o hub
v 0.5 0.5875 0.5
v 0.5 0.4125 0.5
v 0.625 0.5875 0.5
v 0.625 0.4125 0.5
v 0.6011271242968684 0.5875 0.5734731565365592
v 0.6011271242968684 0.4125 0.5734731565365592
v 0.5386271242968684 0.5875 0.6188820645368942
v 0.5386271242968684 0.4125 0.6188820645368942
v 0.46137287570313157 0.5875 0.6188820645368942
v 0.46137287570313157 0.4125 0.6188820645368942
v 0.39887287570313157 0.5875 0.5734731565365592
v 0.39887287570313157 0.4125 0.5734731565365592
v 0.375 0.5875 0.5
v 0.375 0.4125 0.5
v 0.39887287570313157 0.5875 0.4265268434634409
v 0.39887287570313157 0.4125 0.4265268434634409
v 0.46137287570313157 0.5875 0.3811179354631058
v 0.46137287570313157 0.4125 0.3811179354631058
v 0.5386271242968684 0.5875 0.3811179354631058
v 0.5386271242968684 0.4125 0.3811179354631058
v 0.6011271242968684 0.5875 0.42652684346344083
v 0.6011271242968684 0.4125 0.42652684346344083
vt 0 1
vt 0 1
vt 0 1
vt 0 1
vt 0 1
vt 0 1
vt 0 1
vt 0 1
vt 0 1
vt 0 1
vt 0 1
vt 0 1
vt 0 1
vt 0 1
vt 0 1
vt 0 1
vt 0 1
vt 0 1
vt 0 1
vt 0 1
vt 0 1
vt 0 1
vt 0 1
vt 0 1
vt 0 1
vt 0 1
vt 0 1
vt 0 1
vt 0 1
vt 0 1
vt 0 1
vt 0 1
vt 0 1
vt 0 1
vt 0 1
vt 0 1
vt 0 1
vt 0 1
vt 0 1
vt 0 1
vt 0 1
vt 0 1
vt 0 1
vt 0 1
vt 0 1
vt 0 1
vt 0 1
vt 0 1
vt 0 1
vt 0 1
vt 0 1
vt 0 1
vt 0 1
vt 0 1
vt 0 1
vt 0 1
vt 0 1
vt 0 1
vt 0 1
vt 0 1
vt 0 1
vt 0 1
vt 0 1
vt 0 1
vt 0 1
vt 0 1
vt 0 1
vt 0 1
vt 0 1
vt 0 1
vt 0 1
vt 0 1
vt 0 1
vt 0 1
vt 0 1
vt 0 1
vt 0 1
vt 0 1
vt 0 1
vt 0 1
vt 0 1
vt 0 1
vt 0 1
vt 0 1
vt 0 1
vt 0 1
vt 0 1
vt 0 1
vt 0 1
vt 0 1
vt 0 1
vt 0 1
vt 0 1
vt 0 1
vt 0 1
vt 0 1
vt 0 1
vt 0 1
vt 0 1
vt 0 1
vn -0.9510565162951536 0 -0.3090169943749474
vn 0 -1 0
vn 0 1 0
vn -0.5877852522924731 0 -0.8090169943749477
vn 0 -1 0
vn 0 1 0
vn -1.7963785889362148e-16 0 -1
vn 0 -1 0
vn 0 1 0
vn 0.5877852522924731 0 -0.8090169943749477
vn 0 -1 0
vn 0 1 0
vn 0.9510565162951535 0 -0.30901699437494756
vn 0 -1 0
vn 0 1 0
vn 0.9510565162951536 0 0.3090169943749472
vn 0 -1 0
vn 0 1 0
vn 0.5877852522924732 0 0.8090169943749473
vn 0 -1 0
vn 0 1 0
vn 1.7963785889362148e-16 0 1
vn 0 -1 0
vn 0 1 0
vn -0.5877852522924729 0 0.8090169943749476
vn 0 -1 0
vn 0 1 0
vn -0.9510565162951538 0 0.3090169943749475
vn 0 -1 0
vn 0 1 0
usemtl none
f 4/1/1 6/2/1 5/3/1 3/4/1
f 3/5/2 5/6/2 1/7/2
f 6/8/3 4/9/3 2/10/3
f 6/11/4 8/12/4 7/13/4 5/14/4
f 5/15/5 7/16/5 1/17/5
f 8/18/6 6/19/6 2/20/6
f 8/21/7 10/22/7 9/23/7 7/24/7
f 7/25/8 9/26/8 1/27/8
f 10/28/9 8/29/9 2/30/9
f 10/31/10 12/32/10 11/33/10 9/34/10
f 9/35/11 11/36/11 1/37/11
f 12/38/12 10/39/12 2/40/12
f 12/41/13 14/42/13 13/43/13 11/44/13
f 11/45/14 13/46/14 1/47/14
f 14/48/15 12/49/15 2/50/15
f 14/51/16 16/52/16 15/53/16 13/54/16
f 13/55/17 15/56/17 1/57/17
f 16/58/18 14/59/18 2/60/18
f 16/61/19 18/62/19 17/63/19 15/64/19
f 15/65/20 17/66/20 1/67/20
f 18/68/21 16/69/21 2/70/21
f 18/71/22 20/72/22 19/73/22 17/74/22
f 17/75/23 19/76/23 1/77/23
f 20/78/24 18/79/24 2/80/24
f 20/81/25 22/82/25 21/83/25 19/84/25
f 19/85/26 21/86/26 1/87/26
f 22/88/27 20/89/27 2/90/27
f 22/91/28 4/92/28 3/93/28 21/94/28
f 21/95/29 3/96/29 1/97/29
f 4/98/30 22/99/30 2/100/30
o disc
v 0.5 0.53125 0.5
v 0.5 0.46875 0.5
v 0.828125 0.53125 0.5
v 0.828125 0.46875 0.5
v 0.7956304097804813 0.53125 0.6423681018979488
v 0.7956304097804813 0.46875 0.6423681018979488
v 0.704582591234897 0.53125 0.7565384551848222
v 0.704582591234897 0.46875 0.7565384551848222
v 0.5730146814544157 0.53125 0.8198982211846608
v 0.5730146814544157 0.46875 0.8198982211846608
v 0.42698531854558436 0.53125 0.8198982211846608
v 0.42698531854558436 0.46875 0.8198982211846608
v 0.2954174087651031 0.53125 0.7565384551848223
v 0.2954174087651031 0.46875 0.7565384551848223
v 0.20436959021951873 0.53125 0.6423681018979488
v 0.20436959021951873 0.46875 0.6423681018979488
v 0.171875 0.53125 0.5
v 0.171875 0.46875 0.5
v 0.20436959021951873 0.53125 0.3576318981020513
v 0.20436959021951873 0.46875 0.3576318981020513
v 0.29541740876510303 0.53125 0.24346154481517773
v 0.29541740876510303 0.46875 0.24346154481517773
v 0.4269853185455843 0.53125 0.18010177881533912
v 0.4269853185455843 0.46875 0.18010177881533912
v 0.5730146814544156 0.53125 0.18010177881533912
v 0.5730146814544156 0.46875 0.18010177881533912
v 0.7045825912348969 0.53125 0.24346154481517768
v 0.7045825912348969 0.46875 0.24346154481517768
v 0.7956304097804813 0.53125 0.3576318981020512
v 0.7956304097804813 0.46875 0.3576318981020512
vt 0 1
vt 0 1
vt 0 1
vt 0 1
vt 0 1
vt 0 1
vt 0 1
vt 0 1
vt 0 1
vt 0 1
vt 0 1
vt 0 1
vt 0 1
vt 0 1
vt 0 1
vt 0 1
vt 0 1
vt 0 1
vt 0 1
vt 0 1
vt 0 1
vt 0 1
vt 0 1
vt 0 1
vt 0 1
vt 0 1
vt 0 1
vt 0 1
vt 0 1
vt 0 1
vt 0 1
vt 0 1
vt 0 1
vt 0 1
vt 0 1
vt 0 1
vt 0 1
vt 0 1
vt 0 1
vt 0 1
vt 0 1
vt 0 1
vt 0 1
vt 0 1
vt 0 1
vt 0 1
vt 0 1
vt 0 1
vt 0 1
vt 0 1
vt 0 1
vt 0 1
vt 0 1
vt 0 1
vt 0 1
vt 0 1
vt 0 1
vt 0 1
vt 0 1
vt 0 1
vt 0 1
vt 0 1
vt 0 1
vt 0 1
vt 0 1
vt 0 1
vt 0 1
vt 0 1
vt 0 1
vt 0 1
vt 0 1
vt 0 1
vt 0 1
vt 0 1
vt 0 1
vt 0 1
vt 0 1
vt 0 1
vt 0 1
vt 0 1
vt 0 1
vt 0 1
vt 0 1
vt 0 1
vt 0 1
vt 0 1
vt 0 1
vt 0 1
vt 0 1
vt 0 1
vt 0 1
vt 0 1
vt 0 1
vt 0 1
vt 0 1
vt 0 1
vt 0 1
vt 0 1
vt 0 1
vt 0 1
vt 0 1
vt 0 1
vt 0 1
vt 0 1
vt 0 1
vt 0 1
vt 0 1
vt 0 1
vt 0 1
vt 0 1
vt 0 1
vt 0 1
vt 0 1
vt 0 1
vt 0 1
vt 0 1
vt 0 1
vt 0 1
vt 0 1
vt 0 1
vt 0 1
vt 0 1
vt 0 1
vt 0 1
vt 0 1
vt 0 1
vt 0 1
vt 0 1
vt 0 1
vt 0 1
vt 0 1
vt 0 1
vt 0 1
vt 0 1
vt 0 1
vt 0 1
vt 0 1
vt 0 1
vt 0 1
vt 0 1
vn -0.9749279121818236 0 -0.2225209339563144
vn 0 -1 0
vn 0 1 0
vn -0.7818314824680299 0 -0.6234898018587335
vn 0 -1 0
vn 0 1 0
vn -0.43388373911755834 0 -0.9009688679024193
vn 0 -1 0
vn 0 1 0
vn 0 0 -1
vn 0 -1 0
vn 0 1 0
vn 0.43388373911755795 0 -0.9009688679024193
vn 0 -1 0
vn 0 1 0
vn 0.7818314824680298 0 -0.6234898018587336
vn 0 -1 0
vn 0 1 0
vn 0.9749279121818236 0 -0.2225209339563144
vn 0 -1 0
vn 0 1 0
vn 0.9749279121818236 0 0.22252093395631445
vn 0 -1 0
vn 0 1 0
vn 0.7818314824680301 0 0.6234898018587332
vn 0 -1 0
vn 0 1 0
vn 0.43388373911755834 0 0.9009688679024193
vn 0 -1 0
vn 0 1 0
vn 0 0 1
vn 0 -1 0
vn 0 1 0
vn -0.43388373911755795 0 0.9009688679024193
vn 0 -1 0
vn 0 1 0
vn -0.7818314824680296 0 0.6234898018587338
vn 0 -1 0
vn 0 1 0
vn -0.9749279121818236 0 0.2225209339563143
vn 0 -1 0
vn 0 1 0
usemtl none
f 26/101/31 28/102/31 27/103/31 25/104/31
f 25/105/32 27/106/32 23/107/32
f 28/108/33 26/109/33 24/110/33
f 28/111/34 30/112/34 29/113/34 27/114/34
f 27/115/35 29/116/35 23/117/35
f 30/118/36 28/119/36 24/120/36
f 30/121/37 32/122/37 31/123/37 29/124/37
f 29/125/38 31/126/38 23/127/38
f 32/128/39 30/129/39 24/130/39
f 32/131/40 34/132/40 33/133/40 31/134/40
f 31/135/41 33/136/41 23/137/41
f 34/138/42 32/139/42 24/140/42
f 34/141/43 36/142/43 35/143/43 33/144/43
f 33/145/44 35/146/44 23/147/44
f 36/148/45 34/149/45 24/150/45
f 36/151/46 38/152/46 37/153/46 35/154/46
f 35/155/47 37/156/47 23/157/47
f 38/158/48 36/159/48 24/160/48
f 38/161/49 40/162/49 39/163/49 37/164/49
f 37/165/50 39/166/50 23/167/50
f 40/168/51 38/169/51 24/170/51
f 40/171/52 42/172/52 41/173/52 39/174/52
f 39/175/53 41/176/53 23/177/53
f 42/178/54 40/179/54 24/180/54
f 42/181/55 44/182/55 43/183/55 41/184/55
f 41/185/56 43/186/56 23/187/56
f 44/188/57 42/189/57 24/190/57
f 44/191/58 46/192/58 45/193/58 43/194/58
f 43/195/59 45/196/59 23/197/59
f 46/198/60 44/199/60 24/200/60
f 46/201/61 48/202/61 47/203/61 45/204/61
f 45/205/62 47/206/62 23/207/62
f 48/208/63 46/209/63 24/210/63
f 48/211/64 50/212/64 49/213/64 47/214/64
f 47/215/65 49/216/65 23/217/65
f 50/218/66 48/219/66 24/220/66
f 50/221/67 52/222/67 51/223/67 49/224/67
f 49/225/68 51/226/68 23/227/68
f 52/228/69 50/229/69 24/230/69
f 52/231/70 26/232/70 25/233/70 51/234/70
f 51/235/71 25/236/71 23/237/71
f 26/238/72 52/239/72 24/240/72
o axle
v 0.5 0.64375 0.5
v 0.5 0.35625 0.5
v 0.55 0.64375 0.5
v 0.55 0.35625 0.5
v 0.5353553390593274 0.64375 0.5353553390593274
v 0.5353553390593274 0.35625 0.5353553390593274
v 0.5 0.64375 0.55
v 0.5 0.35625 0.55
v 0.46464466094067264 0.64375 0.5353553390593274
v 0.46464466094067264 0.35625 0.5353553390593274
v 0.45 0.64375 0.5
v 0.45 0.35625 0.5
v 0.46464466094067264 0.64375 0.46464466094067264
v 0.46464466094067264 0.35625 0.46464466094067264
v 0.5 0.64375 0.45
v 0.5 0.35625 0.45
v 0.5353553390593274 0.64375 0.46464466094067264
v 0.5353553390593274 0.35625 0.46464466094067264
vt 0 1
vt 0 1
vt 0 1
vt 0 1
vt 0 1
vt 0 1
vt 0 1
vt 0 1
vt 0 1
vt 0 1
vt 0 1
vt 0 1
vt 0 1
vt 0 1
vt 0 1
vt 0 1
vt 0 1
vt 0 1
vt 0 1
vt 0 1
vt 0 1
vt 0 1
vt 0 1
vt 0 1
vt 0 1
vt 0 1
vt 0 1
vt 0 1
vt 0 1
vt 0 1
vt 0 1
vt 0 1
vt 0 1
vt 0 1
vt 0 1
vt 0 1
vt 0 1
vt 0 1
vt 0 1
vt 0 1
vt 0 1
vt 0 1
vt 0 1
vt 0 1
vt 0 1
vt 0 1
vt 0 1
vt 0 1
vt 0 1
vt 0 1
vt 0 1
vt 0 1
vt 0 1
vt 0 1
vt 0 1
vt 0 1
vt 0 1
vt 0 1
vt 0 1
vt 0 1
vt 0 1
vt 0 1
vt 0 1
vt 0 1
vt 0 1
vt 0 1
vt 0 1
vt 0 1
vt 0 1
vt 0 1
vt 0 1
vt 0 1
vt 0 1
vt 0 1
vt 0 1
vt 0 1
vt 0 1
vt 0 1
vt 0 1
vt 0 1
vn -0.923879532511287 0 -0.3826834323650898
vn 0 -1 0
vn 0 1 0
vn -0.3826834323650898 0 -0.9238795325112867
vn 0 -1 0
vn 0 1 0
vn 0.3826834323650898 0 -0.923879532511287
vn 0 -1 0
vn 0 1 0
vn 0.9238795325112868 0 -0.3826834323650899
vn 0 -1 0
vn 0 1 0
vn 0.923879532511287 0 0.3826834323650897
vn 0 -1 0
vn 0 1 0
vn 0.3826834323650899 0 0.9238795325112868
vn 0 -1 0
vn 0 1 0
vn -0.3826834323650898 0 0.923879532511287
vn 0 -1 0
vn 0 1 0
vn -0.9238795325112868 0 0.38268343236509006
vn 0 -1 0
vn 0 1 0
usemtl none
f 56/241/73 58/242/73 57/243/73 55/244/73
f 55/245/74 57/246/74 53/247/74
f 58/248/75 56/249/75 54/250/75
f 58/251/76 60/252/76 59/253/76 57/254/76
f 57/255/77 59/256/77 53/257/77
f 60/258/78 58/259/78 54/260/78
f 60/261/79 62/262/79 61/263/79 59/264/79
f 59/265/80 61/266/80 53/267/80
f 62/268/81 60/269/81 54/270/81
f 62/271/82 64/272/82 63/273/82 61/274/82
f 61/275/83 63/276/83 53/277/83
f 64/278/84 62/279/84 54/280/84
f 64/281/85 66/282/85 65/283/85 63/284/85
f 63/285/86 65/286/86 53/287/86
f 66/288/87 64/289/87 54/290/87
f 66/291/88 68/292/88 67/293/88 65/294/88
f 65/295/89 67/296/89 53/297/89
f 68/298/90 66/299/90 54/300/90
f 68/301/91 70/302/91 69/303/91 67/304/91
f 67/305/92 69/306/92 53/307/92
f 70/308/93 68/309/93 54/310/93
f 70/311/94 56/312/94 55/313/94 69/314/94
f 69/315/95 55/316/95 53/317/95
f 56/318/96 70/319/96 54/320/96
o paddle_0
v 0.9375 0.58125 0.575
v 0.9375 0.58125 0.42500000000000004
v 0.9375 0.41874999999999996 0.575
v 0.9375 0.41874999999999996 0.42500000000000004
v 0.6375 0.58125 0.42500000000000004
v 0.6375 0.58125 0.575
v 0.6375 0.41874999999999996 0.42500000000000004
v 0.6375 0.41874999999999996 0.575
vt 0 1
vt 0.30000000000000004 1
vt 0.30000000000000004 0.8374999999999999
vt 0 0.8374999999999999
vt 0 1
vt 0.14999999999999997 1
vt 0.14999999999999997 0.8374999999999999
vt 0 0.8374999999999999
vt 0 1
vt 0.30000000000000004 1
vt 0.30000000000000004 0.8374999999999999
vt 0 0.8374999999999999
vt 0 1
vt 0.14999999999999997 1
vt 0.14999999999999997 0.8374999999999999
vt 0 0.8374999999999999
vt 0 1
vt 0.30000000000000004 1
vt 0.30000000000000004 0.8500000000000001
vt 0 0.8500000000000001
vt 0 1
vt 0.30000000000000004 1
vt 0.30000000000000004 0.8500000000000001
vt 0 0.8500000000000001
vn 0 0 -1
vn 1 0 0
vn 0 0 1
vn -1 0 0
vn 0 1 0
vn 0 -1 0
usemtl m_7cb9afb4-6ee6-b133-5d2b-790a811456c3
f 74/324/97 77/323/97 75/322/97 72/321/97
f 73/328/98 74/327/98 72/326/98 71/325/98
f 78/332/99 73/331/99 71/330/99 76/329/99
f 77/336/100 78/335/100 76/334/100 75/333/100
f 76/340/101 71/339/101 72/338/101 75/337/101
f 77/344/102 74/343/102 73/342/102 78/341/102
o paddle_1
v 0.7837019052838329 0.58125 0.15861388584430808
v 0.6537980947161672 0.58125 0.08361388584430812
v 0.7837019052838329 0.41874999999999996 0.15861388584430808
v 0.6537980947161672 0.41874999999999996 0.08361388584430812
v 0.5037980947161671 0.58125 0.34342150697963975
v 0.6337019052838329 0.58125 0.41842150697963976
v 0.5037980947161671 0.41874999999999996 0.34342150697963975
v 0.6337019052838329 0.41874999999999996 0.41842150697963976
vt 0 1
vt 0.30000000000000004 1
vt 0.30000000000000004 0.8374999999999999
vt 0 0.8374999999999999
vt 0 1
vt 0.14999999999999997 1
vt 0.14999999999999997 0.8374999999999999
vt 0 0.8374999999999999
vt 0 1
vt 0.30000000000000004 1
vt 0.30000000000000004 0.8374999999999999
vt 0 0.8374999999999999
vt 0 1
vt 0.14999999999999997 1
vt 0.14999999999999997 0.8374999999999999
vt 0 0.8374999999999999
vt 0 1
vt 0.30000000000000004 1
vt 0.30000000000000004 0.8500000000000001
vt 0 0.8500000000000001
vt 0 1
vt 0.30000000000000004 1
vt 0.30000000000000004 0.8500000000000001
vt 0 0.8500000000000001
vn -0.8660254037844386 0 -0.5000000000000001
vn 0.5000000000000001 0 -0.8660254037844386
vn 0.8660254037844386 0 0.5000000000000001
vn -0.5000000000000001 0 0.8660254037844386
vn 0 1 0
vn 0 -1 0
usemtl m_7cb9afb4-6ee6-b133-5d2b-790a811456c3
f 82/348/103 85/347/103 83/346/103 80/345/103
f 81/352/104 82/351/104 80/350/104 79/349/104
f 86/356/105 81/355/105 79/354/105 84/353/105
f 85/360/106 86/359/106 84/358/106 83/357/106
f 84/364/107 79/363/107 80/362/107 83/361/107
f 85/368/108 82/367/108 81/366/108 86/365/108
o paddle_2
v 0.346201905283833 0.58125 0.08361388584430807
v 0.21629809471616723 0.58125 0.15861388584430802
v 0.346201905283833 0.41874999999999996 0.08361388584430807
v 0.21629809471616723 0.41874999999999996 0.15861388584430802
v 0.36629809471616714 0.58125 0.41842150697963965
v 0.4962019052838329 0.58125 0.34342150697963975
v 0.36629809471616714 0.41874999999999996 0.41842150697963965
v 0.4962019052838329 0.41874999999999996 0.34342150697963975
vt 0 1
vt 0.30000000000000004 1
vt 0.30000000000000004 0.8374999999999999
vt 0 0.8374999999999999
vt 0 1
vt 0.14999999999999997 1
vt 0.14999999999999997 0.8374999999999999
vt 0 0.8374999999999999
vt 0 1
vt 0.30000000000000004 1
vt 0.30000000000000004 0.8374999999999999
vt 0 0.8374999999999999
vt 0 1
vt 0.14999999999999997 1
vt 0.14999999999999997 0.8374999999999999
vt 0 0.8374999999999999
vt 0 1
vt 0.30000000000000004 1
vt 0.30000000000000004 0.8500000000000001
vt 0 0.8500000000000001
vt 0 1
vt 0.30000000000000004 1
vt 0.30000000000000004 0.8500000000000001
vt 0 0.8500000000000001
vn -0.8660254037844388 0 0.4999999999999998
vn -0.4999999999999998 0 -0.8660254037844388
vn 0.8660254037844388 0 -0.4999999999999998
vn 0.4999999999999998 0 0.8660254037844388
vn 0 1 0
vn 0 -1 0
usemtl m_7cb9afb4-6ee6-b133-5d2b-790a811456c3
f 90/372/109 93/371/109 91/370/109 88/369/109
f 89/376/110 90/375/110 88/374/110 87/373/110
f 94/380/111 89/379/111 87/378/111 92/377/111
f 93/384/112 94/383/112 92/382/112 91/381/112
f 92/388/113 87/387/113 88/386/113 91/385/113
f 93/392/114 90/391/114 89/390/114 94/389/114
o paddle_3
v 0.0625 0.58125 0.425
v 0.0625 0.58125 0.575
v 0.0625 0.41874999999999996 0.425
v 0.0625 0.41874999999999996 0.575
v 0.36250000000000004 0.58125 0.575
v 0.36250000000000004 0.58125 0.42500000000000004
v 0.36250000000000004 0.41874999999999996 0.575
v 0.36250000000000004 0.41874999999999996 0.42500000000000004
vt 0 1
vt 0.30000000000000004 1
vt 0.30000000000000004 0.8374999999999999
vt 0 0.8374999999999999
vt 0 1
vt 0.14999999999999997 1
vt 0.14999999999999997 0.8374999999999999
vt 0 0.8374999999999999
vt 0 1
vt 0.30000000000000004 1
vt 0.30000000000000004 0.8374999999999999
vt 0 0.8374999999999999
vt 0 1
vt 0.14999999999999997 1
vt 0.14999999999999997 0.8374999999999999
vt 0 0.8374999999999999
vt 0 1
vt 0.30000000000000004 1
vt 0.30000000000000004 0.8500000000000001
vt 0 0.8500000000000001
vt 0 1
vt 0.30000000000000004 1
vt 0.30000000000000004 0.8500000000000001
vt 0 0.8500000000000001
vn -1.2246467991473532e-16 0 1
vn -1 0 -1.2246467991473532e-16
vn 1.2246467991473532e-16 0 -1
vn 1 0 1.2246467991473532e-16
vn 0 1 0
vn 0 -1 0
usemtl m_7cb9afb4-6ee6-b133-5d2b-790a811456c3
f 98/396/115 101/395/115 99/394/115 96/393/115
f 97/400/116 98/399/116 96/398/116 95/397/116
f 102/404/117 97/403/117 95/402/117 100/401/117
f 101/408/118 102/407/118 100/406/118 99/405/118
f 100/412/119 95/411/119 96/410/119 99/409/119
f 101/416/120 98/415/120 97/414/120 102/413/120
o paddle_4
v 0.21629809471616707 0.58125 0.8413861141556918
v 0.3462019052838327 0.58125 0.9163861141556917
v 0.21629809471616707 0.41874999999999996 0.8413861141556918
v 0.3462019052838327 0.41874999999999996 0.9163861141556917
v 0.49620190528383284 0.58125 0.6565784930203602
v 0.36629809471616714 0.58125 0.5815784930203602
v 0.49620190528383284 0.41874999999999996 0.6565784930203602
v 0.36629809471616714 0.41874999999999996 0.5815784930203602
vt 0 1
vt 0.30000000000000004 1
vt 0.30000000000000004 0.8374999999999999
vt 0 0.8374999999999999
vt 0 1
vt 0.14999999999999997 1
vt 0.14999999999999997 0.8374999999999999
vt 0 0.8374999999999999
vt 0 1
vt 0.30000000000000004 1
vt 0.30000000000000004 0.8374999999999999
vt 0 0.8374999999999999
vt 0 1
vt 0.14999999999999997 1
vt 0.14999999999999997 0.8374999999999999
vt 0 0.8374999999999999
vt 0 1
vt 0.30000000000000004 1
vt 0.30000000000000004 0.8500000000000001
vt 0 0.8500000000000001
vt 0 1
vt 0.30000000000000004 1
vt 0.30000000000000004 0.8500000000000001
vt 0 0.8500000000000001
vn 0.8660254037844386 0 0.5000000000000003
vn -0.5000000000000003 0 0.8660254037844386
vn -0.8660254037844386 0 -0.5000000000000003
vn 0.5000000000000003 0 -0.8660254037844386
vn 0 1 0
vn 0 -1 0
usemtl m_7cb9afb4-6ee6-b133-5d2b-790a811456c3
f 106/420/121 109/419/121 107/418/121 104/417/121
f 105/424/122 106/423/122 104/422/122 103/421/122
f 110/428/123 105/427/123 103/426/123 108/425/123
f 109/432/124 110/431/124 108/430/124 107/429/124
f 108/436/125 103/435/125 104/434/125 107/433/125
f 109/440/126 106/439/126 105/438/126 110/437/126
o paddle_5
v 0.6537980947161672 0.58125 0.9163861141556919
v 0.7837019052838329 0.58125 0.841386114155692
v 0.6537980947161672 0.41874999999999996 0.9163861141556919
v 0.7837019052838329 0.41874999999999996 0.841386114155692
v 0.6337019052838329 0.58125 0.5815784930203602
v 0.5037980947161671 0.58125 0.6565784930203602
v 0.6337019052838329 0.41874999999999996 0.5815784930203602
v 0.5037980947161671 0.41874999999999996 0.6565784930203602
vt 0 1
vt 0.30000000000000004 1
vt 0.30000000000000004 0.8374999999999999
vt 0 0.8374999999999999
vt 0 1
vt 0.14999999999999997 1
vt 0.14999999999999997 0.8374999999999999
vt 0 0.8374999999999999
vt 0 1
vt 0.30000000000000004 1
vt 0.30000000000000004 0.8374999999999999
vt 0 0.8374999999999999
vt 0 1
vt 0.14999999999999997 1
vt 0.14999999999999997 0.8374999999999999
vt 0 0.8374999999999999
vt 0 1
vt 0.30000000000000004 1
vt 0.30000000000000004 0.8500000000000001
vt 0 0.8500000000000001
vt 0 1
vt 0.30000000000000004 1
vt 0.30000000000000004 0.8500000000000001
vt 0 0.8500000000000001
vn 0.8660254037844386 0 -0.5000000000000001
vn 0.5000000000000001 0 0.8660254037844386
vn -0.8660254037844386 0 0.5000000000000001
vn -0.5000000000000001 0 -0.8660254037844386
vn 0 1 0
vn 0 -1 0
usemtl m_7cb9afb4-6ee6-b133-5d2b-790a811456c3
f 114/444/127 117/443/127 115/442/127 112/441/127
f 113/448/128 114/447/128 112/446/128 111/445/128
f 118/452/129 113/451/129 111/450/129 116/449/129
f 117/456/130 118/455/130 116/454/130 115/453/130
f 116/460/131 111/459/131 112/458/131 115/457/131
f 117/464/132 114/463/132 113/462/132 118/461/132
o band_a
v 0.5618718433538228 0.63125 0.5
v 0.5 0.63125 0.43812815664617716
v 0.5618718433538228 0.36875 0.5
v 0.5 0.36875 0.43812815664617716
v 0.43812815664617716 0.63125 0.5
v 0.5 0.63125 0.5618718433538228
v 0.43812815664617716 0.36875 0.5
v 0.5 0.36875 0.5618718433538228
vt 0 1
vt 0.08749999999999997 1
vt 0.08749999999999997 0.7375
vt 0 0.7375
vt 0 1
vt 0.08749999999999997 1
vt 0.08749999999999997 0.7375
vt 0 0.7375
vt 0 1
vt 0.08749999999999997 1
vt 0.08749999999999997 0.7375
vt 0 0.7375
vt 0 1
vt 0.08749999999999997 1
vt 0.08749999999999997 0.7375
vt 0 0.7375
vt 0 1
vt 0.08749999999999997 1
vt 0.08749999999999997 0.9125000000000001
vt 0 0.9125000000000001
vt 0 1
vt 0.08749999999999997 1
vt 0.08749999999999997 0.9125000000000001
vt 0 0.9125000000000001
vn -0.7071067811865476 0 -0.7071067811865475
vn 0.7071067811865475 0 -0.7071067811865476
vn 0.7071067811865476 0 0.7071067811865475
vn -0.7071067811865475 0 0.7071067811865476
vn 0 1 0
vn 0 -1 0
usemtl m_7cb9afb4-6ee6-b133-5d2b-790a811456c3
f 122/468/133 125/467/133 123/466/133 120/465/133
f 121/472/134 122/471/134 120/470/134 119/469/134
f 126/476/135 121/475/135 119/474/135 124/473/135
f 125/480/136 126/479/136 124/478/136 123/477/136
f 124/484/137 119/483/137 120/482/137 123/481/137
f 125/488/138 122/487/138 121/486/138 126/485/138