# Made in Blockbench 5.1.5
mtllib materials.mtl

o body_base
v 0.5 -0.28125 0.5
v 0.5 0.65625 0.5
v 0.5606607136959033 0.5934494080239556 0.7263888655365004
v 0.6050674381446938 0.42187500000000006 0.8921170173770974
v 0.6213214273918066 0.18750000000000003 0.9527777310730008
v 0.6050674381446938 -0.04687499999999989 0.8921170173770975
v 0.5606607136959033 -0.21844940802395563 0.7263888655365004
v 0.6657281518405971 0.5934494080239556 0.6657281518405971
v 0.7870495792324037 0.42187500000000006 0.7870495792324037
v 0.8314563036811942 0.18750000000000003 0.8314563036811942
v 0.7870495792324037 -0.04687499999999989 0.7870495792324037
v 0.6657281518405971 -0.21844940802395563 0.6657281518405971
v 0.7263888655365004 0.5934494080239556 0.5606607136959033
v 0.8921170173770974 0.42187500000000006 0.6050674381446938
v 0.9527777310730008 0.18750000000000003 0.6213214273918066
v 0.8921170173770975 -0.04687499999999989 0.6050674381446938
v 0.7263888655365004 -0.21844940802395563 0.5606607136959033
v 0.7263888655365004 0.5934494080239556 0.4393392863040967
v 0.8921170173770974 0.42187500000000006 0.39493256185530623
v 0.9527777310730008 0.18750000000000003 0.3786785726081934
v 0.8921170173770975 -0.04687499999999989 0.3949325618553062
v 0.7263888655365004 -0.21844940802395563 0.4393392863040967
v 0.6657281518405971 0.5934494080239556 0.3342718481594029
v 0.7870495792324037 0.42187500000000006 0.21295042076759635
v 0.8314563036811942 0.18750000000000003 0.1685436963188059
v 0.7870495792324037 -0.04687499999999989 0.21295042076759635
v 0.6657281518405971 -0.21844940802395563 0.3342718481594029
v 0.5606607136959033 0.5934494080239556 0.27361113446349966
v 0.6050674381446939 0.42187500000000006 0.10788298262290263
v 0.6213214273918067 0.18750000000000003 0.04722226892699927
v 0.6050674381446939 -0.04687499999999989 0.10788298262290258
v 0.5606607136959033 -0.21844940802395563 0.27361113446349966
v 0.4393392863040968 0.5934494080239556 0.2736111344634996
v 0.3949325618553064 0.42187500000000006 0.10788298262290252
v 0.3786785726081936 0.18750000000000003 0.047222268926999156
v 0.3949325618553064 -0.04687499999999989 0.10788298262290247
v 0.4393392863040968 -0.21844940802395563 0.2736111344634996
v 0.3342718481594029 0.5934494080239556 0.3342718481594029
v 0.21295042076759635 0.42187500000000006 0.2129504207675963
v 0.1685436963188059 0.18750000000000003 0.16854369631880578
v 0.21295042076759635 -0.04687499999999989 0.21295042076759624
v 0.3342718481594029 -0.21844940802395563 0.3342718481594029
v 0.2736111344634996 0.5934494080239556 0.43933928630409674
v 0.10788298262290258 0.42187500000000006 0.3949325618553063
v 0.04722226892699921 0.18750000000000003 0.3786785726081935
v 0.10788298262290252 -0.04687499999999989 0.3949325618553063
v 0.2736111344634996 -0.21844940802395563 0.43933928630409674
v 0.2736111344634996 0.5934494080239556 0.5606607136959032
v 0.10788298262290252 0.42187500000000006 0.6050674381446935
v 0.047222268926999156 0.18750000000000003 0.6213214273918064
v 0.10788298262290247 -0.04687499999999989 0.6050674381446935
v 0.2736111344634996 -0.21844940802395563 0.5606607136959032
v 0.3342718481594029 0.5934494080239556 0.6657281518405971
v 0.2129504207675963 0.42187500000000006 0.7870495792324036
v 0.16854369631880578 0.18750000000000003 0.831456303681194
v 0.21295042076759624 -0.04687499999999989 0.7870495792324036
v 0.3342718481594029 -0.21844940802395563 0.6657281518405971
v 0.43933928630409674 0.5934494080239556 0.7263888655365004
v 0.3949325618553063 0.42187500000000006 0.8921170173770974
v 0.37867857260819343 0.18750000000000003 0.9527777310730008
v 0.39493256185530623 -0.04687499999999989 0.8921170173770975
v 0.43933928630409674 -0.21844940802395563 0.7263888655365004
vt 0 1
vt 0 1
vt 0 1
vt 0 1
vt 0 1
vt 0 1
vt 0 1
vt 0 1
vt 0 1
vt 0 1
vt 0 1
vt 0 1
vt 0 1
vt 0 1
vt 0 1
vt 0 1
vt 0 1
vt 0 1
vt 0 1
vt 0 1
vt 0 1
vt 0 1
vt 0 1
vt 0 1
vt 0 1
vt 0 1
vt 0 1
vt 0 1
vt 0 1
vt 0 1
vt 0 1
vt 0 1
vt 0 1
vt 0 1
vt 0 1
vt 0 1
vt 0 1
vt 0 1
vt 0 1
vt 0 1
vt 0 1
vt 0 1
vt 0 1
vt 0 1
vt 0 1
vt 0 1
vt 0 1
vt 0 1
vt 0 1
vt 0 1
vt 0 1
vt 0 1
vt 0 1
vt 0 1
vt 0 1
vt 0 1
vt 0 1
vt 0 1
vt 0 1
vt 0 1
vt 0 1
vt 0 1
vt 0 1
vt 0 1
vt 0 1
vt 0 1
vt 0 1
vt 0 1
vt 0 1
vt 0 1
vt 0 1
vt 0 1
vt 0 1
vt 0 1
vt 0 1
vt 0 1
vt 0 1
vt 0 1
vt 0 1
vt 0 1
vt 0 1
vt 0 1
vt 0 1
vt 0 1
vt 0 1
vt 0 1
vt 0 1
vt 0 1
vt 0 1
vt 0 1
vt 0 1
vt 0 1
vt 0 1
vt 0 1
vt 0 1
vt 0 1
vt 0 1
vt 0 1
vt 0 1
vt 0 1
vt 0 1
vt 0 1
vt 0 1
vt 0 1
vt 0 1
vt 0 1
vt 0 1
vt 0 1
vt 0 1
vt 0 1
vt 0 1
vt 0 1
vt 0 1
vt 0 1
vt 0 1
vt 0 1
vt 0 1
vt 0 1
vt 0 1
vt 0 1
vt 0 1
vt 0 1
vt 0 1
vt 0 1
vt 0 1
vt 0 1
vt 0 1
vt 0 1
vt 0 1
vt 0 1
vt 0 1
vt 0 1
vt 0 1
vt 0 1
vt 0 1
vt 0 1
vt 0 1
vt 0 1
vt 0 1
vt 0 1
vt 0 1
vt 0 1
vt 0 1
vt 0 1
vt 0 1
vt 0 1
vt 0 1
vt 0 1
vt 0 1
vt 0 1
vt 0 1
vt 0 1
vt 0 1
vt 0 1
vt 0 1
vt 0 1
vt 0 1
vt 0 1
vt 0 1
vt 0 1
vt 0 1
vt 0 1
vt 0 1
vt 0 1
vt 0 1
vt 0 1
vt 0 1
vt 0 1
vt 0 1
vt 0 1
vt 0 1
vt 0 1
vt 0 1
vt 0 1
vt 0 1
vt 0 1
vt 0 1
vt 0 1
vt 0 1
vt 0 1
vt 0 1
vt 0 1
vt 0 1
vt 0 1
vt 0 1
vt 0 1
vt 0 1
vt 0 1
vt 0 1
vt 0 1
vt 0 1
vt 0 1
vt 0 1
vt 0 1
vt 0 1
vt 0 1
vt 0 1
vt 0 1
vt 0 1
vt 0 1
vt 0 1
vt 0 1
vt 0 1
vt 0 1
vt 0 1
vt 0 1
vt 0 1
vt 0 1
vt 0 1
vt 0 1
vt 0 1
vt 0 1
vt 0 1
vt 0 1
vt 0 1
vt 0 1
vt 0 1
vt 0 1
vt 0 1
vt 0 1
vt 0 1
vt 0 1
vt 0 1
vt 0 1
vt 0 1
vt 0 1
vt 0 1
vt 0 1
vt 0 1
vt 0 1
vt 0 1
vt 0 1
vt 0 1
vt 0 1
vt 0 1
vt 0 1
vt 0 1
vt 0 1
vt 0 1
vt 0 1
vt 0 1
vt 0 1
vt 0 1
vt 0 1
vt 0 1
vt 0 1
vt 0 1
vt 0 1
vt 0 1
vt 0 1
vt 0 1
vt 0 1
vt 0 1
vt 0 1
vt 0 1
vt 0 1
vt 0 1
vt 0 1
vt 0 1
vt 0 1
vt 0 1
vt 0 1
vt 0 1
vt 0 1
vn 0.13365358018178258 0.9636113749942802 0.2314947914883282
vn 0.35962729833820184 0.6947465906068658 0.622892752510496
vn 0.4840501729431876 0.2505628070857318 0.8383994929501025
vn 0.4840501729431875 -0.2505628070857317 0.8383994929501024
vn 0.35962729833820206 -0.6947465906068655 0.6228927525104963
vn 0.13365358018178258 -0.9636113749942802 0.2314947914883282
vn 0.2314947914883282 0.9636113749942802 0.13365358018178258
vn 0.622892752510496 0.6947465906068659 0.35962729833820184
vn 0.8383994929501023 0.25056280708573164 0.4840501729431876
vn 0.8383994929501024 -0.25056280708573164 0.4840501729431876
vn 0.6228927525104963 -0.6947465906068655 0.35962729833820195
vn 0.2314947914883282 -0.9636113749942802 0.13365358018178258
vn 0.26730716036356517 0.9636113749942804 0
vn 0.7192545966764036 0.6947465906068658 0
vn 0.9681003458863747 0.2505628070857318 0
vn 0.9681003458863747 -0.2505628070857317 0
vn 0.7192545966764039 -0.6947465906068656 0
vn 0.26730716036356517 -0.9636113749942804 0
vn 0.23149479148832816 0.9636113749942802 -0.13365358018178258
vn 0.622892752510496 0.6947465906068658 -0.35962729833820195
vn 0.8383994929501023 0.2505628070857318 -0.48405017294318753
vn 0.8383994929501023 -0.2505628070857317 -0.4840501729431875
vn 0.622892752510496 -0.6947465906068656 -0.3596272983382021
vn 0.23149479148832816 -0.9636113749942802 -0.13365358018178258
vn 0.1336535801817826 0.9636113749942802 -0.23149479148832816
vn 0.35962729833820195 0.6947465906068658 -0.622892752510496
vn 0.4840501729431876 0.2505628070857316 -0.8383994929501023
vn 0.48405017294318764 -0.2505628070857317 -0.8383994929501025
vn 0.359627298338202 -0.6947465906068655 -0.6228927525104963
vn 0.13365358018178258 -0.9636113749942802 -0.23149479148832813
vn 1.2230756366077897e-16 0.9636113749942804 -0.26730716036356517
vn 4.152823755370852e-16 0.6947465906068658 -0.7192545966764036
vn 4.4295855944702563e-16 0.25056280708573186 -0.9681003458863747
vn 5.114844870731784e-16 -0.25056280708573175 -0.9681003458863747
vn 3.5964508695906485e-16 -0.6947465906068656 -0.7192545966764039
vn 1.2230756366077897e-16 -0.9636113749942804 -0.26730716036356517
vn -0.1336535801817825 0.9636113749942804 -0.23149479148832824
vn -0.3596272983382015 0.6947465906068658 -0.6228927525104961
vn -0.48405017294318725 0.2505628070857318 -0.8383994929501026
vn -0.48405017294318703 -0.25056280708573164 -0.8383994929501026
vn -0.35962729833820184 -0.6947465906068656 -0.6228927525104964
vn -0.1336535801817825 -0.9636113749942804 -0.23149479148832824
vn -0.23149479148832824 0.9636113749942804 -0.13365358018178253
vn -0.622892752510496 0.6947465906068658 -0.3596272983382017
vn -0.8383994929501024 0.2505628070857316 -0.48405017294318736
vn -0.8383994929501025 -0.2505628070857316 -0.4840501729431873
vn -0.6228927525104964 -0.6947465906068655 -0.3596272983382018
vn -0.2314947914883282 -0.9636113749942803 -0.1336535801817825
vn -0.2673071603635651 0.9636113749942803 -6.115378183038952e-17
vn -0.7192545966764037 0.6947465906068658 -1.3842745851236184e-16
vn -0.9681003458863747 0.2505628070857318 -2.3624456503841386e-16
vn -0.9681003458863748 -0.2505628070857317 -2.3869276063415013e-16
vn -0.7192545966764039 -0.6947465906068656 -1.1988169565302172e-16
vn -0.2673071603635651 -0.9636113749942804 -6.115378183038952e-17
vn -0.23149479148832822 0.9636113749942803 0.1336535801817825
vn -0.6228927525104963 0.6947465906068658 0.3596272983382017
vn -0.8383994929501025 0.25056280708573175 0.48405017294318725
vn -0.8383994929501025 -0.25056280708573164 0.4840501729431872
vn -0.6228927525104963 -0.6947465906068656 0.35962729833820184
vn -0.2314947914883282 -0.9636113749942803 0.1336535801817825
vn -0.13365358018178258 0.9636113749942802 0.23149479148832813
vn -0.35962729833820184 0.6947465906068658 0.6228927525104959
vn -0.48405017294318753 0.25056280708573164 0.8383994929501025
vn -0.4840501729431876 -0.2505628070857316 0.8383994929501023
vn -0.35962729833820206 -0.6947465906068655 0.6228927525104961
vn -0.1336535801817826 -0.9636113749942803 0.2314947914883282
vn 0 0.9636113749942804 0.26730716036356517
vn 0 0.6947465906068658 0.7192545966764037
vn 0 0.2505628070857318 0.9681003458863747
vn 0 -0.25056280708573175 0.9681003458863748
vn 0 -0.6947465906068656 0.7192545966764039
vn 0 -0.9636113749942804 0.26730716036356517
usemtl none
f 3/1/1 8/2/1 2/3/1
f 3/4/2 4/5/2 9/6/2 8/7/2
f 4/8/3 5/9/3 10/10/3 9/11/3
f 5/12/4 6/13/4 11/14/4 10/15/4
f 6/16/5 7/17/5 12/18/5 11/19/5
f 12/20/6 7/21/6 1/22/6
f 8/23/7 13/24/7 2/25/7
f 8/26/8 9/27/8 14/28/8 13/29/8
f 9/30/9 10/31/9 15/32/9 14/33/9
f 10/34/10 11/35/10 16/36/10 15/37/10
f 11/38/11 12/39/11 17/40/11 16/41/11
f 17/42/12 12/43/12 1/44/12
f 13/45/13 18/46/13 2/47/13
f 13/48/14 14/49/14 19/50/14 18/51/14
f 14/52/15 15/53/15 20/54/15 19/55/15
f 15/56/16 16/57/16 21/58/16 20/59/16
f 16/60/17 17/61/17 22/62/17 21/63/17
f 22/64/18 17/65/18 1/66/18
f 18/67/19 23/68/19 2/69/19
f 18/70/20 19/71/20 24/72/20 23/73/20
f 19/74/21 20/75/21 25/76/21 24/77/21
f 20/78/22 21/79/22 26/80/22 25/81/22
f 21/82/23 22/83/23 27/84/23 26/85/23
f 27/86/24 22/87/24 1/88/24
f 23/89/25 28/90/25 2/91/25
f 23/92/26 24/93/26 29/94/26 28/95/26
f 24/96/27 25/97/27 30/98/27 29/99/27
f 25/100/28 26/101/28 31/102/28 30/103/28
f 26/104/29 27/105/29 32/106/29 31/107/29
f 32/108/30 27/109/30 1/110/30
f 28/111/31 33/112/31 2/113/31
f 28/114/32 29/115/32 34/116/32 33/117/32
f 29/118/33 30/119/33 35/120/33 34/121/33
f 30/122/34 31/123/34 36/124/34 35/125/34
f 31/126/35 32/127/35 37/128/35 36/129/35
f 37/130/36 32/131/36 1/132/36
f 33/133/37 38/134/37 2/135/37
f 33/136/38 34/137/38 39/138/38 38/139/38
f 34/140/39 35/141/39 40/142/39 39/143/39
f 35/144/40 36/145/40 41/146/40 40/147/40
f 36/148/41 37/149/41 42/150/41 41/151/41
f 42/152/42 37/153/42 1/154/42
f 38/155/43 43/156/43 2/157/43
f 38/158/44 39/159/44 44/160/44 43/161/44
f 39/162/45 40/163/45 45/164/45 44/165/45
f 40/166/46 41/167/46 46/168/46 45/169/46
f 41/170/47 42/171/47 47/172/47 46/173/47
f 47/174/48 42/175/48 1/176/48
f 43/177/49 48/178/49 2/179/49
f 43/180/50 44/181/50 49/182/50 48/183/50
f 44/184/51 45/185/51 50/186/51 49/187/51
f 45/188/52 46/189/52 51/190/52 50/191/52
f 46/192/53 47/193/53 52/194/53 51/195/53
f 52/196/54 47/197/54 1/198/54
f 48/199/55 53/200/55 2/201/55
f 48/202/56 49/203/56 54/204/56 53/205/56
f 49/206/57 50/207/57 55/208/57 54/209/57
f 50/210/58 51/211/58 56/212/58 55/213/58
f 51/214/59 52/215/59 57/216/59 56/217/59
f 57/218/60 52/219/60 1/220/60
f 53/221/61 58/222/61 2/223/61
f 53/224/62 54/225/62 59/226/62 58/227/62
f 54/228/63 55/229/63 60/230/63 59/231/63
f 55/232/64 56/233/64 61/234/64 60/235/64
f 56/236/65 57/237/65 62/238/65 61/239/65
f 62/240/66 57/241/66 1/242/66
f 58/243/67 3/244/67 2/245/67
f 58/246/68 59/247/68 4/248/68 3/249/68
f 59/250/69 60/251/69 5/252/69 4/253/69
f 60/254/70 61/255/70 6/256/70 5/257/70
f 61/258/71 62/259/71 7/260/71 6/261/71
f 7/262/72 62/263/72 1/264/72
o body_shoulder
v 0.75 0.03125 0.53125
v 0.75 0.53125 0.53125
v 0.795408908000335 0.48350424859373686 0.6710042485937369
v 0.8234731565365592 0.35850424859373686 0.7573771242968684
v 0.8234731565365592 0.20399575140626316 0.7573771242968684
v 0.795408908000335 0.07899575140626316 0.6710042485937369
v 0.8688820645368942 0.48350424859373686 0.6176228757031316
v 0.9423552210734534 0.35850424859373686 0.6710042485937369
v 0.9423552210734534 0.20399575140626316 0.6710042485937369
v 0.8688820645368942 0.07899575140626316 0.6176228757031316
v 0.8969463130731183 0.48350424859373686 0.53125
v 0.9877641290737884 0.35850424859373686 0.53125
v 0.9877641290737884 0.20399575140626316 0.53125
v 0.8969463130731183 0.07899575140626316 0.53125
v 0.8688820645368942 0.48350424859373686 0.44487712429686843
v 0.9423552210734534 0.35850424859373686 0.39149575140626314
v 0.9423552210734534 0.20399575140626316 0.39149575140626314
v 0.8688820645368942 0.07899575140626316 0.44487712429686843
v 0.795408908000335 0.48350424859373686 0.39149575140626314
v 0.8234731565365592 0.35850424859373686 0.30512287570313157
v 0.8234731565365592 0.20399575140626316 0.30512287570313157
v 0.795408908000335 0.07899575140626316 0.39149575140626314
v 0.7045910919996649 0.48350424859373686 0.39149575140626314
v 0.6765268434634408 0.35850424859373686 0.30512287570313157
v 0.6765268434634408 0.20399575140626316 0.30512287570313157
v 0.7045910919996649 0.07899575140626316 0.39149575140626314
v 0.6311179354631058 0.48350424859373686 0.44487712429686843
v 0.5576447789265466 0.35850424859373686 0.39149575140626314
v 0.5576447789265466 0.20399575140626316 0.39149575140626314
v 0.6311179354631058 0.07899575140626316 0.4448771242968684
v 0.6030536869268817 0.48350424859373686 0.53125
v 0.5122358709262116 0.35850424859373686 0.53125
v 0.5122358709262116 0.20399575140626316 0.53125
v 0.6030536869268817 0.07899575140626316 0.53125
v 0.6311179354631058 0.48350424859373686 0.6176228757031316
v 0.5576447789265466 0.35850424859373686 0.6710042485937369
v 0.5576447789265466 0.20399575140626316 0.6710042485937369
v 0.6311179354631058 0.07899575140626316 0.6176228757031316
v 0.704591091999665 0.48350424859373686 0.6710042485937369
v 0.6765268434634408 0.35850424859373686 0.7573771242968684
v 0.6765268434634408 0.20399575140626316 0.7573771242968684
v 0.7045910919996649 0.07899575140626316 0.6710042485937369
vt 0 1
vt 0 1
vt 0 1
vt 0 1
vt 0 1
vt 0 1
vt 0 1
vt 0 1
vt 0 1
vt 0 1
vt 0 1
vt 0 1
vt 0 1
vt 0 1
vt 0 1
vt 0 1
vt 0 1
vt 0 1
vt 0 1
vt 0 1
vt 0 1
vt 0 1
vt 0 1
vt 0 1
vt 0 1
vt 0 1
vt 0 1
vt 0 1
vt 0 1
vt 0 1
vt 0 1
vt 0 1
vt 0 1
vt 0 1
vt 0 1
vt 0 1
vt 0 1
vt 0 1
vt 0 1
vt 0 1
vt 0 1
vt 0 1
vt 0 1
vt 0 1
vt 0 1
vt 0 1
vt 0 1
vt 0 1
vt 0 1
vt 0 1
vt 0 1
vt 0 1
vt 0 1
vt 0 1
vt 0 1
vt 0 1
vt 0 1
vt 0 1
vt 0 1
vt 0 1
vt 0 1
vt 0 1
vt 0 1
vt 0 1
vt 0 1
vt 0 1
vt 0 1
vt 0 1
vt 0 1
vt 0 1
vt 0 1
vt 0 1
vt 0 1
vt 0 1
vt 0 1
vt 0 1
vt 0 1
vt 0 1
vt 0 1
vt 0 1
vt 0 1
vt 0 1
vt 0 1
vt 0 1
vt 0 1
vt 0 1
vt 0 1
vt 0 1
vt 0 1
vt 0 1
vt 0 1
vt 0 1
vt 0 1
vt 0 1
vt 0 1
vt 0 1
vt 0 1
vt 0 1
vt 0 1
vt 0 1
vt 0 1
vt 0 1
vt 0 1
vt 0 1
vt 0 1
vt 0 1
vt 0 1
vt 0 1
vt 0 1
vt 0 1
vt 0 1
vt 0 1
vt 0 1
vt 0 1
vt 0 1
vt 0 1
vt 0 1
vt 0 1
vt 0 1
vt 0 1
vt 0 1
vt 0 1
vt 0 1
vt 0 1
vt 0 1
vt 0 1
vt 0 1
vt 0 1
vt 0 1
vt 0 1
vt 0 1
vt 0 1
vt 0 1
vt 0 1
vt 0 1
vt 0 1
vt 0 1
vt 0 1
vt 0 1
vt 0 1
vt 0 1
vt 0 1
vt 0 1
vt 0 1
vt 0 1
vt 0 1
vt 0 1
vt 0 1
vt 0 1
vt 0 1
vt 0 1
vt 0 1
vt 0 1
vt 0 1
vt 0 1
vt 0 1
vt 0 1
vt 0 1
vt 0 1
vt 0 1
vt 0 1
vt 0 1
vt 0 1
vt 0 1
vt 0 1
vt 0 1
vt 0 1
vt 0 1
vt 0 1
vt 0 1
vt 0 1
vt 0 1
vt 0 1
vt 0 1
vt 0 1
vt 0 1
vt 0 1
vt 0 1
vt 0 1
vt 0 1
vn 0.19002754472854486 0.9462985154001796 0.2615504769558964
vn 0.4835720429064236 0.5684730304826776 0.6655798171017123
vn 0.5877852522924732 1.9812432278360214e-16 0.8090169943749476
vn 0.4835720429064237 -0.5684730304826776 0.6655798171017122
vn 0.19002754472854494 -0.9462985154001796 0.2615504769558965
vn 0.3074710261694765 0.9462985154001797 0.0999033924234063
vn 0.782436001431816 0.5684730304826777 0.2542288679069154
vn 0.9510565162951535 0 0.3090169943749475
vn 0.7824360014318161 -0.5684730304826777 0.2542288679069155
vn 0.3074710261694767 -0.9462985154001796 0.09990339242340636
vn 0.3074710261694766 0.9462985154001797 -0.09990339242340632
vn 0.782436001431816 0.5684730304826776 -0.25422886790691546
vn 0.9510565162951538 1.7084575627408807e-16 -0.3090169943749475
vn 0.782436001431816 -0.5684730304826776 -0.25422886790691557
vn 0.3074710261694767 -0.9462985154001796 -0.09990339242340637
vn 0.19002754472854494 0.9462985154001796 -0.2615504769558964
vn 0.48357204290642375 0.5684730304826778 -0.6655798171017121
vn 0.5877852522924734 0 -0.8090169943749475
vn 0.4835720429064238 -0.5684730304826776 -0.665579817101712
vn 0.19002754472854505 -0.9462985154001796 -0.2615504769558965
vn 0 0.9462985154001796 -0.32329416906498026
vn 0 0.5684730304826776 -0.8227018983895934
vn 0 1.7963785889362148e-16 -1
vn 0 -0.5684730304826776 -0.8227018983895933
vn 0 -0.9462985154001797 -0.3232941690649804
vn -0.19002754472854494 0.9462985154001797 -0.2615504769558964
vn -0.48357204290642364 0.5684730304826777 -0.6655798171017121
vn -0.5877852522924734 1.9812432278360214e-16 -0.8090169943749475
vn -0.48357204290642386 -0.5684730304826777 -0.6655798171017121
vn -0.19002754472854505 -0.9462985154001797 -0.2615504769558965
vn -0.3074710261694765 0.9462985154001797 -0.09990339242340633
vn -0.782436001431816 0.5684730304826777 -0.25422886790691557
vn -0.9510565162951535 0 -0.3090169943749477
vn -0.782436001431816 -0.5684730304826776 -0.2542288679069157
vn -0.3074710261694767 -0.9462985154001796 -0.09990339242340641
vn -0.3074710261694766 0.9462985154001797 0.09990339242340626
vn -0.7824360014318162 0.5684730304826777 0.2542288679069153
vn -0.9510565162951536 1.7084575627408805e-16 0.30901699437494734
vn -0.782436001431816 -0.5684730304826776 0.2542288679069153
vn -0.3074710261694767 -0.9462985154001796 0.09990339242340625
vn -0.19002754472854497 0.9462985154001796 0.26155047695589634
vn -0.4835720429064238 0.5684730304826777 0.665579817101712
vn -0.5877852522924735 0 0.8090169943749472
vn -0.4835720429064239 -0.5684730304826777 0.665579817101712
vn -0.19002754472854505 -0.9462985154001796 0.26155047695589645
vn 0 0.9462985154001796 0.32329416906498026
vn 0 0.5684730304826776 0.8227018983895935
vn 0 1.7963785889362146e-16 1
vn 0 -0.5684730304826776 0.8227018983895933
vn 0 -0.9462985154001796 0.3232941690649803
usemtl none
f 65/265/73 69/266/73 64/267/73
f 65/268/74 66/269/74 70/270/74 69/271/74
f 66/272/75 67/273/75 71/274/75 70/275/75
f 67/276/76 68/277/76 72/278/76 71/279/76
f 72/280/77 68/281/77 63/282/77
f 69/283/78 73/284/78 64/285/78
f 69/286/79 70/287/79 74/288/79 73/289/79
f 70/290/80 71/291/80 75/292/80 74/293/80
f 71/294/81 72/295/81 76/296/81 75/297/81
f 76/298/82 72/299/82 63/300/82
f 73/301/83 77/302/83 64/303/83
f 73/304/84 74/305/84 78/306/84 77/307/84
f 74/308/85 75/309/85 79/310/85 78/311/85
f 75/312/86 76/313/86 80/314/86 79/315/86
f 80/316/87 76/317/87 63/318/87
f 77/319/88 81/320/88 64/321/88
f 77/322/89 78/323/89 82/324/89 81/325/89
f 78/326/90 79/327/90 83/328/90 82/329/90
f 79/330/91 80/331/91 84/332/91 83/333/91
f 84/334/92 80/335/92 63/336/92
f 81/337/93 85/338/93 64/339/93
f 81/340/94 82/341/94 86/342/94 85/343/94
f 82/344/95 83/345/95 87/346/95 86/347/95
f 83/348/96 84/349/96 88/350/96 87/351/96
f 88/352/97 84/353/97 63/354/97
f 85/355/98 89/356/98 64/357/98
f 85/358/99 86/359/99 90/360/99 89/361/99
f 86/362/100 87/363/100 91/364/100 90/365/100
f 87/366/101 88/367/101 92/368/101 91/369/101
f 92/370/102 88/371/102 63/372/102
f 89/373/103 93/374/103 64/375/103
f 89/376/104 90/377/104 94/378/104 93/379/104
f 90/380/105 91/381/105 95/382/105 94/383/105
f 91/384/106 92/385/106 96/386/106 95/387/106
f 96/388/107 92/389/107 63/390/107
f 93/391/108 97/392/108 64/393/108
f 93/394/109 94/395/109 98/396/109 97/397/109
f 94/398/110 95/399/110 99/400/110 98/401/110
f 95/402/111 96/403/111 100/404/111 99/405/111
f 100/406/112 96/407/112 63/408/112
f 97/409/113 101/410/113 64/411/113
f 97/412/114 98/413/114 102/414/114 101/415/114
f 98/416/115 99/417/115 103/418/115 102/419/115
f 99/420/116 100/421/116 104/422/116 103/423/116
f 104/424/117 100/425/117 63/426/117
f 101/427/118 65/428/118 64/429/118
f 101/430/119 102/431/119 66/432/119 65/433/119
f 102/434/120 103/435/120 67/436/120 66/437/120
f 103/438/121 104/439/121 68/440/121 67/441/121
f 68/442/122 104/443/122 63/444/122
o body_mid
v 0.4625 0.15625 0.525
v 0.4625 0.78125 0.525
v 0.5029404757972689 0.7393829386826372 0.6759259103576669
v 0.5325449587631292 0.625 0.786411344918065
v 0.5433809515945378 0.46875 0.8268518207153339
v 0.5325449587631292 0.31250000000000006 0.786411344918065
v 0.5029404757972689 0.1981170613173629 0.6759259103576669
v 0.5729854345603981 0.7393829386826372 0.6354854345603981
v 0.6538663861549358 0.625 0.7163663861549359
v 0.6834708691207961 0.46875 0.7459708691207961
v 0.6538663861549359 0.31250000000000006 0.7163663861549359
v 0.5729854345603981 0.1981170613173629 0.6354854345603981
v 0.6134259103576669 0.7393829386826372 0.5654404757972689
v 0.723911344918065 0.625 0.5950449587631292
v 0.7643518207153339 0.46875 0.6058809515945378
v 0.723911344918065 0.31250000000000006 0.5950449587631292
v 0.6134259103576669 0.1981170613173629 0.5654404757972689
v 0.6134259103576669 0.7393829386826372 0.48455952420273113
v 0.723911344918065 0.625 0.4549550412368708
v 0.7643518207153339 0.46875 0.44411904840546224
v 0.723911344918065 0.31250000000000006 0.4549550412368708
v 0.6134259103576669 0.1981170613173629 0.48455952420273113
v 0.5729854345603981 0.7393829386826372 0.41451456543960197
v 0.6538663861549359 0.625 0.3336336138450643
v 0.6834708691207961 0.46875 0.3040291308792039
v 0.6538663861549359 0.31250000000000006 0.33363361384506424
v 0.5729854345603981 0.1981170613173629 0.41451456543960197
v 0.502940475797269 0.7393829386826372 0.37407408964233313
v 0.5325449587631292 0.625 0.26358865508193513
v 0.5433809515945378 0.46875 0.22314817928466624
v 0.5325449587631292 0.31250000000000006 0.2635886550819351
v 0.502940475797269 0.1981170613173629 0.37407408964233313
v 0.42205952420273124 0.7393829386826372 0.37407408964233313
v 0.39245504123687097 0.625 0.263588655081935
v 0.3816190484054624 0.46875 0.22314817928466613
v 0.3924550412368709 0.31250000000000006 0.26358865508193496
v 0.42205952420273124 0.1981170613173629 0.37407408964233313
v 0.35201456543960197 0.7393829386826372 0.41451456543960197
v 0.2711336138450643 0.625 0.3336336138450642
v 0.24152913087920394 0.46875 0.30402913087920386
v 0.27113361384506424 0.31250000000000006 0.3336336138450642
v 0.35201456543960197 0.1981170613173629 0.41451456543960197
v 0.31157408964233313 0.7393829386826372 0.4845595242027312
v 0.20108865508193507 0.625 0.4549550412368709
v 0.16064817928466618 0.46875 0.44411904840546235
v 0.20108865508193502 0.31250000000000006 0.45495504123687086
v 0.31157408964233313 0.1981170613173629 0.4845595242027312
v 0.31157408964233313 0.7393829386826372 0.5654404757972689
v 0.20108865508193502 0.625 0.595044958763129
v 0.16064817928466613 0.46875 0.6058809515945376
v 0.20108865508193496 0.31250000000000006 0.5950449587631291
v 0.31157408964233313 0.1981170613173629 0.5654404757972689
v 0.35201456543960197 0.7393829386826372 0.635485434560398
v 0.2711336138450642 0.625 0.7163663861549358
v 0.24152913087920386 0.46875 0.745970869120796
v 0.2711336138450642 0.31250000000000006 0.7163663861549358
v 0.35201456543960197 0.1981170613173629 0.635485434560398
v 0.4220595242027312 0.7393829386826372 0.6759259103576669
v 0.39245504123687086 0.625 0.786411344918065
v 0.3816190484054623 0.46875 0.8268518207153339
v 0.39245504123687086 0.31250000000000006 0.786411344918065
v 0.4220595242027312 0.1981170613173629 0.6759259103576669
vt 0 1
vt 0 1
vt 0 1
vt 0 1
vt 0 1
vt 0 1
vt 0 1
vt 0 1
vt 0 1
vt 0 1
vt 0 1
vt 0 1
vt 0 1
vt 0 1
vt 0 1
vt 0 1
vt 0 1
vt 0 1
vt 0 1
vt 0 1
vt 0 1
vt 0 1
vt 0 1
vt 0 1
vt 0 1
vt 0 1
vt 0 1
vt 0 1
vt 0 1
vt 0 1
vt 0 1
vt 0 1
vt 0 1
vt 0 1
vt 0 1
vt 0 1
vt 0 1
vt 0 1
vt 0 1
vt 0 1
vt 0 1
vt 0 1
vt 0 1
vt 0 1
vt 0 1
vt 0 1
vt 0 1
vt 0 1
vt 0 1
vt 0 1
vt 0 1
vt 0 1
vt 0 1
vt 0 1
vt 0 1
vt 0 1
vt 0 1
vt 0 1
vt 0 1
vt 0 1
vt 0 1
vt 0 1
vt 0 1
vt 0 1
vt 0 1
vt 0 1
vt 0 1
vt 0 1
vt 0 1
vt 0 1
vt 0 1
vt 0 1
vt 0 1
vt 0 1
vt 0 1
vt 0 1
vt 0 1
vt 0 1
vt 0 1
vt 0 1
vt 0 1
vt 0 1
vt 0 1
vt 0 1
vt 0 1
vt 0 1
vt 0 1
vt 0 1
vt 0 1
vt 0 1
vt 0 1
vt 0 1
vt 0 1
vt 0 1
vt 0 1
vt 0 1
vt 0 1
vt 0 1
vt 0 1
vt 0 1
vt 0 1
vt 0 1
vt 0 1
vt 0 1
vt 0 1
vt 0 1
vt 0 1
vt 0 1
vt 0 1
vt 0 1
vt 0 1
vt 0 1
vt 0 1
vt 0 1
vt 0 1
vt 0 1
vt 0 1
vt 0 1
vt 0 1
vt 0 1
vt 0 1
vt 0 1
vt 0 1
vt 0 1
vt 0 1
vt 0 1
vt 0 1
vt 0 1
vt 0 1
vt 0 1
vt 0 1
vt 0 1
vt 0 1
vt 0 1
vt 0 1
vt 0 1
vt 0 1
vt 0 1
vt 0 1
vt 0 1
vt 0 1
vt 0 1
vt 0 1
vt 0 1
vt 0 1
vt 0 1
vt 0 1
vt 0 1
vt 0 1
vt 0 1
vt 0 1
vt 0 1
vt 0 1
vt 0 1
vt 0 1
vt 0 1
vt 0 1
vt 0 1
vt 0 1
vt 0 1
vt 0 1
vt 0 1
vt 0 1
vt 0 1
vt 0 1
vt 0 1
vt 0 1
vt 0 1
vt 0 1
vt 0 1
vt 0 1
vt 0 1
vt 0 1
vt 0 1
vt 0 1
vt 0 1
vt 0 1
vt 0 1
vt 0 1
vt 0 1
vt 0 1
vt 0 1
vt 0 1
vt 0 1
vt 0 1
vt 0 1
vt 0 1
vt 0 1
vt 0 1
vt 0 1
vt 0 1
vt 0 1
vt 0 1
vt 0 1
vt 0 1
vt 0 1
vt 0 1
vt 0 1
vt 0 1
vt 0 1
vt 0 1
vt 0 1
vt 0 1
vt 0 1
vt 0 1
vt 0 1
vt 0 1
vt 0 1
vt 0 1
vt 0 1
vt 0 1
vt 0 1
vt 0 1
vt 0 1
vt 0 1
vt 0 1
vt 0 1
vt 0 1
vt 0 1
vt 0 1
vt 0 1
vt 0 1
vt 0 1
vt 0 1
vt 0 1
vt 0 1
vt 0 1
vt 0 1
vt 0 1
vt 0 1
vt 0 1
vt 0 1
vt 0 1
vt 0 1
vt 0 1
vt 0 1
vt 0 1
vt 0 1
vt 0 1
vt 0 1
vt 0 1
vt 0 1
vt 0 1
vt 0 1
vt 0 1
vt 0 1
vt 0 1
vt 0 1
vt 0 1
vt 0 1
vt 0 1
vt 0 1
vt 0 1
vt 0 1
vt 0 1
vt 0 1
vt 0 1
vt 0 1
vt 0 1
vt 0 1
vt 0 1
vt 0 1
vt 0 1
vt 0 1
vn 0.1336535801817825 0.9636113749942804 0.23149479148832813
vn 0.3596272983382018 0.6947465906068658 0.6228927525104961
vn 0.48405017294318736 0.25056280708573175 0.8383994929501024
vn 0.4840501729431875 -0.25056280708573153 0.8383994929501025
vn 0.35962729833820156 -0.6947465906068657 0.6228927525104961
vn 0.1336535801817825 -0.9636113749942804 0.23149479148832813
vn 0.2314947914883281 0.9636113749942803 0.1336535801817825
vn 0.622892752510496 0.6947465906068658 0.35962729833820195
vn 0.8383994929501024 0.2505628070857317 0.48405017294318736
vn 0.8383994929501024 -0.2505628070857315 0.4840501729431875
vn 0.6228927525104961 -0.6947465906068657 0.3596272983382019
vn 0.23149479148832808 -0.9636113749942803 0.13365358018178247
vn 0.26730716036356506 0.9636113749942804 0
vn 0.7192545966764037 0.6947465906068657 0
vn 0.9681003458863747 0.25056280708573175 0
vn 0.968100345886375 -0.2505628070857315 0
vn 0.7192545966764038 -0.6947465906068657 0
vn 0.26730716036356506 -0.9636113749942804 0
vn 0.23149479148832813 0.9636113749942804 -0.1336535801817825
vn 0.622892752510496 0.6947465906068658 -0.3596272983382018
vn 0.8383994929501024 0.2505628070857317 -0.48405017294318736
vn 0.8383994929501024 -0.2505628070857314 -0.48405017294318753
vn 0.622892752510496 -0.6947465906068658 -0.3596272983382016
vn 0.23149479148832813 -0.9636113749942804 -0.1336535801817825
vn 0.13365358018178256 0.9636113749942804 -0.23149479148832805
vn 0.35962729833820184 0.6947465906068657 -0.622892752510496
vn 0.4840501729431874 0.2505628070857317 -0.8383994929501024
vn 0.48405017294318753 -0.25056280708573153 -0.8383994929501024
vn 0.359627298338202 -0.6947465906068657 -0.6228927525104961
vn 0.13365358018178256 -0.9636113749942804 -0.23149479148832805
vn 9.173067274558416e-17 0.9636113749942803 -0.26730716036356494
vn 5.450581178924242e-16 0.6947465906068657 -0.7192545966764037
vn 6.644378391705387e-16 0.25056280708573175 -0.9681003458863747
vn 7.672267306097675e-16 -0.2505628070857315 -0.968100345886375
vn 2.6973381521929865e-16 -0.6947465906068656 -0.7192545966764038
vn 9.173067274558419e-17 -0.9636113749942804 -0.267307160363565
vn -0.13365358018178244 0.9636113749942804 -0.2314947914883282
vn -0.3596272983382017 0.6947465906068658 -0.6228927525104961
vn -0.4840501729431871 0.2505628070857317 -0.8383994929501025
vn -0.48405017294318725 -0.2505628070857314 -0.8383994929501026
vn -0.35962729833820156 -0.6947465906068658 -0.6228927525104963
vn -0.13365358018178244 -0.9636113749942804 -0.2314947914883282
vn -0.2314947914883282 0.9636113749942804 -0.13365358018178247
vn -0.622892752510496 0.6947465906068657 -0.3596272983382018
vn -0.8383994929501025 0.25056280708573175 -0.4840501729431872
vn -0.8383994929501026 -0.2505628070857316 -0.4840501729431874
vn -0.6228927525104963 -0.6947465906068657 -0.35962729833820173
vn -0.2314947914883282 -0.9636113749942804 -0.13365358018178247
vn -0.267307160363565 0.9636113749942803 -9.173067274558426e-17
vn -0.7192545966764037 0.6947465906068658 -2.3359633623961056e-16
vn -0.9681003458863747 0.2505628070857317 -3.322189195852695e-16
vn -0.9681003458863748 -0.2505628070857314 -3.83613365304884e-16
vn -0.7192545966764038 -0.6947465906068657 -2.697338152192988e-16
vn -0.267307160363565 -0.9636113749942803 -9.173067274558426e-17
vn -0.2314947914883282 0.9636113749942804 0.13365358018178247
vn -0.6228927525104963 0.6947465906068658 0.3596272983382017
vn -0.8383994929501025 0.2505628070857317 0.4840501729431871
vn -0.8383994929501025 -0.2505628070857314 0.4840501729431873
vn -0.6228927525104961 -0.6947465906068658 0.3596272983382017
vn -0.2314947914883282 -0.9636113749942804 0.13365358018178247
vn -0.13365358018178256 0.9636113749942804 0.23149479148832813
vn -0.3596272983382019 0.6947465906068657 0.622892752510496
vn -0.48405017294318736 0.2505628070857318 0.8383994929501026
vn -0.48405017294318753 -0.25056280708573153 0.8383994929501024
vn -0.3596272983382019 -0.6947465906068656 0.6228927525104961
vn -0.13365358018178256 -0.9636113749942804 0.23149479148832813
vn 0 0.9636113749942804 0.267307160363565
vn 0 0.6947465906068658 0.7192545966764037
vn 0 0.25056280708573175 0.9681003458863747
vn 0 -0.2505628070857315 0.968100345886375
vn 0 -0.6947465906068657 0.7192545966764037
vn 0 -0.9636113749942804 0.267307160363565
usemtl none
f 107/445/123 112/446/123 106/447/123
f 107/448/124 108/449/124 113/450/124 112/451/124
f 108/452/125 109/453/125 114/454/125 113/455/125
f 109/456/126 110/457/126 115/458/126 114/459/126
f 110/460/127 111/461/127 116/462/127 115/463/127
f 116/464/128 111/465/128 105/466/128
f 112/467/129 117/468/129 106/469/129
f 112/470/130 113/471/130 118/472/130 117/473/130
f 113/474/131 114/475/131 119/476/131 118/477/131
f 114/478/132 115/479/132 120/480/132 119/481/132
f 115/482/133 116/483/133 121/484/133 120/485/133
f 121/486/134 116/487/134 105/488/134
f 117/489/135 122/490/135 106/491/135
f 117/492/136 118/493/136 123/494/136 122/495/136
f 118/496/137 119/497/137 124/498/137 123/499/137
f 119/500/138 120/501/138 125/502/138 124/503/138
f 120/504/139 121/505/139 126/506/139 125/507/139
f 126/508/140 121/509/140 105/510/140
f 122/511/141 127/512/141 106/513/141
f 122/514/142 123/515/142 128/516/142 127/517/142
f 123/518/143 124/519/143 129/520/143 128/521/143
f 124/522/144 125/523/144 130/524/144 129/525/144
f 125/526/145 126/527/145 131/528/145 130/529/145
f 131/530/146 126/531/146 105/532/146
f 127/533/147 132/534/147 106/535/147
f 127/536/148 128/537/148 133/538/148 132/539/148
f 128/540/149 129/541/149 134/542/149 133/543/149
f 129/544/150 130/545/150 135/546/150 134/547/150
f 130/548/151 131/549/151 136/550/151 135/551/151
f 136/552/152 131/553/152 105/554/152
f 132/555/153 137/556/153 106/557/153
f 132/558/154 133/559/154 138/560/154 137/561/154
f 133/562/155 134/563/155 139/564/155 138/565/155
f 134/566/156 135/567/156 140/568/156 139/569/156
f 135/570/157 136/571/157 141/572/157 140/573/157
f 141/574/158 136/575/158 105/576/158
f 137/577/159 142/578/159 106/579/159
f 137/580/160 138/581/160 143/582/160 142/583/160
f 138/584/161 139/585/161 144/586/161 143/587/161
f 139/588/162 140/589/162 145/590/162 144/591/162
f 140/592/163 141/593/163 146/594/163 145/595/163
f 146/596/164 141/597/164 105/598/164
f 142/599/165 147/600/165 106/601/165
f 142/602/166 143/603/166 148/604/166 147/605/166
f 143/606/167 144/607/167 149/608/167 148/609/167
f 144/610/168 145/611/168 150/612/168 149/613/168
f 145/614/169 146/615/169 151/616/169 150/617/169
f 151/618/170 146/619/170 105/620/170
f 147/621/171 152/622/171 106/623/171
f 147/624/172 148/625/172 153/626/172 152/627/172
f 148/628/173 149/629/173 154/630/173 153/631/173
f 149/632/174 150/633/174 155/634/174 154/635/174
f 150/636/175 151/637/175 156/638/175 155/639/175
f 156/640/176 151/641/176 105/642/176
f 152/643/177 157/644/177 106/645/177
f 152/646/178 153/647/178 158/648/178 157/649/178
f 153/650/179 154/651/179 159/652/179 158/653/179
f 154/654/180 155/655/180 160/656/180 159/657/180
f 155/658/181 156/659/181 161/660/181 160/661/181
f 161/662/182 156/663/182 105/664/182
f 157/665/183 162/666/183 106/667/183
f 157/668/184 158/669/184 163/670/184 162/671/184
f 158/672/185 159/673/185 164/674/185 163/675/185
f 159/676/186 160/677/186 165/678/186 164/679/186
f 160/680/187 161/681/187 166/682/187 165/683/187
f 166/684/188 161/685/188 105/686/188
f 162/687/189 107/688/189 106/689/189
f 162/690/190 163/691/190 108/692/190 107/693/190
f 163/694/191 164/695/191 109/696/191 108/697/191
f 164/698/192 165/699/192 110/700/192 109/701/192
f 165/702/193 166/703/193 111/704/193 110/705/193
f 111/706/194 166/707/194 105/708/194
o body_up
v 0.5375 0.484375 0.475
v 0.5375 0.890625 0.475
v 0.5743947377502722 0.8518315769824112 0.5885503269824112
v 0.5971969396859542 0.7502690769824112 0.6587282884912056
v 0.5971969396859542 0.6247309230175888 0.6587282884912056
v 0.5743947377502722 0.5231684230175888 0.5885503269824112
v 0.6340916774362265 0.8518315769824112 0.5451779615087944
v 0.6937886171221808 0.7502690769824112 0.5885503269824112
v 0.6937886171221809 0.6247309230175888 0.5885503269824112
v 0.6340916774362265 0.5231684230175888 0.5451779615087944
v 0.6568938793719086 0.8518315769824112 0.475
v 0.7306833548724531 0.7502690769824112 0.475
v 0.7306833548724531 0.6247309230175888 0.475
v 0.6568938793719086 0.5231684230175888 0.475
v 0.6340916774362265 0.8518315769824112 0.40482203849120557
v 0.6937886171221808 0.7502690769824112 0.3614496730175888
v 0.6937886171221809 0.6247309230175888 0.3614496730175888
v 0.6340916774362265 0.5231684230175888 0.40482203849120557
v 0.5743947377502723 0.8518315769824112 0.3614496730175888
v 0.5971969396859543 0.7502690769824112 0.2912717115087944
v 0.5971969396859543 0.6247309230175888 0.2912717115087944
v 0.5743947377502723 0.5231684230175888 0.3614496730175888
v 0.5006052622497277 0.8518315769824112 0.3614496730175888
v 0.4778030603140456 0.7502690769824112 0.2912717115087944
v 0.4778030603140456 0.6247309230175888 0.2912717115087944
v 0.5006052622497277 0.5231684230175888 0.3614496730175888
v 0.44090832256377344 0.8518315769824112 0.40482203849120557
v 0.3812113828778192 0.7502690769824112 0.3614496730175888
v 0.38121138287781914 0.6247309230175888 0.36144967301758874
v 0.44090832256377344 0.5231684230175888 0.40482203849120557
v 0.4181061206280914 0.8518315769824112 0.475
v 0.3443166451275469 0.7502690769824112 0.4749999999999999
v 0.3443166451275469 0.6247309230175888 0.4749999999999999
v 0.4181061206280914 0.5231684230175888 0.475
v 0.44090832256377344 0.8518315769824112 0.5451779615087944
v 0.38121138287781914 0.7502690769824112 0.5885503269824112
v 0.3812113828778191 0.6247309230175888 0.5885503269824112
v 0.44090832256377344 0.5231684230175888 0.5451779615087944
v 0.5006052622497277 0.8518315769824112 0.5885503269824112
v 0.4778030603140456 0.7502690769824112 0.6587282884912056
v 0.4778030603140456 0.6247309230175888 0.6587282884912056
v 0.5006052622497277 0.5231684230175888 0.5885503269824112
vt 0 1
vt 0 1
vt 0 1
vt 0 1
vt 0 1
vt 0 1
vt 0 1
vt 0 1
vt 0 1
vt 0 1
vt 0 1
vt 0 1
vt 0 1
vt 0 1
vt 0 1
vt 0 1
vt 0 1
vt 0 1
vt 0 1
vt 0 1
vt 0 1
vt 0 1
vt 0 1
vt 0 1
vt 0 1
vt 0 1
vt 0 1
vt 0 1
vt 0 1
vt 0 1
vt 0 1
vt 0 1
vt 0 1
vt 0 1
vt 0 1
vt 0 1
vt 0 1
vt 0 1
vt 0 1
vt 0 1
vt 0 1
vt 0 1
vt 0 1
vt 0 1
vt 0 1
vt 0 1
vt 0 1
vt 0 1
vt 0 1
vt 0 1
vt 0 1
vt 0 1
vt 0 1
vt 0 1
vt 0 1
vt 0 1
vt 0 1
vt 0 1
vt 0 1
vt 0 1
vt 0 1
vt 0 1
vt 0 1
vt 0 1
vt 0 1
vt 0 1
vt 0 1
vt 0 1
vt 0 1
vt 0 1
vt 0 1
vt 0 1
vt 0 1
vt 0 1
vt 0 1
vt 0 1
vt 0 1
vt 0 1
vt 0 1
vt 0 1
vt 0 1
vt 0 1
vt 0 1
vt 0 1
vt 0 1
vt 0 1
vt 0 1
vt 0 1
vt 0 1
vt 0 1
vt 0 1
vt 0 1
vt 0 1
vt 0 1
vt 0 1
vt 0 1
vt 0 1
vt 0 1
vt 0 1
vt 0 1
vt 0 1
vt 0 1
vt 0 1
vt 0 1
vt 0 1
vt 0 1
vt 0 1
vt 0 1
vt 0 1
vt 0 1
vt 0 1
vt 0 1
vt 0 1
vt 0 1
vt 0 1
vt 0 1
vt 0 1
vt 0 1
vt 0 1
vt 0 1
vt 0 1
vt 0 1
vt 0 1
vt 0 1
vt 0 1
vt 0 1
vt 0 1
vt 0 1
vt 0 1
vt 0 1
vt 0 1
vt 0 1
vt 0 1
vt 0 1
vt 0 1
vt 0 1
vt 0 1
vt 0 1
vt 0 1
vt 0 1
vt 0 1
vt 0 1
vt 0 1
vt 0 1
vt 0 1
vt 0 1
vt 0 1
vt 0 1
vt 0 1
vt 0 1
vt 0 1
vt 0 1
vt 0 1
vt 0 1
vt 0 1
vt 0 1
vt 0 1
vt 0 1
vt 0 1
vt 0 1
vt 0 1
vt 0 1
vt 0 1
vt 0 1
vt 0 1
vt 0 1
vt 0 1
vt 0 1
vt 0 1
vt 0 1
vt 0 1
vt 0 1
vt 0 1
vt 0 1
vt 0 1
vt 0 1
vt 0 1
vt 0 1
vt 0 1
vt 0 1
vn 0.19002754472854497 0.9462985154001796 0.26155047695589656
vn 0.4835720429064236 0.5684730304826776 0.6655798171017122
vn 0.587785252292473 2.1135655597641273e-16 0.8090169943749476
vn 0.48357204290642364 -0.5684730304826776 0.6655798171017122
vn 0.19002754472854488 -0.9462985154001797 0.2615504769558965
vn 0.3074710261694767 0.9462985154001797 0.09990339242340636
vn 0.7824360014318161 0.5684730304826778 0.2542288679069155
vn 0.9510565162951536 2.444324084796516e-16 0.30901699437494734
vn 0.7824360014318161 -0.5684730304826778 0.2542288679069155
vn 0.3074710261694767 -0.9462985154001796 0.09990339242340633
vn 0.3074710261694767 0.9462985154001796 -0.09990339242340633
vn 0.7824360014318161 0.5684730304826777 -0.25422886790691546
vn 0.9510565162951536 2.1027170002964683e-16 -0.30901699437494734
vn 0.782436001431816 -0.5684730304826777 -0.25422886790691546
vn 0.3074710261694766 -0.9462985154001795 -0.09990339242340629
vn 0.19002754472854502 0.9462985154001796 -0.2615504769558965
vn 0.4835720429064236 0.5684730304826776 -0.6655798171017122
vn 0.5877852522924731 2.1938895329243237e-16 -0.8090169943749475
vn 0.4835720429064237 -0.5684730304826777 -0.6655798171017121
vn 0.19002754472854497 -0.9462985154001797 -0.2615504769558965
vn 0 0.9462985154001797 -0.3232941690649804
vn 0 0.5684730304826776 -0.8227018983895933
vn 0 2.2109274940753413e-16 -1
vn 0 -0.5684730304826776 -0.8227018983895935
vn 0 -0.9462985154001797 -0.3232941690649803
vn -0.19002754472854497 0.9462985154001796 -0.26155047695589645
vn -0.4835720429064237 0.5684730304826776 -0.6655798171017121
vn -0.5877852522924731 2.1135655597641273e-16 -0.8090169943749475
vn -0.4835720429064237 -0.5684730304826776 -0.6655798171017121
vn -0.19002754472854497 -0.9462985154001796 -0.2615504769558965
vn -0.30747102616947664 0.9462985154001796 -0.0999033924234064
vn -0.7824360014318161 0.5684730304826777 -0.25422886790691557
vn -0.9510565162951535 2.444324084796516e-16 -0.30901699437494756
vn -0.782436001431816 -0.5684730304826777 -0.25422886790691557
vn -0.3074710261694767 -0.9462985154001796 -0.0999033924234064
vn -0.3074710261694767 0.9462985154001796 0.09990339242340628
vn -0.782436001431816 0.5684730304826776 0.2542288679069154
vn -0.9510565162951536 2.102717000296468e-16 0.30901699437494734
vn -0.782436001431816 -0.5684730304826777 0.2542288679069153
vn -0.30747102616947664 -0.9462985154001797 0.09990339242340626
vn -0.1900275447285451 0.9462985154001797 0.2615504769558965
vn -0.4835720429064238 0.5684730304826776 0.665579817101712
vn -0.5877852522924734 2.1938895329243242e-16 0.8090169943749473
vn -0.48357204290642397 -0.5684730304826776 0.665579817101712
vn -0.19002754472854502 -0.9462985154001797 0.26155047695589645
vn 0 0.9462985154001797 0.32329416906498043
vn 0 0.5684730304826776 0.8227018983895934
vn 0 2.210927494075341e-16 1
vn 0 -0.5684730304826776 0.8227018983895933
vn 0 -0.9462985154001797 0.3232941690649803
usemtl none
f 169/709/195 173/710/195 168/711/195
f 169/712/196 170/713/196 174/714/196 173/715/196
f 170/716/197 171/717/197 175/718/197 174/719/197
f 171/720/198 172/721/198 176/722/198 175/723/198
f 176/724/199 172/725/199 167/726/199
f 173/727/200 177/728/200 168/729/200
f 173/730/201 174/731/201 178/732/201 177/733/201
f 174/734/202 175/735/202 179/736/202 178/737/202
f 175/738/203 176/739/203 180/740/203 179/741/203
f 180/742/204 176/743/204 167/744/204
f 177/745/205 181/746/205 168/747/205
f 177/748/206 178/749/206 182/750/206 181/751/206
f 178/752/207 179/753/207 183/754/207 182/755/207
f 179/756/208 180/757/208 184/758/208 183/759/208
f 184/760/209 180/761/209 167/762/209
f 181/763/210 185/764/210 168/765/210
f 181/766/211 182/767/211 186/768/211 185/769/211
f 182/770/212 183/771/212 187/772/212 186/773/212
f 183/774/213 184/775/213 188/776/213 187/777/213
f 188/778/214 184/779/214 167/780/214
f 185/781/215 189/782/215 168/783/215
f 185/784/216 186/785/216 190/786/216 189/787/216
f 186/788/217 187/789/217 191/790/217 190/791/217
f 187/792/218 188/793/218 192/794/218 191/795/218
f 192/796/219 188/797/219 167/798/219
f 189/799/220 193/800/220 168/801/220
f 189/802/221 190/803/221 194/804/221 193/805/221
f 190/806/222 191/807/222 195/808/222 194/809/222
f 191/810/223 192/811/223 196/812/223 195/813/223
f 196/814/224 192/815/224 167/816/224
f 193/817/225 197/818/225 168/819/225
f 193/820/226 194/821/226 198/822/226 197/823/226
f 194/824/227 195/825/227 199/826/227 198/827/227
f 195/828/228 196/829/228 200/830/228 199/831/228
f 200/832/229 196/833/229 167/834/229
f 197/835/230 201/836/230 168/837/230
f 197/838/231 198/839/231 202/840/231 201/841/231
f 198/842/232 199/843/232 203/844/232 202/845/232
f 199/846/233 200/847/233 204/848/233 203/849/233
f 204/850/234 200/851/234 167/852/234
f 201/853/235 205/854/235 168/855/235
f 201/856/236 202/857/236 206/858/236 205/859/236
f 202/860/237 203/861/237 207/862/237 206/863/237
f 203/864/238 204/865/238 208/866/238 207/867/238
f 208/868/239 204/869/239 167/870/239
f 205/871/240 169/872/240 168/873/240
f 205/874/241 206/875/241 170/876/241 169/877/241
f 206/878/242 207/879/242 171/880/242 170/881/242
f 207/882/243 208/883/243 172/884/243 171/885/243
f 172/886/244 208/887/244 167/888/244
o snow_cap
v 0.5125 0.71875 0.49375
v 0.5125 0.98125 0.49375
v 0.5363396767001759 0.9561834805117119 0.5671209805117119
v 0.5510734071816935 0.8905584805117118 0.6124667402558559
v 0.5510734071816935 0.8094415194882881 0.6124667402558559
v 0.5363396767001759 0.7438165194882882 0.5671209805117119
v 0.5749130838818695 0.9561834805117119 0.5390957597441441
v 0.6134864910635629 0.8905584805117118 0.5671209805117119
v 0.613486491063563 0.8094415194882881 0.5671209805117119
v 0.5749130838818695 0.7438165194882882 0.5390957597441441
v 0.5896468143633871 0.9561834805117119 0.49375
v 0.6373261677637388 0.8905584805117118 0.49375
v 0.6373261677637388 0.8094415194882881 0.49375
v 0.5896468143633871 0.7438165194882882 0.49375
v 0.5749130838818695 0.9561834805117119 0.44840424025585596
v 0.6134864910635629 0.8905584805117118 0.42037901948828815
v 0.613486491063563 0.8094415194882881 0.42037901948828815
v 0.5749130838818695 0.7438165194882882 0.44840424025585596
v 0.5363396767001759 0.9561834805117119 0.42037901948828815
v 0.5510734071816935 0.8905584805117118 0.3750332597441441
v 0.5510734071816935 0.8094415194882881 0.3750332597441441
v 0.5363396767001759 0.7438165194882882 0.42037901948828815
v 0.488660323299824 0.9561834805117119 0.42037901948828815
v 0.47392659281830635 0.8905584805117118 0.3750332597441441
v 0.47392659281830635 0.8094415194882881 0.3750332597441441
v 0.488660323299824 0.7438165194882882 0.42037901948828815
v 0.4500869161181305 0.9561834805117119 0.44840424025585596
v 0.41151350893643696 0.8905584805117118 0.42037901948828815
v 0.41151350893643696 0.8094415194882881 0.42037901948828815
v 0.4500869161181305 0.7438165194882882 0.4484042402558559
v 0.43535318563661285 0.9561834805117119 0.49375
v 0.38767383223626106 0.8905584805117118 0.49375
v 0.38767383223626106 0.8094415194882881 0.49375
v 0.43535318563661285 0.7438165194882882 0.49375
v 0.4500869161181305 0.9561834805117119 0.5390957597441441
v 0.41151350893643696 0.8905584805117118 0.5671209805117119
v 0.4115135089364369 0.8094415194882881 0.5671209805117119
v 0.45008691611813045 0.7438165194882882 0.5390957597441441
v 0.488660323299824 0.9561834805117119 0.5671209805117119
v 0.4739265928183064 0.8905584805117118 0.6124667402558559
v 0.47392659281830635 0.8094415194882881 0.6124667402558559
v 0.488660323299824 0.7438165194882882 0.5671209805117119
vt 0 1
vt 0 1
vt 0 1
vt 0 1
vt 0 1
vt 0 1
vt 0 1
vt 0 1
vt 0 1
vt 0 1
vt 0 1
vt 0 1
vt 0 1
vt 0 1
vt 0 1
vt 0 1
vt 0 1
vt 0 1
vt 0 1
vt 0 1
vt 0 1
vt 0 1
vt 0 1
vt 0 1
vt 0 1
vt 0 1
vt 0 1
vt 0 1
vt 0 1
vt 0 1
vt 0 1
vt 0 1
vt 0 1
vt 0 1
vt 0 1
vt 0 1
vt 0 1
vt 0 1
vt 0 1
vt 0 1
vt 0 1
vt 0 1
vt 0 1
vt 0 1
vt 0 1
vt 0 1
vt 0 1
vt 0 1
vt 0 1
vt 0 1
vt 0 1
vt 0 1
vt 0 1
vt 0 1
vt 0 1
vt 0 1
vt 0 1
vt 0 1
vt 0 1
vt 0 1
vt 0 1
vt 0 1
vt 0 1
vt 0 1
vt 0 1
vt 0 1
vt 0 1
vt 0 1
vt 0 1
vt 0 1
vt 0 1
vt 0 1
vt 0 1
vt 0 1
vt 0 1
vt 0 1
vt 0 1
vt 0 1
vt 0 1
vt 0 1
vt 0 1
vt 0 1
vt 0 1
vt 0 1
vt 0 1
vt 0 1
vt 0 1
vt 0 1
vt 0 1
vt 0 1
vt 0 1
vt 0 1
vt 0 1
vt 0 1
vt 0 1
vt 0 1
vt 0 1
vt 0 1
vt 0 1
vt 0 1
vt 0 1
vt 0 1
vt 0 1
vt 0 1
vt 0 1
vt 0 1
vt 0 1
vt 0 1
vt 0 1
vt 0 1
vt 0 1
vt 0 1
vt 0 1
vt 0 1
vt 0 1
vt 0 1
vt 0 1
vt 0 1
vt 0 1
vt 0 1
vt 0 1
vt 0 1
vt 0 1
vt 0 1
vt 0 1
vt 0 1
vt 0 1
vt 0 1
vt 0 1
vt 0 1
vt 0 1
vt 0 1
vt 0 1
vt 0 1
vt 0 1
vt 0 1
vt 0 1
vt 0 1
vt 0 1
vt 0 1
vt 0 1
vt 0 1
vt 0 1
vt 0 1
vt 0 1
vt 0 1
vt 0 1
vt 0 1
vt 0 1
vt 0 1
vt 0 1
vt 0 1
vt 0 1
vt 0 1
vt 0 1
vt 0 1
vt 0 1
vt 0 1
vt 0 1
vt 0 1
vt 0 1
vt 0 1
vt 0 1
vt 0 1
vt 0 1
vt 0 1
vt 0 1
vt 0 1
vt 0 1
vt 0 1
vt 0 1
vt 0 1
vt 0 1
vt 0 1
vt 0 1
vt 0 1
vt 0 1
vt 0 1
vt 0 1
vt 0 1
vn 0.19002754472854486 0.9462985154001796 0.2615504769558964
vn 0.4835720429064238 0.5684730304826776 0.6655798171017123
vn 0.5877852522924732 1.8868983122247824e-16 0.8090169943749476
vn 0.4835720429064235 -0.5684730304826776 0.6655798171017122
vn 0.19002754472854502 -0.9462985154001797 0.26155047695589667
vn 0.30747102616947647 0.9462985154001796 0.09990339242340629
vn 0.7824360014318162 0.5684730304826776 0.2542288679069156
vn 0.9510565162951535 1.6271024407056e-16 0.3090169943749475
vn 0.7824360014318161 -0.5684730304826777 0.25422886790691546
vn 0.3074710261694768 -0.9462985154001797 0.0999033924234064
vn 0.30747102616947647 0.9462985154001796 -0.09990339242340628
vn 0.7824360014318162 0.5684730304826776 -0.2542288679069156
vn 0.9510565162951538 1.6271024407056003e-16 -0.30901699437494745
vn 0.7824360014318161 -0.5684730304826777 -0.25422886790691546
vn 0.30747102616947675 -0.9462985154001797 -0.09990339242340639
vn 0.1900275447285449 0.9462985154001797 -0.26155047695589634
vn 0.4835720429064238 0.5684730304826776 -0.6655798171017121
vn 0.5877852522924734 1.0056046115339718e-16 -0.8090169943749473
vn 0.4835720429064238 -0.5684730304826776 -0.665579817101712
vn 0.1900275447285451 -0.9462985154001797 -0.26155047695589656
vn 0 0.9462985154001797 -0.3232941690649802
vn 0 0.5684730304826776 -0.8227018983895935
vn 0 1.7108367513678233e-16 -1
vn 0 -0.5684730304826778 -0.8227018983895934
vn 0 -0.9462985154001796 -0.3232941690649805
vn -0.19002754472854486 0.9462985154001796 -0.2615504769558963
vn -0.48357204290642386 0.5684730304826776 -0.6655798171017121
vn -0.5877852522924735 1.8868983122247817e-16 -0.8090169943749472
vn -0.48357204290642386 -0.5684730304826778 -0.665579817101712
vn -0.19002754472854505 -0.9462985154001797 -0.2615504769558966
vn -0.30747102616947647 0.9462985154001798 -0.09990339242340635
vn -0.7824360014318162 0.5684730304826776 -0.25422886790691573
vn -0.9510565162951535 1.6271024407056e-16 -0.3090169943749477
vn -0.7824360014318161 -0.5684730304826777 -0.2542288679069157
vn -0.30747102616947675 -0.9462985154001797 -0.09990339242340641
vn -0.3074710261694765 0.9462985154001797 0.09990339242340623
vn -0.7824360014318161 0.5684730304826775 0.25422886790691546
vn -0.9510565162951536 1.6271024407056003e-16 0.30901699437494723
vn -0.782436001431816 -0.5684730304826777 0.25422886790691523
vn -0.30747102616947675 -0.9462985154001797 0.09990339242340635
vn -0.19002754472854494 0.9462985154001796 0.2615504769558963
vn -0.48357204290642386 0.5684730304826775 0.6655798171017121
vn -0.5877852522924736 1.0056046115339722e-16 0.8090169943749473
vn -0.4835720429064239 -0.5684730304826777 0.6655798171017119
vn -0.19002754472854513 -0.9462985154001797 0.26155047695589656
vn 0 0.9462985154001798 0.3232941690649802
vn 0 0.5684730304826776 0.8227018983895934
vn 0 1.7108367513678233e-16 1
vn 0 -0.5684730304826778 0.8227018983895932
vn 0 -0.9462985154001796 0.3232941690649805
usemtl none
f 211/889/245 215/890/245 210/891/245
f 211/892/246 212/893/246 216/894/246 215/895/246
f 212/896/247 213/897/247 217/898/247 216/899/247
f 213/900/248 214/901/248 218/902/248 217/903/248
f 218/904/249 214/905/249 209/906/249
f 215/907/250 219/908/250 210/909/250
f 215/910/251 216/911/251 220/912/251 219/913/251
f 216/914/252 217/915/252 221/916/252 220/917/252
f 217/918/253 218/919/253 222/920/253 221/921/253
f 222/922/254 218/923/254 209/924/254
f 219/925/255 223/926/255 210/927/255
f 219/928/256 220/929/256 224/930/256 223/931/256
f 220/932/257 221/933/257 225/934/257 224/935/257
f 221/936/258 222/937/258 226/938/258 225/939/258
f 226/940/259 222/941/259 209/942/259
f 223/943/260 227/944/260 210/945/260
f 223/946/261 224/947/261 228/948/261 227/949/261
f 224/950/262 225/951/262 229/952/262 228/953/262
f 225/954/263 226/955/263 230/956/263 229/957/263
f 230/958/264 226/959/264 209/960/264
f 227/961/265 231/962/265 210/963/265
f 227/964/266 228/965/266 232/966/266 231/967/266
f 228/968/267 229/969/267 233/970/267 232/971/267
f 229/972/268 230/973/268 234/974/268 233/975/268
f 234/976/269 230/977/269 209/978/269
f 231/979/270 235/980/270 210/981/270
f 231/982/271 232/983/271 236/984/271 235/985/271
f 232/986/272 233/987/272 237/988/272 236/989/272
f 233/990/273 234/991/273 238/992/273 237/993/273
f 238/994/274 234/995/274 209/996/274
f 235/997/275 239/998/275 210/999/275
f 235/1000/276 236/1001/276 240/1002/276 239/1003/276
f 236/1004/277 237/1005/277 241/1006/277 240/1007/277
f 237/1008/278 238/1009/278 242/1010/278 241/1011/278
f 242/1012/279 238/1013/279 209/1014/279
f 239/1015/280 243/1016/280 210/1017/280
f 239/1018/281 240/1019/281 244/1020/281 243/1021/281
f 240/1022/282 241/1023/282 245/1024/282 244/1025/282
f 241/1026/283 242/1027/283 246/1028/283 245/1029/283
f 246/1030/284 242/1031/284 209/1032/284
f 243/1033/285 247/1034/285 210/1035/285
f 243/1036/286 244/1037/286 248/1038/286 247/1039/286
f 244/1040/287 245/1041/287 249/1042/287 248/1043/287
f 245/1044/288 246/1045/288 250/1046/288 249/1047/288
f 250/1048/289 246/1049/289 209/1050/289
f 247/1051/290 211/1052/290 210/1053/290
f 247/1054/291 248/1055/291 212/1056/291 211/1057/291
f 248/1058/292 249/1059/292 213/1060/292 212/1061/292
f 249/1062/293 250/1063/293 214/1064/293 213/1065/293
f 214/1066/294 250/1067/294 209/1068/294
o snow_shoulder
v 0.76875 0.31875 0.53125
v 0.76875 0.50625 0.53125
v 0.794118567194353 0.4787912607362388 0.5924951389785802
v 0.8046265717842273 0.4125 0.6178637061729331
v 0.794118567194353 0.34620873926376117 0.5924951389785802
v 0.8299951389785802 0.4787912607362388 0.556618567194353
v 0.8553637061729331 0.4125 0.5671265717842272
v 0.8299951389785802 0.34620873926376117 0.556618567194353
v 0.8299951389785802 0.4787912607362388 0.505881432805647
v 0.8553637061729331 0.4125 0.49537342821577285
v 0.8299951389785802 0.34620873926376117 0.505881432805647
v 0.794118567194353 0.4787912607362388 0.47000486102141986
v 0.8046265717842273 0.4125 0.4446362938270669
v 0.794118567194353 0.34620873926376117 0.47000486102141986
v 0.7433814328056471 0.4787912607362388 0.47000486102141986
v 0.7328734282157728 0.4125 0.4446362938270669
v 0.7433814328056471 0.34620873926376117 0.4700048610214198
v 0.70750486102142 0.4787912607362388 0.505881432805647
v 0.682136293827067 0.4125 0.4953734282157728
v 0.7075048610214199 0.34620873926376117 0.505881432805647
v 0.7075048610214199 0.4787912607362388 0.556618567194353
v 0.682136293827067 0.4125 0.5671265717842272
v 0.7075048610214199 0.34620873926376117 0.556618567194353
v 0.7433814328056471 0.4787912607362388 0.5924951389785801
v 0.7328734282157728 0.4125 0.6178637061729331
v 0.7433814328056471 0.34620873926376117 0.5924951389785802
vt 0 1
vt 0 1
vt 0 1
vt 0 1
vt 0 1
vt 0 1
vt 0 1
vt 0 1
vt 0 1
vt 0 1
vt 0 1
vt 0 1
vt 0 1
vt 0 1
vt 0 1
vt 0 1
vt 0 1
vt 0 1
vt 0 1
vt 0 1
vt 0 1
vt 0 1
vt 0 1
vt 0 1
vt 0 1
vt 0 1
vt 0 1
vt 0 1
vt 0 1
vt 0 1
vt 0 1
vt 0 1
vt 0 1
vt 0 1
vt 0 1
vt 0 1
vt 0 1
vt 0 1
vt 0 1
vt 0 1
vt 0 1
vt 0 1
vt 0 1
vt 0 1
vt 0 1
vt 0 1
vt 0 1
vt 0 1
vt 0 1
vt 0 1
vt 0 1
vt 0 1
vt 0 1
vt 0 1
vt 0 1
vt 0 1
vt 0 1
vt 0 1
vt 0 1
vt 0 1
vt 0 1
vt 0 1
vt 0 1
vt 0 1
vt 0 1
vt 0 1
vt 0 1
vt 0 1
vt 0 1
vt 0 1
vt 0 1
vt 0 1
vt 0 1
vt 0 1
vt 0 1
vt 0 1
vt 0 1
vt 0 1
vt 0 1
vt 0 1
vt 0 1
vt 0 1
vt 0 1
vt 0 1
vt 0 1
vt 0 1
vt 0 1
vt 0 1
vt 0 1
vt 0 1
vt 0 1
vt 0 1
vt 0 1
vt 0 1
vt 0 1
vt 0 1
vt 0 1
vt 0 1
vt 0 1
vt 0 1
vt 0 1
vt 0 1
vt 0 1
vt 0 1
vt 0 1
vt 0 1
vt 0 1
vt 0 1
vt 0 1
vt 0 1
vt 0 1
vt 0 1
vn 0.2892814836864667 0.9124869568340761 0.2892814836864668
vn 0.6604015517481456 0.35740674433659325 0.6604015517481456
vn 0.6604015517481456 -0.3574067443365931 0.6604015517481456
vn 0.2892814836864669 -0.9124869568340762 0.2892814836864669
vn 0.4091057975728127 0.9124869568340762 0
vn 0.9339488310944648 0.35740674433659325 0
vn 0.9339488310944648 -0.35740674433659314 0
vn 0.4091057975728126 -0.912486956834076 0
vn 0.28928148368646683 0.9124869568340762 -0.2892814836864667
vn 0.6604015517481457 0.3574067443365932 -0.6604015517481454
vn 0.6604015517481456 -0.35740674433659314 -0.6604015517481456
vn 0.2892814836864669 -0.9124869568340762 -0.28928148368646683
vn 5.594998139002102e-17 0.9124869568340762 -0.4091057975728127
vn 1.703045032327836e-16 0.35740674433659325 -0.9339488310944648
vn 1.204234691025076e-16 -0.3574067443365931 -0.933948831094465
vn 5.594998139002102e-17 -0.9124869568340762 -0.4091057975728127
vn -0.2892814836864667 0.9124869568340761 -0.2892814836864668
vn -0.6604015517481453 0.35740674433659336 -0.6604015517481459
vn -0.6604015517481453 -0.3574067443365932 -0.6604015517481457
vn -0.2892814836864667 -0.912486956834076 -0.2892814836864669
vn -0.4091057975728127 0.9124869568340762 -5.594998139002097e-17
vn -0.9339488310944648 0.3574067443365932 -1.7030450323278338e-16
vn -0.9339488310944648 -0.35740674433659314 -2.408469382050149e-16
vn -0.4091057975728128 -0.9124869568340761 -1.1189996278004193e-16
vn -0.28928148368646683 0.9124869568340761 0.28928148368646667
vn -0.6604015517481456 0.3574067443365933 0.6604015517481454
vn -0.6604015517481456 -0.3574067443365933 0.6604015517481454
vn -0.2892814836864669 -0.9124869568340762 0.2892814836864668
vn -1.1189996278004193e-16 0.9124869568340761 0.4091057975728125
vn -1.703045032327835e-16 0.35740674433659325 0.9339488310944649
vn -3.612704073075225e-16 -0.35740674433659325 0.9339488310944648
vn -1.678499441700629e-16 -0.912486956834076 0.4091057975728126
usemtl none
f 253/1069/295 256/1070/295 252/1071/295
f 253/1072/296 254/1073/296 257/1074/296 256/1075/296
f 254/1076/297 255/1077/297 258/1078/297 257/1079/297
f 258/1080/298 255/1081/298 251/1082/298
f 256/1083/299 259/1084/299 252/1085/299
f 256/1086/300 257/1087/300 260/1088/300 259/1089/300
f 257/1090/301 258/1091/301 261/1092/301 260/1093/301
f 261/1094/302 258/1095/302 251/1096/302
f 259/1097/303 262/1098/303 252/1099/303
f 259/1100/304 260/1101/304 263/1102/304 262/1103/304
f 260/1104/305 261/1105/305 264/1106/305 263/1107/305
f 264/1108/306 261/1109/306 251/1110/306
f 262/1111/307 265/1112/307 252/1113/307
f 262/1114/308 263/1115/308 266/1116/308 265/1117/308
f 263/1118/309 264/1119/309 267/1120/309 266/1121/309
f 267/1122/310 264/1123/310 251/1124/310
f 265/1125/311 268/1126/311 252/1127/311
f 265/1128/312 266/1129/312 269/1130/312 268/1131/312
f 266/1132/313 267/1133/313 270/1134/313 269/1135/313
f 270/1136/314 267/1137/314 251/1138/314
f 268/1139/315 271/1140/315 252/1141/315
f 268/1142/316 269/1143/316 272/1144/316 271/1145/316
f 269/1146/317 270/1147/317 273/1148/317 272/1149/317
f 273/1150/318 270/1151/318 251/1152/318
f 271/1153/319 274/1154/319 252/1155/319
f 271/1156/320 272/1157/320 275/1158/320 274/1159/320
f 272/1160/321 273/1161/321 276/1162/321 275/1163/321
f 276/1164/322 273/1165/322 251/1166/322
f 274/1167/323 253/1168/323 252/1169/323
f 274/1170/324 275/1171/324 254/1172/324 253/1173/324
f 275/1174/325 276/1175/325 255/1176/325 254/1177/325
f 255/1178/326 276/1179/326 251/1180/326