# Made in Blockbench 5.1.5
mtllib materials.mtl

o body
v 0.78125 0.46875 0.75
v 0.78125 0.46875 0.25
v 0.78125 0.0625 0.75
v 0.78125 0.0625 0.25
v 0.21875 0.46875 0.25
v 0.21875 0.46875 0.75
v 0.21875 0.0625 0.25
v 0.21875 0.0625 0.75
vt 0 1
vt 0.5625 1
vt 0.5625 0.59375
vt 0 0.59375
vt 0 1
vt 0.5 1
vt 0.5 0.59375
vt 0 0.59375
vt 0 1
vt 0.5625 1
vt 0.5625 0.59375
vt 0 0.59375
vt 0 1
vt 0.5 1
vt 0.5 0.59375
vt 0 0.59375
vt 0 1
vt 0.5625 1
vt 0.5625 0.5
vt 0 0.5
vt 0 1
vt 0.5625 1
vt 0.5625 0.5
vt 0 0.5
vn 0 0 -1
vn 1 0 0
vn 0 0 1
vn -1 0 0
vn 0 1 0
vn 0 -1 0
usemtl m_bb9fcd82-4ffd-9bcd-00ba-8c16f5524b84
f 4/4/1 7/3/1 5/2/1 2/1/1
f 3/8/2 4/7/2 2/6/2 1/5/2
f 8/12/3 3/11/3 1/10/3 6/9/3
f 7/16/4 8/15/4 6/14/4 5/13/4
f 6/20/5 1/19/5 2/18/5 5/17/5
f 7/24/6 4/23/6 3/22/6 8/21/6
o lid
v 0.8125 0.5625 0.78125
v 0.8125 0.5625 0.21875
v 0.8125 0.46875 0.78125
v 0.8125 0.46875 0.21875
v 0.1875 0.5625 0.21875
v 0.1875 0.5625 0.78125
v 0.1875 0.46875 0.21875
v 0.1875 0.46875 0.78125
vt 0 1
vt 0.625 1
vt 0.625 0.90625
vt 0 0.90625
vt 0 1
vt 0.5625 1
vt 0.5625 0.90625
vt 0 0.90625
vt 0 1
vt 0.625 1
vt 0.625 0.90625
vt 0 0.90625
vt 0 1
vt 0.5625 1
vt 0.5625 0.90625
vt 0 0.90625
vt 0 1
vt 0.625 1
vt 0.625 0.4375
vt 0 0.4375
vt 0 1
vt 0.625 1
vt 0.625 0.4375
vt 0 0.4375
vn 0 0 -1
vn 1 0 0
vn 0 0 1
vn -1 0 0
vn 0 1 0
vn 0 -1 0
usemtl m_bb9fcd82-4ffd-9bcd-00ba-8c16f5524b84
f 12/28/7 15/27/7 13/26/7 10/25/7
f 11/32/8 12/31/8 10/30/8 9/29/8
f 16/36/9 11/35/9 9/34/9 14/33/9
f 15/40/10 16/39/10 14/38/10 13/37/10
f 14/44/11 9/43/11 10/42/11 13/41/11
f 15/48/12 12/47/12 11/46/12 16/45/12
o lid_inlay
v 0.7375 0.6000000000000001 0.70625
v 0.7375 0.6000000000000001 0.29374999999999996
v 0.7375 0.5625 0.70625
v 0.7375 0.5625 0.29374999999999996
v 0.26249999999999996 0.6000000000000001 0.29374999999999996
v 0.26249999999999996 0.6000000000000001 0.70625
v 0.26249999999999996 0.5625 0.29374999999999996
v 0.26249999999999996 0.5625 0.70625
vt 0 1
vt 0.47500000000000003 1
vt 0.47500000000000003 0.9625
vt 0 0.9625
vt 0 1
vt 0.41250000000000003 1
vt 0.41250000000000003 0.9625
vt 0 0.9625
vt 0 1
vt 0.47500000000000003 1
vt 0.47500000000000003 0.9625
vt 0 0.9625
vt 0 1
vt 0.41250000000000003 1
vt 0.41250000000000003 0.9625
vt 0 0.9625
vt 0 1
vt 0.47500000000000003 1
vt 0.47500000000000003 0.5874999999999999
vt 0 0.5874999999999999
vt 0 1
vt 0.47500000000000003 1
vt 0.47500000000000003 0.5874999999999999
vt 0 0.5874999999999999
vn 0 0 -1
vn 1 0 0
vn 0 0 1
vn -1 0 0
vn 0 1 0
vn 0 -1 0
usemtl m_bb9fcd82-4ffd-9bcd-00ba-8c16f5524b84
f 20/52/13 23/51/13 21/50/13 18/49/13
f 19/56/14 20/55/14 18/54/14 17/53/14
f 24/60/15 19/59/15 17/58/15 22/57/15
f 23/64/16 24/63/16 22/62/16 21/61/16
f 22/68/17 17/67/17 18/66/17 21/65/17
f 23/72/18 20/71/18 19/70/18 24/69/18
o panel_front
v 0.7125 0.4 0.25625
v 0.7125 0.4 0.23125
v 0.7125 0.13750000000000004 0.25625
v 0.7125 0.13750000000000004 0.23125
v 0.2875 0.4 0.23125
v 0.2875 0.4 0.25625
v 0.2875 0.13750000000000004 0.23125
v 0.2875 0.13750000000000004 0.25625
vt 0 1
vt 0.42500000000000004 1
vt 0.42500000000000004 0.7375
vt 0 0.7375
vt 0 1
vt 0.024999999999999967 1
vt 0.024999999999999967 0.7375
vt 0 0.7375
vt 0 1
vt 0.42500000000000004 1
vt 0.42500000000000004 0.7375
vt 0 0.7375
vt 0 1
vt 0.024999999999999967 1
vt 0.024999999999999967 0.7375
vt 0 0.7375
vt 0 1
vt 0.42500000000000004 1
vt 0.42500000000000004 0.9750000000000001
vt 0 0.9750000000000001
vt 0 1
vt 0.42500000000000004 1
vt 0.42500000000000004 0.9750000000000001
vt 0 0.9750000000000001
vn 0 0 -1
vn 1 0 0
vn 0 0 1
vn -1 0 0
vn 0 1 0
vn 0 -1 0
usemtl m_bb9fcd82-4ffd-9bcd-00ba-8c16f5524b84
f 28/76/19 31/75/19 29/74/19 26/73/19
f 27/80/20 28/79/20 26/78/20 25/77/20
f 32/84/21 27/83/21 25/82/21 30/81/21
f 31/88/22 32/87/22 30/86/22 29/85/22
f 30/92/23 25/91/23 26/90/23 29/89/23
f 31/96/24 28/95/24 27/94/24 32/93/24
o foot_a
v 0.325 0.0625 0.3625
v 0.325 0.0625 0.2625
v 0.325 0 0.3625
v 0.325 0 0.2625
v 0.22500000000000003 0.0625 0.2625
v 0.22500000000000003 0.0625 0.3625
v 0.22500000000000003 0 0.2625
v 0.22500000000000003 0 0.3625
vt 0 1
vt 0.1 1
vt 0.1 0.9375
vt 0 0.9375
vt 0 1
vt 0.09999999999999998 1
vt 0.09999999999999998 0.9375
vt 0 0.9375
vt 0 1
vt 0.1 1
vt 0.1 0.9375
vt 0 0.9375
vt 0 1
vt 0.09999999999999998 1
vt 0.09999999999999998 0.9375
vt 0 0.9375
vt 0 1
vt 0.1 1
vt 0.1 0.9
vt 0 0.9
vt 0 1
vt 0.1 1
vt 0.1 0.9
vt 0 0.9
vn 0 0 -1
vn 1 0 0
vn 0 0 1
vn -1 0 0
vn 0 1 0
vn 0 -1 0
usemtl m_bb9fcd82-4ffd-9bcd-00ba-8c16f5524b84
f 36/100/25 39/99/25 37/98/25 34/97/25
f 35/104/26 36/103/26 34/102/26 33/101/26
f 40/108/27 35/107/27 33/106/27 38/105/27
f 39/112/28 40/111/28 38/110/28 37/109/28
f 38/116/29 33/115/29 34/114/29 37/113/29
f 39/120/30 36/119/30 35/118/30 40/117/30
o foot_b
v 0.7750000000000001 0.0625 0.3625
v 0.7750000000000001 0.0625 0.2625
v 0.7750000000000001 0 0.3625
v 0.7750000000000001 0 0.2625
v 0.675 0.0625 0.2625
v 0.675 0.0625 0.3625
v 0.675 0 0.2625
v 0.675 0 0.3625
vt 0 1
vt 0.09999999999999998 1
vt 0.09999999999999998 0.9375
vt 0 0.9375
vt 0 1
vt 0.09999999999999998 1
vt 0.09999999999999998 0.9375
vt 0 0.9375
vt 0 1
vt 0.09999999999999998 1
vt 0.09999999999999998 0.9375
vt 0 0.9375
vt 0 1
vt 0.09999999999999998 1
vt 0.09999999999999998 0.9375
vt 0 0.9375
vt 0 1
vt 0.09999999999999998 1
vt 0.09999999999999998 0.9
vt 0 0.9
vt 0 1
vt 0.09999999999999998 1
vt 0.09999999999999998 0.9
vt 0 0.9
vn 0 0 -1
vn 1 0 0
vn 0 0 1
vn -1 0 0
vn 0 1 0
vn 0 -1 0
usemtl m_bb9fcd82-4ffd-9bcd-00ba-8c16f5524b84
f 44/124/31 47/123/31 45/122/31 42/121/31
f 43/128/32 44/127/32 42/126/32 41/125/32
f 48/132/33 43/131/33 41/130/33 46/129/33
f 47/136/34 48/135/34 46/134/34 45/133/34
f 46/140/35 41/139/35 42/138/35 45/137/35
f 47/144/36 44/143/36 43/142/36 48/141/36
o foot_c
v 0.325 0.0625 0.7375
v 0.325 0.0625 0.6375
v 0.325 0 0.7375
v 0.325 0 0.6375
v 0.22500000000000003 0.0625 0.6375
v 0.22500000000000003 0.0625 0.7375
v 0.22500000000000003 0 0.6375
v 0.22500000000000003 0 0.7375
vt 0 1
vt 0.1 1
vt 0.1 0.9375
vt 0 0.9375
vt 0 1
vt 0.10000000000000009 1
vt 0.10000000000000009 0.9375
vt 0 0.9375
vt 0 1
vt 0.1 1
vt 0.1 0.9375
vt 0 0.9375
vt 0 1
vt 0.10000000000000009 1
vt 0.10000000000000009 0.9375
vt 0 0.9375
vt 0 1
vt 0.1 1
vt 0.1 0.8999999999999999
vt 0 0.8999999999999999
vt 0 1
vt 0.1 1
vt 0.1 0.8999999999999999
vt 0 0.8999999999999999
vn 0 0 -1
vn 1 0 0
vn 0 0 1
vn -1 0 0
vn 0 1 0
vn 0 -1 0
usemtl m_bb9fcd82-4ffd-9bcd-00ba-8c16f5524b84
f 52/148/37 55/147/37 53/146/37 50/145/37
f 51/152/38 52/151/38 50/150/38 49/149/38
f 56/156/39 51/155/39 49/154/39 54/153/39
f 55/160/40 56/159/40 54/158/40 53/157/40
f 54/164/41 49/163/41 50/162/41 53/161/41
f 55/168/42 52/167/42 51/166/42 56/165/42
o foot_d
v 0.7750000000000001 0.0625 0.7375
v 0.7750000000000001 0.0625 0.6375
v 0.7750000000000001 0 0.7375
v 0.7750000000000001 0 0.6375
v 0.675 0.0625 0.6375
v 0.675 0.0625 0.7375
v 0.675 0 0.6375
v 0.675 0 0.7375
vt 0 1
vt 0.09999999999999998 1
vt 0.09999999999999998 0.9375
vt 0 0.9375
vt 0 1
vt 0.10000000000000009 1
vt 0.10000000000000009 0.9375
vt 0 0.9375
vt 0 1
vt 0.09999999999999998 1
vt 0.09999999999999998 0.9375
vt 0 0.9375
vt 0 1
vt 0.10000000000000009 1
vt 0.10000000000000009 0.9375
vt 0 0.9375
vt 0 1
vt 0.09999999999999998 1
vt 0.09999999999999998 0.8999999999999999
vt 0 0.8999999999999999
vt 0 1
vt 0.09999999999999998 1
vt 0.09999999999999998 0.8999999999999999
vt 0 0.8999999999999999
vn 0 0 -1
vn 1 0 0
vn 0 0 1
vn -1 0 0
vn 0 1 0
vn 0 -1 0
usemtl m_bb9fcd82-4ffd-9bcd-00ba-8c16f5524b84
f 60/172/43 63/171/43 61/170/43 58/169/43
f 59/176/44 60/175/44 58/174/44 57/173/44
f 64/180/45 59/179/45 57/178/45 62/177/45
f 63/184/46 64/183/46 62/182/46 61/181/46
f 62/188/47 57/187/47 58/186/47 61/185/47
f 63/192/48 60/191/48 59/190/48 64/189/48
o roller
v 0.296875 0.525 0.5
v 0.703125 0.525 0.5
v 0.296875 0.6062500000000001 0.5
v 0.703125 0.60625 0.5
v 0.296875 0.5907326307929646 0.5477575517487634
v 0.703125 0.5907326307929645 0.5477575517487634
v 0.296875 0.5501076307929645 0.5772733419489813
v 0.703125 0.5501076307929644 0.5772733419489813
v 0.296875 0.4998923692070356 0.5772733419489813
v 0.703125 0.4998923692070355 0.5772733419489813
v 0.296875 0.4592673692070356 0.5477575517487635
v 0.703125 0.4592673692070355 0.5477575517487635
v 0.296875 0.4437500000000001 0.5
v 0.703125 0.44375 0.5
v 0.296875 0.4592673692070356 0.45224244825123655
v 0.703125 0.4592673692070355 0.45224244825123655
v 0.296875 0.49989236920703556 0.4227266580510188
v 0.703125 0.4998923692070355 0.4227266580510188
v 0.296875 0.5501076307929645 0.4227266580510188
v 0.703125 0.5501076307929644 0.4227266580510188
v 0.296875 0.5907326307929646 0.45224244825123655
v 0.703125 0.5907326307929645 0.45224244825123655
vt 0 1
vt 0 1
vt 0 1
vt 0 1
vt 0 1
vt 0 1
vt 0 1
vt 0 1
vt 0 1
vt 0 1
vt 0 1
vt 0 1
vt 0 1
vt 0 1
vt 0 1
vt 0 1
vt 0 1
vt 0 1
vt 0 1
vt 0 1
vt 0 1
vt 0 1
vt 0 1
vt 0 1
vt 0 1
vt 0 1
vt 0 1
vt 0 1
vt 0 1
vt 0 1
vt 0 1
vt 0 1
vt 0 1
vt 0 1
vt 0 1
vt 0 1
vt 0 1
vt 0 1
vt 0 1
vt 0 1
vt 0 1
vt 0 1
vt 0 1
vt 0 1
vt 0 1
vt 0 1
vt 0 1
vt 0 1
vt 0 1
vt 0 1
vt 0 1
vt 0 1
vt 0 1
vt 0 1
vt 0 1
vt 0 1
vt 0 1
vt 0 1
vt 0 1
vt 0 1
vt 0 1
vt 0 1
vt 0 1
vt 0 1
vt 0 1
vt 0 1
vt 0 1
vt 0 1
vt 0 1
vt 0 1
vt 0 1
vt 0 1
vt 0 1
vt 0 1
vt 0 1
vt 0 1
vt 0 1
vt 0 1
vt 0 1
vt 0 1
vt 0 1
vt 0 1
vt 0 1
vt 0 1
vt 0 1
vt 0 1
vt 0 1
vt 0 1
vt 0 1
vt 0 1
vt 0 1
vt 0 1
vt 0 1
vt 0 1
vt 0 1
vt 0 1
vt 0 1
vt 0 1
vt 0 1
vt 0 1
vn -2.1117696842213402e-16 -0.9510565162951538 -0.30901699437494734
vn 1 -2.220446049250313e-16 0
vn -1 2.220446049250313e-16 0
vn -1.3051454412604203e-16 -0.587785252292473 -0.8090169943749476
vn 1 -2.220446049250313e-16 0
vn -1 2.220446049250313e-16 0
vn -6.136556524248108e-32 -2.7636593675941766e-16 -1
vn 1 -2.220446049250313e-16 0
vn -1 2.220446049250313e-16 0
vn 1.3051454412604203e-16 0.587785252292473 -0.8090169943749476
vn 1 -2.220446049250313e-16 0
vn -1 2.220446049250313e-16 0
vn 2.1117696842213397e-16 0.9510565162951535 -0.30901699437494756
vn 1 -2.220446049250313e-16 0
vn -1 2.220446049250313e-16 0
vn 2.1117696842213402e-16 0.9510565162951538 0.30901699437494734
vn 1 -2.220446049250313e-16 0
vn -1 2.220446049250313e-16 0
vn 1.3051454412604205e-16 0.5877852522924731 0.8090169943749475
vn 1 -2.220446049250313e-16 0
vn -1 2.220446049250313e-16 0
vn 6.136556524248108e-32 2.7636593675941766e-16 1
vn 1 -2.220446049250313e-16 0
vn -1 2.220446049250313e-16 0
vn -1.30514544126042e-16 -0.5877852522924729 0.8090169943749476
vn 1 -2.220446049250313e-16 0
vn -1 2.220446049250313e-16 0
vn -2.1117696842213402e-16 -0.9510565162951538 0.3090169943749475
vn 1 -2.220446049250313e-16 0
vn -1 2.220446049250313e-16 0
usemtl none
f 68/193/49 70/194/49 69/195/49 67/196/49
f 67/197/50 69/198/50 65/199/50
f 70/200/51 68/201/51 66/202/51
f 70/203/52 72/204/52 71/205/52 69/206/52
f 69/207/53 71/208/53 65/209/53
f 72/210/54 70/211/54 66/212/54
f 72/213/55 74/214/55 73/215/55 71/216/55
f 71/217/56 73/218/56 65/219/56
f 74/220/57 72/221/57 66/222/57
f 74/223/58 76/224/58 75/225/58 73/226/58
f 73/227/59 75/228/59 65/229/59
f 76/230/60 74/231/60 66/232/60
f 76/233/61 78/234/61 77/235/61 75/236/61
f 75/237/62 77/238/62 65/239/62
f 78/240/63 76/241/63 66/242/63
f 78/243/64 80/244/64 79/245/64 77/246/64
f 77/247/65 79/248/65 65/249/65
f 80/250/66 78/251/66 66/252/66
f 80/253/67 82/254/67 81/255/67 79/256/67
f 79/257/68 81/258/68 65/259/68
f 82/260/69 80/261/69 66/262/69
f 82/263/70 84/264/70 83/265/70 81/266/70
f 81/267/71 83/268/71 65/269/71
f 84/270/72 82/271/72 66/272/72
f 84/273/73 86/274/73 85/275/73 83/276/73
f 83/277/74 85/278/74 65/279/74
f 86/280/75 84/281/75 66/282/75
f 86/283/76 68/284/76 67/285/76 85/286/76
f 85/287/77 67/288/77 65/289/77
f 68/290/78 86/291/78 66/292/78
o pin_a
v 0.4375 0.64375 0.475
v 0.4375 0.58125 0.475
v 0.46875 0.64375 0.475
v 0.46875 0.58125 0.475
v 0.4471567810742171 0.64375 0.5047205161342235
v 0.4471567810742171 0.58125 0.5047205161342235
v 0.4122182189257829 0.64375 0.49336828913413977
v 0.4122182189257829 0.58125 0.49336828913413977
v 0.41221821892578286 0.64375 0.4566317108658602
v 0.41221821892578286 0.58125 0.4566317108658602
v 0.4471567810742171 0.64375 0.4452794838657764
v 0.4471567810742171 0.58125 0.4452794838657764
vt 0 1
vt 0 1
vt 0 1
vt 0 1
vt 0 1
vt 0 1
vt 0 1
vt 0 1
vt 0 1
vt 0 1
vt 0 1
vt 0 1
vt 0 1
vt 0 1
vt 0 1
vt 0 1
vt 0 1
vt 0 1
vt 0 1
vt 0 1
vt 0 1
vt 0 1
vt 0 1
vt 0 1
vt 0 1
vt 0 1
vt 0 1
vt 0 1
vt 0 1
vt 0 1
vt 0 1
vt 0 1
vt 0 1
vt 0 1
vt 0 1
vt 0 1
vt 0 1
vt 0 1
vt 0 1
vt 0 1
vt 0 1
vt 0 1
vt 0 1
vt 0 1
vt 0 1
vt 0 1
vt 0 1
vt 0 1
vt 0 1
vt 0 1
vn -0.8090169943749476 0 -0.5877852522924732
vn 0 -1 0
vn 0 1 0
vn 0.3090169943749473 0 -0.9510565162951536
vn 0 -1 0
vn 0 1 0
vn 1 0 -1.8888242266968722e-16
vn 0 -1 0
vn 0 1 0
vn 0.30901699437494756 0 0.9510565162951536
vn 0 -1 0
vn 0 1 0
vn -0.8090169943749476 0 0.5877852522924732
vn 0 -1 0
vn 0 1 0
usemtl none
f 90/293/79 92/294/79 91/295/79 89/296/79
f 89/297/80 91/298/80 87/299/80
f 92/300/81 90/301/81 88/302/81
f 92/303/82 94/304/82 93/305/82 91/306/82
f 91/307/83 93/308/83 87/309/83
f 94/310/84 92/311/84 88/312/84
f 94/313/85 96/314/85 95/315/85 93/316/85
f 93/317/86 95/318/86 87/319/86
f 96/320/87 94/321/87 88/322/87
f 96/323/88 98/324/88 97/325/88 95/326/88
f 95/327/89 97/328/89 87/329/89
f 98/330/90 96/331/90 88/332/90
f 98/333/91 90/334/91 89/335/91 97/336/91
f 97/337/92 89/338/92 87/339/92
f 90/340/93 98/341/93 88/342/93
o pin_b
v 0.575 0.6375 0.525
v 0.575 0.575 0.525
v 0.60625 0.6375 0.525
v 0.60625 0.575 0.525
v 0.584656781074217 0.6375 0.5547205161342236
v 0.584656781074217 0.575 0.5547205161342236
v 0.5497182189257829 0.6375 0.5433682891341398
v 0.5497182189257829 0.575 0.5433682891341398
v 0.5497182189257829 0.6375 0.5066317108658602
v 0.5497182189257829 0.575 0.5066317108658602
v 0.584656781074217 0.6375 0.49527948386577647
v 0.584656781074217 0.575 0.49527948386577647
vt 0 1
vt 0 1
vt 0 1
vt 0 1
vt 0 1
vt 0 1
vt 0 1
vt 0 1
vt 0 1
vt 0 1
vt 0 1
vt 0 1
vt 0 1
vt 0 1
vt 0 1
vt 0 1
vt 0 1
vt 0 1
vt 0 1
vt 0 1
vt 0 1
vt 0 1
vt 0 1
vt 0 1
vt 0 1
vt 0 1
vt 0 1
vt 0 1
vt 0 1
vt 0 1
vt 0 1
vt 0 1
vt 0 1
vt 0 1
vt 0 1
vt 0 1
vt 0 1
vt 0 1
vt 0 1
vt 0 1
vt 0 1
vt 0 1
vt 0 1
vt 0 1
vt 0 1
vt 0 1
vt 0 1
vt 0 1
vt 0 1
vt 0 1
vn -0.8090169943749476 0 -0.5877852522924732
vn 0 -1 0
vn 0 1 0
vn 0.3090169943749473 0 -0.9510565162951536
vn 0 -1 0
vn 0 1 0
vn 1 0 -1.8888242266968722e-16
vn 0 -1 0
vn 0 1 0
vn 0.30901699437494756 0 0.9510565162951536
vn 0 -1 0
vn 0 1 0
vn -0.8090169943749476 0 0.5877852522924732
vn 0 -1 0
vn 0 1 0
usemtl none
f 102/343/94 104/344/94 103/345/94 101/346/94
f 101/347/95 103/348/95 99/349/95
f 104/350/96 102/351/96 100/352/96
f 104/353/97 106/354/97 105/355/97 103/356/97
f 103/357/98 105/358/98 99/359/98
f 106/360/99 104/361/99 100/362/99
f 106/363/100 108/364/100 107/365/100 105/366/100
f 105/367/101 107/368/101 99/369/101
f 108/370/102 106/371/102 100/372/102
f 108/373/103 110/374/103 109/375/103 107/376/103
f 107/377/104 109/378/104 99/379/104
f 110/380/105 108/381/105 100/382/105
f 110/383/106 102/384/106 101/385/106 109/386/106
f 109/387/107 101/388/107 99/389/107
f 102/390/108 110/391/108 100/392/108
o crank_axle
v 0.7687499999999999 0.3125 0.5
v 0.88125 0.3125 0.5
v 0.7687499999999999 0.34687500000000004 0.5
v 0.88125 0.346875 0.5
v 0.7687499999999999 0.3296875 0.52976962325509
v 0.88125 0.32968749999999997 0.52976962325509
v 0.7687499999999999 0.29531250000000003 0.5297696232550901
v 0.88125 0.2953125 0.5297696232550901
v 0.7687499999999999 0.278125 0.5
v 0.88125 0.27812499999999996 0.5
v 0.7687499999999999 0.2953125 0.4702303767449099
v 0.88125 0.2953125 0.4702303767449099
v 0.7687499999999999 0.3296875 0.4702303767449099
v 0.88125 0.32968749999999997 0.4702303767449099
vt 0 1
vt 0 1
vt 0 1
vt 0 1
vt 0 1
vt 0 1
vt 0 1
vt 0 1
vt 0 1
vt 0 1
vt 0 1
vt 0 1
vt 0 1
vt 0 1
vt 0 1
vt 0 1
vt 0 1
vt 0 1
vt 0 1
vt 0 1
vt 0 1
vt 0 1
vt 0 1
vt 0 1
vt 0 1
vt 0 1
vt 0 1
vt 0 1
vt 0 1
vt 0 1
vt 0 1
vt 0 1
vt 0 1
vt 0 1
vt 0 1
vt 0 1
vt 0 1
vt 0 1
vt 0 1
vt 0 1
vt 0 1
vt 0 1
vt 0 1
vt 0 1
vt 0 1
vt 0 1
vt 0 1
vt 0 1
vt 0 1
vt 0 1
vt 0 1
vt 0 1
vt 0 1
vt 0 1
vt 0 1
vt 0 1
vt 0 1
vt 0 1
vt 0 1
vt 0 1
vn -1.922962686383564e-16 -0.8660254037844387 -0.49999999999999994
vn 1 -2.220446049250313e-16 0
vn -1 2.220446049250313e-16 0
vn -2.241082117105147e-32 -1.0092936587501423e-16 -1
vn 1 -2.220446049250313e-16 0
vn -1 2.220446049250313e-16 0
vn 1.9229626863835638e-16 0.8660254037844386 -0.5000000000000002
vn 1 -2.220446049250313e-16 0
vn -1 2.220446049250313e-16 0
vn 1.9229626863835646e-16 0.8660254037844389 0.4999999999999999
vn 1 -2.220446049250313e-16 0
vn -1 2.220446049250313e-16 0
vn 4.482164234210292e-32 2.0185873175002836e-16 1
vn 1 -2.220446049250313e-16 0
vn -1 2.220446049250313e-16 0
vn -1.922962686383564e-16 -0.8660254037844387 0.49999999999999994
vn 1 -2.220446049250313e-16 0
vn -1 2.220446049250313e-16 0
usemtl none
f 114/393/109 116/394/109 115/395/109 113/396/109
f 113/397/110 115/398/110 111/399/110
f 116/400/111 114/401/111 112/402/111
f 116/403/112 118/404/112 117/405/112 115/406/112
f 115/407/113 117/408/113 111/409/113
f 118/410/114 116/411/114 112/412/114
f 118/413/115 120/414/115 119/415/115 117/416/115
f 117/417/116 119/418/116 111/419/116
f 120/420/117 118/421/117 112/422/117
f 120/423/118 122/424/118 121/425/118 119/426/118
f 119/427/119 121/428/119 111/429/119
f 122/430/120 120/431/120 112/432/120
f 122/433/121 124/434/121 123/435/121 121/436/121
f 121/437/122 123/438/122 111/439/122
f 124/440/123 122/441/123 112/442/123
f 124/443/124 114/444/124 113/445/124 123/446/124
f 123/447/125 113/448/125 111/449/125
f 114/450/126 124/451/126 112/452/126