# Made in Blockbench 5.1.5
mtllib materials.mtl

o trunk
v 0.5 0.375 0.5
v 0.5 0 0.5
v 0.571875 0.375 0.5
v 0.571875 0 0.5
v 0.5508232998977831 0.375 0.5508232998977831
v 0.5508232998977831 0 0.5508232998977831
v 0.5 0.375 0.571875
v 0.5 0 0.571875
v 0.4491767001022169 0.375 0.5508232998977831
v 0.4491767001022169 0 0.5508232998977831
v 0.428125 0.375 0.5
v 0.428125 0 0.5
v 0.4491767001022169 0.375 0.4491767001022169
v 0.4491767001022169 0 0.4491767001022169
v 0.5 0.375 0.428125
v 0.5 0 0.428125
v 0.5508232998977831 0.375 0.4491767001022169
v 0.5508232998977831 0 0.4491767001022169
vt 0 1
vt 0 1
vt 0 1
vt 0 1
vt 0 1
vt 0 1
vt 0 1
vt 0 1
vt 0 1
vt 0 1
vt 0 1
vt 0 1
vt 0 1
vt 0 1
vt 0 1
vt 0 1
vt 0 1
vt 0 1
vt 0 1
vt 0 1
vt 0 1
vt 0 1
vt 0 1
vt 0 1
vt 0 1
vt 0 1
vt 0 1
vt 0 1
vt 0 1
vt 0 1
vt 0 1
vt 0 1
vt 0 1
vt 0 1
vt 0 1
vt 0 1
vt 0 1
vt 0 1
vt 0 1
vt 0 1
vt 0 1
vt 0 1
vt 0 1
vt 0 1
vt 0 1
vt 0 1
vt 0 1
vt 0 1
vt 0 1
vt 0 1
vt 0 1
vt 0 1
vt 0 1
vt 0 1
vt 0 1
vt 0 1
vt 0 1
vt 0 1
vt 0 1
vt 0 1
vt 0 1
vt 0 1
vt 0 1
vt 0 1
vt 0 1
vt 0 1
vt 0 1
vt 0 1
vt 0 1
vt 0 1
vt 0 1
vt 0 1
vt 0 1
vt 0 1
vt 0 1
vt 0 1
vt 0 1
vt 0 1
vt 0 1
vt 0 1
vn -0.9238795325112868 0 -0.3826834323650899
vn 0 -1 0
vn 0 1 0
vn -0.38268343236508995 0 -0.9238795325112868
vn 0 -1 0
vn 0 1 0
vn 0.3826834323650899 0 -0.9238795325112868
vn 0 -1 0
vn 0 1 0
vn 0.9238795325112868 0 -0.38268343236508995
vn 0 -1 0
vn 0 1 0
vn 0.9238795325112868 0 0.38268343236508956
vn 0 -1 0
vn 0 1 0
vn 0.38268343236508995 0 0.9238795325112868
vn 0 -1 0
vn 0 1 0
vn -0.38268343236508956 0 0.9238795325112868
vn 0 -1 0
vn 0 1 0
vn -0.9238795325112867 0 0.3826834323650899
vn 0 -1 0
vn 0 1 0
usemtl none
f 4/1/1 6/2/1 5/3/1 3/4/1
f 3/5/2 5/6/2 1/7/2
f 6/8/3 4/9/3 2/10/3
f 6/11/4 8/12/4 7/13/4 5/14/4
f 5/15/5 7/16/5 1/17/5
f 8/18/6 6/19/6 2/20/6
f 8/21/7 10/22/7 9/23/7 7/24/7
f 7/25/8 9/26/8 1/27/8
f 10/28/9 8/29/9 2/30/9
f 10/31/10 12/32/10 11/33/10 9/34/10
f 9/35/11 11/36/11 1/37/11
f 12/38/12 10/39/12 2/40/12
f 12/41/13 14/42/13 13/43/13 11/44/13
f 11/45/14 13/46/14 1/47/14
f 14/48/15 12/49/15 2/50/15
f 14/51/16 16/52/16 15/53/16 13/54/16
f 13/55/17 15/56/17 1/57/17
f 16/58/18 14/59/18 2/60/18
f 16/61/19 18/62/19 17/63/19 15/64/19
f 15/65/20 17/66/20 1/67/20
f 18/68/21 16/69/21 2/70/21
f 18/71/22 4/72/22 3/73/22 17/74/22
f 17/75/23 3/76/23 1/77/23
f 4/78/24 18/79/24 2/80/24
o branch_a
v 0.3205869393641142 0.4493144825477394 0.5
v 0.4544130606358858 0.3006855174522606 0.5
v 0.34613254273989963 0.4723158471413252 0.5
v 0.47995866401167125 0.32368688204584634 0.5
v 0.3333597410520069 0.46081516484453233 0.52976962325509
v 0.46718586232377857 0.3121861997490535 0.52976962325509
v 0.30781413767622146 0.43781380025094657 0.5297696232550901
v 0.44164025894799314 0.2891848351554677 0.5297696232550901
v 0.29504133598832877 0.42631311795415366 0.5
v 0.4288674572601004 0.2776841528586748 0.5
v 0.30781413767622146 0.4378138002509465 0.4702303767449099
v 0.4416402589479931 0.28918483515546767 0.4702303767449099
v 0.3333597410520069 0.46081516484453233 0.4702303767449099
v 0.46718586232377857 0.3121861997490535 0.4702303767449099
vt 0 1
vt 0 1
vt 0 1
vt 0 1
vt 0 1
vt 0 1
vt 0 1
vt 0 1
vt 0 1
vt 0 1
vt 0 1
vt 0 1
vt 0 1
vt 0 1
vt 0 1
vt 0 1
vt 0 1
vt 0 1
vt 0 1
vt 0 1
vt 0 1
vt 0 1
vt 0 1
vt 0 1
vt 0 1
vt 0 1
vt 0 1
vt 0 1
vt 0 1
vt 0 1
vt 0 1
vt 0 1
vt 0 1
vt 0 1
vt 0 1
vt 0 1
vt 0 1
vt 0 1
vt 0 1
vt 0 1
vt 0 1
vt 0 1
vt 0 1
vt 0 1
vt 0 1
vt 0 1
vt 0 1
vt 0 1
vt 0 1
vt 0 1
vt 0 1
vt 0 1
vt 0 1
vt 0 1
vt 0 1
vt 0 1
vt 0 1
vt 0 1
vt 0 1
vt 0 1
vn -0.6435822975543766 -0.5794841035564565 -0.4999999999999999
vn 0.6691306063588582 -0.7431448254773942 0
vn -0.6691306063588582 0.7431448254773942 0
vn -7.500513598873152e-17 -6.753492778736333e-17 -1
vn 0.6691306063588582 -0.7431448254773942 0
vn -0.6691306063588582 0.7431448254773942 0
vn 0.6435822975543766 0.5794841035564565 -0.5000000000000002
vn 0.6691306063588582 -0.7431448254773942 0
vn -0.6691306063588582 0.7431448254773942 0
vn 0.6435822975543767 0.5794841035564566 0.49999999999999983
vn 0.6691306063588582 -0.7431448254773942 0
vn -0.6691306063588582 0.7431448254773942 0
vn 1.5001027197746297e-16 1.350698555747266e-16 1
vn 0.6691306063588582 -0.7431448254773942 0
vn -0.6691306063588582 0.7431448254773942 0
vn -0.6435822975543766 -0.5794841035564565 0.4999999999999999
vn 0.6691306063588582 -0.7431448254773942 0
vn -0.6691306063588582 0.7431448254773942 0
usemtl none
f 22/81/25 24/82/25 23/83/25 21/84/25
f 21/85/26 23/86/26 19/87/26
f 24/88/27 22/89/27 20/90/27
f 24/91/28 26/92/28 25/93/28 23/94/28
f 23/95/29 25/96/29 19/97/29
f 26/98/30 24/99/30 20/100/30
f 26/101/31 28/102/31 27/103/31 25/104/31
f 25/105/32 27/106/32 19/107/32
f 28/108/33 26/109/33 20/110/33
f 28/111/34 30/112/34 29/113/34 27/114/34
f 27/115/35 29/116/35 19/117/35
f 30/118/36 28/119/36 20/120/36
f 30/121/37 32/122/37 31/123/37 29/124/37
f 29/125/38 31/126/38 19/127/38
f 32/128/39 30/129/39 20/130/39
f 32/131/40 22/132/40 21/133/40 31/134/40
f 31/135/41 21/136/41 19/137/41
f 22/138/42 32/139/42 20/140/42
o branch_b
v 0.6727613384081131 0.4593166665424042 0.4625
v 0.552238661591887 0.3156833334575958 0.4625
v 0.699094116140328 0.43722084245942944 0.4625
v 0.5785714393241018 0.293587509374621 0.4625
v 0.6859277272742206 0.4482687545009168 0.4922696232550901
v 0.5654050504579944 0.3046354214161084 0.4922696232550901
v 0.6595949495420057 0.4703645785838916 0.4922696232550901
v 0.5390722727257795 0.32673124549908317 0.4922696232550901
v 0.6464285606758983 0.481412490625379 0.4625
v 0.5259058838596721 0.3377791575405706 0.4625
v 0.6595949495420057 0.47036457858389163 0.43273037674490994
v 0.5390722727257795 0.3267312454990832 0.43273037674490994
v 0.6859277272742206 0.4482687545009168 0.43273037674490994
v 0.5654050504579944 0.3046354214161084 0.43273037674490994
vt 0 1
vt 0 1
vt 0 1
vt 0 1
vt 0 1
vt 0 1
vt 0 1
vt 0 1
vt 0 1
vt 0 1
vt 0 1
vt 0 1
vt 0 1
vt 0 1
vt 0 1
vt 0 1
vt 0 1
vt 0 1
vt 0 1
vt 0 1
vt 0 1
vt 0 1
vt 0 1
vt 0 1
vt 0 1
vt 0 1
vt 0 1
vt 0 1
vt 0 1
vt 0 1
vt 0 1
vt 0 1
vt 0 1
vt 0 1
vt 0 1
vt 0 1
vt 0 1
vt 0 1
vt 0 1
vt 0 1
vt 0 1
vt 0 1
vt 0 1
vt 0 1
vt 0 1
vt 0 1
vt 0 1
vt 0 1
vt 0 1
vt 0 1
vt 0 1
vt 0 1
vt 0 1
vt 0 1
vt 0 1
vt 0 1
vt 0 1
vt 0 1
vt 0 1
vt 0 1
vn -0.6634139481689384 0.5566703992264194 -0.49999999999999994
vn -0.6427876096865394 -0.7660444431189781 0
vn 0.6427876096865394 0.7660444431189781 0
vn -7.731637987607687e-17 6.487614583797858e-17 -1
vn -0.6427876096865394 -0.7660444431189781 0
vn 0.6427876096865394 0.7660444431189781 0
vn 0.6634139481689384 -0.5566703992264193 -0.5000000000000001
vn -0.6427876096865394 -0.7660444431189781 0
vn 0.6427876096865394 0.7660444431189781 0
vn 0.6634139481689386 -0.5566703992264195 0.4999999999999998
vn -0.6427876096865394 -0.7660444431189781 0
vn 0.6427876096865394 0.7660444431189781 0
vn 1.5463275975215367e-16 -1.2975229167595708e-16 1
vn -0.6427876096865394 -0.7660444431189781 0
vn 0.6427876096865394 0.7660444431189781 0
vn -0.6634139481689384 0.5566703992264194 0.49999999999999994
vn -0.6427876096865394 -0.7660444431189781 0
vn 0.6427876096865394 0.7660444431189781 0
usemtl none
f 36/141/43 38/142/43 37/143/43 35/144/43
f 35/145/44 37/146/44 33/147/44
f 38/148/45 36/149/45 34/150/45
f 38/151/46 40/152/46 39/153/46 37/154/46
f 37/155/47 39/156/47 33/157/47
f 40/158/48 38/159/48 34/160/48
f 40/161/49 42/162/49 41/163/49 39/164/49
f 39/165/50 41/166/50 33/167/50
f 42/168/51 40/169/51 34/170/51
f 42/171/52 44/172/52 43/173/52 41/174/52
f 41/175/53 43/176/53 33/177/53
f 44/178/54 42/179/54 34/180/54
f 44/181/55 46/182/55 45/183/55 43/184/55
f 43/185/56 45/186/56 33/187/56
f 46/188/57 44/189/57 34/190/57
f 46/191/58 36/192/58 35/193/58 45/194/58
f 45/195/59 35/196/59 33/197/59
f 36/198/60 46/199/60 34/200/60
o blossom_main
v 0.5 0.328125 0.5
v 0.5 0.859375 0.5
v 0.5343744044276786 0.8237879978802416 0.6282870238040168
v 0.5595382149486599 0.7265625 0.7221996431803552
v 0.5687488088553571 0.59375 0.7565740476080338
v 0.5595382149486599 0.46093750000000006 0.7221996431803552
v 0.5343744044276786 0.36371200211975846 0.6282870238040168
v 0.5939126193763383 0.8237879978802416 0.5939126193763383
v 0.6626614282316954 0.7265625 0.6626614282316954
v 0.6878252387526766 0.59375 0.6878252387526766
v 0.6626614282316954 0.46093750000000006 0.6626614282316954
v 0.5939126193763383 0.36371200211975846 0.5939126193763383
v 0.6282870238040168 0.8237879978802416 0.5343744044276786
v 0.7221996431803552 0.7265625 0.5595382149486599
v 0.7565740476080338 0.59375 0.5687488088553571
v 0.7221996431803552 0.46093750000000006 0.5595382149486599
v 0.6282870238040168 0.36371200211975846 0.5343744044276786
v 0.6282870238040168 0.8237879978802416 0.46562559557232147
v 0.7221996431803552 0.7265625 0.44046178505134015
v 0.7565740476080338 0.59375 0.4312511911446429
v 0.7221996431803552 0.46093750000000006 0.44046178505134015
v 0.6282870238040168 0.36371200211975846 0.46562559557232147
v 0.5939126193763383 0.8237879978802416 0.4060873806236617
v 0.6626614282316954 0.7265625 0.3373385717683046
v 0.6878252387526766 0.59375 0.31217476124732335
v 0.6626614282316954 0.46093750000000006 0.33733857176830456
v 0.5939126193763383 0.36371200211975846 0.4060873806236617
v 0.5343744044276786 0.8237879978802416 0.37171297619598315
v 0.5595382149486599 0.7265625 0.27780035681964477
v 0.5687488088553572 0.59375 0.24342595239196624
v 0.5595382149486599 0.46093750000000006 0.27780035681964477
v 0.5343744044276786 0.36371200211975846 0.37171297619598315
v 0.4656255955723215 0.8237879978802416 0.3717129761959831
v 0.44046178505134026 0.7265625 0.27780035681964477
v 0.43125119114464305 0.59375 0.24342595239196618
v 0.44046178505134026 0.46093750000000006 0.2778003568196447
v 0.4656255955723215 0.36371200211975846 0.3717129761959831
v 0.4060873806236617 0.8237879978802416 0.4060873806236617
v 0.3373385717683046 0.7265625 0.3373385717683045
v 0.31217476124732335 0.59375 0.31217476124732324
v 0.33733857176830456 0.46093750000000006 0.3373385717683045
v 0.4060873806236617 0.36371200211975846 0.4060873806236617
v 0.37171297619598315 0.8237879978802416 0.46562559557232147
v 0.27780035681964477 0.7265625 0.4404617850513402
v 0.24342595239196624 0.59375 0.43125119114464294
v 0.27780035681964477 0.46093750000000006 0.4404617850513402
v 0.37171297619598315 0.36371200211975846 0.46562559557232147
v 0.3717129761959831 0.8237879978802416 0.5343744044276785
v 0.27780035681964477 0.7265625 0.5595382149486597
v 0.24342595239196618 0.59375 0.568748808855357
v 0.2778003568196447 0.46093750000000006 0.5595382149486597
v 0.3717129761959831 0.36371200211975846 0.5343744044276785
v 0.4060873806236617 0.8237879978802416 0.5939126193763383
v 0.3373385717683045 0.7265625 0.6626614282316954
v 0.31217476124732324 0.59375 0.6878252387526766
v 0.3373385717683045 0.46093750000000006 0.6626614282316954
v 0.4060873806236617 0.36371200211975846 0.5939126193763383
v 0.46562559557232147 0.8237879978802416 0.6282870238040168
v 0.4404617850513402 0.7265625 0.7221996431803552
v 0.43125119114464294 0.59375 0.7565740476080338
v 0.4404617850513402 0.46093750000000006 0.7221996431803552
v 0.46562559557232147 0.36371200211975846 0.6282870238040168
vt 0 1
vt 0 1
vt 0 1
vt 0 1
vt 0 1
vt 0 1
vt 0 1
vt 0 1
vt 0 1
vt 0 1
vt 0 1
vt 0 1
vt 0 1
vt 0 1
vt 0 1
vt 0 1
vt 0 1
vt 0 1
vt 0 1
vt 0 1
vt 0 1
vt 0 1
vt 0 1
vt 0 1
vt 0 1
vt 0 1
vt 0 1
vt 0 1
vt 0 1
vt 0 1
vt 0 1
vt 0 1
vt 0 1
vt 0 1
vt 0 1
vt 0 1
vt 0 1
vt 0 1
vt 0 1
vt 0 1
vt 0 1
vt 0 1
vt 0 1
vt 0 1
vt 0 1
vt 0 1
vt 0 1
vt 0 1
vt 0 1
vt 0 1
vt 0 1
vt 0 1
vt 0 1
vt 0 1
vt 0 1
vt 0 1
vt 0 1
vt 0 1
vt 0 1
vt 0 1
vt 0 1
vt 0 1
vt 0 1
vt 0 1
vt 0 1
vt 0 1
vt 0 1
vt 0 1
vt 0 1
vt 0 1
vt 0 1
vt 0 1
vt 0 1
vt 0 1
vt 0 1
vt 0 1
vt 0 1
vt 0 1
vt 0 1
vt 0 1
vt 0 1
vt 0 1
vt 0 1
vt 0 1
vt 0 1
vt 0 1
vt 0 1
vt 0 1
vt 0 1
vt 0 1
vt 0 1
vt 0 1
vt 0 1
vt 0 1
vt 0 1
vt 0 1
vt 0 1
vt 0 1
vt 0 1
vt 0 1
vt 0 1
vt 0 1
vt 0 1
vt 0 1
vt 0 1
vt 0 1
vt 0 1
vt 0 1
vt 0 1
vt 0 1
vt 0 1
vt 0 1
vt 0 1
vt 0 1
vt 0 1
vt 0 1
vt 0 1
vt 0 1
vt 0 1
vt 0 1
vt 0 1
vt 0 1
vt 0 1
vt 0 1
vt 0 1
vt 0 1
vt 0 1
vt 0 1
vt 0 1
vt 0 1
vt 0 1
vt 0 1
vt 0 1
vt 0 1
vt 0 1
vt 0 1
vt 0 1
vt 0 1
vt 0 1
vt 0 1
vt 0 1
vt 0 1
vt 0 1
vt 0 1
vt 0 1
vt 0 1
vt 0 1
vt 0 1
vt 0 1
vt 0 1
vt 0 1
vt 0 1
vt 0 1
vt 0 1
vt 0 1
vt 0 1
vt 0 1
vt 0 1
vt 0 1
vt 0 1
vt 0 1
vt 0 1
vt 0 1
vt 0 1
vt 0 1
vt 0 1
vt 0 1
vt 0 1
vt 0 1
vt 0 1
vt 0 1
vt 0 1
vt 0 1
vt 0 1
vt 0 1
vt 0 1
vt 0 1
vt 0 1
vt 0 1
vt 0 1
vt 0 1
vt 0 1
vt 0 1
vt 0 1
vt 0 1
vt 0 1
vt 0 1
vt 0 1
vt 0 1
vt 0 1
vt 0 1
vt 0 1
vt 0 1
vt 0 1
vt 0 1
vt 0 1
vt 0 1
vt 0 1
vt 0 1
vt 0 1
vt 0 1
vt 0 1
vt 0 1
vt 0 1
vt 0 1
vt 0 1
vt 0 1
vt 0 1
vt 0 1
vt 0 1
vt 0 1
vt 0 1
vt 0 1
vt 0 1
vt 0 1
vt 0 1
vt 0 1
vt 0 1
vt 0 1
vt 0 1
vt 0 1
vt 0 1
vt 0 1
vt 0 1
vt 0 1
vt 0 1
vt 0 1
vt 0 1
vt 0 1
vt 0 1
vt 0 1
vt 0 1
vt 0 1
vt 0 1
vt 0 1
vt 0 1
vt 0 1
vt 0 1
vt 0 1
vt 0 1
vt 0 1
vt 0 1
vt 0 1
vt 0 1
vt 0 1
vt 0 1
vt 0 1
vt 0 1
vt 0 1
vt 0 1
vt 0 1
vt 0 1
vt 0 1
vt 0 1
vt 0 1
vt 0 1
vt 0 1
vt 0 1
vt 0 1
vt 0 1
vt 0 1
vt 0 1
vt 0 1
vt 0 1
vn 0.13365358018178253 0.9636113749942803 0.2314947914883281
vn 0.35962729833820173 0.6947465906068659 0.622892752510496
vn 0.4840501729431874 0.25056280708573153 0.8383994929501026
vn 0.4840501729431875 -0.2505628070857314 0.8383994929501024
vn 0.35962729833820195 -0.6947465906068657 0.6228927525104961
vn 0.13365358018178253 -0.9636113749942803 0.2314947914883281
vn 0.2314947914883281 0.9636113749942803 0.13365358018178256
vn 0.6228927525104959 0.6947465906068659 0.3596272983382017
vn 0.8383994929501024 0.25056280708573164 0.4840501729431874
vn 0.8383994929501026 -0.25056280708573153 0.4840501729431875
vn 0.622892752510496 -0.6947465906068658 0.359627298338202
vn 0.2314947914883281 -0.9636113749942803 0.13365358018178256
vn 0.26730716036356506 0.9636113749942803 0
vn 0.7192545966764036 0.6947465906068659 0
vn 0.9681003458863748 0.25056280708573153 0
vn 0.968100345886375 -0.2505628070857314 0
vn 0.7192545966764037 -0.6947465906068657 0
vn 0.26730716036356506 -0.9636113749942803 0
vn 0.2314947914883281 0.9636113749942803 -0.13365358018178256
vn 0.6228927525104959 0.6947465906068658 -0.35962729833820184
vn 0.8383994929501026 0.25056280708573153 -0.48405017294318753
vn 0.8383994929501024 -0.2505628070857314 -0.4840501729431876
vn 0.622892752510496 -0.6947465906068657 -0.35962729833820195
vn 0.2314947914883281 -0.9636113749942803 -0.13365358018178256
vn 0.1336535801817826 0.9636113749942803 -0.23149479148832805
vn 0.3596272983382019 0.694746590606866 -0.6228927525104958
vn 0.48405017294318764 0.25056280708573164 -0.8383994929501024
vn 0.4840501729431876 -0.25056280708573153 -0.8383994929501025
vn 0.35962729833820206 -0.6947465906068657 -0.6228927525104959
vn 0.1336535801817826 -0.9636113749942803 -0.23149479148832805
vn 1.0791843852421668e-16 0.9636113749942803 -0.267307160363565
vn 3.2331672835932225e-16 0.6947465906068658 -0.7192545966764037
vn 3.678548590563535e-16 0.2505628070857317 -0.9681003458863748
vn 4.247622037977953e-16 -0.2505628070857317 -0.968100345886375
vn 1.8666700015176375e-16 -0.6947465906068656 -0.7192545966764039
vn 1.079184385242167e-16 -0.9636113749942803 -0.26730716036356506
vn -0.1336535801817825 0.9636113749942803 -0.2314947914883281
vn -0.3596272983382015 0.6947465906068658 -0.6228927525104961
vn -0.48405017294318714 0.2505628070857317 -0.8383994929501025
vn -0.4840501729431872 -0.25056280708573153 -0.8383994929501026
vn -0.3596272983382018 -0.6947465906068656 -0.6228927525104961
vn -0.1336535801817825 -0.9636113749942803 -0.2314947914883281
vn -0.23149479148832813 0.9636113749942804 -0.13365358018178253
vn -0.622892752510496 0.6947465906068659 -0.35962729833820156
vn -0.8383994929501025 0.2505628070857316 -0.48405017294318725
vn -0.8383994929501026 -0.25056280708573153 -0.4840501729431873
vn -0.622892752510496 -0.6947465906068658 -0.3596272983382018
vn -0.23149479148832813 -0.9636113749942804 -0.13365358018178253
vn -0.26730716036356494 0.9636113749942803 -1.0791843852421678e-16
vn -0.7192545966764036 0.6947465906068659 -1.0777224278644083e-16
vn -0.9681003458863748 0.25056280708573153 -3.6785485905635385e-16
vn -0.968100345886375 -0.2505628070857314 -2.1238110189889776e-16
vn -0.7192545966764038 -0.6947465906068658 -3.7333400030352776e-16
vn -0.267307160363565 -0.9636113749942803 -1.079184385242168e-16
vn -0.23149479148832816 0.9636113749942804 0.13365358018178253
vn -0.6228927525104961 0.6947465906068658 0.3596272983382016
vn -0.8383994929501025 0.25056280708573164 0.48405017294318714
vn -0.8383994929501027 -0.25056280708573153 0.4840501729431873
vn -0.6228927525104963 -0.6947465906068657 0.35962729833820184
vn -0.23149479148832816 -0.9636113749942804 0.13365358018178253
vn -0.13365358018178256 0.9636113749942804 0.23149479148832813
vn -0.3596272983382019 0.6947465906068659 0.6228927525104959
vn -0.4840501729431874 0.25056280708573164 0.8383994929501025
vn -0.4840501729431875 -0.25056280708573153 0.8383994929501024
vn -0.35962729833820195 -0.6947465906068657 0.622892752510496
vn -0.13365358018178256 -0.9636113749942804 0.23149479148832813
vn 0 0.9636113749942803 0.26730716036356506
vn 0 0.6947465906068659 0.7192545966764036
vn 0 0.2505628070857315 0.9681003458863748
vn 0 -0.2505628070857314 0.968100345886375
vn 0 -0.6947465906068657 0.7192545966764037
vn 0 -0.9636113749942803 0.26730716036356506
usemtl none
f 49/201/61 54/202/61 48/203/61
f 49/204/62 50/205/62 55/206/62 54/207/62
f 50/208/63 51/209/63 56/210/63 55/211/63
f 51/212/64 52/213/64 57/214/64 56/215/64
f 52/216/65 53/217/65 58/218/65 57/219/65
f 58/220/66 53/221/66 47/222/66
f 54/223/67 59/224/67 48/225/67
f 54/226/68 55/227/68 60/228/68 59/229/68
f 55/230/69 56/231/69 61/232/69 60/233/69
f 56/234/70 57/235/70 62/236/70 61/237/70
f 57/238/71 58/239/71 63/240/71 62/241/71
f 63/242/72 58/243/72 47/244/72
f 59/245/73 64/246/73 48/247/73
f 59/248/74 60/249/74 65/250/74 64/251/74
f 60/252/75 61/253/75 66/254/75 65/255/75
f 61/256/76 62/257/76 67/258/76 66/259/76
f 62/260/77 63/261/77 68/262/77 67/263/77
f 68/264/78 63/265/78 47/266/78
f 64/267/79 69/268/79 48/269/79
f 64/270/80 65/271/80 70/272/80 69/273/80
f 65/274/81 66/275/81 71/276/81 70/277/81
f 66/278/82 67/279/82 72/280/82 71/281/82
f 67/282/83 68/283/83 73/284/83 72/285/83
f 73/286/84 68/287/84 47/288/84
f 69/289/85 74/290/85 48/291/85
f 69/292/86 70/293/86 75/294/86 74/295/86
f 70/296/87 71/297/87 76/298/87 75/299/87
f 71/300/88 72/301/88 77/302/88 76/303/88
f 72/304/89 73/305/89 78/306/89 77/307/89
f 78/308/90 73/309/90 47/310/90
f 74/311/91 79/312/91 48/313/91
f 74/314/92 75/315/92 80/316/92 79/317/92
f 75/318/93 76/319/93 81/320/93 80/321/93
f 76/322/94 77/323/94 82/324/94 81/325/94
f 77/326/95 78/327/95 83/328/95 82/329/95
f 83/330/96 78/331/96 47/332/96
f 79/333/97 84/334/97 48/335/97
f 79/336/98 80/337/98 85/338/98 84/339/98
f 80/340/99 81/341/99 86/342/99 85/343/99
f 81/344/100 82/345/100 87/346/100 86/347/100
f 82/348/101 83/349/101 88/350/101 87/351/101
f 88/352/102 83/353/102 47/354/102
f 84/355/103 89/356/103 48/357/103
f 84/358/104 85/359/104 90/360/104 89/361/104
f 85/362/105 86/363/105 91/364/105 90/365/105
f 86/366/106 87/367/106 92/368/106 91/369/106
f 87/370/107 88/371/107 93/372/107 92/373/107
f 93/374/108 88/375/108 47/376/108
f 89/377/109 94/378/109 48/379/109
f 89/380/110 90/381/110 95/382/110 94/383/110
f 90/384/111 91/385/111 96/386/111 95/387/111
f 91/388/112 92/389/112 97/390/112 96/391/112
f 92/392/113 93/393/113 98/394/113 97/395/113
f 98/396/114 93/397/114 47/398/114
f 94/399/115 99/400/115 48/401/115
f 94/402/116 95/403/116 100/404/116 99/405/116
f 95/406/117 96/407/117 101/408/117 100/409/117
f 96/410/118 97/411/118 102/412/118 101/413/118
f 97/414/119 98/415/119 103/416/119 102/417/119
f 103/418/120 98/419/120 47/420/120
f 99/421/121 104/422/121 48/423/121
f 99/424/122 100/425/122 105/426/122 104/427/122
f 100/428/123 101/429/123 106/430/123 105/431/123
f 101/432/124 102/433/124 107/434/124 106/435/124
f 102/436/125 103/437/125 108/438/125 107/439/125
f 108/440/126 103/441/126 47/442/126
f 104/443/127 49/444/127 48/445/127
f 104/446/128 105/447/128 50/448/128 49/449/128
f 105/450/129 106/451/129 51/452/129 50/453/129
f 106/454/130 107/455/130 52/456/130 51/457/130
f 107/458/131 108/459/131 53/460/131 52/461/131
f 53/462/132 108/463/132 47/464/132
o blossom_l
v 0.3 0.35000000000000003 0.5375
v 0.3 0.7 0.5375
v 0.3317862356002345 0.6665779740156158 0.6353279740156158
v 0.3514312095755914 0.5790779740156158 0.6957889870078078
v 0.3514312095755914 0.47092202598438426 0.6957889870078079
v 0.3317862356002345 0.38342202598438424 0.6353279740156158
v 0.3832174451758259 0.6665779740156158 0.5979610129921921
v 0.43464865475141734 0.5790779740156158 0.6353279740156158
v 0.43464865475141734 0.47092202598438426 0.6353279740156158
v 0.38321744517582595 0.38342202598438424 0.5979610129921921
v 0.4028624191511828 0.6665779740156158 0.5375
v 0.46643489035165187 0.5790779740156158 0.5375
v 0.46643489035165187 0.47092202598438426 0.5375
v 0.4028624191511828 0.38342202598438424 0.5375
v 0.3832174451758259 0.6665779740156158 0.4770389870078079
v 0.43464865475141734 0.5790779740156158 0.4396720259843842
v 0.43464865475141734 0.47092202598438426 0.4396720259843842
v 0.38321744517582595 0.38342202598438424 0.4770389870078079
v 0.3317862356002345 0.6665779740156158 0.43967202598438415
v 0.3514312095755914 0.5790779740156158 0.3792110129921921
v 0.3514312095755914 0.47092202598438426 0.37921101299219206
v 0.33178623560023457 0.38342202598438424 0.43967202598438415
v 0.2682137643997654 0.6665779740156158 0.43967202598438415
v 0.24856879042440855 0.5790779740156158 0.3792110129921921
v 0.24856879042440855 0.47092202598438426 0.37921101299219206
v 0.2682137643997654 0.38342202598438424 0.43967202598438415
v 0.21678255482417408 0.6665779740156158 0.4770389870078079
v 0.1653513452485827 0.5790779740156158 0.43967202598438415
v 0.16535134524858267 0.47092202598438426 0.43967202598438415
v 0.21678255482417405 0.38342202598438424 0.47703898700780784
v 0.1971375808488172 0.6665779740156158 0.5375
v 0.13356510964834814 0.5790779740156158 0.5375
v 0.1335651096483481 0.47092202598438426 0.5375
v 0.19713758084881716 0.38342202598438424 0.5375
v 0.21678255482417402 0.6665779740156158 0.5979610129921921
v 0.16535134524858264 0.5790779740156158 0.6353279740156157
v 0.16535134524858264 0.47092202598438426 0.6353279740156157
v 0.21678255482417402 0.38342202598438424 0.5979610129921921
v 0.2682137643997654 0.6665779740156158 0.6353279740156158
v 0.24856879042440855 0.5790779740156158 0.6957889870078078
v 0.24856879042440855 0.47092202598438426 0.6957889870078079
v 0.2682137643997654 0.38342202598438424 0.6353279740156158
vt 0 1
vt 0 1
vt 0 1
vt 0 1
vt 0 1
vt 0 1
vt 0 1
vt 0 1
vt 0 1
vt 0 1
vt 0 1
vt 0 1
vt 0 1
vt 0 1
vt 0 1
vt 0 1
vt 0 1
vt 0 1
vt 0 1
vt 0 1
vt 0 1
vt 0 1
vt 0 1
vt 0 1
vt 0 1
vt 0 1
vt 0 1
vt 0 1
vt 0 1
vt 0 1
vt 0 1
vt 0 1
vt 0 1
vt 0 1
vt 0 1
vt 0 1
vt 0 1
vt 0 1
vt 0 1
vt 0 1
vt 0 1
vt 0 1
vt 0 1
vt 0 1
vt 0 1
vt 0 1
vt 0 1
vt 0 1
vt 0 1
vt 0 1
vt 0 1
vt 0 1
vt 0 1
vt 0 1
vt 0 1
vt 0 1
vt 0 1
vt 0 1
vt 0 1
vt 0 1
vt 0 1
vt 0 1
vt 0 1
vt 0 1
vt 0 1
vt 0 1
vt 0 1
vt 0 1
vt 0 1
vt 0 1
vt 0 1
vt 0 1
vt 0 1
vt 0 1
vt 0 1
vt 0 1
vt 0 1
vt 0 1
vt 0 1
vt 0 1
vt 0 1
vt 0 1
vt 0 1
vt 0 1
vt 0 1
vt 0 1
vt 0 1
vt 0 1
vt 0 1
vt 0 1
vt 0 1
vt 0 1
vt 0 1
vt 0 1
vt 0 1
vt 0 1
vt 0 1
vt 0 1
vt 0 1
vt 0 1
vt 0 1
vt 0 1
vt 0 1
vt 0 1
vt 0 1
vt 0 1
vt 0 1
vt 0 1
vt 0 1
vt 0 1
vt 0 1
vt 0 1
vt 0 1
vt 0 1
vt 0 1
vt 0 1
vt 0 1
vt 0 1
vt 0 1
vt 0 1
vt 0 1
vt 0 1
vt 0 1
vt 0 1
vt 0 1
vt 0 1
vt 0 1
vt 0 1
vt 0 1
vt 0 1
vt 0 1
vt 0 1
vt 0 1
vt 0 1
vt 0 1
vt 0 1
vt 0 1
vt 0 1
vt 0 1
vt 0 1
vt 0 1
vt 0 1
vt 0 1
vt 0 1
vt 0 1
vt 0 1
vt 0 1
vt 0 1
vt 0 1
vt 0 1
vt 0 1
vt 0 1
vt 0 1
vt 0 1
vt 0 1
vt 0 1
vt 0 1
vt 0 1
vt 0 1
vt 0 1
vt 0 1
vt 0 1
vt 0 1
vt 0 1
vt 0 1
vt 0 1
vt 0 1
vt 0 1
vt 0 1
vt 0 1
vt 0 1
vt 0 1
vt 0 1
vt 0 1
vt 0 1
vt 0 1
vt 0 1
vt 0 1
vt 0 1
vt 0 1
vn 0.190027544728545 0.9462985154001797 0.2615504769558966
vn 0.4835720429064235 0.5684730304826775 0.6655798171017123
vn 0.5877852522924729 2.453245739011934e-16 0.8090169943749477
vn 0.48357204290642347 -0.5684730304826776 0.6655798171017123
vn 0.19002754472854488 -0.9462985154001796 0.2615504769558965
vn 0.3074710261694767 0.9462985154001797 0.09990339242340639
vn 0.7824360014318161 0.5684730304826778 0.25422886790691546
vn 0.9510565162951536 2.8371618841388136e-16 0.30901699437494734
vn 0.7824360014318161 -0.5684730304826777 0.25422886790691546
vn 0.3074710261694767 -0.9462985154001797 0.09990339242340636
vn 0.3074710261694767 0.9462985154001797 -0.09990339242340637
vn 0.782436001431816 0.5684730304826776 -0.25422886790691546
vn 0.9510565162951536 2.440653661058401e-16 -0.3090169943749473
vn 0.782436001431816 -0.5684730304826776 -0.25422886790691546
vn 0.3074710261694766 -0.9462985154001796 -0.09990339242340632
vn 0.19002754472854502 0.9462985154001797 -0.26155047695589656
vn 0.48357204290642386 0.5684730304826777 -0.6655798171017121
vn 0.5877852522924731 2.546478922144304e-16 -0.8090169943749475
vn 0.4835720429064238 -0.5684730304826776 -0.665579817101712
vn 0.19002754472854494 -0.9462985154001796 -0.26155047695589645
vn 0 0.9462985154001796 -0.3232941690649804
vn 0 0.5684730304826775 -0.8227018983895934
vn 0 2.5662551270517356e-16 -1
vn 0 -0.5684730304826775 -0.8227018983895934
vn 0 -0.9462985154001796 -0.3232941690649804
vn -0.190027544728545 0.9462985154001796 -0.26155047695589645
vn -0.4835720429064238 0.5684730304826776 -0.665579817101712
vn -0.5877852522924731 2.4532457390119335e-16 -0.8090169943749475
vn -0.48357204290642386 -0.5684730304826777 -0.6655798171017121
vn -0.19002754472854494 -0.9462985154001796 -0.2615504769558964
vn -0.3074710261694766 0.9462985154001797 -0.09990339242340643
vn -0.7824360014318161 0.5684730304826776 -0.25422886790691573
vn -0.9510565162951535 3.2336701072192267e-16 -0.3090169943749475
vn -0.7824360014318161 -0.5684730304826777 -0.2542288679069157
vn -0.3074710261694767 -0.9462985154001797 -0.09990339242340643
vn -0.3074710261694767 0.9462985154001797 0.0999033924234063
vn -0.7824360014318161 0.5684730304826776 0.25422886790691523
vn -0.9510565162951536 2.440653661058401e-16 0.3090169943749473
vn -0.782436001431816 -0.5684730304826776 0.25422886790691535
vn -0.3074710261694766 -0.9462985154001796 0.09990339242340625
vn -0.19002754472854505 0.9462985154001797 0.2615504769558965
vn -0.4835720429064238 0.5684730304826776 0.665579817101712
vn -0.5877852522924735 2.0761440096866938e-16 0.8090169943749473
vn -0.48357204290642386 -0.5684730304826776 0.665579817101712
vn -0.19002754472854502 -0.9462985154001796 0.26155047695589645
vn 0 0.9462985154001796 0.3232941690649804
vn 0 0.5684730304826776 0.8227018983895935
vn 0 2.566255127051736e-16 1
vn 0 -0.5684730304826776 0.8227018983895935
vn 0 -0.9462985154001796 0.3232941690649804
usemtl none
f 111/465/133 115/466/133 110/467/133
f 111/468/134 112/469/134 116/470/134 115/471/134
f 112/472/135 113/473/135 117/474/135 116/475/135
f 113/476/136 114/477/136 118/478/136 117/479/136
f 118/480/137 114/481/137 109/482/137
f 115/483/138 119/484/138 110/485/138
f 115/486/139 116/487/139 120/488/139 119/489/139
f 116/490/140 117/491/140 121/492/140 120/493/140
f 117/494/141 118/495/141 122/496/141 121/497/141
f 122/498/142 118/499/142 109/500/142
f 119/501/143 123/502/143 110/503/143
f 119/504/144 120/505/144 124/506/144 123/507/144
f 120/508/145 121/509/145 125/510/145 124/511/145
f 121/512/146 122/513/146 126/514/146 125/515/146
f 126/516/147 122/517/147 109/518/147
f 123/519/148 127/520/148 110/521/148
f 123/522/149 124/523/149 128/524/149 127/525/149
f 124/526/150 125/527/150 129/528/150 128/529/150
f 125/530/151 126/531/151 130/532/151 129/533/151
f 130/534/152 126/535/152 109/536/152
f 127/537/153 131/538/153 110/539/153
f 127/540/154 128/541/154 132/542/154 131/543/154
f 128/544/155 129/545/155 133/546/155 132/547/155
f 129/548/156 130/549/156 134/550/156 133/551/156
f 134/552/157 130/553/157 109/554/157
f 131/555/158 135/556/158 110/557/158
f 131/558/159 132/559/159 136/560/159 135/561/159
f 132/562/160 133/563/160 137/564/160 136/565/160
f 133/566/161 134/567/161 138/568/161 137/569/161
f 138/570/162 134/571/162 109/572/162
f 135/573/163 139/574/163 110/575/163
f 135/576/164 136/577/164 140/578/164 139/579/164
f 136/580/165 137/581/165 141/582/165 140/583/165
f 137/584/166 138/585/166 142/586/166 141/587/166
f 142/588/167 138/589/167 109/590/167
f 139/591/168 143/592/168 110/593/168
f 139/594/169 140/595/169 144/596/169 143/597/169
f 140/598/170 141/599/170 145/600/170 144/601/170
f 141/602/171 142/603/171 146/604/171 145/605/171
f 146/606/172 142/607/172 109/608/172
f 143/609/173 147/610/173 110/611/173
f 143/612/174 144/613/174 148/614/174 147/615/174
f 144/616/175 145/617/175 149/618/175 148/619/175
f 145/620/176 146/621/176 150/622/176 149/623/176
f 150/624/177 146/625/177 109/626/177
f 147/627/178 111/628/178 110/629/178
f 147/630/179 148/631/179 112/632/179 111/633/179
f 148/634/180 149/635/180 113/636/180 112/637/180
f 149/638/181 150/639/181 114/640/181 113/641/181
f 114/642/182 150/643/182 109/644/182
o blossom_r
v 0.7 0.36875 0.45
v 0.7 0.7312500000000001 0.45
v 0.7329214583002429 0.6966343302304593 0.5513218302304592
v 0.7532680384890054 0.6060093302304592 0.6139421651152296
v 0.7532680384890054 0.49399066976954087 0.6139421651152296
v 0.7329214583002429 0.4033656697695408 0.5513218302304592
v 0.7861894967892482 0.6966343302304593 0.5126203348847704
v 0.8394575352782536 0.6060093302304592 0.5513218302304592
v 0.8394575352782536 0.49399066976954087 0.5513218302304592
v 0.7861894967892482 0.4033656697695408 0.5126203348847704
v 0.8065360769780107 0.6966343302304593 0.45
v 0.8723789935784965 0.6060093302304592 0.45
v 0.8723789935784966 0.49399066976954087 0.45
v 0.8065360769780108 0.4033656697695408 0.45
v 0.7861894967892482 0.6966343302304593 0.38737966511522964
v 0.8394575352782536 0.6060093302304592 0.3486781697695408
v 0.8394575352782536 0.49399066976954087 0.3486781697695408
v 0.7861894967892482 0.4033656697695408 0.3873796651152296
v 0.7329214583002429 0.6966343302304593 0.3486781697695408
v 0.7532680384890054 0.6060093302304592 0.28605783488477043
v 0.7532680384890054 0.49399066976954087 0.28605783488477043
v 0.7329214583002429 0.4033656697695408 0.3486781697695408
v 0.667078541699757 0.6966343302304593 0.3486781697695408
v 0.6467319615109945 0.6060093302304592 0.28605783488477043
v 0.6467319615109945 0.49399066976954087 0.28605783488477043
v 0.667078541699757 0.4033656697695408 0.3486781697695408
v 0.6138105032107517 0.6966343302304593 0.3873796651152296
v 0.5605424647217463 0.6060093302304592 0.3486781697695408
v 0.5605424647217463 0.49399066976954087 0.34867816976954075
v 0.6138105032107517 0.4033656697695408 0.3873796651152296
v 0.5934639230219892 0.6966343302304593 0.45
v 0.5276210064215034 0.6060093302304592 0.44999999999999996
v 0.5276210064215033 0.49399066976954087 0.44999999999999996
v 0.5934639230219891 0.4033656697695408 0.45
v 0.6138105032107517 0.6966343302304593 0.5126203348847704
v 0.5605424647217463 0.6060093302304592 0.5513218302304592
v 0.5605424647217463 0.49399066976954087 0.5513218302304592
v 0.6138105032107516 0.4033656697695408 0.5126203348847704
v 0.667078541699757 0.6966343302304593 0.5513218302304592
v 0.6467319615109945 0.6060093302304592 0.6139421651152296
v 0.6467319615109945 0.49399066976954087 0.6139421651152296
v 0.667078541699757 0.4033656697695408 0.5513218302304592
vt 0 1
vt 0 1
vt 0 1
vt 0 1
vt 0 1
vt 0 1
vt 0 1
vt 0 1
vt 0 1
vt 0 1
vt 0 1
vt 0 1
vt 0 1
vt 0 1
vt 0 1
vt 0 1
vt 0 1
vt 0 1
vt 0 1
vt 0 1
vt 0 1
vt 0 1
vt 0 1
vt 0 1
vt 0 1
vt 0 1
vt 0 1
vt 0 1
vt 0 1
vt 0 1
vt 0 1
vt 0 1
vt 0 1
vt 0 1
vt 0 1
vt 0 1
vt 0 1
vt 0 1
vt 0 1
vt 0 1
vt 0 1
vt 0 1
vt 0 1
vt 0 1
vt 0 1
vt 0 1
vt 0 1
vt 0 1
vt 0 1
vt 0 1
vt 0 1
vt 0 1
vt 0 1
vt 0 1
vt 0 1
vt 0 1
vt 0 1
vt 0 1
vt 0 1
vt 0 1
vt 0 1
vt 0 1
vt 0 1
vt 0 1
vt 0 1
vt 0 1
vt 0 1
vt 0 1
vt 0 1
vt 0 1
vt 0 1
vt 0 1
vt 0 1
vt 0 1
vt 0 1
vt 0 1
vt 0 1
vt 0 1
vt 0 1
vt 0 1
vt 0 1
vt 0 1
vt 0 1
vt 0 1
vt 0 1
vt 0 1
vt 0 1
vt 0 1
vt 0 1
vt 0 1
vt 0 1
vt 0 1
vt 0 1
vt 0 1
vt 0 1
vt 0 1
vt 0 1
vt 0 1
vt 0 1
vt 0 1
vt 0 1
vt 0 1
vt 0 1
vt 0 1
vt 0 1
vt 0 1
vt 0 1
vt 0 1
vt 0 1
vt 0 1
vt 0 1
vt 0 1
vt 0 1
vt 0 1
vt 0 1
vt 0 1
vt 0 1
vt 0 1
vt 0 1
vt 0 1
vt 0 1
vt 0 1
vt 0 1
vt 0 1
vt 0 1
vt 0 1
vt 0 1
vt 0 1
vt 0 1
vt 0 1
vt 0 1
vt 0 1
vt 0 1
vt 0 1
vt 0 1
vt 0 1
vt 0 1
vt 0 1
vt 0 1
vt 0 1
vt 0 1
vt 0 1
vt 0 1
vt 0 1
vt 0 1
vt 0 1
vt 0 1
vt 0 1
vt 0 1
vt 0 1
vt 0 1
vt 0 1
vt 0 1
vt 0 1
vt 0 1
vt 0 1
vt 0 1
vt 0 1
vt 0 1
vt 0 1
vt 0 1
vt 0 1
vt 0 1
vt 0 1
vt 0 1
vt 0 1
vt 0 1
vt 0 1
vt 0 1
vt 0 1
vt 0 1
vt 0 1
vt 0 1
vt 0 1
vt 0 1
vt 0 1
vt 0 1
vt 0 1
vt 0 1
vt 0 1
vn 0.19002754472854488 0.9462985154001796 0.2615504769558965
vn 0.4835720429064235 0.5684730304826777 0.6655798171017122
vn 0.5877852522924729 2.368651058356349e-16 0.8090169943749476
vn 0.4835720429064237 -0.5684730304826776 0.6655798171017123
vn 0.19002754472854486 -0.9462985154001796 0.2615504769558965
vn 0.30747102616947664 0.9462985154001796 0.0999033924234063
vn 0.782436001431816 0.5684730304826778 0.2542288679069155
vn 0.9510565162951538 2.739328715720234e-16 0.3090169943749474
vn 0.7824360014318159 -0.5684730304826778 0.2542288679069155
vn 0.3074710261694766 -0.9462985154001796 0.09990339242340632
vn 0.30747102616947664 0.9462985154001796 -0.0999033924234063
vn 0.782436001431816 0.5684730304826778 -0.2542288679069155
vn 0.9510565162951536 2.356493189987421e-16 -0.3090169943749473
vn 0.7824360014318162 -0.5684730304826776 -0.25422886790691557
vn 0.3074710261694766 -0.9462985154001797 -0.09990339242340635
vn 0.1900275447285449 0.9462985154001796 -0.2615504769558965
vn 0.4835720429064237 0.5684730304826777 -0.6655798171017122
vn 0.5877852522924732 2.4586693041393287e-16 -0.8090169943749476
vn 0.48357204290642375 -0.5684730304826776 -0.6655798171017121
vn 0.19002754472854494 -0.9462985154001797 -0.26155047695589645
vn 0 0.9462985154001796 -0.3232941690649804
vn 0 0.5684730304826776 -0.8227018983895933
vn 0 2.4777635709465035e-16 -1
vn 0 -0.5684730304826775 -0.8227018983895934
vn 0 -0.9462985154001797 -0.3232941690649803
vn -0.19002754472854497 0.9462985154001796 -0.26155047695589645
vn -0.4835720429064238 0.5684730304826777 -0.665579817101712
vn -0.5877852522924732 2.3686510583563497e-16 -0.8090169943749476
vn -0.4835720429064239 -0.5684730304826775 -0.6655798171017121
vn -0.19002754472854494 -0.9462985154001796 -0.2615504769558964
vn -0.3074710261694766 0.9462985154001796 -0.09990339242340636
vn -0.7824360014318161 0.5684730304826777 -0.2542288679069157
vn -0.9510565162951536 3.122164241453047e-16 -0.30901699437494756
vn -0.7824360014318159 -0.5684730304826777 -0.25422886790691573
vn -0.3074710261694766 -0.9462985154001797 -0.0999033924234064
vn -0.30747102616947664 0.9462985154001796 0.0999033924234063
vn -0.782436001431816 0.5684730304826777 0.2542288679069155
vn -0.9510565162951538 2.356493189987421e-16 0.3090169943749474
vn -0.7824360014318161 -0.5684730304826776 0.25422886790691535
vn -0.3074710261694766 -0.9462985154001796 0.09990339242340626
vn -0.19002754472854502 0.9462985154001796 0.26155047695589645
vn -0.4835720429064241 0.5684730304826777 0.665579817101712
vn -0.5877852522924735 2.458669304139328e-16 0.8090169943749472
vn -0.483572042906424 -0.5684730304826775 0.6655798171017121
vn -0.19002754472854497 -0.9462985154001796 0.26155047695589634
vn 0 0.9462985154001797 0.3232941690649804
vn 0 0.5684730304826776 0.8227018983895932
vn 0 2.4777635709465035e-16 1
vn 0 -0.5684730304826775 0.8227018983895934
vn 0 -0.9462985154001796 0.3232941690649803
usemtl none
f 153/645/183 157/646/183 152/647/183
f 153/648/184 154/649/184 158/650/184 157/651/184
f 154/652/185 155/653/185 159/654/185 158/655/185
f 155/656/186 156/657/186 160/658/186 159/659/186
f 160/660/187 156/661/187 151/662/187
f 157/663/188 161/664/188 152/665/188
f 157/666/189 158/667/189 162/668/189 161/669/189
f 158/670/190 159/671/190 163/672/190 162/673/190
f 159/674/191 160/675/191 164/676/191 163/677/191
f 164/678/192 160/679/192 151/680/192
f 161/681/193 165/682/193 152/683/193
f 161/684/194 162/685/194 166/686/194 165/687/194
f 162/688/195 163/689/195 167/690/195 166/691/195
f 163/692/196 164/693/196 168/694/196 167/695/196
f 168/696/197 164/697/197 151/698/197
f 165/699/198 169/700/198 152/701/198
f 165/702/199 166/703/199 170/704/199 169/705/199
f 166/706/200 167/707/200 171/708/200 170/709/200
f 167/710/201 168/711/201 172/712/201 171/713/201
f 172/714/202 168/715/202 151/716/202
f 169/717/203 173/718/203 152/719/203
f 169/720/204 170/721/204 174/722/204 173/723/204
f 170/724/205 171/725/205 175/726/205 174/727/205
f 171/728/206 172/729/206 176/730/206 175/731/206
f 176/732/207 172/733/207 151/734/207
f 173/735/208 177/736/208 152/737/208
f 173/738/209 174/739/209 178/740/209 177/741/209
f 174/742/210 175/743/210 179/744/210 178/745/210
f 175/746/211 176/747/211 180/748/211 179/749/211
f 180/750/212 176/751/212 151/752/212
f 177/753/213 181/754/213 152/755/213
f 177/756/214 178/757/214 182/758/214 181/759/214
f 178/760/215 179/761/215 183/762/215 182/763/215
f 179/764/216 180/765/216 184/766/216 183/767/216
f 184/768/217 180/769/217 151/770/217
f 181/771/218 185/772/218 152/773/218
f 181/774/219 182/775/219 186/776/219 185/777/219
f 182/778/220 183/779/220 187/780/220 186/781/220
f 183/782/221 184/783/221 188/784/221 187/785/221
f 188/786/222 184/787/222 151/788/222
f 185/789/223 189/790/223 152/791/223
f 185/792/224 186/793/224 190/794/224 189/795/224
f 186/796/225 187/797/225 191/798/225 190/799/225
f 187/800/226 188/801/226 192/802/226 191/803/226
f 192/804/227 188/805/227 151/806/227
f 189/807/228 153/808/228 152/809/228
f 189/810/229 190/811/229 154/812/229 153/813/229
f 190/814/230 191/815/230 155/816/230 154/817/230
f 191/818/231 192/819/231 156/820/231 155/821/231
f 156/822/232 192/823/232 151/824/232
o blossom_top
v 0.525 0.6 0.5375
v 0.525 0.9249999999999999 0.5375
v 0.5545157902002178 0.8939652615859289 0.6283402615859289
v 0.5727575517487634 0.8127152615859289 0.6844826307929645
v 0.5727575517487634 0.712284738414071 0.6844826307929645
v 0.5545157902002178 0.631034738414071 0.6283402615859289
v 0.6022733419489813 0.8939652615859289 0.5936423692070355
v 0.6500308936977447 0.8127152615859289 0.6283402615859289
v 0.6500308936977447 0.712284738414071 0.6283402615859289
v 0.6022733419489813 0.631034738414071 0.5936423692070355
v 0.6205151034975269 0.8939652615859289 0.5375
v 0.6795466838979625 0.8127152615859289 0.5375
v 0.6795466838979625 0.712284738414071 0.5375
v 0.6205151034975269 0.631034738414071 0.5375
v 0.6022733419489813 0.8939652615859289 0.48135763079296445
v 0.6500308936977447 0.8127152615859289 0.44665973841407103
v 0.6500308936977447 0.712284738414071 0.44665973841407103
v 0.6022733419489813 0.631034738414071 0.48135763079296445
v 0.5545157902002178 0.8939652615859289 0.44665973841407103
v 0.5727575517487635 0.8127152615859289 0.3905173692070355
v 0.5727575517487635 0.712284738414071 0.3905173692070355
v 0.5545157902002178 0.631034738414071 0.44665973841407103
v 0.4954842097997822 0.8939652615859289 0.44665973841407103
v 0.4772424482512365 0.8127152615859289 0.3905173692070355
v 0.4772424482512365 0.712284738414071 0.3905173692070355
v 0.4954842097997822 0.631034738414071 0.44665973841407103
v 0.4477266580510188 0.8939652615859289 0.48135763079296445
v 0.39996910630225535 0.8127152615859289 0.44665973841407103
v 0.39996910630225535 0.712284738414071 0.446659738414071
v 0.44772665805101874 0.631034738414071 0.48135763079296445
v 0.4294848965024731 0.8939652615859289 0.5375
v 0.3704533161020376 0.8127152615859289 0.5375
v 0.3704533161020376 0.712284738414071 0.5375
v 0.4294848965024731 0.631034738414071 0.5375
v 0.4477266580510188 0.8939652615859289 0.5936423692070355
v 0.39996910630225535 0.8127152615859289 0.6283402615859289
v 0.39996910630225535 0.712284738414071 0.6283402615859289
v 0.44772665805101874 0.631034738414071 0.5936423692070355
v 0.4954842097997822 0.8939652615859289 0.6283402615859289
v 0.4772424482512365 0.8127152615859289 0.6844826307929645
v 0.4772424482512365 0.712284738414071 0.6844826307929645
v 0.4954842097997822 0.631034738414071 0.6283402615859289
vt 0 1
vt 0 1
vt 0 1
vt 0 1
vt 0 1
vt 0 1
vt 0 1
vt 0 1
vt 0 1
vt 0 1
vt 0 1
vt 0 1
vt 0 1
vt 0 1
vt 0 1
vt 0 1
vt 0 1
vt 0 1
vt 0 1
vt 0 1
vt 0 1
vt 0 1
vt 0 1
vt 0 1
vt 0 1
vt 0 1
vt 0 1
vt 0 1
vt 0 1
vt 0 1
vt 0 1
vt 0 1
vt 0 1
vt 0 1
vt 0 1
vt 0 1
vt 0 1
vt 0 1
vt 0 1
vt 0 1
vt 0 1
vt 0 1
vt 0 1
vt 0 1
vt 0 1
vt 0 1
vt 0 1
vt 0 1
vt 0 1
vt 0 1
vt 0 1
vt 0 1
vt 0 1
vt 0 1
vt 0 1
vt 0 1
vt 0 1
vt 0 1
vt 0 1
vt 0 1
vt 0 1
vt 0 1
vt 0 1
vt 0 1
vt 0 1
vt 0 1
vt 0 1
vt 0 1
vt 0 1
vt 0 1
vt 0 1
vt 0 1
vt 0 1
vt 0 1
vt 0 1
vt 0 1
vt 0 1
vt 0 1
vt 0 1
vt 0 1
vt 0 1
vt 0 1
vt 0 1
vt 0 1
vt 0 1
vt 0 1
vt 0 1
vt 0 1
vt 0 1
vt 0 1
vt 0 1
vt 0 1
vt 0 1
vt 0 1
vt 0 1
vt 0 1
vt 0 1
vt 0 1
vt 0 1
vt 0 1
vt 0 1
vt 0 1
vt 0 1
vt 0 1
vt 0 1
vt 0 1
vt 0 1
vt 0 1
vt 0 1
vt 0 1
vt 0 1
vt 0 1
vt 0 1
vt 0 1
vt 0 1
vt 0 1
vt 0 1
vt 0 1
vt 0 1
vt 0 1
vt 0 1
vt 0 1
vt 0 1
vt 0 1
vt 0 1
vt 0 1
vt 0 1
vt 0 1
vt 0 1
vt 0 1
vt 0 1
vt 0 1
vt 0 1
vt 0 1
vt 0 1
vt 0 1
vt 0 1
vt 0 1
vt 0 1
vt 0 1
vt 0 1
vt 0 1
vt 0 1
vt 0 1
vt 0 1
vt 0 1
vt 0 1
vt 0 1
vt 0 1
vt 0 1
vt 0 1
vt 0 1
vt 0 1
vt 0 1
vt 0 1
vt 0 1
vt 0 1
vt 0 1
vt 0 1
vt 0 1
vt 0 1
vt 0 1
vt 0 1
vt 0 1
vt 0 1
vt 0 1
vt 0 1
vt 0 1
vt 0 1
vt 0 1
vt 0 1
vt 0 1
vt 0 1
vt 0 1
vt 0 1
vt 0 1
vt 0 1
vt 0 1
vt 0 1
vt 0 1
vn 0.19002754472854486 0.9462985154001797 0.2615504769558965
vn 0.4835720429064237 0.5684730304826776 0.6655798171017122
vn 0.5877852522924729 4.061095546579498e-17 0.8090169943749476
vn 0.4835720429064237 -0.5684730304826776 0.6655798171017122
vn 0.19002754472854494 -0.9462985154001796 0.2615504769558966
vn 0.3074710261694765 0.9462985154001797 0.09990339242340628
vn 0.7824360014318162 0.5684730304826776 0.2542288679069155
vn 0.9510565162951536 3.055405105995645e-16 0.30901699437494734
vn 0.7824360014318159 -0.5684730304826778 0.25422886790691557
vn 0.3074710261694767 -0.9462985154001796 0.09990339242340637
vn 0.3074710261694765 0.9462985154001797 -0.09990339242340628
vn 0.782436001431816 0.5684730304826776 -0.2542288679069155
vn 0.9510565162951536 2.628396250370585e-16 -0.30901699437494723
vn 0.782436001431816 -0.5684730304826776 -0.2542288679069155
vn 0.30747102616947664 -0.9462985154001796 -0.09990339242340636
vn 0.19002754472854488 0.9462985154001797 -0.2615504769558964
vn 0.48357204290642386 0.5684730304826776 -0.6655798171017121
vn 0.5877852522924731 2.742361916155405e-16 -0.8090169943749477
vn 0.48357204290642375 -0.5684730304826776 -0.6655798171017122
vn 0.190027544728545 -0.9462985154001796 -0.26155047695589656
vn 0 0.9462985154001796 -0.3232941690649802
vn 0 0.5684730304826776 -0.8227018983895933
vn 0 0 -1
vn 0 -0.5684730304826776 -0.8227018983895934
vn 0 -0.9462985154001797 -0.32329416906498043
vn -0.19002754472854488 0.9462985154001796 -0.2615504769558964
vn -0.48357204290642397 0.5684730304826777 -0.665579817101712
vn -0.5877852522924731 4.0610955465795e-17 -0.8090169943749477
vn -0.48357204290642375 -0.5684730304826776 -0.6655798171017122
vn -0.19002754472854497 -0.9462985154001797 -0.2615504769558965
vn -0.30747102616947647 0.9462985154001797 -0.09990339242340635
vn -0.7824360014318162 0.5684730304826776 -0.25422886790691573
vn -0.9510565162951535 3.482413961620705e-16 -0.30901699437494756
vn -0.782436001431816 -0.5684730304826776 -0.2542288679069155
vn -0.3074710261694767 -0.9462985154001796 -0.09990339242340637
vn -0.3074710261694765 0.9462985154001797 0.09990339242340625
vn -0.7824360014318162 0.5684730304826776 0.2542288679069155
vn -0.9510565162951536 2.628396250370585e-16 0.30901699437494723
vn -0.782436001431816 -0.5684730304826776 0.2542288679069154
vn -0.30747102616947664 -0.9462985154001796 0.09990339242340628
vn -0.190027544728545 0.9462985154001797 0.2615504769558964
vn -0.483572042906424 0.5684730304826776 0.665579817101712
vn -0.5877852522924732 2.7423619161554043e-16 0.8090169943749473
vn -0.4835720429064239 -0.5684730304826776 0.665579817101712
vn -0.190027544728545 -0.9462985154001796 0.26155047695589645
vn 0 0.9462985154001797 0.32329416906498026
vn 0 0.5684730304826777 0.8227018983895934
vn 0 0 1
vn 0 -0.5684730304826776 0.8227018983895935
vn 0 -0.9462985154001796 0.32329416906498043
usemtl none
f 195/825/233 199/826/233 194/827/233
f 195/828/234 196/829/234 200/830/234 199/831/234
f 196/832/235 197/833/235 201/834/235 200/835/235
f 197/836/236 198/837/236 202/838/236 201/839/236
f 202/840/237 198/841/237 193/842/237
f 199/843/238 203/844/238 194/845/238
f 199/846/239 200/847/239 204/848/239 203/849/239
f 200/850/240 201/851/240 205/852/240 204/853/240
f 201/854/241 202/855/241 206/856/241 205/857/241
f 206/858/242 202/859/242 193/860/242
f 203/861/243 207/862/243 194/863/243
f 203/864/244 204/865/244 208/866/244 207/867/244
f 204/868/245 205/869/245 209/870/245 208/871/245
f 205/872/246 206/873/246 210/874/246 209/875/246
f 210/876/247 206/877/247 193/878/247
f 207/879/248 211/880/248 194/881/248
f 207/882/249 208/883/249 212/884/249 211/885/249
f 208/886/250 209/887/250 213/888/250 212/889/250
f 209/890/251 210/891/251 214/892/251 213/893/251
f 214/894/252 210/895/252 193/896/252
f 211/897/253 215/898/253 194/899/253
f 211/900/254 212/901/254 216/902/254 215/903/254
f 212/904/255 213/905/255 217/906/255 216/907/255
f 213/908/256 214/909/256 218/910/256 217/911/256
f 218/912/257 214/913/257 193/914/257
f 215/915/258 219/916/258 194/917/258
f 215/918/259 216/919/259 220/920/259 219/921/259
f 216/922/260 217/923/260 221/924/260 220/925/260
f 217/926/261 218/927/261 222/928/261 221/929/261
f 222/930/262 218/931/262 193/932/262
f 219/933/263 223/934/263 194/935/263
f 219/936/264 220/937/264 224/938/264 223/939/264
f 220/940/265 221/941/265 225/942/265 224/943/265
f 221/944/266 222/945/266 226/946/266 225/947/266
f 226/948/267 222/949/267 193/950/267
f 223/951/268 227/952/268 194/953/268
f 223/954/269 224/955/269 228/956/269 227/957/269
f 224/958/270 225/959/270 229/960/270 228/961/270
f 225/962/271 226/963/271 230/964/271 229/965/271
f 230/966/272 226/967/272 193/968/272
f 227/969/273 231/970/273 194/971/273
f 227/972/274 228/973/274 232/974/274 231/975/274
f 228/976/275 229/977/275 233/978/275 232/979/275
f 229/980/276 230/981/276 234/982/276 233/983/276
f 234/984/277 230/985/277 193/986/277
f 231/987/278 195/988/278 194/989/278
f 231/990/279 232/991/279 196/992/279 195/993/279
f 232/994/280 233/995/280 197/996/280 196/997/280
f 233/998/281 234/999/281 198/1000/281 197/1001/281
f 198/1002/282 234/1003/282 193/1004/282
o blossom_f
v 0.55 0.41874999999999996 0.325
v 0.55 0.73125 0.325
v 0.5783805675002095 0.7014089053710855 0.4123464053710856
v 0.5959207228353495 0.6232839053710855 0.46632945268554277
v 0.5959207228353495 0.5267160946289144 0.4663294526855428
v 0.5783805675002095 0.44859109462891444 0.4123464053710856
v 0.6243012903355589 0.7014089053710855 0.37898304731445726
v 0.6702220131709083 0.6232839053710855 0.4123464053710855
v 0.6702220131709083 0.5267160946289144 0.4123464053710856
v 0.6243012903355589 0.44859109462891444 0.37898304731445726
v 0.641841445670699 0.7014089053710855 0.325
v 0.6986025806711178 0.6232839053710855 0.325
v 0.6986025806711178 0.5267160946289144 0.325
v 0.641841445670699 0.44859109462891444 0.325
v 0.6243012903355589 0.7014089053710855 0.27101695268554277
v 0.6702220131709083 0.6232839053710855 0.2376535946289145
v 0.6702220131709083 0.5267160946289144 0.2376535946289145
v 0.6243012903355589 0.44859109462891444 0.27101695268554277
v 0.5783805675002095 0.7014089053710855 0.23765359462891447
v 0.5959207228353495 0.6232839053710855 0.18367054731445726
v 0.5959207228353496 0.5267160946289144 0.18367054731445723
v 0.5783805675002095 0.44859109462891444 0.23765359462891444
v 0.5216194324997906 0.7014089053710855 0.23765359462891447
v 0.5040792771646505 0.6232839053710855 0.18367054731445726
v 0.5040792771646505 0.5267160946289144 0.18367054731445723
v 0.5216194324997906 0.44859109462891444 0.23765359462891444
v 0.47569870966444117 0.7014089053710855 0.27101695268554277
v 0.42977798682909174 0.6232839053710855 0.23765359462891447
v 0.42977798682909174 0.5267160946289144 0.23765359462891444
v 0.47569870966444117 0.44859109462891444 0.27101695268554277
v 0.4581585543293011 0.7014089053710855 0.325
v 0.4013974193288823 0.6232839053710855 0.325
v 0.4013974193288823 0.5267160946289144 0.325
v 0.4581585543293011 0.44859109462891444 0.325
v 0.47569870966444117 0.7014089053710855 0.3789830473144572
v 0.4297779868290917 0.6232839053710855 0.4123464053710855
v 0.4297779868290917 0.5267160946289144 0.4123464053710855
v 0.47569870966444117 0.44859109462891444 0.37898304731445726
v 0.5216194324997906 0.7014089053710855 0.4123464053710856
v 0.5040792771646505 0.6232839053710855 0.46632945268554277
v 0.5040792771646505 0.5267160946289144 0.4663294526855428
v 0.5216194324997906 0.44859109462891444 0.4123464053710856
vt 0 1
vt 0 1
vt 0 1
vt 0 1
vt 0 1
vt 0 1
vt 0 1
vt 0 1
vt 0 1
vt 0 1
vt 0 1
vt 0 1
vt 0 1
vt 0 1
vt 0 1
vt 0 1
vt 0 1
vt 0 1
vt 0 1
vt 0 1
vt 0 1
vt 0 1
vt 0 1
vt 0 1
vt 0 1
vt 0 1
vt 0 1
vt 0 1
vt 0 1
vt 0 1
vt 0 1
vt 0 1
vt 0 1
vt 0 1
vt 0 1
vt 0 1
vt 0 1
vt 0 1
vt 0 1
vt 0 1
vt 0 1
vt 0 1
vt 0 1
vt 0 1
vt 0 1
vt 0 1
vt 0 1
vt 0 1
vt 0 1
vt 0 1
vt 0 1
vt 0 1
vt 0 1
vt 0 1
vt 0 1
vt 0 1
vt 0 1
vt 0 1
vt 0 1
vt 0 1
vt 0 1
vt 0 1
vt 0 1
vt 0 1
vt 0 1
vt 0 1
vt 0 1
vt 0 1
vt 0 1
vt 0 1
vt 0 1
vt 0 1
vt 0 1
vt 0 1
vt 0 1
vt 0 1
vt 0 1
vt 0 1
vt 0 1
vt 0 1
vt 0 1
vt 0 1
vt 0 1
vt 0 1
vt 0 1
vt 0 1
vt 0 1
vt 0 1
vt 0 1
vt 0 1
vt 0 1
vt 0 1
vt 0 1
vt 0 1
vt 0 1
vt 0 1
vt 0 1
vt 0 1
vt 0 1
vt 0 1
vt 0 1
vt 0 1
vt 0 1
vt 0 1
vt 0 1
vt 0 1
vt 0 1
vt 0 1
vt 0 1
vt 0 1
vt 0 1
vt 0 1
vt 0 1
vt 0 1
vt 0 1
vt 0 1
vt 0 1
vt 0 1
vt 0 1
vt 0 1
vt 0 1
vt 0 1
vt 0 1
vt 0 1
vt 0 1
vt 0 1
vt 0 1
vt 0 1
vt 0 1
vt 0 1
vt 0 1
vt 0 1
vt 0 1
vt 0 1
vt 0 1
vt 0 1
vt 0 1
vt 0 1
vt 0 1
vt 0 1
vt 0 1
vt 0 1
vt 0 1
vt 0 1
vt 0 1
vt 0 1
vt 0 1
vt 0 1
vt 0 1
vt 0 1
vt 0 1
vt 0 1
vt 0 1
vt 0 1
vt 0 1
vt 0 1
vt 0 1
vt 0 1
vt 0 1
vt 0 1
vt 0 1
vt 0 1
vt 0 1
vt 0 1
vt 0 1
vt 0 1
vt 0 1
vt 0 1
vt 0 1
vt 0 1
vt 0 1
vt 0 1
vt 0 1
vt 0 1
vt 0 1
vt 0 1
vt 0 1
vt 0 1
vt 0 1
vt 0 1
vn 0.19002754472854488 0.9462985154001796 0.26155047695589645
vn 0.4835720429064237 0.5684730304826776 0.6655798171017122
vn 0.5877852522924732 2.7476352276933655e-16 0.8090169943749475
vn 0.48357204290642364 -0.5684730304826778 0.6655798171017122
vn 0.19002754472854502 -0.9462985154001797 0.2615504769558966
vn 0.3074710261694765 0.9462985154001796 0.09990339242340632
vn 0.7824360014318161 0.5684730304826776 0.2542288679069155
vn 0.9510565162951536 1.810855260042767e-16 0.3090169943749475
vn 0.7824360014318159 -0.5684730304826777 0.2542288679069155
vn 0.30747102616947675 -0.9462985154001797 0.0999033924234064
vn 0.3074710261694765 0.9462985154001796 -0.0999033924234063
vn 0.782436001431816 0.5684730304826776 -0.25422886790691546
vn 0.9510565162951536 2.7335321003854084e-16 -0.30901699437494745
vn 0.7824360014318161 -0.5684730304826777 -0.2542288679069157
vn 0.3074710261694768 -0.9462985154001797 -0.0999033924234064
vn 0.19002754472854494 0.9462985154001796 -0.26155047695589645
vn 0.4835720429064239 0.5684730304826776 -0.6655798171017122
vn 0.5877852522924734 2.0073485191130848e-16 -0.8090169943749473
vn 0.48357204290642386 -0.5684730304826777 -0.6655798171017121
vn 0.19002754472854508 -0.9462985154001797 -0.2615504769558966
vn 0 0.9462985154001796 -0.32329416906498026
vn 0 0.5684730304826776 -0.8227018983895933
vn 0 2.8742057422979436e-16 -1
vn 0 -0.5684730304826777 -0.8227018983895934
vn 0 -0.9462985154001797 -0.32329416906498054
vn -0.19002754472854483 0.9462985154001796 -0.26155047695589634
vn -0.4835720429064239 0.5684730304826776 -0.665579817101712
vn -0.5877852522924735 2.747635227693365e-16 -0.8090169943749473
vn -0.48357204290642375 -0.5684730304826777 -0.665579817101712
vn -0.19002754472854502 -0.9462985154001796 -0.26155047695589656
vn -0.3074710261694765 0.9462985154001796 -0.0999033924234063
vn -0.782436001431816 0.5684730304826775 -0.2542288679069158
vn -0.9510565162951536 3.1776213102354714e-16 -0.3090169943749476
vn -0.782436001431816 -0.5684730304826778 -0.25422886790691573
vn -0.3074710261694768 -0.9462985154001797 -0.09990339242340646
vn -0.3074710261694765 0.9462985154001796 0.09990339242340623
vn -0.7824360014318161 0.5684730304826776 0.25422886790691535
vn -0.9510565162951536 2.7335321003854084e-16 0.3090169943749473
vn -0.782436001431816 -0.5684730304826777 0.25422886790691535
vn -0.3074710261694768 -0.9462985154001797 0.09990339242340633
vn -0.19002754472854497 0.9462985154001796 0.26155047695589634
vn -0.4835720429064239 0.5684730304826776 0.6655798171017121
vn -0.5877852522924734 2.0073485191130843e-16 0.8090169943749472
vn -0.48357204290642397 -0.5684730304826777 0.665579817101712
vn -0.19002754472854513 -0.9462985154001797 0.2615504769558966
vn 0 0.9462985154001796 0.32329416906498026
vn 0 0.5684730304826776 0.8227018983895933
vn 0 2.8742057422979436e-16 1
vn 0 -0.5684730304826778 0.8227018983895934
vn 0 -0.9462985154001797 0.3232941690649805
usemtl none
f 237/1005/283 241/1006/283 236/1007/283
f 237/1008/284 238/1009/284 242/1010/284 241/1011/284
f 238/1012/285 239/1013/285 243/1014/285 242/1015/285
f 239/1016/286 240/1017/286 244/1018/286 243/1019/286
f 244/1020/287 240/1021/287 235/1022/287
f 241/1023/288 245/1024/288 236/1025/288
f 241/1026/289 242/1027/289 246/1028/289 245/1029/289
f 242/1030/290 243/1031/290 247/1032/290 246/1033/290
f 243/1034/291 244/1035/291 248/1036/291 247/1037/291
f 248/1038/292 244/1039/292 235/1040/292
f 245/1041/293 249/1042/293 236/1043/293
f 245/1044/294 246/1045/294 250/1046/294 249/1047/294
f 246/1048/295 247/1049/295 251/1050/295 250/1051/295
f 247/1052/296 248/1053/296 252/1054/296 251/1055/296
f 252/1056/297 248/1057/297 235/1058/297
f 249/1059/298 253/1060/298 236/1061/298
f 249/1062/299 250/1063/299 254/1064/299 253/1065/299
f 250/1066/300 251/1067/300 255/1068/300 254/1069/300
f 251/1070/301 252/1071/301 256/1072/301 255/1073/301
f 256/1074/302 252/1075/302 235/1076/302
f 253/1077/303 257/1078/303 236/1079/303
f 253/1080/304 254/1081/304 258/1082/304 257/1083/304
f 254/1084/305 255/1085/305 259/1086/305 258/1087/305
f 255/1088/306 256/1089/306 260/1090/306 259/1091/306
f 260/1092/307 256/1093/307 235/1094/307
f 257/1095/308 261/1096/308 236/1097/308
f 257/1098/309 258/1099/309 262/1100/309 261/1101/309
f 258/1102/310 259/1103/310 263/1104/310 262/1105/310
f 259/1106/311 260/1107/311 264/1108/311 263/1109/311
f 264/1110/312 260/1111/312 235/1112/312
f 261/1113/313 265/1114/313 236/1115/313
f 261/1116/314 262/1117/314 266/1118/314 265/1119/314
f 262/1120/315 263/1121/315 267/1122/315 266/1123/315
f 263/1124/316 264/1125/316 268/1126/316 267/1127/316
f 268/1128/317 264/1129/317 235/1130/317
f 265/1131/318 269/1132/318 236/1133/318
f 265/1134/319 266/1135/319 270/1136/319 269/1137/319
f 266/1138/320 267/1139/320 271/1140/320 270/1141/320
f 267/1142/321 268/1143/321 272/1144/321 271/1145/321
f 272/1146/322 268/1147/322 235/1148/322
f 269/1149/323 273/1150/323 236/1151/323
f 269/1152/324 270/1153/324 274/1154/324 273/1155/324
f 270/1156/325 271/1157/325 275/1158/325 274/1159/325
f 271/1160/326 272/1161/326 276/1162/326 275/1163/326
f 276/1164/327 272/1165/327 235/1166/327
f 273/1167/328 237/1168/328 236/1169/328
f 273/1170/329 274/1171/329 238/1172/329 237/1173/329
f 274/1174/330 275/1175/330 239/1176/330 238/1177/330
f 275/1178/331 276/1179/331 240/1180/331 239/1181/331
f 240/1182/332 276/1183/332 235/1184/332
o blossom_b
v 0.45 0.4125 0.6875
v 0.45 0.7125 0.6875
v 0.47724534480020103 0.6838525491562422 0.7713525491562421
v 0.49408389392193547 0.6088525491562421 0.823176274578121
v 0.4940838939219355 0.5161474508437579 0.823176274578121
v 0.47724534480020103 0.4411474508437579 0.7713525491562421
v 0.5213292387221365 0.6838525491562422 0.739323725421879
v 0.565413132644072 0.6088525491562421 0.7713525491562421
v 0.565413132644072 0.5161474508437579 0.7713525491562421
v 0.5213292387221365 0.4411474508437579 0.739323725421879
v 0.538167787843871 0.6838525491562422 0.6875
v 0.592658477444273 0.6088525491562421 0.6875
v 0.592658477444273 0.5161474508437579 0.6875
v 0.538167787843871 0.4411474508437579 0.6875
v 0.5213292387221365 0.6838525491562422 0.635676274578121
v 0.565413132644072 0.6088525491562421 0.6036474508437579
v 0.565413132644072 0.5161474508437579 0.6036474508437579
v 0.5213292387221365 0.4411474508437579 0.635676274578121
v 0.47724534480020103 0.6838525491562422 0.6036474508437579
v 0.4940838939219355 0.6088525491562421 0.551823725421879
v 0.4940838939219355 0.5161474508437579 0.551823725421879
v 0.47724534480020103 0.4411474508437579 0.6036474508437579
v 0.42275465519979893 0.6838525491562422 0.6036474508437579
v 0.4059161060780645 0.6088525491562421 0.551823725421879
v 0.4059161060780645 0.5161474508437579 0.551823725421879
v 0.42275465519979893 0.4411474508437579 0.6036474508437579
v 0.3786707612778635 0.6838525491562422 0.635676274578121
v 0.334586867355928 0.6088525491562421 0.6036474508437579
v 0.334586867355928 0.5161474508437579 0.6036474508437579
v 0.3786707612778635 0.4411474508437579 0.635676274578121
v 0.36183221215612904 0.6838525491562422 0.6875
v 0.307341522555727 0.6088525491562421 0.6875
v 0.307341522555727 0.5161474508437579 0.6875
v 0.36183221215612904 0.4411474508437579 0.6875
v 0.3786707612778635 0.6838525491562422 0.739323725421879
v 0.334586867355928 0.6088525491562421 0.7713525491562421
v 0.334586867355928 0.5161474508437579 0.7713525491562421
v 0.3786707612778635 0.4411474508437579 0.739323725421879
v 0.42275465519979893 0.6838525491562422 0.7713525491562421
v 0.4059161060780645 0.6088525491562421 0.823176274578121
v 0.4059161060780645 0.5161474508437579 0.823176274578121
v 0.42275465519979893 0.4411474508437579 0.7713525491562421
vt 0 1
vt 0 1
vt 0 1
vt 0 1
vt 0 1
vt 0 1
vt 0 1
vt 0 1
vt 0 1
vt 0 1
vt 0 1
vt 0 1
vt 0 1
vt 0 1
vt 0 1
vt 0 1
vt 0 1
vt 0 1
vt 0 1
vt 0 1
vt 0 1
vt 0 1
vt 0 1
vt 0 1
vt 0 1
vt 0 1
vt 0 1
vt 0 1
vt 0 1
vt 0 1
vt 0 1
vt 0 1
vt 0 1
vt 0 1
vt 0 1
vt 0 1
vt 0 1
vt 0 1
vt 0 1
vt 0 1
vt 0 1
vt 0 1
vt 0 1
vt 0 1
vt 0 1
vt 0 1
vt 0 1
vt 0 1
vt 0 1
vt 0 1
vt 0 1
vt 0 1
vt 0 1
vt 0 1
vt 0 1
vt 0 1
vt 0 1
vt 0 1
vt 0 1
vt 0 1
vt 0 1
vt 0 1
vt 0 1
vt 0 1
vt 0 1
vt 0 1
vt 0 1
vt 0 1
vt 0 1
vt 0 1
vt 0 1
vt 0 1
vt 0 1
vt 0 1
vt 0 1
vt 0 1
vt 0 1
vt 0 1
vt 0 1
vt 0 1
vt 0 1
vt 0 1
vt 0 1
vt 0 1
vt 0 1
vt 0 1
vt 0 1
vt 0 1
vt 0 1
vt 0 1
vt 0 1
vt 0 1
vt 0 1
vt 0 1
vt 0 1
vt 0 1
vt 0 1
vt 0 1
vt 0 1
vt 0 1
vt 0 1
vt 0 1
vt 0 1
vt 0 1
vt 0 1
vt 0 1
vt 0 1
vt 0 1
vt 0 1
vt 0 1
vt 0 1
vt 0 1
vt 0 1
vt 0 1
vt 0 1
vt 0 1
vt 0 1
vt 0 1
vt 0 1
vt 0 1
vt 0 1
vt 0 1
vt 0 1
vt 0 1
vt 0 1
vt 0 1
vt 0 1
vt 0 1
vt 0 1
vt 0 1
vt 0 1
vt 0 1
vt 0 1
vt 0 1
vt 0 1
vt 0 1
vt 0 1
vt 0 1
vt 0 1
vt 0 1
vt 0 1
vt 0 1
vt 0 1
vt 0 1
vt 0 1
vt 0 1
vt 0 1
vt 0 1
vt 0 1
vt 0 1
vt 0 1
vt 0 1
vt 0 1
vt 0 1
vt 0 1
vt 0 1
vt 0 1
vt 0 1
vt 0 1
vt 0 1
vt 0 1
vt 0 1
vt 0 1
vt 0 1
vt 0 1
vt 0 1
vt 0 1
vt 0 1
vt 0 1
vt 0 1
vt 0 1
vt 0 1
vt 0 1
vt 0 1
vt 0 1
vt 0 1
vt 0 1
vt 0 1
vt 0 1
vt 0 1
vn 0.19002754472854497 0.9462985154001797 0.26155047695589656
vn 0.48357204290642364 0.5684730304826776 0.6655798171017122
vn 0.5877852522924732 3.302072046393368e-16 0.8090169943749475
vn 0.4835720429064237 -0.5684730304826777 0.6655798171017121
vn 0.19002754472854505 -0.9462985154001797 0.26155047695589667
vn 0.3074710261694766 0.9462985154001797 0.09990339242340635
vn 0.782436001431816 0.5684730304826777 0.2542288679069155
vn 0.9510565162951536 1.886307562544549e-16 0.3090169943749475
vn 0.782436001431816 -0.5684730304826777 0.25422886790691546
vn 0.3074710261694767 -0.9462985154001797 0.09990339242340637
vn 0.30747102616947664 0.9462985154001797 -0.09990339242340635
vn 0.7824360014318161 0.5684730304826777 -0.2542288679069155
vn 0.9510565162951536 2.847429271234801e-16 -0.30901699437494745
vn 0.7824360014318161 -0.5684730304826778 -0.25422886790691546
vn 0.3074710261694767 -0.9462985154001797 -0.09990339242340635
vn 0.19002754472854502 0.9462985154001797 -0.2615504769558965
vn 0.4835720429064238 0.5684730304826778 -0.6655798171017121
vn 0.5877852522924735 2.0909880407427967e-16 -0.8090169943749472
vn 0.48357204290642375 -0.5684730304826777 -0.6655798171017121
vn 0.19002754472854508 -0.9462985154001797 -0.26155047695589656
vn 0 0.9462985154001796 -0.3232941690649803
vn 0 0.5684730304826777 -0.8227018983895933
vn 0 2.9939643148936914e-16 -1
vn 0 -0.5684730304826778 -0.8227018983895933
vn 0 -0.9462985154001796 -0.32329416906498043
vn -0.19002754472854502 0.9462985154001797 -0.26155047695589645
vn -0.4835720429064238 0.5684730304826777 -0.665579817101712
vn -0.5877852522924734 2.8621200288472555e-16 -0.8090169943749473
vn -0.48357204290642375 -0.5684730304826778 -0.665579817101712
vn -0.19002754472854505 -0.9462985154001797 -0.26155047695589656
vn -0.30747102616947664 0.9462985154001797 -0.09990339242340641
vn -0.7824360014318159 0.5684730304826777 -0.2542288679069156
vn -0.9510565162951536 1.8863075625445493e-16 -0.3090169943749477
vn -0.7824360014318159 -0.5684730304826777 -0.2542288679069156
vn -0.3074710261694767 -0.9462985154001797 -0.09990339242340644
vn -0.30747102616947664 0.9462985154001797 0.09990339242340628
vn -0.782436001431816 0.5684730304826776 0.2542288679069153
vn -0.9510565162951536 2.847429271234801e-16 0.30901699437494734
vn -0.782436001431816 -0.5684730304826777 0.25422886790691523
vn -0.30747102616947675 -0.9462985154001797 0.09990339242340629
vn -0.19002754472854508 0.9462985154001797 0.26155047695589645
vn -0.4835720429064239 0.5684730304826777 0.665579817101712
vn -0.5877852522924737 2.0909880407427972e-16 0.8090169943749472
vn -0.48357204290642386 -0.5684730304826776 0.6655798171017121
vn -0.19002754472854513 -0.9462985154001797 0.26155047695589656
vn 0 0.9462985154001797 0.3232941690649803
vn 0 0.5684730304826777 0.8227018983895933
vn 0 2.9939643148936914e-16 1
vn 0 -0.5684730304826778 0.8227018983895933
vn 0 -0.9462985154001796 0.32329416906498043
usemtl none
f 279/1185/333 283/1186/333 278/1187/333
f 279/1188/334 280/1189/334 284/1190/334 283/1191/334
f 280/1192/335 281/1193/335 285/1194/335 284/1195/335
f 281/1196/336 282/1197/336 286/1198/336 285/1199/336
f 286/1200/337 282/1201/337 277/1202/337
f 283/1203/338 287/1204/338 278/1205/338
f 283/1206/339 284/1207/339 288/1208/339 287/1209/339
f 284/1210/340 285/1211/340 289/1212/340 288/1213/340
f 285/1214/341 286/1215/341 290/1216/341 289/1217/341
f 290/1218/342 286/1219/342 277/1220/342
f 287/1221/343 291/1222/343 278/1223/343
f 287/1224/344 288/1225/344 292/1226/344 291/1227/344
f 288/1228/345 289/1229/345 293/1230/345 292/1231/345
f 289/1232/346 290/1233/346 294/1234/346 293/1235/346
f 294/1236/347 290/1237/347 277/1238/347
f 291/1239/348 295/1240/348 278/1241/348
f 291/1242/349 292/1243/349 296/1244/349 295/1245/349
f 292/1246/350 293/1247/350 297/1248/350 296/1249/350
f 293/1250/351 294/1251/351 298/1252/351 297/1253/351
f 298/1254/352 294/1255/352 277/1256/352
f 295/1257/353 299/1258/353 278/1259/353
f 295/1260/354 296/1261/354 300/1262/354 299/1263/354
f 296/1264/355 297/1265/355 301/1266/355 300/1267/355
f 297/1268/356 298/1269/356 302/1270/356 301/1271/356
f 302/1272/357 298/1273/357 277/1274/357
f 299/1275/358 303/1276/358 278/1277/358
f 299/1278/359 300/1279/359 304/1280/359 303/1281/359
f 300/1282/360 301/1283/360 305/1284/360 304/1285/360
f 301/1286/361 302/1287/361 306/1288/361 305/1289/361
f 306/1290/362 302/1291/362 277/1292/362
f 303/1293/363 307/1294/363 278/1295/363
f 303/1296/364 304/1297/364 308/1298/364 307/1299/364
f 304/1300/365 305/1301/365 309/1302/365 308/1303/365
f 305/1304/366 306/1305/366 310/1306/366 309/1307/366
f 310/1308/367 306/1309/367 277/1310/367
f 307/1311/368 311/1312/368 278/1313/368
f 307/1314/369 308/1315/369 312/1316/369 311/1317/369
f 308/1318/370 309/1319/370 313/1320/370 312/1321/370
f 309/1322/371 310/1323/371 314/1324/371 313/1325/371
f 314/1326/372 310/1327/372 277/1328/372
f 311/1329/373 315/1330/373 278/1331/373
f 311/1332/374 312/1333/374 316/1334/374 315/1335/374
f 312/1336/375 313/1337/375 317/1338/375 316/1339/375
f 313/1340/376 314/1341/376 318/1342/376 317/1343/376
f 318/1344/377 314/1345/377 277/1346/377
f 315/1347/378 279/1348/378 278/1349/378
f 315/1350/379 316/1351/379 280/1352/379 279/1353/379
f 316/1354/380 317/1355/380 281/1356/380 280/1357/380
f 317/1358/381 318/1359/381 282/1360/381 281/1361/381
f 282/1362/382 318/1363/382 277/1364/382