# Made in Blockbench 5.1.5
mtllib materials.mtl

o mast
v 0.5 0.71875 0.5
v 0.5 0.03125 0.5
v 0.55625 0.71875 0.5
v 0.55625 0.03125 0.5
v 0.5397747564417433 0.71875 0.5397747564417433
v 0.5397747564417433 0.03125 0.5397747564417433
v 0.5 0.71875 0.55625
v 0.5 0.03125 0.55625
v 0.4602252435582567 0.71875 0.5397747564417433
v 0.4602252435582567 0.03125 0.5397747564417433
v 0.44375 0.71875 0.5
v 0.44375 0.03125 0.5
v 0.46022524355825667 0.71875 0.4602252435582567
v 0.46022524355825667 0.03125 0.4602252435582567
v 0.5 0.71875 0.44375
v 0.5 0.03125 0.44375
v 0.5397747564417433 0.71875 0.46022524355825667
v 0.5397747564417433 0.03125 0.46022524355825667
vt 0 1
vt 0 1
vt 0 1
vt 0 1
vt 0 1
vt 0 1
vt 0 1
vt 0 1
vt 0 1
vt 0 1
vt 0 1
vt 0 1
vt 0 1
vt 0 1
vt 0 1
vt 0 1
vt 0 1
vt 0 1
vt 0 1
vt 0 1
vt 0 1
vt 0 1
vt 0 1
vt 0 1
vt 0 1
vt 0 1
vt 0 1
vt 0 1
vt 0 1
vt 0 1
vt 0 1
vt 0 1
vt 0 1
vt 0 1
vt 0 1
vt 0 1
vt 0 1
vt 0 1
vt 0 1
vt 0 1
vt 0 1
vt 0 1
vt 0 1
vt 0 1
vt 0 1
vt 0 1
vt 0 1
vt 0 1
vt 0 1
vt 0 1
vt 0 1
vt 0 1
vt 0 1
vt 0 1
vt 0 1
vt 0 1
vt 0 1
vt 0 1
vt 0 1
vt 0 1
vt 0 1
vt 0 1
vt 0 1
vt 0 1
vt 0 1
vt 0 1
vt 0 1
vt 0 1
vt 0 1
vt 0 1
vt 0 1
vt 0 1
vt 0 1
vt 0 1
vt 0 1
vt 0 1
vt 0 1
vt 0 1
vt 0 1
vt 0 1
vn -0.9238795325112867 0 -0.3826834323650897
vn 0 -1 0
vn 0 1 0
vn -0.38268343236508984 0 -0.9238795325112867
vn 0 -1 0
vn 0 1 0
vn 0.3826834323650897 0 -0.9238795325112867
vn 0 -1 0
vn 0 1 0
vn 0.9238795325112868 0 -0.38268343236508995
vn 0 -1 0
vn 0 1 0
vn 0.9238795325112868 0 0.38268343236508956
vn 0 -1 0
vn 0 1 0
vn 0.38268343236508984 0 0.9238795325112867
vn 0 -1 0
vn 0 1 0
vn -0.38268343236508967 0 0.923879532511287
vn 0 -1 0
vn 0 1 0
vn -0.9238795325112868 0 0.38268343236508995
vn 0 -1 0
vn 0 1 0
usemtl none
f 4/1/1 6/2/1 5/3/1 3/4/1
f 3/5/2 5/6/2 1/7/2
f 6/8/3 4/9/3 2/10/3
f 6/11/4 8/12/4 7/13/4 5/14/4
f 5/15/5 7/16/5 1/17/5
f 8/18/6 6/19/6 2/20/6
f 8/21/7 10/22/7 9/23/7 7/24/7
f 7/25/8 9/26/8 1/27/8
f 10/28/9 8/29/9 2/30/9
f 10/31/10 12/32/10 11/33/10 9/34/10
f 9/35/11 11/36/11 1/37/11
f 12/38/12 10/39/12 2/40/12
f 12/41/13 14/42/13 13/43/13 11/44/13
f 11/45/14 13/46/14 1/47/14
f 14/48/15 12/49/15 2/50/15
f 14/51/16 16/52/16 15/53/16 13/54/16
f 13/55/17 15/56/17 1/57/17
f 16/58/18 14/59/18 2/60/18
f 16/61/19 18/62/19 17/63/19 15/64/19
f 15/65/20 17/66/20 1/67/20
f 18/68/21 16/69/21 2/70/21
f 18/71/22 4/72/22 3/73/22 17/74/22
f 17/75/23 3/76/23 1/77/23
f 4/78/24 18/79/24 2/80/24
o bearing
v 0.5 0.7 0.55
v 0.5 0.7 0.45
v 0.58125 0.7 0.55
v 0.58125 0.7 0.45
v 0.557452425971407 0.642547574028593 0.55
v 0.557452425971407 0.642547574028593 0.45
v 0.5 0.6187499999999999 0.55
v 0.5 0.6187499999999999 0.45
v 0.442547574028593 0.642547574028593 0.55
v 0.442547574028593 0.642547574028593 0.45
v 0.41875 0.7 0.55
v 0.41875 0.7 0.45
v 0.442547574028593 0.7574524259714069 0.55
v 0.442547574028593 0.7574524259714069 0.44999999999999996
v 0.5 0.78125 0.5499999999999999
v 0.5 0.78125 0.44999999999999996
v 0.557452425971407 0.7574524259714069 0.55
v 0.557452425971407 0.7574524259714069 0.44999999999999996
vt 0 1
vt 0 1
vt 0 1
vt 0 1
vt 0 1
vt 0 1
vt 0 1
vt 0 1
vt 0 1
vt 0 1
vt 0 1
vt 0 1
vt 0 1
vt 0 1
vt 0 1
vt 0 1
vt 0 1
vt 0 1
vt 0 1
vt 0 1
vt 0 1
vt 0 1
vt 0 1
vt 0 1
vt 0 1
vt 0 1
vt 0 1
vt 0 1
vt 0 1
vt 0 1
vt 0 1
vt 0 1
vt 0 1
vt 0 1
vt 0 1
vt 0 1
vt 0 1
vt 0 1
vt 0 1
vt 0 1
vt 0 1
vt 0 1
vt 0 1
vt 0 1
vt 0 1
vt 0 1
vt 0 1
vt 0 1
vt 0 1
vt 0 1
vt 0 1
vt 0 1
vt 0 1
vt 0 1
vt 0 1
vt 0 1
vt 0 1
vt 0 1
vt 0 1
vt 0 1
vt 0 1
vt 0 1
vt 0 1
vt 0 1
vt 0 1
vt 0 1
vt 0 1
vt 0 1
vt 0 1
vt 0 1
vt 0 1
vt 0 1
vt 0 1
vt 0 1
vt 0 1
vt 0 1
vt 0 1
vt 0 1
vt 0 1
vt 0 1
vn -0.9238795325112868 0.3826834323650897 -8.497279155086129e-17
vn 0 -2.220446049250313e-16 -1
vn 0 2.220446049250313e-16 1
vn -0.38268343236508995 0.9238795325112868 -2.051424657947913e-16
vn 0 -2.220446049250313e-16 -1
vn 0 2.220446049250313e-16 1
vn 0.3826834323650897 0.9238795325112868 -2.051424657947913e-16
vn 0 -2.220446049250313e-16 -1
vn 0 2.220446049250313e-16 1
vn 0.9238795325112868 0.38268343236508995 -8.497279155086134e-17
vn 0 -2.220446049250313e-16 -1
vn 0 2.220446049250313e-16 1
vn 0.9238795325112868 -0.38268343236508967 8.497279155086128e-17
vn 0 -2.220446049250313e-16 -1
vn 0 2.220446049250313e-16 1
vn 0.38268343236508995 -0.9238795325112868 2.051424657947913e-16
vn 0 -2.220446049250313e-16 -1
vn 0 2.220446049250313e-16 1
vn -0.38268343236508967 -0.9238795325112868 2.051424657947913e-16
vn 0 -2.220446049250313e-16 -1
vn 0 2.220446049250313e-16 1
vn -0.9238795325112868 -0.38268343236509 8.497279155086135e-17
vn 0 -2.220446049250313e-16 -1
vn 0 2.220446049250313e-16 1
usemtl none
f 22/81/25 24/82/25 23/83/25 21/84/25
f 21/85/26 23/86/26 19/87/26
f 24/88/27 22/89/27 20/90/27
f 24/91/28 26/92/28 25/93/28 23/94/28
f 23/95/29 25/96/29 19/97/29
f 26/98/30 24/99/30 20/100/30
f 26/101/31 28/102/31 27/103/31 25/104/31
f 25/105/32 27/106/32 19/107/32
f 28/108/33 26/109/33 20/110/33
f 28/111/34 30/112/34 29/113/34 27/114/34
f 27/115/35 29/116/35 19/117/35
f 30/118/36 28/119/36 20/120/36
f 30/121/37 32/122/37 31/123/37 29/124/37
f 29/125/38 31/126/38 19/127/38
f 32/128/39 30/129/39 20/130/39
f 32/131/40 34/132/40 33/133/40 31/134/40
f 31/135/41 33/136/41 19/137/41
f 34/138/42 32/139/42 20/140/42
f 34/141/43 36/142/43 35/143/43 33/144/43
f 33/145/44 35/146/44 19/147/44
f 36/148/45 34/149/45 20/150/45
f 36/151/46 22/152/46 21/153/46 35/154/46
f 35/155/47 21/156/47 19/157/47
f 22/158/48 36/159/48 20/160/48
o foot_a
v 0.6625 0.075 0.56875
v 0.6625 0.075 0.43125
v 0.6625 0 0.56875
v 0.6625 0 0.43125
v 0.3375 0.075 0.43125
v 0.3375 0.075 0.56875
v 0.3375 0 0.43125
v 0.3375 0 0.56875
vt 0 1
vt 0.32499999999999996 1
vt 0.32499999999999996 0.925
vt 0 0.925
vt 0 1
vt 0.13749999999999996 1
vt 0.13749999999999996 0.925
vt 0 0.925
vt 0 1
vt 0.32499999999999996 1
vt 0.32499999999999996 0.925
vt 0 0.925
vt 0 1
vt 0.13749999999999996 1
vt 0.13749999999999996 0.925
vt 0 0.925
vt 0 1
vt 0.32499999999999996 1
vt 0.32499999999999996 0.8625
vt 0 0.8625
vt 0 1
vt 0.32499999999999996 1
vt 0.32499999999999996 0.8625
vt 0 0.8625
vn 0 0 -1
vn 1 0 0
vn 0 0 1
vn -1 0 0
vn 0 1 0
vn 0 -1 0
usemtl m_60a6a32d-6172-c151-8068-2833cddb5ff8
f 40/164/49 43/163/49 41/162/49 38/161/49
f 39/168/50 40/167/50 38/166/50 37/165/50
f 44/172/51 39/171/51 37/170/51 42/169/51
f 43/176/52 44/175/52 42/174/52 41/173/52
f 42/180/53 37/179/53 38/178/53 41/177/53
f 43/184/54 40/183/54 39/182/54 44/181/54
o foot_b
v 0.56875 0.075 0.6625
v 0.56875 0.075 0.3375
v 0.56875 0 0.6625
v 0.56875 0 0.3375
v 0.43125 0.075 0.3375
v 0.43125 0.075 0.6625
v 0.43125 0 0.3375
v 0.43125 0 0.6625
vt 0 1
vt 0.13749999999999996 1
vt 0.13749999999999996 0.925
vt 0 0.925
vt 0 1
vt 0.32499999999999996 1
vt 0.32499999999999996 0.925
vt 0 0.925
vt 0 1
vt 0.13749999999999996 1
vt 0.13749999999999996 0.925
vt 0 0.925
vt 0 1
vt 0.32499999999999996 1
vt 0.32499999999999996 0.925
vt 0 0.925
vt 0 1
vt 0.13749999999999996 1
vt 0.13749999999999996 0.675
vt 0 0.675
vt 0 1
vt 0.13749999999999996 1
vt 0.13749999999999996 0.675
vt 0 0.675
vn 0 0 -1
vn 1 0 0
vn 0 0 1
vn -1 0 0
vn 0 1 0
vn 0 -1 0
usemtl m_60a6a32d-6172-c151-8068-2833cddb5ff8
f 48/188/55 51/187/55 49/186/55 46/185/55
f 47/192/56 48/191/56 46/190/56 45/189/56
f 52/196/57 47/195/57 45/194/57 50/193/57
f 51/200/58 52/199/58 50/198/58 49/197/58
f 50/204/59 45/203/59 46/202/59 49/201/59
f 51/208/60 48/207/60 47/206/60 52/205/60
o brace
v 0.5079891354417053 0.6694189182780463 0.525
v 0.5079891354417053 0.6694189182780463 0.475
v 0.5507416533574139 0.5519573406798078 0.525
v 0.5507416533574139 0.5519573406798078 0.475
v 0.44925834664258607 0.6480426593201921 0.475
v 0.44925834664258607 0.6480426593201921 0.525
v 0.4920108645582947 0.5305810817219536 0.475
v 0.4920108645582947 0.5305810817219536 0.525
vt 0 1
vt 0.0625 1
vt 0.0625 0.875
vt 0 0.875
vt 0 1
vt 0.050000000000000044 1
vt 0.050000000000000044 0.875
vt 0 0.875
vt 0 1
vt 0.0625 1
vt 0.0625 0.875
vt 0 0.875
vt 0 1
vt 0.050000000000000044 1
vt 0.050000000000000044 0.875
vt 0 0.875
vt 0 1
vt 0.0625 1
vt 0.0625 0.95
vt 0 0.95
vt 0 1
vt 0.0625 1
vt 0.0625 0.95
vt 0 0.95
vn 0 0 -1
vn 0.9396926207859084 0.34202014332566866 0
vn 0 0 1
vn -0.9396926207859084 -0.34202014332566866 0
vn -0.34202014332566866 0.9396926207859084 0
vn 0.34202014332566866 -0.9396926207859084 0
usemtl m_60a6a32d-6172-c151-8068-2833cddb5ff8
f 56/212/61 59/211/61 57/210/61 54/209/61
f 55/216/62 56/215/62 54/214/62 53/213/62
f 60/220/63 55/219/63 53/218/63 58/217/63
f 59/224/64 60/223/64 58/222/64 57/221/64
f 58/228/65 53/227/65 54/226/65 57/225/65
f 59/232/66 56/231/66 55/230/66 60/229/66