# Made in Blockbench 5.1.5
mtllib materials.mtl

o hub
v 0.5 0.5 0.55625
v 0.5 0.5 0.44375
v 0.575 0.5 0.55625
v 0.575 0.5 0.44375
v 0.5530330085889911 0.44696699141100893 0.55625
v 0.5530330085889911 0.44696699141100893 0.44375000000000003
v 0.5 0.42500000000000004 0.55625
v 0.5 0.425 0.44375000000000003
v 0.44696699141100893 0.44696699141100893 0.55625
v 0.44696699141100893 0.44696699141100893 0.44375000000000003
v 0.425 0.5 0.55625
v 0.425 0.5 0.44375
v 0.44696699141100893 0.5530330085889911 0.55625
v 0.44696699141100893 0.5530330085889911 0.44375
v 0.5 0.575 0.55625
v 0.5 0.575 0.44375
v 0.5530330085889911 0.5530330085889911 0.55625
v 0.5530330085889911 0.5530330085889911 0.44375
vt 0 1
vt 0 1
vt 0 1
vt 0 1
vt 0 1
vt 0 1
vt 0 1
vt 0 1
vt 0 1
vt 0 1
vt 0 1
vt 0 1
vt 0 1
vt 0 1
vt 0 1
vt 0 1
vt 0 1
vt 0 1
vt 0 1
vt 0 1
vt 0 1
vt 0 1
vt 0 1
vt 0 1
vt 0 1
vt 0 1
vt 0 1
vt 0 1
vt 0 1
vt 0 1
vt 0 1
vt 0 1
vt 0 1
vt 0 1
vt 0 1
vt 0 1
vt 0 1
vt 0 1
vt 0 1
vt 0 1
vt 0 1
vt 0 1
vt 0 1
vt 0 1
vt 0 1
vt 0 1
vt 0 1
vt 0 1
vt 0 1
vt 0 1
vt 0 1
vt 0 1
vt 0 1
vt 0 1
vt 0 1
vt 0 1
vt 0 1
vt 0 1
vt 0 1
vt 0 1
vt 0 1
vt 0 1
vt 0 1
vt 0 1
vt 0 1
vt 0 1
vt 0 1
vt 0 1
vt 0 1
vt 0 1
vt 0 1
vt 0 1
vt 0 1
vt 0 1
vt 0 1
vt 0 1
vt 0 1
vt 0 1
vt 0 1
vt 0 1
vn -0.9238795325112867 0.3826834323650898 -8.49727915508613e-17
vn 0 -2.220446049250313e-16 -1
vn 0 2.220446049250313e-16 1
vn -0.38268343236508995 0.9238795325112868 -2.051424657947913e-16
vn 0 -2.220446049250313e-16 -1
vn 0 2.220446049250313e-16 1
vn 0.3826834323650898 0.9238795325112867 -2.0514246579479128e-16
vn 0 -2.220446049250313e-16 -1
vn 0 2.220446049250313e-16 1
vn 0.9238795325112868 0.38268343236508995 -8.497279155086134e-17
vn 0 -2.220446049250313e-16 -1
vn 0 2.220446049250313e-16 1
vn 0.923879532511287 -0.3826834323650896 8.497279155086126e-17
vn 0 -2.220446049250313e-16 -1
vn 0 2.220446049250313e-16 1
vn 0.38268343236508995 -0.9238795325112868 2.051424657947913e-16
vn 0 -2.220446049250313e-16 -1
vn 0 2.220446049250313e-16 1
vn -0.3826834323650896 -0.923879532511287 2.0514246579479133e-16
vn 0 -2.220446049250313e-16 -1
vn 0 2.220446049250313e-16 1
vn -0.9238795325112868 -0.38268343236508995 8.497279155086134e-17
vn 0 -2.220446049250313e-16 -1
vn 0 2.220446049250313e-16 1
usemtl none
f 4/1/1 6/2/1 5/3/1 3/4/1
f 3/5/2 5/6/2 1/7/2
f 6/8/3 4/9/3 2/10/3
f 6/11/4 8/12/4 7/13/4 5/14/4
f 5/15/5 7/16/5 1/17/5
f 8/18/6 6/19/6 2/20/6
f 8/21/7 10/22/7 9/23/7 7/24/7
f 7/25/8 9/26/8 1/27/8
f 10/28/9 8/29/9 2/30/9
f 10/31/10 12/32/10 11/33/10 9/34/10
f 9/35/11 11/36/11 1/37/11
f 12/38/12 10/39/12 2/40/12
f 12/41/13 14/42/13 13/43/13 11/44/13
f 11/45/14 13/46/14 1/47/14
f 14/48/15 12/49/15 2/50/15
f 14/51/16 16/52/16 15/53/16 13/54/16
f 13/55/17 15/56/17 1/57/17
f 16/58/18 14/59/18 2/60/18
f 16/61/19 18/62/19 17/63/19 15/64/19
f 15/65/20 17/66/20 1/67/20
f 18/68/21 16/69/21 2/70/21
f 18/71/22 4/72/22 3/73/22 17/74/22
f 17/75/23 3/76/23 1/77/23
f 4/78/24 18/79/24 2/80/24
o arm_0
v 0.7874999999999999 0.525 0.51875
v 0.7874999999999999 0.525 0.48124999999999996
v 0.7874999999999999 0.475 0.51875
v 0.7874999999999999 0.475 0.48124999999999996
v 0.55 0.525 0.48124999999999996
v 0.55 0.525 0.51875
v 0.55 0.475 0.48124999999999996
v 0.55 0.475 0.51875
vt 0 1
vt 0.23749999999999993 1
vt 0.23749999999999993 0.95
vt 0 0.95
vt 0 1
vt 0.03750000000000003 1
vt 0.03750000000000003 0.95
vt 0 0.95
vt 0 1
vt 0.23749999999999993 1
vt 0.23749999999999993 0.95
vt 0 0.95
vt 0 1
vt 0.03750000000000003 1
vt 0.03750000000000003 0.95
vt 0 0.95
vt 0 1
vt 0.23749999999999993 1
vt 0.23749999999999993 0.9624999999999999
vt 0 0.9624999999999999
vt 0 1
vt 0.23749999999999993 1
vt 0.23749999999999993 0.9624999999999999
vt 0 0.9624999999999999
vn 0 0 -1
vn 1 0 0
vn 0 0 1
vn -1 0 0
vn 0 1 0
vn 0 -1 0
usemtl m_11612f29-da54-b674-4379-5efe955cafa8
f 22/84/25 25/83/25 23/82/25 20/81/25
f 21/88/26 22/87/26 20/86/26 19/85/26
f 26/92/27 21/91/27 19/90/27 24/89/27
f 25/96/28 26/95/28 24/94/28 23/93/28
f 24/100/29 19/99/29 20/98/29 23/97/29
f 25/104/30 22/103/30 21/102/30 26/101/30
o arm_1
v 0.47500000000000003 0.7874999999999999 0.51875
v 0.47500000000000003 0.7874999999999999 0.48124999999999996
v 0.5250000000000001 0.7874999999999999 0.51875
v 0.5250000000000001 0.7874999999999999 0.48124999999999996
v 0.475 0.55 0.48124999999999996
v 0.475 0.55 0.51875
v 0.525 0.55 0.48124999999999996
v 0.525 0.55 0.51875
vt 0 1
vt 0.23749999999999993 1
vt 0.23749999999999993 0.95
vt 0 0.95
vt 0 1
vt 0.03750000000000003 1
vt 0.03750000000000003 0.95
vt 0 0.95
vt 0 1
vt 0.23749999999999993 1
vt 0.23749999999999993 0.95
vt 0 0.95
vt 0 1
vt 0.03750000000000003 1
vt 0.03750000000000003 0.95
vt 0 0.95
vt 0 1
vt 0.23749999999999993 1
vt 0.23749999999999993 0.9624999999999999
vt 0 0.9624999999999999
vt 0 1
vt 0.23749999999999993 1
vt 0.23749999999999993 0.9624999999999999
vt 0 0.9624999999999999
vn 0 0 -1
vn 2.220446049250313e-16 1 0
vn 0 0 1
vn -2.220446049250313e-16 -1 0
vn -1 2.220446049250313e-16 0
vn 1 -2.220446049250313e-16 0
usemtl m_11612f29-da54-b674-4379-5efe955cafa8
f 30/108/31 33/107/31 31/106/31 28/105/31
f 29/112/32 30/111/32 28/110/32 27/109/32
f 34/116/33 29/115/33 27/114/33 32/113/33
f 33/120/34 34/119/34 32/118/34 31/117/34
f 32/124/35 27/123/35 28/122/35 31/121/35
f 33/128/36 30/127/36 29/126/36 34/125/36
o arm_2
v 0.21250000000000013 0.47500000000000003 0.51875
v 0.21250000000000013 0.47500000000000003 0.48124999999999996
v 0.21250000000000013 0.525 0.51875
v 0.21250000000000013 0.525 0.48124999999999996
v 0.44999999999999996 0.475 0.48124999999999996
v 0.44999999999999996 0.475 0.51875
v 0.44999999999999996 0.525 0.48124999999999996
v 0.44999999999999996 0.525 0.51875
vt 0 1
vt 0.23749999999999993 1
vt 0.23749999999999993 0.95
vt 0 0.95
vt 0 1
vt 0.03750000000000003 1
vt 0.03750000000000003 0.95
vt 0 0.95
vt 0 1
vt 0.23749999999999993 1
vt 0.23749999999999993 0.95
vt 0 0.95
vt 0 1
vt 0.03750000000000003 1
vt 0.03750000000000003 0.95
vt 0 0.95
vt 0 1
vt 0.23749999999999993 1
vt 0.23749999999999993 0.9624999999999999
vt 0 0.9624999999999999
vt 0 1
vt 0.23749999999999993 1
vt 0.23749999999999993 0.9624999999999999
vt 0 0.9624999999999999
vn 0 0 -1
vn -1 1.2246467991473532e-16 0
vn 0 0 1
vn 1 -1.2246467991473532e-16 0
vn -1.2246467991473532e-16 -1 0
vn 1.2246467991473532e-16 1 0
usemtl m_11612f29-da54-b674-4379-5efe955cafa8
f 38/132/37 41/131/37 39/130/37 36/129/37
f 37/136/38 38/135/38 36/134/38 35/133/38
f 42/140/39 37/139/39 35/138/39 40/137/39
f 41/144/40 42/143/40 40/142/40 39/141/40
f 40/148/41 35/147/41 36/146/41 39/145/41
f 41/152/42 38/151/42 37/150/42 42/149/42
o arm_3
v 0.5249999999999999 0.21250000000000013 0.51875
v 0.5249999999999999 0.21250000000000013 0.48124999999999996
v 0.4749999999999999 0.21250000000000013 0.51875
v 0.4749999999999999 0.21250000000000013 0.48124999999999996
v 0.525 0.44999999999999996 0.48124999999999996
v 0.525 0.44999999999999996 0.51875
v 0.475 0.44999999999999996 0.48124999999999996
v 0.475 0.44999999999999996 0.51875
vt 0 1
vt 0.23749999999999993 1
vt 0.23749999999999993 0.95
vt 0 0.95
vt 0 1
vt 0.03750000000000003 1
vt 0.03750000000000003 0.95
vt 0 0.95
vt 0 1
vt 0.23749999999999993 1
vt 0.23749999999999993 0.95
vt 0 0.95
vt 0 1
vt 0.03750000000000003 1
vt 0.03750000000000003 0.95
vt 0 0.95
vt 0 1
vt 0.23749999999999993 1
vt 0.23749999999999993 0.9624999999999999
vt 0 0.9624999999999999
vt 0 1
vt 0.23749999999999993 1
vt 0.23749999999999993 0.9624999999999999
vt 0 0.9624999999999999
vn 0 0 -1
vn -2.220446049250313e-16 -1 0
vn 0 0 1
vn 2.220446049250313e-16 1 0
vn 1 -2.220446049250313e-16 0
vn -1 2.220446049250313e-16 0
usemtl m_11612f29-da54-b674-4379-5efe955cafa8
f 46/156/43 49/155/43 47/154/43 44/153/43
f 45/160/44 46/159/44 44/158/44 43/157/44
f 50/164/45 45/163/45 43/162/45 48/161/45
f 49/168/46 50/167/46 48/166/46 47/165/46
f 48/172/47 43/171/47 44/170/47 47/169/47
f 49/176/48 46/175/48 45/174/48 50/173/48
o cup_0
v 0.8625 0.55625 0.5375
v 0.8625 0.55625 0.4625
v 0.8625 0.44375 0.5375
v 0.8625 0.44375 0.4625
v 0.75 0.55625 0.4625
v 0.75 0.55625 0.5375
v 0.75 0.44375 0.4625
v 0.75 0.44375 0.5375
vt 0 1
vt 0.11250000000000004 1
vt 0.11250000000000004 0.8875
vt 0 0.8875
vt 0 1
vt 0.07499999999999996 1
vt 0.07499999999999996 0.8875
vt 0 0.8875
vt 0 1
vt 0.11250000000000004 1
vt 0.11250000000000004 0.8875
vt 0 0.8875
vt 0 1
vt 0.07499999999999996 1
vt 0.07499999999999996 0.8875
vt 0 0.8875
vt 0 1
vt 0.11250000000000004 1
vt 0.11250000000000004 0.925
vt 0 0.925
vt 0 1
vt 0.11250000000000004 1
vt 0.11250000000000004 0.925
vt 0 0.925
vn 0 0 -1
vn 1 0 0
vn 0 0 1
vn -1 0 0
vn 0 1 0
vn 0 -1 0
usemtl m_11612f29-da54-b674-4379-5efe955cafa8
f 54/180/49 57/179/49 55/178/49 52/177/49
f 53/184/50 54/183/50 52/182/50 51/181/50
f 58/188/51 53/187/51 51/186/51 56/185/51
f 57/192/52 58/191/52 56/190/52 55/189/52
f 56/196/53 51/195/53 52/194/53 55/193/53
f 57/200/54 54/199/54 53/198/54 58/197/54
o cup_1
v 0.4437500000000001 0.8625 0.5375
v 0.4437500000000001 0.8625 0.4625
v 0.5562500000000001 0.8625 0.5375
v 0.5562500000000001 0.8625 0.4625
v 0.44375000000000003 0.75 0.4625
v 0.44375000000000003 0.75 0.5375
v 0.5562500000000001 0.75 0.4625
v 0.5562500000000001 0.75 0.5375
vt 0 1
vt 0.11250000000000004 1
vt 0.11250000000000004 0.8875
vt 0 0.8875
vt 0 1
vt 0.07499999999999996 1
vt 0.07499999999999996 0.8875
vt 0 0.8875
vt 0 1
vt 0.11250000000000004 1
vt 0.11250000000000004 0.8875
vt 0 0.8875
vt 0 1
vt 0.07499999999999996 1
vt 0.07499999999999996 0.8875
vt 0 0.8875
vt 0 1
vt 0.11250000000000004 1
vt 0.11250000000000004 0.925
vt 0 0.925
vt 0 1
vt 0.11250000000000004 1
vt 0.11250000000000004 0.925
vt 0 0.925
vn 0 0 -1
vn 2.220446049250313e-16 1 0
vn 0 0 1
vn -2.220446049250313e-16 -1 0
vn -1 2.220446049250313e-16 0
vn 1 -2.220446049250313e-16 0
usemtl m_11612f29-da54-b674-4379-5efe955cafa8
f 62/204/55 65/203/55 63/202/55 60/201/55
f 61/208/56 62/207/56 60/206/56 59/205/56
f 66/212/57 61/211/57 59/210/57 64/209/57
f 65/216/58 66/215/58 64/214/58 63/213/58
f 64/220/59 59/219/59 60/218/59 63/217/59
f 65/224/60 62/223/60 61/222/60 66/221/60
o cup_2
v 0.13749999999999996 0.44375000000000003 0.5375
v 0.13749999999999996 0.44375000000000003 0.4625
v 0.13749999999999996 0.55625 0.5375
v 0.13749999999999996 0.55625 0.4625
v 0.25 0.44375 0.4625
v 0.25 0.44375 0.5375
v 0.25 0.55625 0.4625
v 0.25 0.55625 0.5375
vt 0 1
vt 0.11250000000000004 1
vt 0.11250000000000004 0.8875
vt 0 0.8875
vt 0 1
vt 0.07499999999999996 1
vt 0.07499999999999996 0.8875
vt 0 0.8875
vt 0 1
vt 0.11250000000000004 1
vt 0.11250000000000004 0.8875
vt 0 0.8875
vt 0 1
vt 0.07499999999999996 1
vt 0.07499999999999996 0.8875
vt 0 0.8875
vt 0 1
vt 0.11250000000000004 1
vt 0.11250000000000004 0.925
vt 0 0.925
vt 0 1
vt 0.11250000000000004 1
vt 0.11250000000000004 0.925
vt 0 0.925
vn 0 0 -1
vn -1 1.2246467991473532e-16 0
vn 0 0 1
vn 1 -1.2246467991473532e-16 0
vn -1.2246467991473532e-16 -1 0
vn 1.2246467991473532e-16 1 0
usemtl m_11612f29-da54-b674-4379-5efe955cafa8
f 70/228/61 73/227/61 71/226/61 68/225/61
f 69/232/62 70/231/62 68/230/62 67/229/62
f 74/236/63 69/235/63 67/234/63 72/233/63
f 73/240/64 74/239/64 72/238/64 71/237/64
f 72/244/65 67/243/65 68/242/65 71/241/65
f 73/248/66 70/247/66 69/246/66 74/245/66
o cup_3
v 0.5562499999999999 0.13749999999999996 0.5375
v 0.5562499999999999 0.13749999999999996 0.4625
v 0.44374999999999987 0.13749999999999996 0.5375
v 0.44374999999999987 0.13749999999999996 0.4625
v 0.5562499999999999 0.25 0.4625
v 0.5562499999999999 0.25 0.5375
v 0.4437499999999999 0.25 0.4625
v 0.4437499999999999 0.25 0.5375
vt 0 1
vt 0.11250000000000004 1
vt 0.11250000000000004 0.8875
vt 0 0.8875
vt 0 1
vt 0.07499999999999996 1
vt 0.07499999999999996 0.8875
vt 0 0.8875
vt 0 1
vt 0.11250000000000004 1
vt 0.11250000000000004 0.8875
vt 0 0.8875
vt 0 1
vt 0.07499999999999996 1
vt 0.07499999999999996 0.8875
vt 0 0.8875
vt 0 1
vt 0.11250000000000004 1
vt 0.11250000000000004 0.925
vt 0 0.925
vt 0 1
vt 0.11250000000000004 1
vt 0.11250000000000004 0.925
vt 0 0.925
vn 0 0 -1
vn -2.220446049250313e-16 -1 0
vn 0 0 1
vn 2.220446049250313e-16 1 0
vn 1 -2.220446049250313e-16 0
vn -1 2.220446049250313e-16 0
usemtl m_11612f29-da54-b674-4379-5efe955cafa8
f 78/252/67 81/251/67 79/250/67 76/249/67
f 77/256/68 78/255/68 76/254/68 75/253/68
f 82/260/69 77/259/69 75/258/69 80/257/69
f 81/264/70 82/263/70 80/262/70 79/261/70
f 80/268/71 75/267/71 76/266/71 79/265/71
f 81/272/72 78/271/72 77/270/72 82/269/72