# Made in Blockbench 5.1.5
mtllib materials.mtl

o tube
v 0.1875 0.5000000000000001 0.5
v 0.8125 0.49999999999999994 0.5
v 0.1875 0.5687500000000001 0.5
v 0.8125 0.56875 0.5
v 0.1875 0.5526655554644299 0.5441916481659496
v 0.8125 0.5526655554644296 0.5441916481659496
v 0.1875 0.5119383122146015 0.5677055330195893
v 0.8125 0.5119383122146014 0.5677055330195893
v 0.1875 0.46562500000000007 0.5595392465101802
v 0.8125 0.46562499999999996 0.5595392465101802
v 0.1875 0.43539613232096885 0.5235138848536397
v 0.8125 0.43539613232096874 0.5235138848536397
v 0.1875 0.43539613232096885 0.4764861151463603
v 0.8125 0.43539613232096874 0.4764861151463603
v 0.1875 0.46562500000000007 0.44046075348981983
v 0.8125 0.4656249999999999 0.44046075348981983
v 0.1875 0.5119383122146015 0.4322944669804107
v 0.8125 0.5119383122146014 0.4322944669804107
v 0.1875 0.5526655554644297 0.4558083518340504
v 0.8125 0.5526655554644296 0.4558083518340504
vt 0 1
vt 0 1
vt 0 1
vt 0 1
vt 0 1
vt 0 1
vt 0 1
vt 0 1
vt 0 1
vt 0 1
vt 0 1
vt 0 1
vt 0 1
vt 0 1
vt 0 1
vt 0 1
vt 0 1
vt 0 1
vt 0 1
vt 0 1
vt 0 1
vt 0 1
vt 0 1
vt 0 1
vt 0 1
vt 0 1
vt 0 1
vt 0 1
vt 0 1
vt 0 1
vt 0 1
vt 0 1
vt 0 1
vt 0 1
vt 0 1
vt 0 1
vt 0 1
vt 0 1
vt 0 1
vt 0 1
vt 0 1
vt 0 1
vt 0 1
vt 0 1
vt 0 1
vt 0 1
vt 0 1
vt 0 1
vt 0 1
vt 0 1
vt 0 1
vt 0 1
vt 0 1
vt 0 1
vt 0 1
vt 0 1
vt 0 1
vt 0 1
vt 0 1
vt 0 1
vt 0 1
vt 0 1
vt 0 1
vt 0 1
vt 0 1
vt 0 1
vt 0 1
vt 0 1
vt 0 1
vt 0 1
vt 0 1
vt 0 1
vt 0 1
vt 0 1
vt 0 1
vt 0 1
vt 0 1
vt 0 1
vt 0 1
vt 0 1
vt 0 1
vt 0 1
vt 0 1
vt 0 1
vt 0 1
vt 0 1
vt 0 1
vt 0 1
vt 0 1
vt 0 1
vn -2.086536767333743e-16 -0.9396926207859084 -0.34202014332566877
vn 1 -2.220446049250313e-16 0
vn -1 2.220446049250313e-16 0
vn -1.1102230246251568e-16 -0.5000000000000001 -0.8660254037844388
vn 1 -2.220446049250313e-16 0
vn -1 2.220446049250313e-16 0
vn 3.855764100600515e-17 0.17364817766693014 -0.9848077530122082
vn 1 -2.220446049250313e-16 0
vn -1 2.220446049250313e-16 0
vn 1.700960357273691e-16 0.766044443118978 -0.6427876096865396
vn 1 -2.220446049250313e-16 0
vn -1 2.220446049250313e-16 0
vn 2.220446049250313e-16 1 -2.950977240510367e-16
vn 1 -2.220446049250313e-16 0
vn -1 2.220446049250313e-16 0
vn 1.7009603572736912e-16 0.7660444431189781 0.6427876096865393
vn 1 -2.220446049250313e-16 0
vn -1 2.220446049250313e-16 0
vn 3.8557641006005295e-17 0.1736481776669308 0.9848077530122081
vn 1 -2.220446049250313e-16 0
vn -1 2.220446049250313e-16 0
vn -1.1102230246251558e-16 -0.49999999999999967 0.8660254037844388
vn 1 -2.220446049250313e-16 0
vn -1 2.220446049250313e-16 0
vn -2.0865367673337428e-16 -0.9396926207859083 0.34202014332566893
vn 1 -2.220446049250313e-16 0
vn -1 2.220446049250313e-16 0
usemtl none
f 4/1/1 6/2/1 5/3/1 3/4/1
f 3/5/2 5/6/2 1/7/2
f 6/8/3 4/9/3 2/10/3
f 6/11/4 8/12/4 7/13/4 5/14/4
f 5/15/5 7/16/5 1/17/5
f 8/18/6 6/19/6 2/20/6
f 8/21/7 10/22/7 9/23/7 7/24/7
f 7/25/8 9/26/8 1/27/8
f 10/28/9 8/29/9 2/30/9
f 10/31/10 12/32/10 11/33/10 9/34/10
f 9/35/11 11/36/11 1/37/11
f 12/38/12 10/39/12 2/40/12
f 12/41/13 14/42/13 13/43/13 11/44/13
f 11/45/14 13/46/14 1/47/14
f 14/48/15 12/49/15 2/50/15
f 14/51/16 16/52/16 15/53/16 13/54/16
f 13/55/17 15/56/17 1/57/17
f 16/58/18 14/59/18 2/60/18
f 16/61/19 18/62/19 17/63/19 15/64/19
f 15/65/20 17/66/20 1/67/20
f 18/68/21 16/69/21 2/70/21
f 18/71/22 20/72/22 19/73/22 17/74/22
f 17/75/23 19/76/23 1/77/23
f 20/78/24 18/79/24 2/80/24
f 20/81/25 4/82/25 3/83/25 19/84/25
f 19/85/26 3/86/26 1/87/26
f 4/88/27 20/89/27 2/90/27
o node_mid
v 0.46875 0.5 0.5
v 0.53125 0.5 0.5
v 0.46875 0.578125 0.5
v 0.53125 0.578125 0.5
v 0.46875 0.5598472221186701 0.5502177820067609
v 0.53125 0.5598472221186701 0.5502177820067609
v 0.46875 0.513566263880229 0.5769381057040788
v 0.53125 0.513566263880229 0.5769381057040788
v 0.46875 0.4609375 0.5676582346706592
v 0.53125 0.4609375 0.5676582346706592
v 0.46875 0.4265865140011009 0.5267203236973179
v 0.53125 0.4265865140011009 0.5267203236973179
v 0.46875 0.4265865140011009 0.47327967630268214
v 0.53125 0.4265865140011009 0.47327967630268214
v 0.46875 0.4609375 0.43234176532934077
v 0.53125 0.46093749999999994 0.43234176532934077
v 0.46875 0.5135662638802289 0.4230618942959212
v 0.53125 0.5135662638802289 0.4230618942959212
v 0.46875 0.5598472221186701 0.4497822179932391
v 0.53125 0.5598472221186701 0.4497822179932391
vt 0 1
vt 0 1
vt 0 1
vt 0 1
vt 0 1
vt 0 1
vt 0 1
vt 0 1
vt 0 1
vt 0 1
vt 0 1
vt 0 1
vt 0 1
vt 0 1
vt 0 1
vt 0 1
vt 0 1
vt 0 1
vt 0 1
vt 0 1
vt 0 1
vt 0 1
vt 0 1
vt 0 1
vt 0 1
vt 0 1
vt 0 1
vt 0 1
vt 0 1
vt 0 1
vt 0 1
vt 0 1
vt 0 1
vt 0 1
vt 0 1
vt 0 1
vt 0 1
vt 0 1
vt 0 1
vt 0 1
vt 0 1
vt 0 1
vt 0 1
vt 0 1
vt 0 1
vt 0 1
vt 0 1
vt 0 1
vt 0 1
vt 0 1
vt 0 1
vt 0 1
vt 0 1
vt 0 1
vt 0 1
vt 0 1
vt 0 1
vt 0 1
vt 0 1
vt 0 1
vt 0 1
vt 0 1
vt 0 1
vt 0 1
vt 0 1
vt 0 1
vt 0 1
vt 0 1
vt 0 1
vt 0 1
vt 0 1
vt 0 1
vt 0 1
vt 0 1
vt 0 1
vt 0 1
vt 0 1
vt 0 1
vt 0 1
vt 0 1
vt 0 1
vt 0 1
vt 0 1
vt 0 1
vt 0 1
vt 0 1
vt 0 1
vt 0 1
vt 0 1
vt 0 1
vn -2.0865367673337432e-16 -0.9396926207859085 -0.3420201433256689
vn 1 -2.220446049250313e-16 0
vn -1 2.220446049250313e-16 0
vn -1.1102230246251568e-16 -0.5000000000000001 -0.8660254037844386
vn 1 -2.220446049250313e-16 0
vn -1 2.220446049250313e-16 0
vn 3.855764100600514e-17 0.1736481776669301 -0.9848077530122081
vn 1 -2.220446049250313e-16 0
vn -1 2.220446049250313e-16 0
vn 1.7009603572736907e-16 0.7660444431189779 -0.6427876096865395
vn 1 -2.220446049250313e-16 0
vn -1 2.220446049250313e-16 0
vn 2.220446049250313e-16 1 -2.596859971649123e-16
vn 1 -2.220446049250313e-16 0
vn -1 2.220446049250313e-16 0
vn 1.7009603572736914e-16 0.7660444431189782 0.6427876096865391
vn 1 -2.220446049250313e-16 0
vn -1 2.220446049250313e-16 0
vn 3.85576410060053e-17 0.17364817766693083 0.984807753012208
vn 1 -2.220446049250313e-16 0
vn -1 2.220446049250313e-16 0
vn -1.1102230246251558e-16 -0.49999999999999967 0.8660254037844388
vn 1 -2.220446049250313e-16 0
vn -1 2.220446049250313e-16 0
vn -2.0865367673337432e-16 -0.9396926207859085 0.34202014332566893
vn 1 -2.220446049250313e-16 0
vn -1 2.220446049250313e-16 0
usemtl none
f 24/91/28 26/92/28 25/93/28 23/94/28
f 23/95/29 25/96/29 21/97/29
f 26/98/30 24/99/30 22/100/30
f 26/101/31 28/102/31 27/103/31 25/104/31
f 25/105/32 27/106/32 21/107/32
f 28/108/33 26/109/33 22/110/33
f 28/111/34 30/112/34 29/113/34 27/114/34
f 27/115/35 29/116/35 21/117/35
f 30/118/36 28/119/36 22/120/36
f 30/121/37 32/122/37 31/123/37 29/124/37
f 29/125/38 31/126/38 21/127/38
f 32/128/39 30/129/39 22/130/39
f 32/131/40 34/132/40 33/133/40 31/134/40
f 31/135/41 33/136/41 21/137/41
f 34/138/42 32/139/42 22/140/42
f 34/141/43 36/142/43 35/143/43 33/144/43
f 33/145/44 35/146/44 21/147/44
f 36/148/45 34/149/45 22/150/45
f 36/151/46 38/152/46 37/153/46 35/154/46
f 35/155/47 37/156/47 21/157/47
f 38/158/48 36/159/48 22/160/48
f 38/161/49 40/162/49 39/163/49 37/164/49
f 37/165/50 39/166/50 21/167/50
f 40/168/51 38/169/51 22/170/51
f 40/171/52 24/172/52 23/173/52 39/174/52
f 39/175/53 23/176/53 21/177/53
f 24/178/54 40/179/54 22/180/54
o band_pivot
v 0.34375 0.5 0.5
v 0.40625 0.5 0.5
v 0.34375 0.578125 0.5
v 0.40625 0.578125 0.5
v 0.34375 0.5598472221186701 0.5502177820067609
v 0.40625 0.5598472221186701 0.5502177820067609
v 0.34375 0.513566263880229 0.5769381057040788
v 0.40625 0.513566263880229 0.5769381057040788
v 0.34375 0.4609375 0.5676582346706592
v 0.40625 0.4609375 0.5676582346706592
v 0.34375 0.4265865140011009 0.5267203236973179
v 0.40625 0.4265865140011009 0.5267203236973179
v 0.34375 0.4265865140011009 0.47327967630268214
v 0.40625 0.4265865140011009 0.47327967630268214
v 0.34375 0.4609375 0.43234176532934077
v 0.40625 0.46093749999999994 0.43234176532934077
v 0.34375 0.5135662638802289 0.4230618942959212
v 0.40625 0.5135662638802289 0.4230618942959212
v 0.34375 0.5598472221186701 0.4497822179932391
v 0.40625 0.5598472221186701 0.4497822179932391
vt 0 1
vt 0 1
vt 0 1
vt 0 1
vt 0 1
vt 0 1
vt 0 1
vt 0 1
vt 0 1
vt 0 1
vt 0 1
vt 0 1
vt 0 1
vt 0 1
vt 0 1
vt 0 1
vt 0 1
vt 0 1
vt 0 1
vt 0 1
vt 0 1
vt 0 1
vt 0 1
vt 0 1
vt 0 1
vt 0 1
vt 0 1
vt 0 1
vt 0 1
vt 0 1
vt 0 1
vt 0 1
vt 0 1
vt 0 1
vt 0 1
vt 0 1
vt 0 1
vt 0 1
vt 0 1
vt 0 1
vt 0 1
vt 0 1
vt 0 1
vt 0 1
vt 0 1
vt 0 1
vt 0 1
vt 0 1
vt 0 1
vt 0 1
vt 0 1
vt 0 1
vt 0 1
vt 0 1
vt 0 1
vt 0 1
vt 0 1
vt 0 1
vt 0 1
vt 0 1
vt 0 1
vt 0 1
vt 0 1
vt 0 1
vt 0 1
vt 0 1
vt 0 1
vt 0 1
vt 0 1
vt 0 1
vt 0 1
vt 0 1
vt 0 1
vt 0 1
vt 0 1
vt 0 1
vt 0 1
vt 0 1
vt 0 1
vt 0 1
vt 0 1
vt 0 1
vt 0 1
vt 0 1
vt 0 1
vt 0 1
vt 0 1
vt 0 1
vt 0 1
vt 0 1
vn -2.0865367673337432e-16 -0.9396926207859085 -0.3420201433256689
vn 1 -2.220446049250313e-16 0
vn -1 2.220446049250313e-16 0
vn -1.1102230246251568e-16 -0.5000000000000001 -0.8660254037844386
vn 1 -2.220446049250313e-16 0
vn -1 2.220446049250313e-16 0
vn 3.855764100600514e-17 0.1736481776669301 -0.9848077530122081
vn 1 -2.220446049250313e-16 0
vn -1 2.220446049250313e-16 0
vn 1.7009603572736907e-16 0.7660444431189779 -0.6427876096865395
vn 1 -2.220446049250313e-16 0
vn -1 2.220446049250313e-16 0
vn 2.220446049250313e-16 1 -2.596859971649123e-16
vn 1 -2.220446049250313e-16 0
vn -1 2.220446049250313e-16 0
vn 1.7009603572736914e-16 0.7660444431189782 0.6427876096865391
vn 1 -2.220446049250313e-16 0
vn -1 2.220446049250313e-16 0
vn 3.85576410060053e-17 0.17364817766693083 0.984807753012208
vn 1 -2.220446049250313e-16 0
vn -1 2.220446049250313e-16 0
vn -1.1102230246251558e-16 -0.49999999999999967 0.8660254037844388
vn 1 -2.220446049250313e-16 0
vn -1 2.220446049250313e-16 0
vn -2.0865367673337432e-16 -0.9396926207859085 0.34202014332566893
vn 1 -2.220446049250313e-16 0
vn -1 2.220446049250313e-16 0
usemtl none
f 44/181/55 46/182/55 45/183/55 43/184/55
f 43/185/56 45/186/56 41/187/56
f 46/188/57 44/189/57 42/190/57
f 46/191/58 48/192/58 47/193/58 45/194/58
f 45/195/59 47/196/59 41/197/59
f 48/198/60 46/199/60 42/200/60
f 48/201/61 50/202/61 49/203/61 47/204/61
f 47/205/62 49/206/62 41/207/62
f 50/208/63 48/209/63 42/210/63
f 50/211/64 52/212/64 51/213/64 49/214/64
f 49/215/65 51/216/65 41/217/65
f 52/218/66 50/219/66 42/220/66
f 52/221/67 54/222/67 53/223/67 51/224/67
f 51/225/68 53/226/68 41/227/68
f 54/228/69 52/229/69 42/230/69
f 54/231/70 56/232/70 55/233/70 53/234/70
f 53/235/71 55/236/71 41/237/71
f 56/238/72 54/239/72 42/240/72
f 56/241/73 58/242/73 57/243/73 55/244/73
f 55/245/74 57/246/74 41/247/74
f 58/248/75 56/249/75 42/250/75
f 58/251/76 60/252/76 59/253/76 57/254/76
f 57/255/77 59/256/77 41/257/77
f 60/258/78 58/259/78 42/260/78
f 60/261/79 44/262/79 43/263/79 59/264/79
f 59/265/80 43/266/80 41/267/80
f 44/268/81 60/269/81 42/270/81
o mouth
v 0.7875 0.5 0.5
v 0.8624999999999999 0.5 0.5
v 0.7875 0.575 0.5
v 0.8624999999999999 0.575 0.5
v 0.7875 0.5574533332339233 0.5482090707264904
v 0.8624999999999999 0.5574533332339233 0.5482090707264904
v 0.7875 0.5130236133250198 0.5738605814759156
v 0.8624999999999999 0.5130236133250198 0.5738605814759156
v 0.7875 0.4625 0.5649519052838329
v 0.8624999999999999 0.4625 0.5649519052838329
v 0.7875 0.4295230534410569 0.5256515107494252
v 0.8624999999999999 0.42952305344105685 0.5256515107494252
v 0.7875 0.4295230534410569 0.4743484892505748
v 0.8624999999999999 0.42952305344105685 0.4743484892505748
v 0.7875 0.46249999999999997 0.4350480947161671
v 0.8624999999999999 0.46249999999999997 0.4350480947161671
v 0.7875 0.5130236133250198 0.4261394185240844
v 0.8624999999999999 0.5130236133250198 0.4261394185240844
v 0.7875 0.5574533332339233 0.45179092927350956
v 0.8624999999999999 0.5574533332339233 0.45179092927350956
vt 0 1
vt 0 1
vt 0 1
vt 0 1
vt 0 1
vt 0 1
vt 0 1
vt 0 1
vt 0 1
vt 0 1
vt 0 1
vt 0 1
vt 0 1
vt 0 1
vt 0 1
vt 0 1
vt 0 1
vt 0 1
vt 0 1
vt 0 1
vt 0 1
vt 0 1
vt 0 1
vt 0 1
vt 0 1
vt 0 1
vt 0 1
vt 0 1
vt 0 1
vt 0 1
vt 0 1
vt 0 1
vt 0 1
vt 0 1
vt 0 1
vt 0 1
vt 0 1
vt 0 1
vt 0 1
vt 0 1
vt 0 1
vt 0 1
vt 0 1
vt 0 1
vt 0 1
vt 0 1
vt 0 1
vt 0 1
vt 0 1
vt 0 1
vt 0 1
vt 0 1
vt 0 1
vt 0 1
vt 0 1
vt 0 1
vt 0 1
vt 0 1
vt 0 1
vt 0 1
vt 0 1
vt 0 1
vt 0 1
vt 0 1
vt 0 1
vt 0 1
vt 0 1
vt 0 1
vt 0 1
vt 0 1
vt 0 1
vt 0 1
vt 0 1
vt 0 1
vt 0 1
vt 0 1
vt 0 1
vt 0 1
vt 0 1
vt 0 1
vt 0 1
vt 0 1
vt 0 1
vt 0 1
vt 0 1
vt 0 1
vt 0 1
vt 0 1
vt 0 1
vt 0 1
vn -2.086536767333743e-16 -0.9396926207859084 -0.3420201433256688
vn 1 -2.220446049250313e-16 0
vn -1 2.220446049250313e-16 0
vn -1.1102230246251565e-16 -0.5 -0.8660254037844388
vn 1 -2.220446049250313e-16 0
vn -1 2.220446049250313e-16 0
vn 3.8557641006005135e-17 0.17364817766693008 -0.9848077530122082
vn 1 -2.220446049250313e-16 0
vn -1 2.220446049250313e-16 0
vn 1.7009603572736907e-16 0.7660444431189779 -0.6427876096865395
vn 1 -2.220446049250313e-16 0
vn -1 2.220446049250313e-16 0
vn 2.220446049250313e-16 1 0
vn 1 -2.220446049250313e-16 0
vn -1 2.220446049250313e-16 0
vn 1.7009603572736917e-16 0.7660444431189783 0.6427876096865391
vn 1 -2.220446049250313e-16 0
vn -1 2.220446049250313e-16 0
vn 3.855764100600529e-17 0.17364817766693078 0.9848077530122081
vn 1 -2.220446049250313e-16 0
vn -1 2.220446049250313e-16 0
vn -1.110223024625156e-16 -0.4999999999999998 0.8660254037844388
vn 1 -2.220446049250313e-16 0
vn -1 2.220446049250313e-16 0
vn -2.0865367673337432e-16 -0.9396926207859085 0.34202014332566893
vn 1 -2.220446049250313e-16 0
vn -1 2.220446049250313e-16 0
usemtl none
f 64/271/82 66/272/82 65/273/82 63/274/82
f 63/275/83 65/276/83 61/277/83
f 66/278/84 64/279/84 62/280/84
f 66/281/85 68/282/85 67/283/85 65/284/85
f 65/285/86 67/286/86 61/287/86
f 68/288/87 66/289/87 62/290/87
f 68/291/88 70/292/88 69/293/88 67/294/88
f 67/295/89 69/296/89 61/297/89
f 70/298/90 68/299/90 62/300/90
f 70/301/91 72/302/91 71/303/91 69/304/91
f 69/305/92 71/306/92 61/307/92
f 72/308/93 70/309/93 62/310/93
f 72/311/94 74/312/94 73/313/94 71/314/94
f 71/315/95 73/316/95 61/317/95
f 74/318/96 72/319/96 62/320/96
f 74/321/97 76/322/97 75/323/97 73/324/97
f 73/325/98 75/326/98 61/327/98
f 76/328/99 74/329/99 62/330/99
f 76/331/100 78/332/100 77/333/100 75/334/100
f 75/335/101 77/336/101 61/337/101
f 78/338/102 76/339/102 62/340/102
f 78/341/103 80/342/103 79/343/103 77/344/103
f 77/345/104 79/346/104 61/347/104
f 80/348/105 78/349/105 62/350/105
f 80/351/106 64/352/106 63/353/106 79/354/106
f 79/355/107 63/356/107 61/357/107
f 64/358/108 80/359/108 62/360/108