# Made in Blockbench 5.1.5
mtllib materials.mtl

o rock_main
v 0.813306169573583 0.2125 0.7084245825403742
v 0.7480687784985524 0.2125 0.24423642531776307
v 0.813306169573583 0 0.7084245825403742
v 0.7480687784985524 0 0.24423642531776307
v 0.2529347441277672 0.2125 0.3138229757977958
v 0.31817213520279786 0.2125 0.7780111330204069
v 0.2529347441277672 0 0.3138229757977958
v 0.31817213520279786 0 0.7780111330204069
vt 0 1
vt 0.5 1
vt 0.5 0.7875
vt 0 0.7875
vt 0 1
vt 0.46875 1
vt 0.46875 0.7875
vt 0 0.7875
vt 0 1
vt 0.5 1
vt 0.5 0.7875
vt 0 0.7875
vt 0 1
vt 0.46875 1
vt 0.46875 0.7875
vt 0 0.7875
vt 0 1
vt 0.5 1
vt 0.5 0.53125
vt 0 0.53125
vt 0 1
vt 0.5 1
vt 0.5 0.53125
vt 0 0.53125
vn -0.13917310096006544 0 -0.9902680687415704
vn 0.9902680687415704 0 -0.13917310096006544
vn 0.13917310096006544 0 0.9902680687415704
vn -0.9902680687415704 0 0.13917310096006544
vn 0 1 0
vn 0 -1 0
usemtl m_cfe1bfcb-ddb6-65cd-39e4-8278d1f99183
f 4/4/1 7/3/1 5/2/1 2/1/1
f 3/8/2 4/7/2 2/6/2 1/5/2
f 8/12/3 3/11/3 1/10/3 6/9/3
f 7/16/4 8/15/4 6/14/4 5/13/4
f 6/20/5 1/19/5 2/18/5 5/17/5
f 7/24/6 4/23/6 3/22/6 8/21/6
o rock_side
v 0.8775294887395058 0.1375 0.8357574114439457
v 0.9230101711058907 0.1375 0.6217876237834257
v 0.8775294887395058 0 0.8357574114439457
v 0.9230101711058907 0 0.6217876237834257
v 0.6784732709224393 0.1375 0.5698097010789858
v 0.6329925885560543 0.1375 0.7837794887395058
v 0.6784732709224393 0 0.5698097010789858
v 0.6329925885560543 0 0.7837794887395058
vt 0 1
vt 0.25 1
vt 0.25 0.8625
vt 0 0.8625
vt 0 1
vt 0.21875 1
vt 0.21875 0.8625
vt 0 0.8625
vt 0 1
vt 0.25 1
vt 0.25 0.8625
vt 0 0.8625
vt 0 1
vt 0.21875 1
vt 0.21875 0.8625
vt 0 0.8625
vt 0 1
vt 0.25 1
vt 0.25 0.78125
vt 0 0.78125
vt 0 1
vt 0.25 1
vt 0.25 0.78125
vt 0 0.78125
vn 0.2079116908177593 0 -0.9781476007338057
vn 0.9781476007338057 0 0.2079116908177593
vn -0.2079116908177593 0 0.9781476007338057
vn -0.9781476007338057 0 -0.2079116908177593
vn 0 1 0
vn 0 -1 0
usemtl m_cfe1bfcb-ddb6-65cd-39e4-8278d1f99183
f 12/28/7 15/27/7 13/26/7 10/25/7
f 11/32/8 12/31/8 10/30/8 9/29/8
f 16/36/9 11/35/9 9/34/9 14/33/9
f 15/40/10 16/39/10 14/38/10 13/37/10
f 14/44/11 9/43/11 10/42/11 13/41/11
f 15/48/12 12/47/12 11/46/12 16/45/12
o fork_a
v 0.35 0.78125 0.4625
v 0.35 0.78125 0.4125
v 0.35 0.59375 0.4625
v 0.35 0.59375 0.4125
v 0.2875 0.78125 0.4125
v 0.2875 0.78125 0.4625
v 0.2875 0.59375 0.4125
v 0.2875 0.59375 0.4625
vt 0 1
vt 0.0625 1
vt 0.0625 0.8125
vt 0 0.8125
vt 0 1
vt 0.050000000000000044 1
vt 0.050000000000000044 0.8125
vt 0 0.8125
vt 0 1
vt 0.0625 1
vt 0.0625 0.8125
vt 0 0.8125
vt 0 1
vt 0.050000000000000044 1
vt 0.050000000000000044 0.8125
vt 0 0.8125
vt 0 1
vt 0.0625 1
vt 0.0625 0.95
vt 0 0.95
vt 0 1
vt 0.0625 1
vt 0.0625 0.95
vt 0 0.95
vn 0 0 -1
vn 1 0 0
vn 0 0 1
vn -1 0 0
vn 0 1 0
vn 0 -1 0
usemtl m_cfe1bfcb-ddb6-65cd-39e4-8278d1f99183
f 20/52/13 23/51/13 21/50/13 18/49/13
f 19/56/14 20/55/14 18/54/14 17/53/14
f 24/60/15 19/59/15 17/58/15 22/57/15
f 23/64/16 24/63/16 22/62/16 21/61/16
f 22/68/17 17/67/17 18/66/17 21/65/17
f 23/72/18 20/71/18 19/70/18 24/69/18
o fork_b
v 0.35 0.78125 0.5875
v 0.35 0.78125 0.5375
v 0.35 0.59375 0.5875
v 0.35 0.59375 0.5375
v 0.2875 0.78125 0.5375
v 0.2875 0.78125 0.5875
v 0.2875 0.59375 0.5375
v 0.2875 0.59375 0.5875
vt 0 1
vt 0.0625 1
vt 0.0625 0.8125
vt 0 0.8125
vt 0 1
vt 0.050000000000000044 1
vt 0.050000000000000044 0.8125
vt 0 0.8125
vt 0 1
vt 0.0625 1
vt 0.0625 0.8125
vt 0 0.8125
vt 0 1
vt 0.050000000000000044 1
vt 0.050000000000000044 0.8125
vt 0 0.8125
vt 0 1
vt 0.0625 1
vt 0.0625 0.95
vt 0 0.95
vt 0 1
vt 0.0625 1
vt 0.0625 0.95
vt 0 0.95
vn 0 0 -1
vn 1 0 0
vn 0 0 1
vn -1 0 0
vn 0 1 0
vn 0 -1 0
usemtl m_cfe1bfcb-ddb6-65cd-39e4-8278d1f99183
f 28/76/19 31/75/19 29/74/19 26/73/19
f 27/80/20 28/79/20 26/78/20 25/77/20
f 32/84/21 27/83/21 25/82/21 30/81/21
f 31/88/22 32/87/22 30/86/22 29/85/22
f 30/92/23 25/91/23 26/90/23 29/89/23
f 31/96/24 28/95/24 27/94/24 32/93/24
o moss_patch
v 0.5352950365531761 0.25 0.5265967177431721
v 0.5092000801231639 0.25 0.3409214548541276
v 0.5352950365531761 0.20625 0.5265967177431721
v 0.5092000801231639 0.20625 0.3409214548541276
v 0.3235248172341194 0.25 0.36701641128413987
v 0.34961977366413166 0.25 0.5526916741731843
v 0.3235248172341194 0.20625 0.36701641128413987
v 0.34961977366413166 0.20625 0.5526916741731843
vt 0 1
vt 0.1875 1
vt 0.1875 0.95625
vt 0 0.95625
vt 0 1
vt 0.1875 1
vt 0.1875 0.95625
vt 0 0.95625
vt 0 1
vt 0.1875 1
vt 0.1875 0.95625
vt 0 0.95625
vt 0 1
vt 0.1875 1
vt 0.1875 0.95625
vt 0 0.95625
vt 0 1
vt 0.1875 1
vt 0.1875 0.8125
vt 0 0.8125
vt 0 1
vt 0.1875 1
vt 0.1875 0.8125
vt 0 0.8125
vn -0.13917310096006544 0 -0.9902680687415704
vn 0.9902680687415704 0 -0.13917310096006544
vn 0.13917310096006544 0 0.9902680687415704
vn -0.9902680687415704 0 0.13917310096006544
vn 0 1 0
vn 0 -1 0
usemtl m_cfe1bfcb-ddb6-65cd-39e4-8278d1f99183
f 36/100/25 39/99/25 37/98/25 34/97/25
f 35/104/26 36/103/26 34/102/26 33/101/26
f 40/108/27 35/107/27 33/106/27 38/105/27
f 39/112/28 40/111/28 38/110/28 37/109/28
f 38/116/29 33/115/29 34/114/29 37/113/29
f 39/120/30 36/119/30 35/118/30 40/117/30
o post
v 0.31875 0.703125 0.5
v 0.31875 0.109375 0.5
v 0.365625 0.703125 0.5
v 0.365625 0.109375 0.5
v 0.3518956303681194 0.703125 0.5331456303681195
v 0.3518956303681194 0.109375 0.5331456303681195
v 0.31875 0.703125 0.546875
v 0.31875 0.109375 0.546875
v 0.2856043696318806 0.703125 0.5331456303681195
v 0.2856043696318806 0.109375 0.5331456303681195
v 0.271875 0.703125 0.5
v 0.271875 0.109375 0.5
v 0.2856043696318806 0.703125 0.4668543696318806
v 0.2856043696318806 0.109375 0.4668543696318806
v 0.31875 0.703125 0.453125
v 0.31875 0.109375 0.453125
v 0.3518956303681194 0.703125 0.4668543696318806
v 0.3518956303681194 0.109375 0.4668543696318806
vt 0 1
vt 0 1
vt 0 1
vt 0 1
vt 0 1
vt 0 1
vt 0 1
vt 0 1
vt 0 1
vt 0 1
vt 0 1
vt 0 1
vt 0 1
vt 0 1
vt 0 1
vt 0 1
vt 0 1
vt 0 1
vt 0 1
vt 0 1
vt 0 1
vt 0 1
vt 0 1
vt 0 1
vt 0 1
vt 0 1
vt 0 1
vt 0 1
vt 0 1
vt 0 1
vt 0 1
vt 0 1
vt 0 1
vt 0 1
vt 0 1
vt 0 1
vt 0 1
vt 0 1
vt 0 1
vt 0 1
vt 0 1
vt 0 1
vt 0 1
vt 0 1
vt 0 1
vt 0 1
vt 0 1
vt 0 1
vt 0 1
vt 0 1
vt 0 1
vt 0 1
vt 0 1
vt 0 1
vt 0 1
vt 0 1
vt 0 1
vt 0 1
vt 0 1
vt 0 1
vt 0 1
vt 0 1
vt 0 1
vt 0 1
vt 0 1
vt 0 1
vt 0 1
vt 0 1
vt 0 1
vt 0 1
vt 0 1
vt 0 1
vt 0 1
vt 0 1
vt 0 1
vt 0 1
vt 0 1
vt 0 1
vt 0 1
vt 0 1
vn -0.923879532511287 0 -0.3826834323650897
vn 0 -1 0
vn 0 1 0
vn -0.38268343236508984 0 -0.9238795325112867
vn 0 -1 0
vn 0 1 0
vn 0.3826834323650897 0 -0.923879532511287
vn 0 -1 0
vn 0 1 0
vn 0.9238795325112867 0 -0.3826834323650899
vn 0 -1 0
vn 0 1 0
vn 0.9238795325112868 0 0.3826834323650896
vn 0 -1 0
vn 0 1 0
vn 0.3826834323650899 0 0.9238795325112867
vn 0 -1 0
vn 0 1 0
vn -0.3826834323650897 0 0.923879532511287
vn 0 -1 0
vn 0 1 0
vn -0.9238795325112867 0 0.38268343236509
vn 0 -1 0
vn 0 1 0
usemtl none
f 44/121/31 46/122/31 45/123/31 43/124/31
f 43/125/32 45/126/32 41/127/32
f 46/128/33 44/129/33 42/130/33
f 46/131/34 48/132/34 47/133/34 45/134/34
f 45/135/35 47/136/35 41/137/35
f 48/138/36 46/139/36 42/140/36
f 48/141/37 50/142/37 49/143/37 47/144/37
f 47/145/38 49/146/38 41/147/38
f 50/148/39 48/149/39 42/150/39
f 50/151/40 52/152/40 51/153/40 49/154/40
f 49/155/41 51/156/41 41/157/41
f 52/158/42 50/159/42 42/160/42
f 52/161/43 54/162/43 53/163/43 51/164/43
f 51/165/44 53/166/44 41/167/44
f 54/168/45 52/169/45 42/170/45
f 54/171/46 56/172/46 55/173/46 53/174/46
f 53/175/47 55/176/47 41/177/47
f 56/178/48 54/179/48 42/180/48
f 56/181/49 58/182/49 57/183/49 55/184/49
f 55/185/50 57/186/50 41/187/50
f 58/188/51 56/189/51 42/190/51
f 58/191/52 44/192/52 43/193/52 57/194/52
f 57/195/53 43/196/53 41/197/53
f 44/198/54 58/199/54 42/200/54
o post_node
v 0.31875 0.5625 0.5
v 0.31875 0.5 0.5
v 0.375 0.5625 0.5
v 0.375 0.5 0.5
v 0.3585247564417433 0.5625 0.5397747564417433
v 0.3585247564417433 0.5 0.5397747564417433
v 0.31875 0.5625 0.55625
v 0.31875 0.5 0.55625
v 0.2789752435582567 0.5625 0.5397747564417433
v 0.2789752435582567 0.5 0.5397747564417433
v 0.26249999999999996 0.5625 0.5
v 0.26249999999999996 0.5 0.5
v 0.27897524355825665 0.5625 0.4602252435582567
v 0.27897524355825665 0.5 0.4602252435582567
v 0.31875 0.5625 0.44375
v 0.31875 0.5 0.44375
v 0.35852475644174325 0.5625 0.46022524355825667
v 0.35852475644174325 0.5 0.46022524355825667
vt 0 1
vt 0 1
vt 0 1
vt 0 1
vt 0 1
vt 0 1
vt 0 1
vt 0 1
vt 0 1
vt 0 1
vt 0 1
vt 0 1
vt 0 1
vt 0 1
vt 0 1
vt 0 1
vt 0 1
vt 0 1
vt 0 1
vt 0 1
vt 0 1
vt 0 1
vt 0 1
vt 0 1
vt 0 1
vt 0 1
vt 0 1
vt 0 1
vt 0 1
vt 0 1
vt 0 1
vt 0 1
vt 0 1
vt 0 1
vt 0 1
vt 0 1
vt 0 1
vt 0 1
vt 0 1
vt 0 1
vt 0 1
vt 0 1
vt 0 1
vt 0 1
vt 0 1
vt 0 1
vt 0 1
vt 0 1
vt 0 1
vt 0 1
vt 0 1
vt 0 1
vt 0 1
vt 0 1
vt 0 1
vt 0 1
vt 0 1
vt 0 1
vt 0 1
vt 0 1
vt 0 1
vt 0 1
vt 0 1
vt 0 1
vt 0 1
vt 0 1
vt 0 1
vt 0 1
vt 0 1
vt 0 1
vt 0 1
vt 0 1
vt 0 1
vt 0 1
vt 0 1
vt 0 1
vt 0 1
vt 0 1
vt 0 1
vt 0 1
vn -0.9238795325112867 0 -0.3826834323650897
vn 0 -1 0
vn 0 1 0
vn -0.38268343236508984 0 -0.9238795325112868
vn 0 -1 0
vn 0 1 0
vn 0.3826834323650897 0 -0.9238795325112867
vn 0 -1 0
vn 0 1 0
vn 0.9238795325112868 0 -0.38268343236508995
vn 0 -1 0
vn 0 1 0
vn 0.9238795325112868 0 0.3826834323650895
vn 0 -1 0
vn 0 1 0
vn 0.38268343236508984 0 0.9238795325112868
vn 0 -1 0
vn 0 1 0
vn -0.38268343236508967 0 0.923879532511287
vn 0 -1 0
vn 0 1 0
vn -0.9238795325112868 0 0.38268343236508995
vn 0 -1 0
vn 0 1 0
usemtl none
f 62/201/55 64/202/55 63/203/55 61/204/55
f 61/205/56 63/206/56 59/207/56
f 64/208/57 62/209/57 60/210/57
f 64/211/58 66/212/58 65/213/58 63/214/58
f 63/215/59 65/216/59 59/217/59
f 66/218/60 64/219/60 60/220/60
f 66/221/61 68/222/61 67/223/61 65/224/61
f 65/225/62 67/226/62 59/227/62
f 68/228/63 66/229/63 60/230/63
f 68/231/64 70/232/64 69/233/64 67/234/64
f 67/235/65 69/236/65 59/237/65
f 70/238/66 68/239/66 60/240/66
f 70/241/67 72/242/67 71/243/67 69/244/67
f 69/245/68 71/246/68 59/247/68
f 72/248/69 70/249/69 60/250/69
f 72/251/70 74/252/70 73/253/70 71/254/70
f 71/255/71 73/256/71 59/257/71
f 74/258/72 72/259/72 60/260/72
f 74/261/73 76/262/73 75/263/73 73/264/73
f 73/265/74 75/266/74 59/267/74
f 76/268/75 74/269/75 60/270/75
f 76/271/76 62/272/76 61/273/76 75/274/76
f 75/275/77 61/276/77 59/277/77
f 62/278/78 76/279/78 60/280/78