# Made in Blockbench 5.1.5
mtllib materials.mtl

o tube_bottom
v 0.5 0.375 0.5
v 0.5 0.125 0.5
v 0.65625 0.375 0.5
v 0.65625 0.125 0.5
v 0.6353164693413186 0.375 0.578125
v 0.6353164693413186 0.125 0.578125
v 0.578125 0.375 0.6353164693413185
v 0.578125 0.125 0.6353164693413185
v 0.5 0.375 0.65625
v 0.5 0.125 0.65625
v 0.421875 0.375 0.6353164693413186
v 0.421875 0.125 0.6353164693413186
v 0.3646835306586814 0.375 0.578125
v 0.3646835306586814 0.125 0.578125
v 0.34375 0.375 0.5
v 0.34375 0.125 0.5
v 0.3646835306586815 0.375 0.421875
v 0.3646835306586815 0.125 0.421875
v 0.42187499999999994 0.375 0.36468353065868153
v 0.42187499999999994 0.125 0.36468353065868153
v 0.49999999999999994 0.375 0.34375
v 0.49999999999999994 0.125 0.34375
v 0.578125 0.375 0.3646835306586815
v 0.578125 0.125 0.3646835306586815
v 0.6353164693413185 0.375 0.42187499999999994
v 0.6353164693413185 0.125 0.42187499999999994
vt 0 1
vt 0 1
vt 0 1
vt 0 1
vt 0 1
vt 0 1
vt 0 1
vt 0 1
vt 0 1
vt 0 1
vt 0 1
vt 0 1
vt 0 1
vt 0 1
vt 0 1
vt 0 1
vt 0 1
vt 0 1
vt 0 1
vt 0 1
vt 0 1
vt 0 1
vt 0 1
vt 0 1
vt 0 1
vt 0 1
vt 0 1
vt 0 1
vt 0 1
vt 0 1
vt 0 1
vt 0 1
vt 0 1
vt 0 1
vt 0 1
vt 0 1
vt 0 1
vt 0 1
vt 0 1
vt 0 1
vt 0 1
vt 0 1
vt 0 1
vt 0 1
vt 0 1
vt 0 1
vt 0 1
vt 0 1
vt 0 1
vt 0 1
vt 0 1
vt 0 1
vt 0 1
vt 0 1
vt 0 1
vt 0 1
vt 0 1
vt 0 1
vt 0 1
vt 0 1
vt 0 1
vt 0 1
vt 0 1
vt 0 1
vt 0 1
vt 0 1
vt 0 1
vt 0 1
vt 0 1
vt 0 1
vt 0 1
vt 0 1
vt 0 1
vt 0 1
vt 0 1
vt 0 1
vt 0 1
vt 0 1
vt 0 1
vt 0 1
vt 0 1
vt 0 1
vt 0 1
vt 0 1
vt 0 1
vt 0 1
vt 0 1
vt 0 1
vt 0 1
vt 0 1
vt 0 1
vt 0 1
vt 0 1
vt 0 1
vt 0 1
vt 0 1
vt 0 1
vt 0 1
vt 0 1
vt 0 1
vt 0 1
vt 0 1
vt 0 1
vt 0 1
vt 0 1
vt 0 1
vt 0 1
vt 0 1
vt 0 1
vt 0 1
vt 0 1
vt 0 1
vt 0 1
vt 0 1
vt 0 1
vt 0 1
vt 0 1
vt 0 1
vt 0 1
vt 0 1
vn -0.9659258262890683 0 -0.2588190451025207
vn 0 -1 0
vn 0 1 0
vn -0.7071067811865476 0 -0.7071067811865476
vn 0 -1 0
vn 0 1 0
vn -0.2588190451025209 0 -0.9659258262890682
vn 0 -1 0
vn 0 1 0
vn 0.2588190451025207 0 -0.9659258262890683
vn 0 -1 0
vn 0 1 0
vn 0.7071067811865475 0 -0.7071067811865476
vn 0 -1 0
vn 0 1 0
vn 0.9659258262890683 0 -0.25881904510252074
vn 0 -1 0
vn 0 1 0
vn 0.9659258262890684 0 0.2588190451025209
vn 0 -1 0
vn 0 1 0
vn 0.7071067811865477 0 0.7071067811865474
vn 0 -1 0
vn 0 1 0
vn 0.25881904510252113 0 0.9659258262890683
vn 0 -1 0
vn 0 1 0
vn -0.25881904510252085 0 0.9659258262890684
vn 0 -1 0
vn 0 1 0
vn -0.7071067811865474 0 0.7071067811865477
vn 0 -1 0
vn 0 1 0
vn -0.9659258262890682 0 0.258819045102521
vn 0 -1 0
vn 0 1 0
usemtl none
f 4/1/1 6/2/1 5/3/1 3/4/1
f 3/5/2 5/6/2 1/7/2
f 6/8/3 4/9/3 2/10/3
f 6/11/4 8/12/4 7/13/4 5/14/4
f 5/15/5 7/16/5 1/17/5
f 8/18/6 6/19/6 2/20/6
f 8/21/7 10/22/7 9/23/7 7/24/7
f 7/25/8 9/26/8 1/27/8
f 10/28/9 8/29/9 2/30/9
f 10/31/10 12/32/10 11/33/10 9/34/10
f 9/35/11 11/36/11 1/37/11
f 12/38/12 10/39/12 2/40/12
f 12/41/13 14/42/13 13/43/13 11/44/13
f 11/45/14 13/46/14 1/47/14
f 14/48/15 12/49/15 2/50/15
f 14/51/16 16/52/16 15/53/16 13/54/16
f 13/55/17 15/56/17 1/57/17
f 16/58/18 14/59/18 2/60/18
f 16/61/19 18/62/19 17/63/19 15/64/19
f 15/65/20 17/66/20 1/67/20
f 18/68/21 16/69/21 2/70/21
f 18/71/22 20/72/22 19/73/22 17/74/22
f 17/75/23 19/76/23 1/77/23
f 20/78/24 18/79/24 2/80/24
f 20/81/25 22/82/25 21/83/25 19/84/25
f 19/85/26 21/86/26 1/87/26
f 22/88/27 20/89/27 2/90/27
f 22/91/28 24/92/28 23/93/28 21/94/28
f 21/95/29 23/96/29 1/97/29
f 24/98/30 22/99/30 2/100/30
f 24/101/31 26/102/31 25/103/31 23/104/31
f 23/105/32 25/106/32 1/107/32
f 26/108/33 24/109/33 2/110/33
f 26/111/34 4/112/34 3/113/34 25/114/34
f 25/115/35 3/116/35 1/117/35
f 4/118/36 26/119/36 2/120/36
o tube_mid
v 0.5 0.625 0.5
v 0.5 0.375 0.5
v 0.646875 0.625 0.5
v 0.646875 0.375 0.5
v 0.6271974811808394 0.625 0.5734375
v 0.6271974811808394 0.375 0.5734375
v 0.5734375 0.625 0.6271974811808394
v 0.5734375 0.375 0.6271974811808394
v 0.5 0.625 0.646875
v 0.5 0.375 0.646875
v 0.4265625 0.625 0.6271974811808394
v 0.4265625 0.375 0.6271974811808394
v 0.3728025188191606 0.625 0.5734375
v 0.3728025188191606 0.375 0.5734375
v 0.353125 0.625 0.5
v 0.353125 0.375 0.5
v 0.3728025188191606 0.625 0.42656249999999996
v 0.3728025188191606 0.375 0.42656249999999996
v 0.42656249999999996 0.625 0.3728025188191606
v 0.42656249999999996 0.375 0.3728025188191606
v 0.5 0.625 0.353125
v 0.5 0.375 0.353125
v 0.5734375 0.625 0.3728025188191606
v 0.5734375 0.375 0.3728025188191606
v 0.6271974811808394 0.625 0.42656249999999996
v 0.6271974811808394 0.375 0.42656249999999996
vt 0 1
vt 0 1
vt 0 1
vt 0 1
vt 0 1
vt 0 1
vt 0 1
vt 0 1
vt 0 1
vt 0 1
vt 0 1
vt 0 1
vt 0 1
vt 0 1
vt 0 1
vt 0 1
vt 0 1
vt 0 1
vt 0 1
vt 0 1
vt 0 1
vt 0 1
vt 0 1
vt 0 1
vt 0 1
vt 0 1
vt 0 1
vt 0 1
vt 0 1
vt 0 1
vt 0 1
vt 0 1
vt 0 1
vt 0 1
vt 0 1
vt 0 1
vt 0 1
vt 0 1
vt 0 1
vt 0 1
vt 0 1
vt 0 1
vt 0 1
vt 0 1
vt 0 1
vt 0 1
vt 0 1
vt 0 1
vt 0 1
vt 0 1
vt 0 1
vt 0 1
vt 0 1
vt 0 1
vt 0 1
vt 0 1
vt 0 1
vt 0 1
vt 0 1
vt 0 1
vt 0 1
vt 0 1
vt 0 1
vt 0 1
vt 0 1
vt 0 1
vt 0 1
vt 0 1
vt 0 1
vt 0 1
vt 0 1
vt 0 1
vt 0 1
vt 0 1
vt 0 1
vt 0 1
vt 0 1
vt 0 1
vt 0 1
vt 0 1
vt 0 1
vt 0 1
vt 0 1
vt 0 1
vt 0 1
vt 0 1
vt 0 1
vt 0 1
vt 0 1
vt 0 1
vt 0 1
vt 0 1
vt 0 1
vt 0 1
vt 0 1
vt 0 1
vt 0 1
vt 0 1
vt 0 1
vt 0 1
vt 0 1
vt 0 1
vt 0 1
vt 0 1
vt 0 1
vt 0 1
vt 0 1
vt 0 1
vt 0 1
vt 0 1
vt 0 1
vt 0 1
vt 0 1
vt 0 1
vt 0 1
vt 0 1
vt 0 1
vt 0 1
vt 0 1
vt 0 1
vn -0.9659258262890684 0 -0.2588190451025209
vn 0 -1 0
vn 0 1 0
vn -0.7071067811865478 0 -0.7071067811865474
vn 0 -1 0
vn 0 1 0
vn -0.25881904510252085 0 -0.9659258262890684
vn 0 -1 0
vn 0 1 0
vn 0.2588190451025209 0 -0.9659258262890684
vn 0 -1 0
vn 0 1 0
vn 0.7071067811865475 0 -0.7071067811865477
vn 0 -1 0
vn 0 1 0
vn 0.9659258262890682 0 -0.2588190451025209
vn 0 -1 0
vn 0 1 0
vn 0.9659258262890684 0 0.25881904510252074
vn 0 -1 0
vn 0 1 0
vn 0.7071067811865478 0 0.7071067811865475
vn 0 -1 0
vn 0 1 0
vn 0.258819045102521 0 0.9659258262890682
vn 0 -1 0
vn 0 1 0
vn -0.2588190451025207 0 0.9659258262890684
vn 0 -1 0
vn 0 1 0
vn -0.7071067811865475 0 0.7071067811865478
vn 0 -1 0
vn 0 1 0
vn -0.9659258262890683 0 0.2588190451025209
vn 0 -1 0
vn 0 1 0
usemtl none
f 30/121/37 32/122/37 31/123/37 29/124/37
f 29/125/38 31/126/38 27/127/38
f 32/128/39 30/129/39 28/130/39
f 32/131/40 34/132/40 33/133/40 31/134/40
f 31/135/41 33/136/41 27/137/41
f 34/138/42 32/139/42 28/140/42
f 34/141/43 36/142/43 35/143/43 33/144/43
f 33/145/44 35/146/44 27/147/44
f 36/148/45 34/149/45 28/150/45
f 36/151/46 38/152/46 37/153/46 35/154/46
f 35/155/47 37/156/47 27/157/47
f 38/158/48 36/159/48 28/160/48
f 38/161/49 40/162/49 39/163/49 37/164/49
f 37/165/50 39/166/50 27/167/50
f 40/168/51 38/169/51 28/170/51
f 40/171/52 42/172/52 41/173/52 39/174/52
f 39/175/53 41/176/53 27/177/53
f 42/178/54 40/179/54 28/180/54
f 42/181/55 44/182/55 43/183/55 41/184/55
f 41/185/56 43/186/56 27/187/56
f 44/188/57 42/189/57 28/190/57
f 44/191/58 46/192/58 45/193/58 43/194/58
f 43/195/59 45/196/59 27/197/59
f 46/198/60 44/199/60 28/200/60
f 46/201/61 48/202/61 47/203/61 45/204/61
f 45/205/62 47/206/62 27/207/62
f 48/208/63 46/209/63 28/210/63
f 48/211/64 50/212/64 49/213/64 47/214/64
f 47/215/65 49/216/65 27/217/65
f 50/218/66 48/219/66 28/220/66
f 50/221/67 52/222/67 51/223/67 49/224/67
f 49/225/68 51/226/68 27/227/68
f 52/228/69 50/229/69 28/230/69
f 52/231/70 30/232/70 29/233/70 51/234/70
f 51/235/71 29/236/71 27/237/71
f 30/238/72 52/239/72 28/240/72
o tube_top
v 0.5 0.88125 0.5
v 0.5 0.61875 0.5
v 0.646875 0.88125 0.5
v 0.646875 0.61875 0.5
v 0.6271974811808394 0.88125 0.5734375
v 0.6271974811808394 0.61875 0.5734375
v 0.5734375 0.88125 0.6271974811808394
v 0.5734375 0.61875 0.6271974811808394
v 0.5 0.88125 0.646875
v 0.5 0.61875 0.646875
v 0.4265625 0.88125 0.6271974811808394
v 0.4265625 0.61875 0.6271974811808394
v 0.3728025188191606 0.88125 0.5734375
v 0.3728025188191606 0.61875 0.5734375
v 0.353125 0.88125 0.5
v 0.353125 0.61875 0.5
v 0.3728025188191606 0.88125 0.42656249999999996
v 0.3728025188191606 0.61875 0.42656249999999996
v 0.42656249999999996 0.88125 0.3728025188191606
v 0.42656249999999996 0.61875 0.3728025188191606
v 0.5 0.88125 0.353125
v 0.5 0.61875 0.353125
v 0.5734375 0.88125 0.3728025188191606
v 0.5734375 0.61875 0.3728025188191606
v 0.6271974811808394 0.88125 0.42656249999999996
v 0.6271974811808394 0.61875 0.42656249999999996
vt 0 1
vt 0 1
vt 0 1
vt 0 1
vt 0 1
vt 0 1
vt 0 1
vt 0 1
vt 0 1
vt 0 1
vt 0 1
vt 0 1
vt 0 1
vt 0 1
vt 0 1
vt 0 1
vt 0 1
vt 0 1
vt 0 1
vt 0 1
vt 0 1
vt 0 1
vt 0 1
vt 0 1
vt 0 1
vt 0 1
vt 0 1
vt 0 1
vt 0 1
vt 0 1
vt 0 1
vt 0 1
vt 0 1
vt 0 1
vt 0 1
vt 0 1
vt 0 1
vt 0 1
vt 0 1
vt 0 1
vt 0 1
vt 0 1
vt 0 1
vt 0 1
vt 0 1
vt 0 1
vt 0 1
vt 0 1
vt 0 1
vt 0 1
vt 0 1
vt 0 1
vt 0 1
vt 0 1
vt 0 1
vt 0 1
vt 0 1
vt 0 1
vt 0 1
vt 0 1
vt 0 1
vt 0 1
vt 0 1
vt 0 1
vt 0 1
vt 0 1
vt 0 1
vt 0 1
vt 0 1
vt 0 1
vt 0 1
vt 0 1
vt 0 1
vt 0 1
vt 0 1
vt 0 1
vt 0 1
vt 0 1
vt 0 1
vt 0 1
vt 0 1
vt 0 1
vt 0 1
vt 0 1
vt 0 1
vt 0 1
vt 0 1
vt 0 1
vt 0 1
vt 0 1
vt 0 1
vt 0 1
vt 0 1
vt 0 1
vt 0 1
vt 0 1
vt 0 1
vt 0 1
vt 0 1
vt 0 1
vt 0 1
vt 0 1
vt 0 1
vt 0 1
vt 0 1
vt 0 1
vt 0 1
vt 0 1
vt 0 1
vt 0 1
vt 0 1
vt 0 1
vt 0 1
vt 0 1
vt 0 1
vt 0 1
vt 0 1
vt 0 1
vt 0 1
vt 0 1
vn -0.9659258262890684 0 -0.25881904510252085
vn 0 -1 0
vn 0 1 0
vn -0.7071067811865477 0 -0.7071067811865474
vn 0 -1 0
vn 0 1 0
vn -0.25881904510252085 0 -0.9659258262890684
vn 0 -1 0
vn 0 1 0
vn 0.25881904510252085 0 -0.9659258262890684
vn 0 -1 0
vn 0 1 0
vn 0.7071067811865475 0 -0.7071067811865477
vn 0 -1 0
vn 0 1 0
vn 0.9659258262890684 0 -0.2588190451025209
vn 0 -1 0
vn 0 1 0
vn 0.9659258262890684 0 0.25881904510252074
vn 0 -1 0
vn 0 1 0
vn 0.7071067811865477 0 0.7071067811865474
vn 0 -1 0
vn 0 1 0
vn 0.258819045102521 0 0.9659258262890682
vn 0 -1 0
vn 0 1 0
vn -0.2588190451025207 0 0.9659258262890684
vn 0 -1 0
vn 0 1 0
vn -0.7071067811865474 0 0.7071067811865477
vn 0 -1 0
vn 0 1 0
vn -0.9659258262890682 0 0.25881904510252096
vn 0 -1 0
vn 0 1 0
usemtl none
f 56/241/73 58/242/73 57/243/73 55/244/73
f 55/245/74 57/246/74 53/247/74
f 58/248/75 56/249/75 54/250/75
f 58/251/76 60/252/76 59/253/76 57/254/76
f 57/255/77 59/256/77 53/257/77
f 60/258/78 58/259/78 54/260/78
f 60/261/79 62/262/79 61/263/79 59/264/79
f 59/265/80 61/266/80 53/267/80
f 62/268/81 60/269/81 54/270/81
f 62/271/82 64/272/82 63/273/82 61/274/82
f 61/275/83 63/276/83 53/277/83
f 64/278/84 62/279/84 54/280/84
f 64/281/85 66/282/85 65/283/85 63/284/85
f 63/285/86 65/286/86 53/287/86
f 66/288/87 64/289/87 54/290/87
f 66/291/88 68/292/88 67/293/88 65/294/88
f 65/295/89 67/296/89 53/297/89
f 68/298/90 66/299/90 54/300/90
f 68/301/91 70/302/91 69/303/91 67/304/91
f 67/305/92 69/306/92 53/307/92
f 70/308/93 68/309/93 54/310/93
f 70/311/94 72/312/94 71/313/94 69/314/94
f 69/315/95 71/316/95 53/317/95
f 72/318/96 70/319/96 54/320/96
f 72/321/97 74/322/97 73/323/97 71/324/97
f 71/325/98 73/326/98 53/327/98
f 74/328/99 72/329/99 54/330/99
f 74/331/100 76/332/100 75/333/100 73/334/100
f 73/335/101 75/336/101 53/337/101
f 76/338/102 74/339/102 54/340/102
f 76/341/103 78/342/103 77/343/103 75/344/103
f 75/345/104 77/346/104 53/347/104
f 78/348/105 76/349/105 54/350/105
f 78/351/106 56/352/106 55/353/106 77/354/106
f 77/355/107 55/356/107 53/357/107
f 56/358/108 78/359/108 54/360/108
o ring_low
v 0.5 0.40625 0.5
v 0.5 0.34375 0.5
v 0.675 0.40625 0.5
v 0.675 0.34375 0.5
v 0.6515544456622768 0.40625 0.5875
v 0.6515544456622768 0.34375 0.5875
v 0.5875 0.40625 0.6515544456622767
v 0.5875 0.34375 0.6515544456622767
v 0.5 0.40625 0.675
v 0.5 0.34375 0.675
v 0.41250000000000003 0.40625 0.6515544456622768
v 0.41250000000000003 0.34375 0.6515544456622768
v 0.34844555433772323 0.40625 0.5875
v 0.34844555433772323 0.34375 0.5875
v 0.325 0.40625 0.5
v 0.325 0.34375 0.5
v 0.3484455543377233 0.40625 0.4125
v 0.3484455543377233 0.34375 0.4125
v 0.4124999999999999 0.40625 0.3484455543377233
v 0.4124999999999999 0.34375 0.3484455543377233
v 0.49999999999999994 0.40625 0.325
v 0.49999999999999994 0.34375 0.325
v 0.5875 0.40625 0.3484455543377233
v 0.5875 0.34375 0.3484455543377233
v 0.6515544456622767 0.40625 0.4124999999999999
v 0.6515544456622767 0.34375 0.4124999999999999
vt 0 1
vt 0 1
vt 0 1
vt 0 1
vt 0 1
vt 0 1
vt 0 1
vt 0 1
vt 0 1
vt 0 1
vt 0 1
vt 0 1
vt 0 1
vt 0 1
vt 0 1
vt 0 1
vt 0 1
vt 0 1
vt 0 1
vt 0 1
vt 0 1
vt 0 1
vt 0 1
vt 0 1
vt 0 1
vt 0 1
vt 0 1
vt 0 1
vt 0 1
vt 0 1
vt 0 1
vt 0 1
vt 0 1
vt 0 1
vt 0 1
vt 0 1
vt 0 1
vt 0 1
vt 0 1
vt 0 1
vt 0 1
vt 0 1
vt 0 1
vt 0 1
vt 0 1
vt 0 1
vt 0 1
vt 0 1
vt 0 1
vt 0 1
vt 0 1
vt 0 1
vt 0 1
vt 0 1
vt 0 1
vt 0 1
vt 0 1
vt 0 1
vt 0 1
vt 0 1
vt 0 1
vt 0 1
vt 0 1
vt 0 1
vt 0 1
vt 0 1
vt 0 1
vt 0 1
vt 0 1
vt 0 1
vt 0 1
vt 0 1
vt 0 1
vt 0 1
vt 0 1
vt 0 1
vt 0 1
vt 0 1
vt 0 1
vt 0 1
vt 0 1
vt 0 1
vt 0 1
vt 0 1
vt 0 1
vt 0 1
vt 0 1
vt 0 1
vt 0 1
vt 0 1
vt 0 1
vt 0 1
vt 0 1
vt 0 1
vt 0 1
vt 0 1
vt 0 1
vt 0 1
vt 0 1
vt 0 1
vt 0 1
vt 0 1
vt 0 1
vt 0 1
vt 0 1
vt 0 1
vt 0 1
vt 0 1
vt 0 1
vt 0 1
vt 0 1
vt 0 1
vt 0 1
vt 0 1
vt 0 1
vt 0 1
vt 0 1
vt 0 1
vt 0 1
vt 0 1
vn -0.9659258262890683 0 -0.25881904510252063
vn 0 -1 0
vn 0 1 0
vn -0.7071067811865476 0 -0.7071067811865476
vn 0 -1 0
vn 0 1 0
vn -0.2588190451025209 0 -0.9659258262890684
vn 0 -1 0
vn 0 1 0
vn 0.25881904510252063 0 -0.9659258262890683
vn 0 -1 0
vn 0 1 0
vn 0.7071067811865474 0 -0.7071067811865477
vn 0 -1 0
vn 0 1 0
vn 0.9659258262890683 0 -0.2588190451025207
vn 0 -1 0
vn 0 1 0
vn 0.9659258262890683 0 0.25881904510252074
vn 0 -1 0
vn 0 1 0
vn 0.7071067811865478 0 0.7071067811865474
vn 0 -1 0
vn 0 1 0
vn 0.258819045102521 0 0.9659258262890682
vn 0 -1 0
vn 0 1 0
vn -0.25881904510252074 0 0.9659258262890683
vn 0 -1 0
vn 0 1 0
vn -0.7071067811865474 0 0.7071067811865478
vn 0 -1 0
vn 0 1 0
vn -0.9659258262890682 0 0.2588190451025209
vn 0 -1 0
vn 0 1 0
usemtl none
f 82/361/109 84/362/109 83/363/109 81/364/109
f 81/365/110 83/366/110 79/367/110
f 84/368/111 82/369/111 80/370/111
f 84/371/112 86/372/112 85/373/112 83/374/112
f 83/375/113 85/376/113 79/377/113
f 86/378/114 84/379/114 80/380/114
f 86/381/115 88/382/115 87/383/115 85/384/115
f 85/385/116 87/386/116 79/387/116
f 88/388/117 86/389/117 80/390/117
f 88/391/118 90/392/118 89/393/118 87/394/118
f 87/395/119 89/396/119 79/397/119
f 90/398/120 88/399/120 80/400/120
f 90/401/121 92/402/121 91/403/121 89/404/121
f 89/405/122 91/406/122 79/407/122
f 92/408/123 90/409/123 80/410/123
f 92/411/124 94/412/124 93/413/124 91/414/124
f 91/415/125 93/416/125 79/417/125
f 94/418/126 92/419/126 80/420/126
f 94/421/127 96/422/127 95/423/127 93/424/127
f 93/425/128 95/426/128 79/427/128
f 96/428/129 94/429/129 80/430/129
f 96/431/130 98/432/130 97/433/130 95/434/130
f 95/435/131 97/436/131 79/437/131
f 98/438/132 96/439/132 80/440/132
f 98/441/133 100/442/133 99/443/133 97/444/133
f 97/445/134 99/446/134 79/447/134
f 100/448/135 98/449/135 80/450/135
f 100/451/136 102/452/136 101/453/136 99/454/136
f 99/455/137 101/456/137 79/457/137
f 102/458/138 100/459/138 80/460/138
f 102/461/139 104/462/139 103/463/139 101/464/139
f 101/465/140 103/466/140 79/467/140
f 104/468/141 102/469/141 80/470/141
f 104/471/142 82/472/142 81/473/142 103/474/142
f 103/475/143 81/476/143 79/477/143
f 82/478/144 104/479/144 80/480/144
o ring_high
v 0.5 0.65625 0.5
v 0.5 0.59375 0.5
v 0.665625 0.65625 0.5
v 0.665625 0.59375 0.5
v 0.6434354575017976 0.65625 0.5828125
v 0.6434354575017976 0.59375 0.5828125
v 0.5828125 0.65625 0.6434354575017976
v 0.5828125 0.59375 0.6434354575017976
v 0.5 0.65625 0.665625
v 0.5 0.59375 0.665625
v 0.41718750000000004 0.65625 0.6434354575017976
v 0.41718750000000004 0.59375 0.6434354575017976
v 0.35656454249820235 0.65625 0.5828125
v 0.35656454249820235 0.59375 0.5828125
v 0.334375 0.65625 0.5
v 0.334375 0.59375 0.5
v 0.35656454249820235 0.65625 0.4171875
v 0.35656454249820235 0.59375 0.4171875
v 0.41718749999999993 0.65625 0.3565645424982024
v 0.41718749999999993 0.59375 0.3565645424982024
v 0.49999999999999994 0.65625 0.334375
v 0.49999999999999994 0.59375 0.334375
v 0.5828125 0.65625 0.35656454249820235
v 0.5828125 0.59375 0.35656454249820235
v 0.6434354575017975 0.65625 0.41718749999999993
v 0.6434354575017975 0.59375 0.41718749999999993
vt 0 1
vt 0 1
vt 0 1
vt 0 1
vt 0 1
vt 0 1
vt 0 1
vt 0 1
vt 0 1
vt 0 1
vt 0 1
vt 0 1
vt 0 1
vt 0 1
vt 0 1
vt 0 1
vt 0 1
vt 0 1
vt 0 1
vt 0 1
vt 0 1
vt 0 1
vt 0 1
vt 0 1
vt 0 1
vt 0 1
vt 0 1
vt 0 1
vt 0 1
vt 0 1
vt 0 1
vt 0 1
vt 0 1
vt 0 1
vt 0 1
vt 0 1
vt 0 1
vt 0 1
vt 0 1
vt 0 1
vt 0 1
vt 0 1
vt 0 1
vt 0 1
vt 0 1
vt 0 1
vt 0 1
vt 0 1
vt 0 1
vt 0 1
vt 0 1
vt 0 1
vt 0 1
vt 0 1
vt 0 1
vt 0 1
vt 0 1
vt 0 1
vt 0 1
vt 0 1
vt 0 1
vt 0 1
vt 0 1
vt 0 1
vt 0 1
vt 0 1
vt 0 1
vt 0 1
vt 0 1
vt 0 1
vt 0 1
vt 0 1
vt 0 1
vt 0 1
vt 0 1
vt 0 1
vt 0 1
vt 0 1
vt 0 1
vt 0 1
vt 0 1
vt 0 1
vt 0 1
vt 0 1
vt 0 1
vt 0 1
vt 0 1
vt 0 1
vt 0 1
vt 0 1
vt 0 1
vt 0 1
vt 0 1
vt 0 1
vt 0 1
vt 0 1
vt 0 1
vt 0 1
vt 0 1
vt 0 1
vt 0 1
vt 0 1
vt 0 1
vt 0 1
vt 0 1
vt 0 1
vt 0 1
vt 0 1
vt 0 1
vt 0 1
vt 0 1
vt 0 1
vt 0 1
vt 0 1
vt 0 1
vt 0 1
vt 0 1
vt 0 1
vt 0 1
vt 0 1
vn -0.9659258262890683 0 -0.2588190451025208
vn 0 -1 0
vn 0 1 0
vn -0.7071067811865477 0 -0.7071067811865475
vn 0 -1 0
vn 0 1 0
vn -0.2588190451025208 0 -0.9659258262890684
vn 0 -1 0
vn 0 1 0
vn 0.25881904510252085 0 -0.9659258262890683
vn 0 -1 0
vn 0 1 0
vn 0.7071067811865474 0 -0.7071067811865477
vn 0 -1 0
vn 0 1 0
vn 0.9659258262890683 0 -0.25881904510252085
vn 0 -1 0
vn 0 1 0
vn 0.9659258262890683 0 0.2588190451025207
vn 0 -1 0
vn 0 1 0
vn 0.7071067811865476 0 0.7071067811865476
vn 0 -1 0
vn 0 1 0
vn 0.25881904510252124 0 0.9659258262890682
vn 0 -1 0
vn 0 1 0
vn -0.25881904510252063 0 0.9659258262890683
vn 0 -1 0
vn 0 1 0
vn -0.7071067811865476 0 0.7071067811865476
vn 0 -1 0
vn 0 1 0
vn -0.9659258262890682 0 0.2588190451025212
vn 0 -1 0
vn 0 1 0
usemtl none
f 108/481/145 110/482/145 109/483/145 107/484/145
f 107/485/146 109/486/146 105/487/146
f 110/488/147 108/489/147 106/490/147
f 110/491/148 112/492/148 111/493/148 109/494/148
f 109/495/149 111/496/149 105/497/149
f 112/498/150 110/499/150 106/500/150
f 112/501/151 114/502/151 113/503/151 111/504/151
f 111/505/152 113/506/152 105/507/152
f 114/508/153 112/509/153 106/510/153
f 114/511/154 116/512/154 115/513/154 113/514/154
f 113/515/155 115/516/155 105/517/155
f 116/518/156 114/519/156 106/520/156
f 116/521/157 118/522/157 117/523/157 115/524/157
f 115/525/158 117/526/158 105/527/158
f 118/528/159 116/529/159 106/530/159
f 118/531/160 120/532/160 119/533/160 117/534/160
f 117/535/161 119/536/161 105/537/161
f 120/538/162 118/539/162 106/540/162
f 120/541/163 122/542/163 121/543/163 119/544/163
f 119/545/164 121/546/164 105/547/164
f 122/548/165 120/549/165 106/550/165
f 122/551/166 124/552/166 123/553/166 121/554/166
f 121/555/167 123/556/167 105/557/167
f 124/558/168 122/559/168 106/560/168
f 124/561/169 126/562/169 125/563/169 123/564/169
f 123/565/170 125/566/170 105/567/170
f 126/568/171 124/569/171 106/570/171
f 126/571/172 128/572/172 127/573/172 125/574/172
f 125/575/173 127/576/173 105/577/173
f 128/578/174 126/579/174 106/580/174
f 128/581/175 130/582/175 129/583/175 127/584/175
f 127/585/176 129/586/176 105/587/176
f 130/588/177 128/589/177 106/590/177
f 130/591/178 108/592/178 107/593/178 129/594/178
f 129/595/179 107/596/179 105/597/179
f 108/598/180 130/599/180 106/600/180
o rim_mouth
v 0.5 0.18125 0.5
v 0.5 0.11875 0.5
v 0.684375 0.18125 0.5
v 0.684375 0.11875 0.5
v 0.6596734338227559 0.18125 0.5921875
v 0.6596734338227559 0.11875 0.5921875
v 0.5921875 0.18125 0.6596734338227559
v 0.5921875 0.11875 0.6596734338227559
v 0.5 0.18125 0.684375
v 0.5 0.11875 0.684375
v 0.4078125 0.18125 0.6596734338227559
v 0.4078125 0.11875 0.6596734338227559
v 0.3403265661772441 0.18125 0.5921875
v 0.3403265661772441 0.11875 0.5921875
v 0.315625 0.18125 0.5
v 0.315625 0.11875 0.5
v 0.3403265661772441 0.18125 0.40781249999999997
v 0.3403265661772441 0.11875 0.40781249999999997
v 0.4078124999999999 0.18125 0.34032656617724416
v 0.4078124999999999 0.11875 0.34032656617724416
v 0.49999999999999994 0.18125 0.315625
v 0.49999999999999994 0.11875 0.315625
v 0.5921875 0.18125 0.3403265661772441
v 0.5921875 0.11875 0.3403265661772441
v 0.6596734338227559 0.18125 0.4078124999999999
v 0.6596734338227559 0.11875 0.4078124999999999
vt 0 1
vt 0 1
vt 0 1
vt 0 1
vt 0 1
vt 0 1
vt 0 1
vt 0 1
vt 0 1
vt 0 1
vt 0 1
vt 0 1
vt 0 1
vt 0 1
vt 0 1
vt 0 1
vt 0 1
vt 0 1
vt 0 1
vt 0 1
vt 0 1
vt 0 1
vt 0 1
vt 0 1
vt 0 1
vt 0 1
vt 0 1
vt 0 1
vt 0 1
vt 0 1
vt 0 1
vt 0 1
vt 0 1
vt 0 1
vt 0 1
vt 0 1
vt 0 1
vt 0 1
vt 0 1
vt 0 1
vt 0 1
vt 0 1
vt 0 1
vt 0 1
vt 0 1
vt 0 1
vt 0 1
vt 0 1
vt 0 1
vt 0 1
vt 0 1
vt 0 1
vt 0 1
vt 0 1
vt 0 1
vt 0 1
vt 0 1
vt 0 1
vt 0 1
vt 0 1
vt 0 1
vt 0 1
vt 0 1
vt 0 1
vt 0 1
vt 0 1
vt 0 1
vt 0 1
vt 0 1
vt 0 1
vt 0 1
vt 0 1
vt 0 1
vt 0 1
vt 0 1
vt 0 1
vt 0 1
vt 0 1
vt 0 1
vt 0 1
vt 0 1
vt 0 1
vt 0 1
vt 0 1
vt 0 1
vt 0 1
vt 0 1
vt 0 1
vt 0 1
vt 0 1
vt 0 1
vt 0 1
vt 0 1
vt 0 1
vt 0 1
vt 0 1
vt 0 1
vt 0 1
vt 0 1
vt 0 1
vt 0 1
vt 0 1
vt 0 1
vt 0 1
vt 0 1
vt 0 1
vt 0 1
vt 0 1
vt 0 1
vt 0 1
vt 0 1
vt 0 1
vt 0 1
vt 0 1
vt 0 1
vt 0 1
vt 0 1
vt 0 1
vt 0 1
vt 0 1
vn -0.9659258262890683 0 -0.2588190451025207
vn 0 -1 0
vn 0 1 0
vn -0.7071067811865476 0 -0.7071067811865476
vn 0 -1 0
vn 0 1 0
vn -0.25881904510252096 0 -0.9659258262890683
vn 0 -1 0
vn 0 1 0
vn 0.2588190451025208 0 -0.9659258262890684
vn 0 -1 0
vn 0 1 0
vn 0.7071067811865474 0 -0.7071067811865477
vn 0 -1 0
vn 0 1 0
vn 0.9659258262890683 0 -0.2588190451025208
vn 0 -1 0
vn 0 1 0
vn 0.9659258262890683 0 0.25881904510252085
vn 0 -1 0
vn 0 1 0
vn 0.7071067811865478 0 0.7071067811865474
vn 0 -1 0
vn 0 1 0
vn 0.2588190451025211 0 0.9659258262890682
vn 0 -1 0
vn 0 1 0
vn -0.25881904510252085 0 0.9659258262890683
vn 0 -1 0
vn 0 1 0
vn -0.7071067811865474 0 0.7071067811865478
vn 0 -1 0
vn 0 1 0
vn -0.9659258262890682 0 0.25881904510252096
vn 0 -1 0
vn 0 1 0
usemtl none
f 134/601/181 136/602/181 135/603/181 133/604/181
f 133/605/182 135/606/182 131/607/182
f 136/608/183 134/609/183 132/610/183
f 136/611/184 138/612/184 137/613/184 135/614/184
f 135/615/185 137/616/185 131/617/185
f 138/618/186 136/619/186 132/620/186
f 138/621/187 140/622/187 139/623/187 137/624/187
f 137/625/188 139/626/188 131/627/188
f 140/628/189 138/629/189 132/630/189
f 140/631/190 142/632/190 141/633/190 139/634/190
f 139/635/191 141/636/191 131/637/191
f 142/638/192 140/639/192 132/640/192
f 142/641/193 144/642/193 143/643/193 141/644/193
f 141/645/194 143/646/194 131/647/194
f 144/648/195 142/649/195 132/650/195
f 144/651/196 146/652/196 145/653/196 143/654/196
f 143/655/197 145/656/197 131/657/197
f 146/658/198 144/659/198 132/660/198
f 146/661/199 148/662/199 147/663/199 145/664/199
f 145/665/200 147/666/200 131/667/200
f 148/668/201 146/669/201 132/670/201
f 148/671/202 150/672/202 149/673/202 147/674/202
f 147/675/203 149/676/203 131/677/203
f 150/678/204 148/679/204 132/680/204
f 150/681/205 152/682/205 151/683/205 149/684/205
f 149/685/206 151/686/206 131/687/206
f 152/688/207 150/689/207 132/690/207
f 152/691/208 154/692/208 153/693/208 151/694/208
f 151/695/209 153/696/209 131/697/209
f 154/698/210 152/699/210 132/700/210
f 154/701/211 156/702/211 155/703/211 153/704/211
f 153/705/212 155/706/212 131/707/212
f 156/708/213 154/709/213 132/710/213
f 156/711/214 134/712/214 133/713/214 155/714/214
f 155/715/215 133/716/215 131/717/215
f 134/718/216 156/719/216 132/720/216
o leaf_a
v 0.55 0.8705946755242588 0.6199659702558562
v 0.55 0.8529894919197879 0.5868554355236464
v 0.55 0.7712630713276295 0.6727815210692689
v 0.55 0.7536578877231586 0.6396709863370591
v 0.44999999999999996 0.8529894919197879 0.5868554355236464
v 0.44999999999999996 0.8705946755242588 0.6199659702558562
v 0.44999999999999996 0.7536578877231586 0.6396709863370591
v 0.44999999999999996 0.7712630713276295 0.6727815210692689
vt 0 1
vt 0.10000000000000003 1
vt 0.10000000000000003 0.8875
vt 0 0.8875
vt 0 1
vt 0.03749999999999998 1
vt 0.03749999999999998 0.8875
vt 0 0.8875
vt 0 1
vt 0.10000000000000003 1
vt 0.10000000000000003 0.8875
vt 0 0.8875
vt 0 1
vt 0.03749999999999998 1
vt 0.03749999999999998 0.8875
vt 0 0.8875
vt 0 1
vt 0.10000000000000003 1
vt 0.10000000000000003 0.9625
vt 0 0.9625
vt 0 1
vt 0.10000000000000003 1
vt 0.10000000000000003 0.9625
vt 0 0.9625
vn 0 -0.46947156278589075 -0.882947592858927
vn 1 0 0
vn 0 0.46947156278589075 0.882947592858927
vn -1 0 0
vn 0 0.882947592858927 -0.46947156278589075
vn 0 -0.882947592858927 0.46947156278589075
usemtl m_92b0c0df-3ba9-b052-cd57-06cae8359ba0
f 160/724/217 163/723/217 161/722/217 158/721/217
f 159/728/218 160/727/218 158/726/218 157/725/218
f 164/732/219 159/731/219 157/730/219 162/729/219
f 163/736/220 164/735/220 162/734/220 161/733/220
f 162/740/221 157/739/221 158/738/221 161/737/221
f 163/744/222 160/743/222 159/742/222 164/741/222
o leaf_b
v 0.55 0.8529894919197879 0.4131445644763536
v 0.55 0.8705946755242587 0.3800340297441439
v 0.55 0.7536578877231586 0.3603290136629409
v 0.55 0.7712630713276294 0.3272184789307312
v 0.44999999999999996 0.8705946755242587 0.3800340297441439
v 0.44999999999999996 0.8529894919197879 0.4131445644763536
v 0.44999999999999996 0.7712630713276294 0.3272184789307312
v 0.44999999999999996 0.7536578877231586 0.3603290136629409
vt 0 1
vt 0.10000000000000003 1
vt 0.10000000000000003 0.8875
vt 0 0.8875
vt 0 1
vt 0.03749999999999998 1
vt 0.03749999999999998 0.8875
vt 0 0.8875
vt 0 1
vt 0.10000000000000003 1
vt 0.10000000000000003 0.8875
vt 0 0.8875
vt 0 1
vt 0.03749999999999998 1
vt 0.03749999999999998 0.8875
vt 0 0.8875
vt 0 1
vt 0.10000000000000003 1
vt 0.10000000000000003 0.9625
vt 0 0.9625
vt 0 1
vt 0.10000000000000003 1
vt 0.10000000000000003 0.9625
vt 0 0.9625
vn 0 0.46947156278589075 -0.882947592858927
vn 1 0 0
vn 0 -0.46947156278589075 0.882947592858927
vn -1 0 0
vn 0 0.882947592858927 0.46947156278589075
vn 0 -0.882947592858927 -0.46947156278589075
usemtl m_92b0c0df-3ba9-b052-cd57-06cae8359ba0
f 168/748/223 171/747/223 169/746/223 166/745/223
f 167/752/224 168/751/224 166/750/224 165/749/224
f 172/756/225 167/755/225 165/754/225 170/753/225
f 171/760/226 172/759/226 170/758/226 169/757/226
f 170/764/227 165/763/227 166/762/227 169/761/227
f 171/768/228 168/767/228 167/766/228 172/765/228